<svg xmlns="http://www.w3.org/2000/svg" xmlns:xlink="http://www.w3.org/1999/xlink" width="600" height="400" viewBox="0 0 2400 1600">
<defs>
  <clipPath id="clip140">
    <rect x="0" y="0" width="2400" height="1600"></rect>
  </clipPath>
</defs>
<path clip-path="url(#clip140)" d="M0 1600 L2400 1600 L2400 0 L0 0  Z" fill="#ffffff" fill-rule="evenodd" fill-opacity="1"></path>
<defs>
  <clipPath id="clip141">
    <rect x="480" y="0" width="1681" height="1600"></rect>
  </clipPath>
</defs>
<path clip-path="url(#clip140)" d="M219.542 1423.18 L2352.76 1423.18 L2352.76 183.952 L219.542 183.952  Z" fill="#ffffff" fill-rule="evenodd" fill-opacity="1"></path>
<defs>
  <clipPath id="clip142">
    <rect x="219" y="183" width="2134" height="1240"></rect>
  </clipPath>
</defs>
<polyline clip-path="url(#clip142)" style="stroke:#000000; stroke-linecap:round; stroke-linejoin:round; stroke-width:2; stroke-opacity:0.1; fill:none" points="279.916,1423.18 279.916,183.952 "></polyline>
<polyline clip-path="url(#clip142)" style="stroke:#000000; stroke-linecap:round; stroke-linejoin:round; stroke-width:2; stroke-opacity:0.1; fill:none" points="783.033,1423.18 783.033,183.952 "></polyline>
<polyline clip-path="url(#clip142)" style="stroke:#000000; stroke-linecap:round; stroke-linejoin:round; stroke-width:2; stroke-opacity:0.1; fill:none" points="1286.15,1423.18 1286.15,183.952 "></polyline>
<polyline clip-path="url(#clip142)" style="stroke:#000000; stroke-linecap:round; stroke-linejoin:round; stroke-width:2; stroke-opacity:0.1; fill:none" points="1789.27,1423.18 1789.27,183.952 "></polyline>
<polyline clip-path="url(#clip142)" style="stroke:#000000; stroke-linecap:round; stroke-linejoin:round; stroke-width:2; stroke-opacity:0.1; fill:none" points="2292.38,1423.18 2292.38,183.952 "></polyline>
<polyline clip-path="url(#clip140)" style="stroke:#000000; stroke-linecap:round; stroke-linejoin:round; stroke-width:4; stroke-opacity:1; fill:none" points="219.542,1423.18 2352.76,1423.18 "></polyline>
<polyline clip-path="url(#clip140)" style="stroke:#000000; stroke-linecap:round; stroke-linejoin:round; stroke-width:4; stroke-opacity:1; fill:none" points="279.916,1423.18 279.916,1404.28 "></polyline>
<polyline clip-path="url(#clip140)" style="stroke:#000000; stroke-linecap:round; stroke-linejoin:round; stroke-width:4; stroke-opacity:1; fill:none" points="783.033,1423.18 783.033,1404.28 "></polyline>
<polyline clip-path="url(#clip140)" style="stroke:#000000; stroke-linecap:round; stroke-linejoin:round; stroke-width:4; stroke-opacity:1; fill:none" points="1286.15,1423.18 1286.15,1404.28 "></polyline>
<polyline clip-path="url(#clip140)" style="stroke:#000000; stroke-linecap:round; stroke-linejoin:round; stroke-width:4; stroke-opacity:1; fill:none" points="1789.27,1423.18 1789.27,1404.28 "></polyline>
<polyline clip-path="url(#clip140)" style="stroke:#000000; stroke-linecap:round; stroke-linejoin:round; stroke-width:4; stroke-opacity:1; fill:none" points="2292.38,1423.18 2292.38,1404.28 "></polyline>
<path clip-path="url(#clip140)" d="M270.298 1481.64 L277.937 1481.64 L277.937 1455.28 L269.627 1456.95 L269.627 1452.69 L277.891 1451.02 L282.567 1451.02 L282.567 1481.64 L290.205 1481.64 L290.205 1485.58 L270.298 1485.58 L270.298 1481.64 Z" fill="#000000" fill-rule="nonzero" fill-opacity="1"></path><path clip-path="url(#clip140)" d="M777.685 1481.64 L794.005 1481.64 L794.005 1485.58 L772.06 1485.58 L772.06 1481.64 Q774.722 1478.89 779.306 1474.26 Q783.912 1469.61 785.093 1468.27 Q787.338 1465.74 788.218 1464.01 Q789.121 1462.25 789.121 1460.56 Q789.121 1457.8 787.176 1456.07 Q785.255 1454.33 782.153 1454.33 Q779.954 1454.33 777.5 1455.09 Q775.07 1455.86 772.292 1457.41 L772.292 1452.69 Q775.116 1451.55 777.57 1450.97 Q780.023 1450.39 782.06 1450.39 Q787.431 1450.39 790.625 1453.08 Q793.82 1455.77 793.82 1460.26 Q793.82 1462.39 793.009 1464.31 Q792.222 1466.2 790.116 1468.8 Q789.537 1469.47 786.435 1472.69 Q783.334 1475.88 777.685 1481.64 Z" fill="#000000" fill-rule="nonzero" fill-opacity="1"></path><path clip-path="url(#clip140)" d="M1290.4 1466.95 Q1293.75 1467.66 1295.63 1469.93 Q1297.53 1472.2 1297.53 1475.53 Q1297.53 1480.65 1294.01 1483.45 Q1290.49 1486.25 1284.01 1486.25 Q1281.83 1486.25 1279.52 1485.81 Q1277.23 1485.39 1274.77 1484.54 L1274.77 1480.02 Q1276.72 1481.16 1279.03 1481.74 Q1281.35 1482.32 1283.87 1482.32 Q1288.27 1482.32 1290.56 1480.58 Q1292.87 1478.84 1292.87 1475.53 Q1292.87 1472.48 1290.72 1470.77 Q1288.59 1469.03 1284.77 1469.03 L1280.74 1469.03 L1280.74 1465.19 L1284.96 1465.19 Q1288.41 1465.19 1290.23 1463.82 Q1292.06 1462.43 1292.06 1459.84 Q1292.06 1457.18 1290.17 1455.77 Q1288.29 1454.33 1284.77 1454.33 Q1282.85 1454.33 1280.65 1454.75 Q1278.45 1455.16 1275.81 1456.04 L1275.81 1451.88 Q1278.48 1451.14 1280.79 1450.77 Q1283.13 1450.39 1285.19 1450.39 Q1290.51 1450.39 1293.61 1452.83 Q1296.72 1455.23 1296.72 1459.35 Q1296.72 1462.22 1295.07 1464.21 Q1293.43 1466.18 1290.4 1466.95 Z" fill="#000000" fill-rule="nonzero" fill-opacity="1"></path><path clip-path="url(#clip140)" d="M1792.27 1455.09 L1780.47 1473.54 L1792.27 1473.54 L1792.27 1455.09 M1791.05 1451.02 L1796.93 1451.02 L1796.93 1473.54 L1801.86 1473.54 L1801.86 1477.43 L1796.93 1477.43 L1796.93 1485.58 L1792.27 1485.58 L1792.27 1477.43 L1776.67 1477.43 L1776.67 1472.92 L1791.05 1451.02 Z" fill="#000000" fill-rule="nonzero" fill-opacity="1"></path><path clip-path="url(#clip140)" d="M2282.66 1451.02 L2301.02 1451.02 L2301.02 1454.96 L2286.94 1454.96 L2286.94 1463.43 Q2287.96 1463.08 2288.98 1462.92 Q2290 1462.73 2291.02 1462.73 Q2296.8 1462.73 2300.18 1465.9 Q2303.56 1469.08 2303.56 1474.49 Q2303.56 1480.07 2300.09 1483.17 Q2296.62 1486.25 2290.3 1486.25 Q2288.12 1486.25 2285.85 1485.88 Q2283.61 1485.51 2281.2 1484.77 L2281.2 1480.07 Q2283.28 1481.2 2285.51 1481.76 Q2287.73 1482.32 2290.21 1482.32 Q2294.21 1482.32 2296.55 1480.21 Q2298.89 1478.1 2298.89 1474.49 Q2298.89 1470.88 2296.55 1468.77 Q2294.21 1466.67 2290.21 1466.67 Q2288.33 1466.67 2286.46 1467.08 Q2284.6 1467.5 2282.66 1468.38 L2282.66 1451.02 Z" fill="#000000" fill-rule="nonzero" fill-opacity="1"></path><path clip-path="url(#clip140)" d="M1301.08 1546.53 L1301.08 1568.04 L1295.22 1568.04 L1295.22 1546.72 Q1295.22 1541.66 1293.25 1539.14 Q1291.27 1536.63 1287.33 1536.63 Q1282.58 1536.63 1279.85 1539.65 Q1277.11 1542.68 1277.11 1547.9 L1277.11 1568.04 L1271.22 1568.04 L1271.22 1532.4 L1277.11 1532.4 L1277.11 1537.93 Q1279.21 1534.72 1282.04 1533.13 Q1284.91 1531.54 1288.63 1531.54 Q1294.77 1531.54 1297.93 1535.36 Q1301.08 1539.14 1301.08 1546.53 Z" fill="#000000" fill-rule="nonzero" fill-opacity="1"></path><polyline clip-path="url(#clip142)" style="stroke:#000000; stroke-linecap:round; stroke-linejoin:round; stroke-width:2; stroke-opacity:0.1; fill:none" points="219.542,1418.16 2352.76,1418.16 "></polyline>
<polyline clip-path="url(#clip142)" style="stroke:#000000; stroke-linecap:round; stroke-linejoin:round; stroke-width:2; stroke-opacity:0.1; fill:none" points="219.542,1112.73 2352.76,1112.73 "></polyline>
<polyline clip-path="url(#clip142)" style="stroke:#000000; stroke-linecap:round; stroke-linejoin:round; stroke-width:2; stroke-opacity:0.1; fill:none" points="219.542,807.295 2352.76,807.295 "></polyline>
<polyline clip-path="url(#clip142)" style="stroke:#000000; stroke-linecap:round; stroke-linejoin:round; stroke-width:2; stroke-opacity:0.1; fill:none" points="219.542,501.861 2352.76,501.861 "></polyline>
<polyline clip-path="url(#clip142)" style="stroke:#000000; stroke-linecap:round; stroke-linejoin:round; stroke-width:2; stroke-opacity:0.1; fill:none" points="219.542,196.427 2352.76,196.427 "></polyline>
<polyline clip-path="url(#clip140)" style="stroke:#000000; stroke-linecap:round; stroke-linejoin:round; stroke-width:4; stroke-opacity:1; fill:none" points="219.542,1423.18 219.542,183.952 "></polyline>
<polyline clip-path="url(#clip140)" style="stroke:#000000; stroke-linecap:round; stroke-linejoin:round; stroke-width:4; stroke-opacity:1; fill:none" points="219.542,1418.16 238.44,1418.16 "></polyline>
<polyline clip-path="url(#clip140)" style="stroke:#000000; stroke-linecap:round; stroke-linejoin:round; stroke-width:4; stroke-opacity:1; fill:none" points="219.542,1112.73 238.44,1112.73 "></polyline>
<polyline clip-path="url(#clip140)" style="stroke:#000000; stroke-linecap:round; stroke-linejoin:round; stroke-width:4; stroke-opacity:1; fill:none" points="219.542,807.295 238.44,807.295 "></polyline>
<polyline clip-path="url(#clip140)" style="stroke:#000000; stroke-linecap:round; stroke-linejoin:round; stroke-width:4; stroke-opacity:1; fill:none" points="219.542,501.861 238.44,501.861 "></polyline>
<polyline clip-path="url(#clip140)" style="stroke:#000000; stroke-linecap:round; stroke-linejoin:round; stroke-width:4; stroke-opacity:1; fill:none" points="219.542,196.427 238.44,196.427 "></polyline>
<path clip-path="url(#clip140)" d="M126.205 1403.96 Q122.593 1403.96 120.765 1407.53 Q118.959 1411.07 118.959 1418.2 Q118.959 1425.3 120.765 1428.87 Q122.593 1432.41 126.205 1432.41 Q129.839 1432.41 131.644 1428.87 Q133.473 1425.3 133.473 1418.2 Q133.473 1411.07 131.644 1407.53 Q129.839 1403.96 126.205 1403.96 M126.205 1400.26 Q132.015 1400.26 135.07 1404.86 Q138.149 1409.45 138.149 1418.2 Q138.149 1426.92 135.07 1431.53 Q132.015 1436.11 126.205 1436.11 Q120.394 1436.11 117.316 1431.53 Q114.26 1426.92 114.26 1418.2 Q114.26 1409.45 117.316 1404.86 Q120.394 1400.26 126.205 1400.26 Z" fill="#000000" fill-rule="nonzero" fill-opacity="1"></path><path clip-path="url(#clip140)" d="M146.366 1429.56 L151.251 1429.56 L151.251 1435.44 L146.366 1435.44 L146.366 1429.56 Z" fill="#000000" fill-rule="nonzero" fill-opacity="1"></path><path clip-path="url(#clip140)" d="M172.014 1416.3 Q168.866 1416.3 167.015 1418.45 Q165.186 1420.61 165.186 1424.36 Q165.186 1428.08 167.015 1430.26 Q168.866 1432.41 172.014 1432.41 Q175.163 1432.41 176.991 1430.26 Q178.843 1428.08 178.843 1424.36 Q178.843 1420.61 176.991 1418.45 Q175.163 1416.3 172.014 1416.3 M181.297 1401.65 L181.297 1405.91 Q179.538 1405.07 177.732 1404.63 Q175.95 1404.19 174.19 1404.19 Q169.561 1404.19 167.107 1407.32 Q164.677 1410.44 164.329 1416.76 Q165.695 1414.75 167.755 1413.68 Q169.815 1412.6 172.292 1412.6 Q177.501 1412.6 180.51 1415.77 Q183.542 1418.92 183.542 1424.36 Q183.542 1429.68 180.394 1432.9 Q177.246 1436.11 172.014 1436.11 Q166.019 1436.11 162.848 1431.53 Q159.677 1426.92 159.677 1418.2 Q159.677 1410 163.565 1405.14 Q167.454 1400.26 174.005 1400.26 Q175.764 1400.26 177.547 1400.61 Q179.352 1400.95 181.297 1401.65 Z" fill="#000000" fill-rule="nonzero" fill-opacity="1"></path><path clip-path="url(#clip140)" d="M127.269 1098.53 Q123.658 1098.53 121.83 1102.09 Q120.024 1105.63 120.024 1112.76 Q120.024 1119.87 121.83 1123.43 Q123.658 1126.98 127.269 1126.98 Q130.904 1126.98 132.709 1123.43 Q134.538 1119.87 134.538 1112.76 Q134.538 1105.63 132.709 1102.09 Q130.904 1098.53 127.269 1098.53 M127.269 1094.82 Q133.08 1094.82 136.135 1099.43 Q139.214 1104.01 139.214 1112.76 Q139.214 1121.49 136.135 1126.1 Q133.08 1130.68 127.269 1130.68 Q121.459 1130.68 118.381 1126.1 Q115.325 1121.49 115.325 1112.76 Q115.325 1104.01 118.381 1099.43 Q121.459 1094.82 127.269 1094.82 Z" fill="#000000" fill-rule="nonzero" fill-opacity="1"></path><path clip-path="url(#clip140)" d="M147.431 1124.13 L152.316 1124.13 L152.316 1130.01 L147.431 1130.01 L147.431 1124.13 Z" fill="#000000" fill-rule="nonzero" fill-opacity="1"></path><path clip-path="url(#clip140)" d="M161.32 1095.45 L183.542 1095.45 L183.542 1097.44 L170.996 1130.01 L166.112 1130.01 L177.917 1099.38 L161.32 1099.38 L161.32 1095.45 Z" fill="#000000" fill-rule="nonzero" fill-opacity="1"></path><path clip-path="url(#clip140)" d="M126.459 793.094 Q122.848 793.094 121.019 796.658 Q119.214 800.2 119.214 807.33 Q119.214 814.436 121.019 818.001 Q122.848 821.543 126.459 821.543 Q130.093 821.543 131.899 818.001 Q133.728 814.436 133.728 807.33 Q133.728 800.2 131.899 796.658 Q130.093 793.094 126.459 793.094 M126.459 789.39 Q132.269 789.39 135.325 793.996 Q138.404 798.58 138.404 807.33 Q138.404 816.056 135.325 820.663 Q132.269 825.246 126.459 825.246 Q120.649 825.246 117.57 820.663 Q114.515 816.056 114.515 807.33 Q114.515 798.58 117.57 793.996 Q120.649 789.39 126.459 789.39 Z" fill="#000000" fill-rule="nonzero" fill-opacity="1"></path><path clip-path="url(#clip140)" d="M146.621 818.695 L151.505 818.695 L151.505 824.575 L146.621 824.575 L146.621 818.695 Z" fill="#000000" fill-rule="nonzero" fill-opacity="1"></path><path clip-path="url(#clip140)" d="M171.69 808.163 Q168.357 808.163 166.436 809.945 Q164.538 811.728 164.538 814.853 Q164.538 817.978 166.436 819.76 Q168.357 821.543 171.69 821.543 Q175.024 821.543 176.945 819.76 Q178.866 817.955 178.866 814.853 Q178.866 811.728 176.945 809.945 Q175.047 808.163 171.69 808.163 M167.015 806.172 Q164.005 805.432 162.315 803.371 Q160.649 801.311 160.649 798.348 Q160.649 794.205 163.589 791.797 Q166.552 789.39 171.69 789.39 Q176.852 789.39 179.792 791.797 Q182.732 794.205 182.732 798.348 Q182.732 801.311 181.042 803.371 Q179.376 805.432 176.389 806.172 Q179.769 806.959 181.644 809.251 Q183.542 811.543 183.542 814.853 Q183.542 819.876 180.464 822.561 Q177.408 825.246 171.69 825.246 Q165.973 825.246 162.894 822.561 Q159.839 819.876 159.839 814.853 Q159.839 811.543 161.737 809.251 Q163.635 806.959 167.015 806.172 M165.302 798.788 Q165.302 801.473 166.968 802.978 Q168.658 804.482 171.69 804.482 Q174.7 804.482 176.389 802.978 Q178.102 801.473 178.102 798.788 Q178.102 796.103 176.389 794.598 Q174.7 793.094 171.69 793.094 Q168.658 793.094 166.968 794.598 Q165.302 796.103 165.302 798.788 Z" fill="#000000" fill-rule="nonzero" fill-opacity="1"></path><path clip-path="url(#clip140)" d="M126.552 487.66 Q122.941 487.66 121.112 491.224 Q119.306 494.766 119.306 501.896 Q119.306 509.002 121.112 512.567 Q122.941 516.109 126.552 516.109 Q130.186 516.109 131.992 512.567 Q133.82 509.002 133.82 501.896 Q133.82 494.766 131.992 491.224 Q130.186 487.66 126.552 487.66 M126.552 483.956 Q132.362 483.956 135.417 488.562 Q138.496 493.146 138.496 501.896 Q138.496 510.622 135.417 515.229 Q132.362 519.812 126.552 519.812 Q120.742 519.812 117.663 515.229 Q114.607 510.622 114.607 501.896 Q114.607 493.146 117.663 488.562 Q120.742 483.956 126.552 483.956 Z" fill="#000000" fill-rule="nonzero" fill-opacity="1"></path><path clip-path="url(#clip140)" d="M146.714 513.261 L151.598 513.261 L151.598 519.141 L146.714 519.141 L146.714 513.261 Z" fill="#000000" fill-rule="nonzero" fill-opacity="1"></path><path clip-path="url(#clip140)" d="M161.922 518.423 L161.922 514.164 Q163.681 514.997 165.487 515.437 Q167.292 515.877 169.028 515.877 Q173.658 515.877 176.089 512.775 Q178.542 509.65 178.889 503.308 Q177.547 505.298 175.487 506.363 Q173.427 507.428 170.927 507.428 Q165.741 507.428 162.709 504.303 Q159.7 501.155 159.7 495.715 Q159.7 490.391 162.848 487.173 Q165.996 483.956 171.227 483.956 Q177.223 483.956 180.371 488.562 Q183.542 493.146 183.542 501.896 Q183.542 510.067 179.653 514.951 Q175.788 519.812 169.237 519.812 Q167.477 519.812 165.672 519.465 Q163.866 519.118 161.922 518.423 M171.227 503.771 Q174.376 503.771 176.204 501.618 Q178.056 499.465 178.056 495.715 Q178.056 491.988 176.204 489.836 Q174.376 487.66 171.227 487.66 Q168.079 487.66 166.227 489.836 Q164.399 491.988 164.399 495.715 Q164.399 499.465 166.227 501.618 Q168.079 503.771 171.227 503.771 Z" fill="#000000" fill-rule="nonzero" fill-opacity="1"></path><path clip-path="url(#clip140)" d="M117.177 209.772 L124.816 209.772 L124.816 183.406 L116.506 185.073 L116.506 180.814 L124.769 179.147 L129.445 179.147 L129.445 209.772 L137.084 209.772 L137.084 213.707 L117.177 213.707 L117.177 209.772 Z" fill="#000000" fill-rule="nonzero" fill-opacity="1"></path><path clip-path="url(#clip140)" d="M146.529 207.827 L151.413 207.827 L151.413 213.707 L146.529 213.707 L146.529 207.827 Z" fill="#000000" fill-rule="nonzero" fill-opacity="1"></path><path clip-path="url(#clip140)" d="M171.598 182.226 Q167.987 182.226 166.158 185.79 Q164.352 189.332 164.352 196.462 Q164.352 203.568 166.158 207.133 Q167.987 210.674 171.598 210.674 Q175.232 210.674 177.038 207.133 Q178.866 203.568 178.866 196.462 Q178.866 189.332 177.038 185.79 Q175.232 182.226 171.598 182.226 M171.598 178.522 Q177.408 178.522 180.464 183.128 Q183.542 187.712 183.542 196.462 Q183.542 205.188 180.464 209.795 Q177.408 214.378 171.598 214.378 Q165.788 214.378 162.709 209.795 Q159.653 205.188 159.653 196.462 Q159.653 187.712 162.709 183.128 Q165.788 178.522 171.598 178.522 Z" fill="#000000" fill-rule="nonzero" fill-opacity="1"></path><path clip-path="url(#clip140)" d="M42.4881 1062.89 L77.5631 1062.89 L77.5631 1068.75 L42.679 1068.75 Q37.6183 1068.75 35.1038 1070.72 Q32.5894 1072.69 32.5894 1076.64 Q32.5894 1081.38 35.6131 1084.12 Q38.6368 1086.86 43.8567 1086.86 L64.0042 1086.86 L64.0042 1092.74 L28.3562 1092.74 L28.3562 1086.86 L33.8944 1086.86 Q30.6797 1084.76 29.0883 1081.92 Q27.4968 1079.06 27.4968 1075.33 Q27.4968 1069.19 31.2844 1066.04 Q35.1038 1062.89 42.4881 1062.89 Z" fill="#000000" fill-rule="nonzero" fill-opacity="1"></path><path clip-path="url(#clip140)" d="M34.4036 1029.72 L34.4036 988.919 L39.7508 988.919 L39.7508 1029.72 L34.4036 1029.72 M47.3897 1029.72 L47.3897 988.919 L52.8005 988.919 L52.8005 1029.72 L47.3897 1029.72 Z" fill="#000000" fill-rule="nonzero" fill-opacity="1"></path><path clip-path="url(#clip140)" d="M16.4842 954.895 L16.4842 948.465 L35.9632 948.465 L35.9632 925.103 L16.4842 925.103 L16.4842 918.674 L64.0042 918.674 L64.0042 925.103 L41.3741 925.103 L41.3741 948.465 L64.0042 948.465 L64.0042 954.895 L16.4842 954.895 Z" fill="#000000" fill-rule="nonzero" fill-opacity="1"></path><path clip-path="url(#clip140)" d="M74.8259 879.047 L79.3773 879.047 L79.3773 912.913 L74.8259 912.913 L74.8259 879.047 Z" fill="#000000" fill-rule="nonzero" fill-opacity="1"></path><path clip-path="url(#clip140)" d="M33.7671 850.083 L14.479 850.083 L14.479 844.227 L64.0042 844.227 L64.0042 850.083 L58.657 850.083 Q61.8398 851.929 63.3994 854.762 Q64.9272 857.563 64.9272 861.51 Q64.9272 867.971 59.771 872.045 Q54.6147 876.087 46.212 876.087 Q37.8093 876.087 32.6531 872.045 Q27.4968 867.971 27.4968 861.51 Q27.4968 857.563 29.0564 854.762 Q30.5842 851.929 33.7671 850.083 M46.212 870.04 Q52.6732 870.04 56.3653 867.398 Q60.0256 864.725 60.0256 860.078 Q60.0256 855.431 56.3653 852.757 Q52.6732 850.083 46.212 850.083 Q39.7508 850.083 36.0905 852.757 Q32.3984 855.431 32.3984 860.078 Q32.3984 864.725 36.0905 867.398 Q39.7508 870.04 46.212 870.04 Z" fill="#000000" fill-rule="nonzero" fill-opacity="1"></path><path clip-path="url(#clip140)" d="M28.3562 832.164 L28.3562 826.307 L64.0042 826.307 L64.0042 832.164 L28.3562 832.164 M14.479 832.164 L14.479 826.307 L21.895 826.307 L21.895 832.164 L14.479 832.164 Z" fill="#000000" fill-rule="nonzero" fill-opacity="1"></path><path clip-path="url(#clip140)" d="M29.4065 791.328 L34.9447 791.328 Q33.6716 793.811 33.035 796.484 Q32.3984 799.158 32.3984 802.022 Q32.3984 806.383 33.7352 808.579 Q35.072 810.743 37.7456 810.743 Q39.7826 810.743 40.9603 809.184 Q42.1061 807.624 43.1565 802.913 L43.6021 800.908 Q44.9389 794.67 47.3897 792.06 Q49.8086 789.418 54.1691 789.418 Q59.1344 789.418 62.0308 793.365 Q64.9272 797.28 64.9272 804.155 Q64.9272 807.019 64.3543 810.139 Q63.8132 813.226 62.6992 816.663 L56.6518 816.663 Q58.3387 813.417 59.198 810.266 Q60.0256 807.115 60.0256 804.027 Q60.0256 799.89 58.6251 797.662 Q57.1929 795.434 54.6147 795.434 Q52.2276 795.434 50.9545 797.057 Q49.6813 798.648 48.5037 804.091 L48.0262 806.128 Q46.8804 811.571 44.5251 813.99 Q42.138 816.409 38.0002 816.409 Q32.9713 816.409 30.2341 812.844 Q27.4968 809.279 27.4968 802.723 Q27.4968 799.476 27.9743 796.611 Q28.4517 793.747 29.4065 791.328 Z" fill="#000000" fill-rule="nonzero" fill-opacity="1"></path><path clip-path="url(#clip140)" d="M18.2347 774.3 L28.3562 774.3 L28.3562 762.237 L32.9077 762.237 L32.9077 774.3 L52.2594 774.3 Q56.6199 774.3 57.8613 773.122 Q59.1026 771.913 59.1026 768.252 L59.1026 762.237 L64.0042 762.237 L64.0042 768.252 Q64.0042 775.032 61.4897 777.61 Q58.9434 780.188 52.2594 780.188 L32.9077 780.188 L32.9077 784.485 L28.3562 784.485 L28.3562 780.188 L18.2347 780.188 L18.2347 774.3 Z" fill="#000000" fill-rule="nonzero" fill-opacity="1"></path><path clip-path="url(#clip140)" d="M16.4842 723.406 L16.4842 717.995 L70.0516 734.546 L70.0516 739.957 L16.4842 723.406 Z" fill="#000000" fill-rule="nonzero" fill-opacity="1"></path><path clip-path="url(#clip140)" d="M16.4842 690.877 L16.4842 684.448 L58.5933 684.448 L58.5933 661.308 L64.0042 661.308 L64.0042 690.877 L16.4842 690.877 Z" fill="#000000" fill-rule="nonzero" fill-opacity="1"></path><path clip-path="url(#clip140)" d="M74.8259 627.729 L79.3773 627.729 L79.3773 661.595 L74.8259 661.595 L74.8259 627.729 Z" fill="#000000" fill-rule="nonzero" fill-opacity="1"></path><path clip-path="url(#clip140)" d="M46.0847 606.022 Q46.0847 613.12 47.7079 615.857 Q49.3312 618.594 53.2461 618.594 Q56.3653 618.594 58.2114 616.557 Q60.0256 614.489 60.0256 610.956 Q60.0256 606.086 56.5881 603.158 Q53.1188 600.198 47.3897 600.198 L46.0847 600.198 L46.0847 606.022 M43.6657 594.341 L64.0042 594.341 L64.0042 600.198 L58.5933 600.198 Q61.8398 602.203 63.3994 605.195 Q64.9272 608.187 64.9272 612.515 Q64.9272 617.99 61.8716 621.236 Q58.7843 624.451 53.6281 624.451 Q47.6125 624.451 44.5569 620.441 Q41.5014 616.398 41.5014 608.409 L41.5014 600.198 L40.9285 600.198 Q36.8862 600.198 34.6901 602.871 Q32.4621 605.513 32.4621 610.319 Q32.4621 613.375 33.1941 616.271 Q33.9262 619.167 35.3903 621.841 L29.9795 621.841 Q28.7381 618.626 28.1334 615.603 Q27.4968 612.579 27.4968 609.714 Q27.4968 601.98 31.5072 598.161 Q35.5176 594.341 43.6657 594.341 Z" fill="#000000" fill-rule="nonzero" fill-opacity="1"></path><path clip-path="url(#clip140)" d="M28.3562 586.479 L28.3562 580.273 L58.275 569.133 L28.3562 557.993 L28.3562 551.786 L64.0042 565.154 L64.0042 573.111 L28.3562 586.479 Z" fill="#000000" fill-rule="nonzero" fill-opacity="1"></path><path clip-path="url(#clip140)" d="M45.7664 520.244 Q39.4007 520.244 35.8996 522.886 Q32.3984 525.496 32.3984 530.238 Q32.3984 534.949 35.8996 537.591 Q39.4007 540.201 45.7664 540.201 Q52.1003 540.201 55.6014 537.591 Q59.1026 534.949 59.1026 530.238 Q59.1026 525.496 55.6014 522.886 Q52.1003 520.244 45.7664 520.244 M59.58 514.388 Q68.683 514.388 73.1071 518.43 Q77.5631 522.472 77.5631 530.811 Q77.5631 533.899 77.0857 536.636 Q76.6401 539.373 75.6852 541.951 L69.9879 541.951 Q71.3884 539.373 72.0568 536.859 Q72.7252 534.344 72.7252 531.734 Q72.7252 525.973 69.7015 523.109 Q66.7096 520.244 60.6303 520.244 L57.7339 520.244 Q60.885 522.059 62.4446 524.891 Q64.0042 527.724 64.0042 531.671 Q64.0042 538.227 59.0071 542.238 Q54.01 546.248 45.7664 546.248 Q37.491 546.248 32.4939 542.238 Q27.4968 538.227 27.4968 531.671 Q27.4968 527.724 29.0564 524.891 Q30.616 522.059 33.7671 520.244 L28.3562 520.244 L28.3562 514.388 L59.58 514.388 Z" fill="#000000" fill-rule="nonzero" fill-opacity="1"></path><path clip-path="url(#clip140)" d="M321.548 33.264 L359.788 33.264 L359.788 40.1505 L329.731 40.1505 L329.731 58.0555 L358.532 58.0555 L358.532 64.9421 L329.731 64.9421 L329.731 86.8575 L360.517 86.8575 L360.517 93.744 L321.548 93.744 L321.548 33.264 Z" fill="#000000" fill-rule="nonzero" fill-opacity="1"></path><path clip-path="url(#clip140)" d="M396.611 30.7119 L396.611 36.9098 L389.481 36.9098 Q385.471 36.9098 383.891 38.5302 Q382.352 40.1505 382.352 44.3635 L382.352 48.3739 L394.626 48.3739 L394.626 54.1667 L382.352 54.1667 L382.352 93.744 L374.858 93.744 L374.858 54.1667 L367.728 54.1667 L367.728 48.3739 L374.858 48.3739 L374.858 45.2142 Q374.858 37.639 378.382 34.1957 Q381.906 30.7119 389.562 30.7119 L396.611 30.7119 Z" fill="#000000" fill-rule="nonzero" fill-opacity="1"></path><path clip-path="url(#clip140)" d="M425.818 30.7119 L425.818 36.9098 L418.688 36.9098 Q414.678 36.9098 413.098 38.5302 Q411.559 40.1505 411.559 44.3635 L411.559 48.3739 L423.833 48.3739 L423.833 54.1667 L411.559 54.1667 L411.559 93.744 L404.065 93.744 L404.065 54.1667 L396.935 54.1667 L396.935 48.3739 L404.065 48.3739 L404.065 45.2142 Q404.065 37.639 407.589 34.1957 Q411.113 30.7119 418.769 30.7119 L425.818 30.7119 Z" fill="#000000" fill-rule="nonzero" fill-opacity="1"></path><path clip-path="url(#clip140)" d="M432.056 48.3739 L439.51 48.3739 L439.51 93.744 L432.056 93.744 L432.056 48.3739 M432.056 30.7119 L439.51 30.7119 L439.51 40.1505 L432.056 40.1505 L432.056 30.7119 Z" fill="#000000" fill-rule="nonzero" fill-opacity="1"></path><path clip-path="url(#clip140)" d="M487.756 50.1158 L487.756 57.0833 Q484.597 55.3414 481.396 54.4907 Q478.237 53.5995 474.996 53.5995 Q467.745 53.5995 463.734 58.2176 Q459.724 62.7951 459.724 71.0994 Q459.724 79.4038 463.734 84.0218 Q467.745 88.5994 474.996 88.5994 Q478.237 88.5994 481.396 87.7487 Q484.597 86.8575 487.756 85.1156 L487.756 92.0021 Q484.637 93.4604 481.275 94.1896 Q477.953 94.9188 474.186 94.9188 Q463.937 94.9188 457.901 88.4778 Q451.865 82.0369 451.865 71.0994 Q451.865 60 457.942 53.64 Q464.059 47.2801 474.672 47.2801 Q478.115 47.2801 481.396 48.0093 Q484.678 48.6979 487.756 50.1158 Z" fill="#000000" fill-rule="nonzero" fill-opacity="1"></path><path clip-path="url(#clip140)" d="M500.719 48.3739 L508.173 48.3739 L508.173 93.744 L500.719 93.744 L500.719 48.3739 M500.719 30.7119 L508.173 30.7119 L508.173 40.1505 L500.719 40.1505 L500.719 30.7119 Z" fill="#000000" fill-rule="nonzero" fill-opacity="1"></path><path clip-path="url(#clip140)" d="M562.577 69.1955 L562.577 72.8413 L528.306 72.8413 Q528.792 80.5381 532.924 84.589 Q537.096 88.5994 544.51 88.5994 Q548.803 88.5994 552.814 87.5461 Q556.865 86.4929 560.835 84.3864 L560.835 91.435 Q556.824 93.1364 552.611 94.0276 Q548.398 94.9188 544.064 94.9188 Q533.207 94.9188 526.848 88.5994 Q520.528 82.2799 520.528 71.5045 Q520.528 60.3645 526.523 53.8426 Q532.559 47.2801 542.768 47.2801 Q551.923 47.2801 557.229 53.1944 Q562.577 59.0683 562.577 69.1955 M555.123 67.008 Q555.042 60.8912 551.68 57.2454 Q548.358 53.5995 542.849 53.5995 Q536.61 53.5995 532.843 57.1238 Q529.116 60.6481 528.549 67.0485 L555.123 67.008 Z" fill="#000000" fill-rule="nonzero" fill-opacity="1"></path><path clip-path="url(#clip140)" d="M612.524 66.3599 L612.524 93.744 L605.071 93.744 L605.071 66.6029 Q605.071 60.162 602.559 56.9618 Q600.047 53.7616 595.024 53.7616 Q588.988 53.7616 585.505 57.6099 Q582.021 61.4583 582.021 68.1018 L582.021 93.744 L574.527 93.744 L574.527 48.3739 L582.021 48.3739 L582.021 55.4224 Q584.694 51.331 588.3 49.3056 Q591.946 47.2801 596.685 47.2801 Q604.503 47.2801 608.514 52.1412 Q612.524 56.9618 612.524 66.3599 Z" fill="#000000" fill-rule="nonzero" fill-opacity="1"></path><path clip-path="url(#clip140)" d="M646.268 97.9569 Q643.109 106.059 640.111 108.53 Q637.113 111.001 632.09 111.001 L626.135 111.001 L626.135 104.762 L630.51 104.762 Q633.589 104.762 635.29 103.304 Q636.992 101.846 639.058 96.4176 L640.394 93.0148 L622.044 48.3739 L629.943 48.3739 L644.121 83.8598 L658.299 48.3739 L666.199 48.3739 L646.268 97.9569 Z" fill="#000000" fill-rule="nonzero" fill-opacity="1"></path><path clip-path="url(#clip140)" d="M720.44 53.5995 Q714.445 53.5995 710.961 58.2986 Q707.477 62.9571 707.477 71.0994 Q707.477 79.2418 710.921 83.9408 Q714.404 88.5994 720.44 88.5994 Q726.395 88.5994 729.879 83.9003 Q733.363 79.2013 733.363 71.0994 Q733.363 63.0381 729.879 58.3391 Q726.395 53.5995 720.44 53.5995 M720.44 47.2801 Q730.162 47.2801 735.712 53.5995 Q741.262 59.9189 741.262 71.0994 Q741.262 82.2394 735.712 88.5994 Q730.162 94.9188 720.44 94.9188 Q710.678 94.9188 705.128 88.5994 Q699.619 82.2394 699.619 71.0994 Q699.619 59.9189 705.128 53.5995 Q710.678 47.2801 720.44 47.2801 Z" fill="#000000" fill-rule="nonzero" fill-opacity="1"></path><path clip-path="url(#clip140)" d="M776.586 30.7119 L776.586 36.9098 L769.456 36.9098 Q765.446 36.9098 763.866 38.5302 Q762.327 40.1505 762.327 44.3635 L762.327 48.3739 L774.601 48.3739 L774.601 54.1667 L762.327 54.1667 L762.327 93.744 L754.832 93.744 L754.832 54.1667 L747.703 54.1667 L747.703 48.3739 L754.832 48.3739 L754.832 45.2142 Q754.832 37.639 758.357 34.1957 Q761.881 30.7119 769.537 30.7119 L776.586 30.7119 Z" fill="#000000" fill-rule="nonzero" fill-opacity="1"></path><path clip-path="url(#clip140)" d="M809.52 33.264 L817.702 33.264 L817.702 58.0555 L847.436 58.0555 L847.436 33.264 L855.619 33.264 L855.619 93.744 L847.436 93.744 L847.436 64.9421 L817.702 64.9421 L817.702 93.744 L809.52 93.744 L809.52 33.264 Z" fill="#000000" fill-rule="nonzero" fill-opacity="1"></path><path clip-path="url(#clip140)" d="M870.81 75.839 L870.81 48.3739 L878.264 48.3739 L878.264 75.5554 Q878.264 81.9964 880.775 85.2371 Q883.287 88.4373 888.31 88.4373 Q894.346 88.4373 897.829 84.589 Q901.354 80.7406 901.354 74.0971 L901.354 48.3739 L908.807 48.3739 L908.807 93.744 L901.354 93.744 L901.354 86.7764 Q898.64 90.9084 895.034 92.9338 Q891.469 94.9188 886.73 94.9188 Q878.912 94.9188 874.861 90.0577 Q870.81 85.1966 870.81 75.839 M889.566 47.2801 L889.566 47.2801 Z" fill="#000000" fill-rule="nonzero" fill-opacity="1"></path><path clip-path="url(#clip140)" d="M947.129 30.7119 L947.129 36.9098 L939.999 36.9098 Q935.989 36.9098 934.409 38.5302 Q932.87 40.1505 932.87 44.3635 L932.87 48.3739 L945.144 48.3739 L945.144 54.1667 L932.87 54.1667 L932.87 93.744 L925.376 93.744 L925.376 54.1667 L918.246 54.1667 L918.246 48.3739 L925.376 48.3739 L925.376 45.2142 Q925.376 37.639 928.9 34.1957 Q932.424 30.7119 940.08 30.7119 L947.129 30.7119 Z" fill="#000000" fill-rule="nonzero" fill-opacity="1"></path><path clip-path="url(#clip140)" d="M976.336 30.7119 L976.336 36.9098 L969.206 36.9098 Q965.196 36.9098 963.616 38.5302 Q962.077 40.1505 962.077 44.3635 L962.077 48.3739 L974.351 48.3739 L974.351 54.1667 L962.077 54.1667 L962.077 93.744 L954.583 93.744 L954.583 54.1667 L947.453 54.1667 L947.453 48.3739 L954.583 48.3739 L954.583 45.2142 Q954.583 37.639 958.107 34.1957 Q961.631 30.7119 969.287 30.7119 L976.336 30.7119 Z" fill="#000000" fill-rule="nonzero" fill-opacity="1"></path><path clip-path="url(#clip140)" d="M1017.9 57.0833 Q1020.69 52.0602 1024.58 49.6702 Q1028.47 47.2801 1033.74 47.2801 Q1040.83 47.2801 1044.67 52.2627 Q1048.52 57.2048 1048.52 66.3599 L1048.52 93.744 L1041.03 93.744 L1041.03 66.6029 Q1041.03 60.081 1038.72 56.9213 Q1036.41 53.7616 1031.67 53.7616 Q1025.88 53.7616 1022.52 57.6099 Q1019.15 61.4583 1019.15 68.1018 L1019.15 93.744 L1011.66 93.744 L1011.66 66.6029 Q1011.66 60.0405 1009.35 56.9213 Q1007.04 53.7616 1002.22 53.7616 Q996.509 53.7616 993.147 57.6504 Q989.785 61.4988 989.785 68.1018 L989.785 93.744 L982.291 93.744 L982.291 48.3739 L989.785 48.3739 L989.785 55.4224 Q992.337 51.25 995.902 49.2651 Q999.467 47.2801 1004.37 47.2801 Q1009.31 47.2801 1012.75 49.7917 Q1016.24 52.3032 1017.9 57.0833 Z" fill="#000000" fill-rule="nonzero" fill-opacity="1"></path><path clip-path="url(#clip140)" d="M1084.01 70.9374 Q1074.98 70.9374 1071.49 73.0034 Q1068.01 75.0693 1068.01 80.0519 Q1068.01 84.0218 1070.6 86.3714 Q1073.23 88.6804 1077.73 88.6804 Q1083.93 88.6804 1087.65 84.3054 Q1091.42 79.8899 1091.42 72.5983 L1091.42 70.9374 L1084.01 70.9374 M1098.88 67.8587 L1098.88 93.744 L1091.42 93.744 L1091.42 86.8575 Q1088.87 90.9894 1085.06 92.9743 Q1081.25 94.9188 1075.75 94.9188 Q1068.78 94.9188 1064.65 91.0299 Q1060.55 87.1005 1060.55 80.5381 Q1060.55 72.8818 1065.66 68.993 Q1070.8 65.1041 1080.97 65.1041 L1091.42 65.1041 L1091.42 64.3749 Q1091.42 59.2303 1088.02 56.4352 Q1084.66 53.5995 1078.54 53.5995 Q1074.65 53.5995 1070.97 54.5312 Q1067.28 55.463 1063.88 57.3264 L1063.88 50.4398 Q1067.97 48.86 1071.82 48.0903 Q1075.66 47.2801 1079.31 47.2801 Q1089.15 47.2801 1094.01 52.3843 Q1098.88 57.4884 1098.88 67.8587 Z" fill="#000000" fill-rule="nonzero" fill-opacity="1"></path><path clip-path="url(#clip140)" d="M1151.94 66.3599 L1151.94 93.744 L1144.49 93.744 L1144.49 66.6029 Q1144.49 60.162 1141.98 56.9618 Q1139.47 53.7616 1134.44 53.7616 Q1128.41 53.7616 1124.92 57.6099 Q1121.44 61.4583 1121.44 68.1018 L1121.44 93.744 L1113.95 93.744 L1113.95 48.3739 L1121.44 48.3739 L1121.44 55.4224 Q1124.11 51.331 1127.72 49.3056 Q1131.36 47.2801 1136.1 47.2801 Q1143.92 47.2801 1147.93 52.1412 Q1151.94 56.9618 1151.94 66.3599 Z" fill="#000000" fill-rule="nonzero" fill-opacity="1"></path><path clip-path="url(#clip140)" d="M1231.99 69.1955 L1231.99 72.8413 L1197.72 72.8413 Q1198.2 80.5381 1202.34 84.589 Q1206.51 88.5994 1213.92 88.5994 Q1218.22 88.5994 1222.23 87.5461 Q1226.28 86.4929 1230.25 84.3864 L1230.25 91.435 Q1226.24 93.1364 1222.02 94.0276 Q1217.81 94.9188 1213.48 94.9188 Q1202.62 94.9188 1196.26 88.5994 Q1189.94 82.2799 1189.94 71.5045 Q1189.94 60.3645 1195.94 53.8426 Q1201.97 47.2801 1212.18 47.2801 Q1221.33 47.2801 1226.64 53.1944 Q1231.99 59.0683 1231.99 69.1955 M1224.53 67.008 Q1224.45 60.8912 1221.09 57.2454 Q1217.77 53.5995 1212.26 53.5995 Q1206.02 53.5995 1202.25 57.1238 Q1198.53 60.6481 1197.96 67.0485 L1224.53 67.008 Z" fill="#000000" fill-rule="nonzero" fill-opacity="1"></path><path clip-path="url(#clip140)" d="M1281.94 66.3599 L1281.94 93.744 L1274.48 93.744 L1274.48 66.6029 Q1274.48 60.162 1271.97 56.9618 Q1269.46 53.7616 1264.44 53.7616 Q1258.4 53.7616 1254.92 57.6099 Q1251.43 61.4583 1251.43 68.1018 L1251.43 93.744 L1243.94 93.744 L1243.94 48.3739 L1251.43 48.3739 L1251.43 55.4224 Q1254.11 51.331 1257.71 49.3056 Q1261.36 47.2801 1266.1 47.2801 Q1273.92 47.2801 1277.93 52.1412 Q1281.94 56.9618 1281.94 66.3599 Z" fill="#000000" fill-rule="nonzero" fill-opacity="1"></path><path clip-path="url(#clip140)" d="M1329.45 50.1158 L1329.45 57.0833 Q1326.29 55.3414 1323.09 54.4907 Q1319.93 53.5995 1316.69 53.5995 Q1309.44 53.5995 1305.43 58.2176 Q1301.42 62.7951 1301.42 71.0994 Q1301.42 79.4038 1305.43 84.0218 Q1309.44 88.5994 1316.69 88.5994 Q1319.93 88.5994 1323.09 87.7487 Q1326.29 86.8575 1329.45 85.1156 L1329.45 92.0021 Q1326.33 93.4604 1322.97 94.1896 Q1319.65 94.9188 1315.88 94.9188 Q1305.63 94.9188 1299.6 88.4778 Q1293.56 82.0369 1293.56 71.0994 Q1293.56 60 1299.64 53.64 Q1305.76 47.2801 1316.37 47.2801 Q1319.81 47.2801 1323.09 48.0093 Q1326.37 48.6979 1329.45 50.1158 Z" fill="#000000" fill-rule="nonzero" fill-opacity="1"></path><path clip-path="url(#clip140)" d="M1360 53.5995 Q1354 53.5995 1350.52 58.2986 Q1347.03 62.9571 1347.03 71.0994 Q1347.03 79.2418 1350.48 83.9408 Q1353.96 88.5994 1360 88.5994 Q1365.95 88.5994 1369.44 83.9003 Q1372.92 79.2013 1372.92 71.0994 Q1372.92 63.0381 1369.44 58.3391 Q1365.95 53.5995 1360 53.5995 M1360 47.2801 Q1369.72 47.2801 1375.27 53.5995 Q1380.82 59.9189 1380.82 71.0994 Q1380.82 82.2394 1375.27 88.5994 Q1369.72 94.9188 1360 94.9188 Q1350.23 94.9188 1344.68 88.5994 Q1339.18 82.2394 1339.18 71.0994 Q1339.18 59.9189 1344.68 53.5995 Q1350.23 47.2801 1360 47.2801 Z" fill="#000000" fill-rule="nonzero" fill-opacity="1"></path><path clip-path="url(#clip140)" d="M1423.03 55.2604 L1423.03 30.7119 L1430.48 30.7119 L1430.48 93.744 L1423.03 93.744 L1423.03 86.9385 Q1420.68 90.9894 1417.07 92.9743 Q1413.51 94.9188 1408.49 94.9188 Q1400.26 94.9188 1395.08 88.3563 Q1389.93 81.7938 1389.93 71.0994 Q1389.93 60.4051 1395.08 53.8426 Q1400.26 47.2801 1408.49 47.2801 Q1413.51 47.2801 1417.07 49.2651 Q1420.68 51.2095 1423.03 55.2604 M1397.63 71.0994 Q1397.63 79.3228 1400.99 84.0218 Q1404.39 88.6804 1410.31 88.6804 Q1416.22 88.6804 1419.63 84.0218 Q1423.03 79.3228 1423.03 71.0994 Q1423.03 62.8761 1419.63 58.2176 Q1416.22 53.5185 1410.31 53.5185 Q1404.39 53.5185 1400.99 58.2176 Q1397.63 62.8761 1397.63 71.0994 Z" fill="#000000" fill-rule="nonzero" fill-opacity="1"></path><path clip-path="url(#clip140)" d="M1445.84 48.3739 L1453.29 48.3739 L1453.29 93.744 L1445.84 93.744 L1445.84 48.3739 M1445.84 30.7119 L1453.29 30.7119 L1453.29 40.1505 L1445.84 40.1505 L1445.84 30.7119 Z" fill="#000000" fill-rule="nonzero" fill-opacity="1"></path><path clip-path="url(#clip140)" d="M1506.6 66.3599 L1506.6 93.744 L1499.15 93.744 L1499.15 66.6029 Q1499.15 60.162 1496.63 56.9618 Q1494.12 53.7616 1489.1 53.7616 Q1483.06 53.7616 1479.58 57.6099 Q1476.1 61.4583 1476.1 68.1018 L1476.1 93.744 L1468.6 93.744 L1468.6 48.3739 L1476.1 48.3739 L1476.1 55.4224 Q1478.77 51.331 1482.37 49.3056 Q1486.02 47.2801 1490.76 47.2801 Q1498.58 47.2801 1502.59 52.1412 Q1506.6 56.9618 1506.6 66.3599 Z" fill="#000000" fill-rule="nonzero" fill-opacity="1"></path><path clip-path="url(#clip140)" d="M1551.32 70.5323 Q1551.32 62.4305 1547.96 57.9745 Q1544.64 53.5185 1538.6 53.5185 Q1532.61 53.5185 1529.24 57.9745 Q1525.92 62.4305 1525.92 70.5323 Q1525.92 78.5936 1529.24 83.0496 Q1532.61 87.5056 1538.6 87.5056 Q1544.64 87.5056 1547.96 83.0496 Q1551.32 78.5936 1551.32 70.5323 M1558.77 88.1132 Q1558.77 99.6988 1553.63 105.33 Q1548.49 111.001 1537.87 111.001 Q1533.94 111.001 1530.46 110.393 Q1526.98 109.826 1523.69 108.611 L1523.69 101.36 Q1526.98 103.142 1530.18 103.993 Q1533.38 104.843 1536.7 104.843 Q1544.03 104.843 1547.68 100.995 Q1551.32 97.1873 1551.32 89.45 L1551.32 85.7637 Q1549.01 89.7741 1545.41 91.7591 Q1541.8 93.744 1536.78 93.744 Q1528.43 93.744 1523.33 87.3841 Q1518.23 81.0242 1518.23 70.5323 Q1518.23 60 1523.33 53.64 Q1528.43 47.2801 1536.78 47.2801 Q1541.8 47.2801 1545.41 49.2651 Q1549.01 51.25 1551.32 55.2604 L1551.32 48.3739 L1558.77 48.3739 L1558.77 88.1132 Z" fill="#000000" fill-rule="nonzero" fill-opacity="1"></path><path clip-path="url(#clip140)" d="M1596.16 48.3739 L1603.62 48.3739 L1612.94 83.7788 L1622.21 48.3739 L1631 48.3739 L1640.32 83.7788 L1649.6 48.3739 L1657.05 48.3739 L1645.18 93.744 L1636.39 93.744 L1626.63 56.5567 L1616.82 93.744 L1608.03 93.744 L1596.16 48.3739 Z" fill="#000000" fill-rule="nonzero" fill-opacity="1"></path><path clip-path="url(#clip140)" d="M1668.35 48.3739 L1675.81 48.3739 L1675.81 93.744 L1668.35 93.744 L1668.35 48.3739 M1668.35 30.7119 L1675.81 30.7119 L1675.81 40.1505 L1668.35 40.1505 L1668.35 30.7119 Z" fill="#000000" fill-rule="nonzero" fill-opacity="1"></path><path clip-path="url(#clip140)" d="M1698.77 35.492 L1698.77 48.3739 L1714.13 48.3739 L1714.13 54.1667 L1698.77 54.1667 L1698.77 78.7962 Q1698.77 84.3459 1700.27 85.9258 Q1701.81 87.5056 1706.47 87.5056 L1714.13 87.5056 L1714.13 93.744 L1706.47 93.744 Q1697.84 93.744 1694.56 90.5438 Q1691.28 87.3031 1691.28 78.7962 L1691.28 54.1667 L1685.81 54.1667 L1685.81 48.3739 L1691.28 48.3739 L1691.28 35.492 L1698.77 35.492 Z" fill="#000000" fill-rule="nonzero" fill-opacity="1"></path><path clip-path="url(#clip140)" d="M1761.64 66.3599 L1761.64 93.744 L1754.19 93.744 L1754.19 66.6029 Q1754.19 60.162 1751.68 56.9618 Q1749.17 53.7616 1744.14 53.7616 Q1738.11 53.7616 1734.62 57.6099 Q1731.14 61.4583 1731.14 68.1018 L1731.14 93.744 L1723.65 93.744 L1723.65 30.7119 L1731.14 30.7119 L1731.14 55.4224 Q1733.81 51.331 1737.42 49.3056 Q1741.07 47.2801 1745.81 47.2801 Q1753.62 47.2801 1757.63 52.1412 Q1761.64 56.9618 1761.64 66.3599 Z" fill="#000000" fill-rule="nonzero" fill-opacity="1"></path><path clip-path="url(#clip140)" d="M1829.17 55.3414 Q1827.92 54.6123 1826.42 54.2882 Q1824.96 53.9236 1823.18 53.9236 Q1816.86 53.9236 1813.46 58.0555 Q1810.09 62.1469 1810.09 69.8437 L1810.09 93.744 L1802.6 93.744 L1802.6 48.3739 L1810.09 48.3739 L1810.09 55.4224 Q1812.44 51.2905 1816.21 49.3056 Q1819.98 47.2801 1825.36 47.2801 Q1826.13 47.2801 1827.07 47.4017 Q1828 47.4827 1829.13 47.6852 L1829.17 55.3414 Z" fill="#000000" fill-rule="nonzero" fill-opacity="1"></path><path clip-path="url(#clip140)" d="M1873.98 69.1955 L1873.98 72.8413 L1839.71 72.8413 Q1840.19 80.5381 1844.32 84.589 Q1848.5 88.5994 1855.91 88.5994 Q1860.2 88.5994 1864.21 87.5461 Q1868.26 86.4929 1872.23 84.3864 L1872.23 91.435 Q1868.22 93.1364 1864.01 94.0276 Q1859.8 94.9188 1855.46 94.9188 Q1844.61 94.9188 1838.25 88.5994 Q1831.93 82.2799 1831.93 71.5045 Q1831.93 60.3645 1837.92 53.8426 Q1843.96 47.2801 1854.17 47.2801 Q1863.32 47.2801 1868.63 53.1944 Q1873.98 59.0683 1873.98 69.1955 M1866.52 67.008 Q1866.44 60.8912 1863.08 57.2454 Q1859.76 53.5995 1854.25 53.5995 Q1848.01 53.5995 1844.24 57.1238 Q1840.52 60.6481 1839.95 67.0485 L1866.52 67.008 Z" fill="#000000" fill-rule="nonzero" fill-opacity="1"></path><path clip-path="url(#clip140)" d="M1893.42 86.9385 L1893.42 111.001 L1885.93 111.001 L1885.93 48.3739 L1893.42 48.3739 L1893.42 55.2604 Q1895.77 51.2095 1899.33 49.2651 Q1902.94 47.2801 1907.92 47.2801 Q1916.19 47.2801 1921.33 53.8426 Q1926.52 60.4051 1926.52 71.0994 Q1926.52 81.7938 1921.33 88.3563 Q1916.19 94.9188 1907.92 94.9188 Q1902.94 94.9188 1899.33 92.9743 Q1895.77 90.9894 1893.42 86.9385 M1918.78 71.0994 Q1918.78 62.8761 1915.38 58.2176 Q1912.01 53.5185 1906.1 53.5185 Q1900.19 53.5185 1896.78 58.2176 Q1893.42 62.8761 1893.42 71.0994 Q1893.42 79.3228 1896.78 84.0218 Q1900.19 88.6804 1906.1 88.6804 Q1912.01 88.6804 1915.38 84.0218 Q1918.78 79.3228 1918.78 71.0994 Z" fill="#000000" fill-rule="nonzero" fill-opacity="1"></path><path clip-path="url(#clip140)" d="M1977.68 69.1955 L1977.68 72.8413 L1943.41 72.8413 Q1943.89 80.5381 1948.03 84.589 Q1952.2 88.5994 1959.61 88.5994 Q1963.91 88.5994 1967.92 87.5461 Q1971.97 86.4929 1975.94 84.3864 L1975.94 91.435 Q1971.93 93.1364 1967.71 94.0276 Q1963.5 94.9188 1959.17 94.9188 Q1948.31 94.9188 1941.95 88.5994 Q1935.63 82.2799 1935.63 71.5045 Q1935.63 60.3645 1941.63 53.8426 Q1947.66 47.2801 1957.87 47.2801 Q1967.03 47.2801 1972.33 53.1944 Q1977.68 59.0683 1977.68 69.1955 M1970.23 67.008 Q1970.14 60.8912 1966.78 57.2454 Q1963.46 53.5995 1957.95 53.5995 Q1951.71 53.5995 1947.95 57.1238 Q1944.22 60.6481 1943.65 67.0485 L1970.23 67.008 Z" fill="#000000" fill-rule="nonzero" fill-opacity="1"></path><path clip-path="url(#clip140)" d="M1997.29 35.492 L1997.29 48.3739 L2012.64 48.3739 L2012.64 54.1667 L1997.29 54.1667 L1997.29 78.7962 Q1997.29 84.3459 1998.78 85.9258 Q2000.32 87.5056 2004.98 87.5056 L2012.64 87.5056 L2012.64 93.744 L2004.98 93.744 Q1996.35 93.744 1993.07 90.5438 Q1989.79 87.3031 1989.79 78.7962 L1989.79 54.1667 L1984.32 54.1667 L1984.32 48.3739 L1989.79 48.3739 L1989.79 35.492 L1997.29 35.492 Z" fill="#000000" fill-rule="nonzero" fill-opacity="1"></path><path clip-path="url(#clip140)" d="M2043.06 70.9374 Q2034.03 70.9374 2030.54 73.0034 Q2027.06 75.0693 2027.06 80.0519 Q2027.06 84.0218 2029.65 86.3714 Q2032.29 88.6804 2036.78 88.6804 Q2042.98 88.6804 2046.71 84.3054 Q2050.47 79.8899 2050.47 72.5983 L2050.47 70.9374 L2043.06 70.9374 M2057.93 67.8587 L2057.93 93.744 L2050.47 93.744 L2050.47 86.8575 Q2047.92 90.9894 2044.11 92.9743 Q2040.31 94.9188 2034.8 94.9188 Q2027.83 94.9188 2023.7 91.0299 Q2019.61 87.1005 2019.61 80.5381 Q2019.61 72.8818 2024.71 68.993 Q2029.85 65.1041 2040.02 65.1041 L2050.47 65.1041 L2050.47 64.3749 Q2050.47 59.2303 2047.07 56.4352 Q2043.71 53.5995 2037.59 53.5995 Q2033.7 53.5995 2030.02 54.5312 Q2026.33 55.463 2022.93 57.3264 L2022.93 50.4398 Q2027.02 48.86 2030.87 48.0903 Q2034.72 47.2801 2038.36 47.2801 Q2048.21 47.2801 2053.07 52.3843 Q2057.93 57.4884 2057.93 67.8587 Z" fill="#000000" fill-rule="nonzero" fill-opacity="1"></path><path clip-path="url(#clip140)" d="M2080.65 35.492 L2080.65 48.3739 L2096.01 48.3739 L2096.01 54.1667 L2080.65 54.1667 L2080.65 78.7962 Q2080.65 84.3459 2082.15 85.9258 Q2083.69 87.5056 2088.35 87.5056 L2096.01 87.5056 L2096.01 93.744 L2088.35 93.744 Q2079.72 93.744 2076.44 90.5438 Q2073.16 87.3031 2073.16 78.7962 L2073.16 54.1667 L2067.69 54.1667 L2067.69 48.3739 L2073.16 48.3739 L2073.16 35.492 L2080.65 35.492 Z" fill="#000000" fill-rule="nonzero" fill-opacity="1"></path><path clip-path="url(#clip140)" d="M2105.81 48.3739 L2113.26 48.3739 L2113.26 93.744 L2105.81 93.744 L2105.81 48.3739 M2105.81 30.7119 L2113.26 30.7119 L2113.26 40.1505 L2105.81 40.1505 L2105.81 30.7119 Z" fill="#000000" fill-rule="nonzero" fill-opacity="1"></path><path clip-path="url(#clip140)" d="M2146.44 53.5995 Q2140.44 53.5995 2136.96 58.2986 Q2133.48 62.9571 2133.48 71.0994 Q2133.48 79.2418 2136.92 83.9408 Q2140.4 88.5994 2146.44 88.5994 Q2152.39 88.5994 2155.88 83.9003 Q2159.36 79.2013 2159.36 71.0994 Q2159.36 63.0381 2155.88 58.3391 Q2152.39 53.5995 2146.44 53.5995 M2146.44 47.2801 Q2156.16 47.2801 2161.71 53.5995 Q2167.26 59.9189 2167.26 71.0994 Q2167.26 82.2394 2161.71 88.5994 Q2156.16 94.9188 2146.44 94.9188 Q2136.68 94.9188 2131.13 88.5994 Q2125.62 82.2394 2125.62 71.0994 Q2125.62 59.9189 2131.13 53.5995 Q2136.68 47.2801 2146.44 47.2801 Z" fill="#000000" fill-rule="nonzero" fill-opacity="1"></path><path clip-path="url(#clip140)" d="M2217.33 66.3599 L2217.33 93.744 L2209.88 93.744 L2209.88 66.6029 Q2209.88 60.162 2207.37 56.9618 Q2204.85 53.7616 2199.83 53.7616 Q2193.79 53.7616 2190.31 57.6099 Q2186.83 61.4583 2186.83 68.1018 L2186.83 93.744 L2179.33 93.744 L2179.33 48.3739 L2186.83 48.3739 L2186.83 55.4224 Q2189.5 51.331 2193.11 49.3056 Q2196.75 47.2801 2201.49 47.2801 Q2209.31 47.2801 2213.32 52.1412 Q2217.33 56.9618 2217.33 66.3599 Z" fill="#000000" fill-rule="nonzero" fill-opacity="1"></path><path clip-path="url(#clip140)" d="M833.562 145.98 L833.562 121.432 L841.015 121.432 L841.015 184.464 L833.562 184.464 L833.562 177.658 Q831.212 181.709 827.607 183.694 Q824.042 185.639 819.019 185.639 Q810.796 185.639 805.611 179.076 Q800.466 172.514 800.466 161.819 Q800.466 151.125 805.611 144.563 Q810.796 138 819.019 138 Q824.042 138 827.607 139.985 Q831.212 141.93 833.562 145.98 M808.163 161.819 Q808.163 170.043 811.525 174.742 Q814.928 179.4 820.842 179.4 Q826.756 179.4 830.159 174.742 Q833.562 170.043 833.562 161.819 Q833.562 153.596 830.159 148.938 Q826.756 144.239 820.842 144.239 Q814.928 144.239 811.525 148.938 Q808.163 153.596 808.163 161.819 Z" fill="#000000" fill-rule="nonzero" fill-opacity="1"></path><path clip-path="url(#clip140)" d="M856.368 139.094 L863.822 139.094 L863.822 184.464 L856.368 184.464 L856.368 139.094 M856.368 121.432 L863.822 121.432 L863.822 130.871 L856.368 130.871 L856.368 121.432 Z" fill="#000000" fill-rule="nonzero" fill-opacity="1"></path><path clip-path="url(#clip140)" d="M908.341 140.431 L908.341 147.479 Q905.182 145.859 901.779 145.049 Q898.376 144.239 894.73 144.239 Q889.181 144.239 886.386 145.94 Q883.631 147.641 883.631 151.044 Q883.631 153.637 885.616 155.135 Q887.601 156.594 893.596 157.931 L896.148 158.498 Q904.088 160.199 907.41 163.318 Q910.772 166.397 910.772 171.947 Q910.772 178.266 905.749 181.952 Q900.766 185.639 892.016 185.639 Q888.371 185.639 884.401 184.91 Q880.471 184.221 876.096 182.803 L876.096 175.106 Q880.228 177.253 884.239 178.347 Q888.249 179.4 892.178 179.4 Q897.445 179.4 900.28 177.618 Q903.116 175.795 903.116 172.514 Q903.116 169.476 901.05 167.855 Q899.024 166.235 892.097 164.736 L889.505 164.128 Q882.578 162.67 879.499 159.672 Q876.42 156.634 876.42 151.368 Q876.42 144.968 880.957 141.484 Q885.494 138 893.839 138 Q897.971 138 901.617 138.608 Q905.263 139.215 908.341 140.431 Z" fill="#000000" fill-rule="nonzero" fill-opacity="1"></path><path clip-path="url(#clip140)" d="M930.014 126.212 L930.014 139.094 L945.367 139.094 L945.367 144.887 L930.014 144.887 L930.014 169.516 Q930.014 175.066 931.513 176.646 Q933.052 178.226 937.711 178.226 L945.367 178.226 L945.367 184.464 L937.711 184.464 Q929.082 184.464 925.801 181.264 Q922.52 178.023 922.52 169.516 L922.52 144.887 L917.051 144.887 L917.051 139.094 L922.52 139.094 L922.52 126.212 L930.014 126.212 Z" fill="#000000" fill-rule="nonzero" fill-opacity="1"></path><path clip-path="url(#clip140)" d="M981.46 146.061 Q980.205 145.332 978.706 145.008 Q977.247 144.644 975.465 144.644 Q969.146 144.644 965.743 148.776 Q962.381 152.867 962.381 160.564 L962.381 184.464 L954.886 184.464 L954.886 139.094 L962.381 139.094 L962.381 146.142 Q964.73 142.011 968.497 140.026 Q972.265 138 977.652 138 Q978.422 138 979.354 138.122 Q980.286 138.203 981.42 138.405 L981.46 146.061 Z" fill="#000000" fill-rule="nonzero" fill-opacity="1"></path><path clip-path="url(#clip140)" d="M989.279 139.094 L996.732 139.094 L996.732 184.464 L989.279 184.464 L989.279 139.094 M989.279 121.432 L996.732 121.432 L996.732 130.871 L989.279 130.871 L989.279 121.432 Z" fill="#000000" fill-rule="nonzero" fill-opacity="1"></path><path clip-path="url(#clip140)" d="M1044.9 161.819 Q1044.9 153.596 1041.49 148.938 Q1038.13 144.239 1032.22 144.239 Q1026.3 144.239 1022.9 148.938 Q1019.54 153.596 1019.54 161.819 Q1019.54 170.043 1022.9 174.742 Q1026.3 179.4 1032.22 179.4 Q1038.13 179.4 1041.49 174.742 Q1044.9 170.043 1044.9 161.819 M1019.54 145.98 Q1021.89 141.93 1025.45 139.985 Q1029.06 138 1034.04 138 Q1042.3 138 1047.45 144.563 Q1052.63 151.125 1052.63 161.819 Q1052.63 172.514 1047.45 179.076 Q1042.3 185.639 1034.04 185.639 Q1029.06 185.639 1025.45 183.694 Q1021.89 181.709 1019.54 177.658 L1019.54 184.464 L1012.04 184.464 L1012.04 121.432 L1019.54 121.432 L1019.54 145.98 Z" fill="#000000" fill-rule="nonzero" fill-opacity="1"></path><path clip-path="url(#clip140)" d="M1064.22 166.559 L1064.22 139.094 L1071.67 139.094 L1071.67 166.275 Q1071.67 172.716 1074.19 175.957 Q1076.7 179.157 1081.72 179.157 Q1087.76 179.157 1091.24 175.309 Q1094.76 171.461 1094.76 164.817 L1094.76 139.094 L1102.22 139.094 L1102.22 184.464 L1094.76 184.464 L1094.76 177.496 Q1092.05 181.628 1088.44 183.654 Q1084.88 185.639 1080.14 185.639 Q1072.32 185.639 1068.27 180.778 Q1064.22 175.917 1064.22 166.559 M1082.98 138 L1082.98 138 Z" fill="#000000" fill-rule="nonzero" fill-opacity="1"></path><path clip-path="url(#clip140)" d="M1124.94 126.212 L1124.94 139.094 L1140.3 139.094 L1140.3 144.887 L1124.94 144.887 L1124.94 169.516 Q1124.94 175.066 1126.44 176.646 Q1127.98 178.226 1132.64 178.226 L1140.3 178.226 L1140.3 184.464 L1132.64 184.464 Q1124.01 184.464 1120.73 181.264 Q1117.45 178.023 1117.45 169.516 L1117.45 144.887 L1111.98 144.887 L1111.98 139.094 L1117.45 139.094 L1117.45 126.212 L1124.94 126.212 Z" fill="#000000" fill-rule="nonzero" fill-opacity="1"></path><path clip-path="url(#clip140)" d="M1150.1 139.094 L1157.55 139.094 L1157.55 184.464 L1150.1 184.464 L1150.1 139.094 M1150.1 121.432 L1157.55 121.432 L1157.55 130.871 L1150.1 130.871 L1150.1 121.432 Z" fill="#000000" fill-rule="nonzero" fill-opacity="1"></path><path clip-path="url(#clip140)" d="M1190.73 144.32 Q1184.73 144.32 1181.25 149.019 Q1177.77 153.677 1177.77 161.819 Q1177.77 169.962 1181.21 174.661 Q1184.69 179.319 1190.73 179.319 Q1196.68 179.319 1200.17 174.62 Q1203.65 169.921 1203.65 161.819 Q1203.65 153.758 1200.17 149.059 Q1196.68 144.32 1190.73 144.32 M1190.73 138 Q1200.45 138 1206 144.32 Q1211.55 150.639 1211.55 161.819 Q1211.55 172.959 1206 179.319 Q1200.45 185.639 1190.73 185.639 Q1180.97 185.639 1175.42 179.319 Q1169.91 172.959 1169.91 161.819 Q1169.91 150.639 1175.42 144.32 Q1180.97 138 1190.73 138 Z" fill="#000000" fill-rule="nonzero" fill-opacity="1"></path><path clip-path="url(#clip140)" d="M1261.62 157.08 L1261.62 184.464 L1254.17 184.464 L1254.17 157.323 Q1254.17 150.882 1251.66 147.682 Q1249.14 144.482 1244.12 144.482 Q1238.09 144.482 1234.6 148.33 Q1231.12 152.178 1231.12 158.822 L1231.12 184.464 L1223.62 184.464 L1223.62 139.094 L1231.12 139.094 L1231.12 146.142 Q1233.79 142.051 1237.4 140.026 Q1241.04 138 1245.78 138 Q1253.6 138 1257.61 142.861 Q1261.62 147.682 1261.62 157.08 Z" fill="#000000" fill-rule="nonzero" fill-opacity="1"></path><path clip-path="url(#clip140)" d="M1278.39 174.175 L1286.94 174.175 L1286.94 184.464 L1278.39 184.464 L1278.39 174.175 M1278.39 141.565 L1286.94 141.565 L1286.94 151.854 L1278.39 151.854 L1278.39 141.565 Z" fill="#000000" fill-rule="nonzero" fill-opacity="1"></path><path clip-path="url(#clip140)" d="M1330.12 121.432 L1347.3 121.432 L1347.3 127.225 L1337.58 127.225 L1337.58 189.609 L1347.3 189.609 L1347.3 195.401 L1330.12 195.401 L1330.12 121.432 Z" fill="#000000" fill-rule="nonzero" fill-opacity="1"></path><path clip-path="url(#clip140)" d="M1381.73 129.372 Q1375.41 129.372 1372.21 135.61 Q1369.05 141.808 1369.05 154.285 Q1369.05 166.721 1372.21 172.959 Q1375.41 179.157 1381.73 179.157 Q1388.09 179.157 1391.25 172.959 Q1394.45 166.721 1394.45 154.285 Q1394.45 141.808 1391.25 135.61 Q1388.09 129.372 1381.73 129.372 M1381.73 122.89 Q1391.9 122.89 1397.25 130.952 Q1402.63 138.972 1402.63 154.285 Q1402.63 169.557 1397.25 177.618 Q1391.9 185.639 1381.73 185.639 Q1371.56 185.639 1366.17 177.618 Q1360.83 169.557 1360.83 154.285 Q1360.83 138.972 1366.17 130.952 Q1371.56 122.89 1381.73 122.89 Z" fill="#000000" fill-rule="nonzero" fill-opacity="1"></path><path clip-path="url(#clip140)" d="M1417.01 174.175 L1425.56 174.175 L1425.56 184.464 L1417.01 184.464 L1417.01 174.175 Z" fill="#000000" fill-rule="nonzero" fill-opacity="1"></path><path clip-path="url(#clip140)" d="M1444.8 177.577 L1458.17 177.577 L1458.17 131.438 L1443.63 134.354 L1443.63 126.901 L1458.09 123.984 L1466.27 123.984 L1466.27 177.577 L1479.64 177.577 L1479.64 184.464 L1444.8 184.464 L1444.8 177.577 Z" fill="#000000" fill-rule="nonzero" fill-opacity="1"></path><path clip-path="url(#clip140)" d="M1496.25 123.984 L1528.37 123.984 L1528.37 130.871 L1503.74 130.871 L1503.74 145.697 Q1505.53 145.089 1507.31 144.806 Q1509.09 144.482 1510.87 144.482 Q1521 144.482 1526.91 150.031 Q1532.83 155.581 1532.83 165.06 Q1532.83 174.823 1526.75 180.251 Q1520.68 185.639 1509.62 185.639 Q1505.81 185.639 1501.84 184.991 Q1497.91 184.342 1493.7 183.046 L1493.7 174.823 Q1497.34 176.808 1501.23 177.78 Q1505.12 178.752 1509.46 178.752 Q1516.46 178.752 1520.55 175.066 Q1524.65 171.38 1524.65 165.06 Q1524.65 158.741 1520.55 155.054 Q1516.46 151.368 1509.46 151.368 Q1506.17 151.368 1502.89 152.097 Q1499.65 152.826 1496.25 154.366 L1496.25 123.984 Z" fill="#000000" fill-rule="nonzero" fill-opacity="1"></path><path clip-path="url(#clip140)" d="M1549.8 174.175 L1558.35 174.175 L1558.35 181.142 L1551.71 194.105 L1546.48 194.105 L1549.8 181.142 L1549.8 174.175 Z" fill="#000000" fill-rule="nonzero" fill-opacity="1"></path><path clip-path="url(#clip140)" d="M1619.19 129.372 Q1612.87 129.372 1609.67 135.61 Q1606.51 141.808 1606.51 154.285 Q1606.51 166.721 1609.67 172.959 Q1612.87 179.157 1619.19 179.157 Q1625.55 179.157 1628.71 172.959 Q1631.91 166.721 1631.91 154.285 Q1631.91 141.808 1628.71 135.61 Q1625.55 129.372 1619.19 129.372 M1619.19 122.89 Q1629.36 122.89 1634.71 130.952 Q1640.1 138.972 1640.1 154.285 Q1640.1 169.557 1634.71 177.618 Q1629.36 185.639 1619.19 185.639 Q1609.03 185.639 1603.64 177.618 Q1598.29 169.557 1598.29 154.285 Q1598.29 138.972 1603.64 130.952 Q1609.03 122.89 1619.19 122.89 Z" fill="#000000" fill-rule="nonzero" fill-opacity="1"></path><path clip-path="url(#clip140)" d="M1654.48 174.175 L1663.02 174.175 L1663.02 184.464 L1654.48 184.464 L1654.48 174.175 Z" fill="#000000" fill-rule="nonzero" fill-opacity="1"></path><path clip-path="url(#clip140)" d="M1698.35 155.743 Q1692.52 155.743 1689.15 158.862 Q1685.83 161.981 1685.83 167.45 Q1685.83 172.919 1689.15 176.038 Q1692.52 179.157 1698.35 179.157 Q1704.18 179.157 1707.54 176.038 Q1710.91 172.878 1710.91 167.45 Q1710.91 161.981 1707.54 158.862 Q1704.22 155.743 1698.35 155.743 M1690.17 152.259 Q1684.9 150.963 1681.94 147.358 Q1679.03 143.752 1679.03 138.567 Q1679.03 131.316 1684.17 127.103 Q1689.36 122.89 1698.35 122.89 Q1707.38 122.89 1712.53 127.103 Q1717.67 131.316 1717.67 138.567 Q1717.67 143.752 1714.71 147.358 Q1711.8 150.963 1706.57 152.259 Q1712.49 153.637 1715.77 157.647 Q1719.09 161.657 1719.09 167.45 Q1719.09 176.241 1713.7 180.94 Q1708.35 185.639 1698.35 185.639 Q1688.34 185.639 1682.96 180.94 Q1677.61 176.241 1677.61 167.45 Q1677.61 161.657 1680.93 157.647 Q1684.25 153.637 1690.17 152.259 M1687.17 139.337 Q1687.17 144.036 1690.08 146.669 Q1693.04 149.302 1698.35 149.302 Q1703.61 149.302 1706.57 146.669 Q1709.57 144.036 1709.57 139.337 Q1709.57 134.638 1706.57 132.005 Q1703.61 129.372 1698.35 129.372 Q1693.04 129.372 1690.08 132.005 Q1687.17 134.638 1687.17 139.337 Z" fill="#000000" fill-rule="nonzero" fill-opacity="1"></path><path clip-path="url(#clip140)" d="M1733.71 123.984 L1765.84 123.984 L1765.84 130.871 L1741.21 130.871 L1741.21 145.697 Q1742.99 145.089 1744.77 144.806 Q1746.55 144.482 1748.34 144.482 Q1758.46 144.482 1764.38 150.031 Q1770.29 155.581 1770.29 165.06 Q1770.29 174.823 1764.22 180.251 Q1758.14 185.639 1747.08 185.639 Q1743.27 185.639 1739.3 184.991 Q1735.37 184.342 1731.16 183.046 L1731.16 174.823 Q1734.81 176.808 1738.7 177.78 Q1742.58 178.752 1746.92 178.752 Q1753.93 178.752 1758.02 175.066 Q1762.11 171.38 1762.11 165.06 Q1762.11 158.741 1758.02 155.054 Q1753.93 151.368 1746.92 151.368 Q1743.64 151.368 1740.36 152.097 Q1737.12 152.826 1733.71 154.366 L1733.71 123.984 Z" fill="#000000" fill-rule="nonzero" fill-opacity="1"></path><path clip-path="url(#clip140)" d="M1802.78 121.432 L1802.78 195.401 L1785.61 195.401 L1785.61 189.609 L1795.29 189.609 L1795.29 127.225 L1785.61 127.225 L1785.61 121.432 L1802.78 121.432 Z" fill="#000000" fill-rule="nonzero" fill-opacity="1"></path><polyline clip-path="url(#clip142)" style="stroke:#009af9; stroke-linecap:round; stroke-linejoin:round; stroke-width:4; stroke-opacity:1; fill:none" points="279.916,1388.11 783.033,641.086 1286.15,299.24 1789.27,246.311 2292.38,219.025 "></polyline>
<path clip-path="url(#clip140)" d="M290.649 328.94 L556.401 328.94 L556.401 225.26 L290.649 225.26  Z" fill="#ffffff" fill-rule="evenodd" fill-opacity="1"></path>
<polyline clip-path="url(#clip140)" style="stroke:#000000; stroke-linecap:round; stroke-linejoin:round; stroke-width:4; stroke-opacity:1; fill:none" points="290.649,328.94 556.401,328.94 556.401,225.26 290.649,225.26 290.649,328.94 "></polyline>
<polyline clip-path="url(#clip140)" style="stroke:#009af9; stroke-linecap:round; stroke-linejoin:round; stroke-width:4; stroke-opacity:1; fill:none" points="314.352,277.1 456.566,277.1 "></polyline>
<path clip-path="url(#clip140)" d="M494.111 296.787 Q492.305 301.417 490.592 302.829 Q488.879 304.241 486.009 304.241 L482.606 304.241 L482.606 300.676 L485.106 300.676 Q486.866 300.676 487.838 299.843 Q488.81 299.009 489.99 295.907 L490.754 293.963 L480.268 268.454 L484.782 268.454 L492.884 288.732 L500.986 268.454 L505.5 268.454 L494.111 296.787 Z" fill="#000000" fill-rule="nonzero" fill-opacity="1"></path><path clip-path="url(#clip140)" d="M512.791 290.445 L520.43 290.445 L520.43 264.079 L512.12 265.746 L512.12 261.486 L520.384 259.82 L525.06 259.82 L525.06 290.445 L532.699 290.445 L532.699 294.38 L512.791 294.38 L512.791 290.445 Z" fill="#000000" fill-rule="nonzero" fill-opacity="1"></path></svg>