<svg xmlns="http://www.w3.org/2000/svg" xmlns:xlink="http://www.w3.org/1999/xlink" width="600" height="400" viewBox="0 0 2400 1600">
<defs>
  <clipPath id="clip300">
    <rect x="0" y="0" width="2400" height="1600"></rect>
  </clipPath>
</defs>
<path clip-path="url(#clip300)" d="M0 1600 L2400 1600 L2400 0 L0 0  Z" fill="#ffffff" fill-rule="evenodd" fill-opacity="1"></path>
<defs>
  <clipPath id="clip301">
    <rect x="480" y="0" width="1681" height="1600"></rect>
  </clipPath>
</defs>
<path clip-path="url(#clip300)" d="M309.866 1423.18 L2352.76 1423.18 L2352.76 183.952 L309.866 183.952  Z" fill="#ffffff" fill-rule="evenodd" fill-opacity="1"></path>
<defs>
  <clipPath id="clip302">
    <rect x="309" y="183" width="2044" height="1240"></rect>
  </clipPath>
</defs>
<polyline clip-path="url(#clip302)" style="stroke:#000000; stroke-linecap:round; stroke-linejoin:round; stroke-width:2; stroke-opacity:0.1; fill:none" points="367.683,1423.18 367.683,183.952 "></polyline>
<polyline clip-path="url(#clip302)" style="stroke:#000000; stroke-linecap:round; stroke-linejoin:round; stroke-width:2; stroke-opacity:0.1; fill:none" points="849.497,1423.18 849.497,183.952 "></polyline>
<polyline clip-path="url(#clip302)" style="stroke:#000000; stroke-linecap:round; stroke-linejoin:round; stroke-width:2; stroke-opacity:0.1; fill:none" points="1331.31,1423.18 1331.31,183.952 "></polyline>
<polyline clip-path="url(#clip302)" style="stroke:#000000; stroke-linecap:round; stroke-linejoin:round; stroke-width:2; stroke-opacity:0.1; fill:none" points="1813.12,1423.18 1813.12,183.952 "></polyline>
<polyline clip-path="url(#clip302)" style="stroke:#000000; stroke-linecap:round; stroke-linejoin:round; stroke-width:2; stroke-opacity:0.1; fill:none" points="2294.94,1423.18 2294.94,183.952 "></polyline>
<polyline clip-path="url(#clip300)" style="stroke:#000000; stroke-linecap:round; stroke-linejoin:round; stroke-width:4; stroke-opacity:1; fill:none" points="309.866,1423.18 2352.76,1423.18 "></polyline>
<polyline clip-path="url(#clip300)" style="stroke:#000000; stroke-linecap:round; stroke-linejoin:round; stroke-width:4; stroke-opacity:1; fill:none" points="367.683,1423.18 367.683,1404.28 "></polyline>
<polyline clip-path="url(#clip300)" style="stroke:#000000; stroke-linecap:round; stroke-linejoin:round; stroke-width:4; stroke-opacity:1; fill:none" points="849.497,1423.18 849.497,1404.28 "></polyline>
<polyline clip-path="url(#clip300)" style="stroke:#000000; stroke-linecap:round; stroke-linejoin:round; stroke-width:4; stroke-opacity:1; fill:none" points="1331.31,1423.18 1331.31,1404.28 "></polyline>
<polyline clip-path="url(#clip300)" style="stroke:#000000; stroke-linecap:round; stroke-linejoin:round; stroke-width:4; stroke-opacity:1; fill:none" points="1813.12,1423.18 1813.12,1404.28 "></polyline>
<polyline clip-path="url(#clip300)" style="stroke:#000000; stroke-linecap:round; stroke-linejoin:round; stroke-width:4; stroke-opacity:1; fill:none" points="2294.94,1423.18 2294.94,1404.28 "></polyline>
<path clip-path="url(#clip300)" d="M358.065 1481.64 L365.704 1481.64 L365.704 1455.28 L357.394 1456.95 L357.394 1452.69 L365.658 1451.02 L370.334 1451.02 L370.334 1481.64 L377.973 1481.64 L377.973 1485.58 L358.065 1485.58 L358.065 1481.64 Z" fill="#000000" fill-rule="nonzero" fill-opacity="1"></path><path clip-path="url(#clip300)" d="M844.15 1481.64 L860.469 1481.64 L860.469 1485.58 L838.525 1485.58 L838.525 1481.64 Q841.187 1478.89 845.77 1474.26 Q850.377 1469.61 851.557 1468.27 Q853.803 1465.74 854.682 1464.01 Q855.585 1462.25 855.585 1460.56 Q855.585 1457.8 853.641 1456.07 Q851.719 1454.33 848.618 1454.33 Q846.418 1454.33 843.965 1455.09 Q841.534 1455.86 838.756 1457.41 L838.756 1452.69 Q841.581 1451.55 844.034 1450.97 Q846.488 1450.39 848.525 1450.39 Q853.895 1450.39 857.09 1453.08 Q860.284 1455.77 860.284 1460.26 Q860.284 1462.39 859.474 1464.31 Q858.687 1466.2 856.58 1468.8 Q856.002 1469.47 852.9 1472.69 Q849.798 1475.88 844.15 1481.64 Z" fill="#000000" fill-rule="nonzero" fill-opacity="1"></path><path clip-path="url(#clip300)" d="M1335.56 1466.95 Q1338.91 1467.66 1340.79 1469.93 Q1342.69 1472.2 1342.69 1475.53 Q1342.69 1480.65 1339.17 1483.45 Q1335.65 1486.25 1329.17 1486.25 Q1326.99 1486.25 1324.68 1485.81 Q1322.39 1485.39 1319.93 1484.54 L1319.93 1480.02 Q1321.88 1481.16 1324.19 1481.74 Q1326.51 1482.32 1329.03 1482.32 Q1333.43 1482.32 1335.72 1480.58 Q1338.04 1478.84 1338.04 1475.53 Q1338.04 1472.48 1335.88 1470.77 Q1333.75 1469.03 1329.93 1469.03 L1325.91 1469.03 L1325.91 1465.19 L1330.12 1465.19 Q1333.57 1465.19 1335.4 1463.82 Q1337.23 1462.43 1337.23 1459.84 Q1337.23 1457.18 1335.33 1455.77 Q1333.45 1454.33 1329.93 1454.33 Q1328.01 1454.33 1325.81 1454.75 Q1323.61 1455.16 1320.98 1456.04 L1320.98 1451.88 Q1323.64 1451.14 1325.95 1450.77 Q1328.29 1450.39 1330.35 1450.39 Q1335.67 1450.39 1338.78 1452.83 Q1341.88 1455.23 1341.88 1459.35 Q1341.88 1462.22 1340.23 1464.21 Q1338.59 1466.18 1335.56 1466.95 Z" fill="#000000" fill-rule="nonzero" fill-opacity="1"></path><path clip-path="url(#clip300)" d="M1816.13 1455.09 L1804.33 1473.54 L1816.13 1473.54 L1816.13 1455.09 M1814.91 1451.02 L1820.79 1451.02 L1820.79 1473.54 L1825.72 1473.54 L1825.72 1477.43 L1820.79 1477.43 L1820.79 1485.58 L1816.13 1485.58 L1816.13 1477.43 L1800.53 1477.43 L1800.53 1472.92 L1814.91 1451.02 Z" fill="#000000" fill-rule="nonzero" fill-opacity="1"></path><path clip-path="url(#clip300)" d="M2285.22 1451.02 L2303.57 1451.02 L2303.57 1454.96 L2289.5 1454.96 L2289.5 1463.43 Q2290.52 1463.08 2291.54 1462.92 Q2292.55 1462.73 2293.57 1462.73 Q2299.36 1462.73 2302.74 1465.9 Q2306.12 1469.08 2306.12 1474.49 Q2306.12 1480.07 2302.65 1483.17 Q2299.17 1486.25 2292.85 1486.25 Q2290.68 1486.25 2288.41 1485.88 Q2286.17 1485.51 2283.76 1484.77 L2283.76 1480.07 Q2285.84 1481.2 2288.06 1481.76 Q2290.29 1482.32 2292.76 1482.32 Q2296.77 1482.32 2299.1 1480.21 Q2301.44 1478.1 2301.44 1474.49 Q2301.44 1470.88 2299.1 1468.77 Q2296.77 1466.67 2292.76 1466.67 Q2290.89 1466.67 2289.01 1467.08 Q2287.16 1467.5 2285.22 1468.38 L2285.22 1451.02 Z" fill="#000000" fill-rule="nonzero" fill-opacity="1"></path><path clip-path="url(#clip300)" d="M1346.24 1546.53 L1346.24 1568.04 L1340.38 1568.04 L1340.38 1546.72 Q1340.38 1541.66 1338.41 1539.14 Q1336.44 1536.63 1332.49 1536.63 Q1327.75 1536.63 1325.01 1539.65 Q1322.27 1542.68 1322.27 1547.9 L1322.27 1568.04 L1316.38 1568.04 L1316.38 1532.4 L1322.27 1532.4 L1322.27 1537.93 Q1324.37 1534.72 1327.2 1533.13 Q1330.07 1531.54 1333.79 1531.54 Q1339.94 1531.54 1343.09 1535.36 Q1346.24 1539.14 1346.24 1546.53 Z" fill="#000000" fill-rule="nonzero" fill-opacity="1"></path><polyline clip-path="url(#clip302)" style="stroke:#000000; stroke-linecap:round; stroke-linejoin:round; stroke-width:2; stroke-opacity:0.1; fill:none" points="309.866,1300.46 2352.76,1300.46 "></polyline>
<polyline clip-path="url(#clip302)" style="stroke:#000000; stroke-linecap:round; stroke-linejoin:round; stroke-width:2; stroke-opacity:0.1; fill:none" points="309.866,1126.99 2352.76,1126.99 "></polyline>
<polyline clip-path="url(#clip302)" style="stroke:#000000; stroke-linecap:round; stroke-linejoin:round; stroke-width:2; stroke-opacity:0.1; fill:none" points="309.866,953.523 2352.76,953.523 "></polyline>
<polyline clip-path="url(#clip302)" style="stroke:#000000; stroke-linecap:round; stroke-linejoin:round; stroke-width:2; stroke-opacity:0.1; fill:none" points="309.866,780.055 2352.76,780.055 "></polyline>
<polyline clip-path="url(#clip302)" style="stroke:#000000; stroke-linecap:round; stroke-linejoin:round; stroke-width:2; stroke-opacity:0.1; fill:none" points="309.866,606.587 2352.76,606.587 "></polyline>
<polyline clip-path="url(#clip302)" style="stroke:#000000; stroke-linecap:round; stroke-linejoin:round; stroke-width:2; stroke-opacity:0.1; fill:none" points="309.866,433.119 2352.76,433.119 "></polyline>
<polyline clip-path="url(#clip302)" style="stroke:#000000; stroke-linecap:round; stroke-linejoin:round; stroke-width:2; stroke-opacity:0.1; fill:none" points="309.866,259.651 2352.76,259.651 "></polyline>
<polyline clip-path="url(#clip300)" style="stroke:#000000; stroke-linecap:round; stroke-linejoin:round; stroke-width:4; stroke-opacity:1; fill:none" points="309.866,1423.18 309.866,183.952 "></polyline>
<polyline clip-path="url(#clip300)" style="stroke:#000000; stroke-linecap:round; stroke-linejoin:round; stroke-width:4; stroke-opacity:1; fill:none" points="309.866,1300.46 328.763,1300.46 "></polyline>
<polyline clip-path="url(#clip300)" style="stroke:#000000; stroke-linecap:round; stroke-linejoin:round; stroke-width:4; stroke-opacity:1; fill:none" points="309.866,1126.99 328.763,1126.99 "></polyline>
<polyline clip-path="url(#clip300)" style="stroke:#000000; stroke-linecap:round; stroke-linejoin:round; stroke-width:4; stroke-opacity:1; fill:none" points="309.866,953.523 328.763,953.523 "></polyline>
<polyline clip-path="url(#clip300)" style="stroke:#000000; stroke-linecap:round; stroke-linejoin:round; stroke-width:4; stroke-opacity:1; fill:none" points="309.866,780.055 328.763,780.055 "></polyline>
<polyline clip-path="url(#clip300)" style="stroke:#000000; stroke-linecap:round; stroke-linejoin:round; stroke-width:4; stroke-opacity:1; fill:none" points="309.866,606.587 328.763,606.587 "></polyline>
<polyline clip-path="url(#clip300)" style="stroke:#000000; stroke-linecap:round; stroke-linejoin:round; stroke-width:4; stroke-opacity:1; fill:none" points="309.866,433.119 328.763,433.119 "></polyline>
<polyline clip-path="url(#clip300)" style="stroke:#000000; stroke-linecap:round; stroke-linejoin:round; stroke-width:4; stroke-opacity:1; fill:none" points="309.866,259.651 328.763,259.651 "></polyline>
<path clip-path="url(#clip300)" d="M127.2 1286.26 Q123.589 1286.26 121.76 1289.82 Q119.955 1293.36 119.955 1300.49 Q119.955 1307.6 121.76 1311.17 Q123.589 1314.71 127.2 1314.71 Q130.834 1314.71 132.64 1311.17 Q134.468 1307.6 134.468 1300.49 Q134.468 1293.36 132.64 1289.82 Q130.834 1286.26 127.2 1286.26 M127.2 1282.55 Q133.01 1282.55 136.066 1287.16 Q139.144 1291.74 139.144 1300.49 Q139.144 1309.22 136.066 1313.83 Q133.01 1318.41 127.2 1318.41 Q121.39 1318.41 118.311 1313.83 Q115.256 1309.22 115.256 1300.49 Q115.256 1291.74 118.311 1287.16 Q121.39 1282.55 127.2 1282.55 Z" fill="#000000" fill-rule="nonzero" fill-opacity="1"></path><path clip-path="url(#clip300)" d="M147.362 1311.86 L152.246 1311.86 L152.246 1317.74 L147.362 1317.74 L147.362 1311.86 Z" fill="#000000" fill-rule="nonzero" fill-opacity="1"></path><path clip-path="url(#clip300)" d="M162.57 1317.02 L162.57 1312.76 Q164.329 1313.6 166.135 1314.04 Q167.94 1314.48 169.677 1314.48 Q174.306 1314.48 176.737 1311.37 Q179.19 1308.25 179.538 1301.91 Q178.195 1303.9 176.135 1304.96 Q174.075 1306.03 171.575 1306.03 Q166.39 1306.03 163.357 1302.9 Q160.348 1299.75 160.348 1294.31 Q160.348 1288.99 163.496 1285.77 Q166.644 1282.55 171.876 1282.55 Q177.871 1282.55 181.019 1287.16 Q184.19 1291.74 184.19 1300.49 Q184.19 1308.67 180.301 1313.55 Q176.436 1318.41 169.885 1318.41 Q168.126 1318.41 166.32 1318.06 Q164.515 1317.72 162.57 1317.02 M171.876 1302.37 Q175.024 1302.37 176.852 1300.22 Q178.704 1298.06 178.704 1294.31 Q178.704 1290.59 176.852 1288.43 Q175.024 1286.26 171.876 1286.26 Q168.727 1286.26 166.876 1288.43 Q165.047 1290.59 165.047 1294.31 Q165.047 1298.06 166.876 1300.22 Q168.727 1302.37 171.876 1302.37 Z" fill="#000000" fill-rule="nonzero" fill-opacity="1"></path><path clip-path="url(#clip300)" d="M192.732 1317.02 L192.732 1312.76 Q194.491 1313.6 196.297 1314.04 Q198.102 1314.48 199.838 1314.48 Q204.468 1314.48 206.899 1311.37 Q209.352 1308.25 209.699 1301.91 Q208.357 1303.9 206.297 1304.96 Q204.237 1306.03 201.737 1306.03 Q196.551 1306.03 193.519 1302.9 Q190.51 1299.75 190.51 1294.31 Q190.51 1288.99 193.658 1285.77 Q196.806 1282.55 202.037 1282.55 Q208.033 1282.55 211.181 1287.16 Q214.352 1291.74 214.352 1300.49 Q214.352 1308.67 210.463 1313.55 Q206.598 1318.41 200.047 1318.41 Q198.287 1318.41 196.482 1318.06 Q194.676 1317.72 192.732 1317.02 M202.037 1302.37 Q205.186 1302.37 207.014 1300.22 Q208.866 1298.06 208.866 1294.31 Q208.866 1290.59 207.014 1288.43 Q205.186 1286.26 202.037 1286.26 Q198.889 1286.26 197.037 1288.43 Q195.209 1290.59 195.209 1294.31 Q195.209 1298.06 197.037 1300.22 Q198.889 1302.37 202.037 1302.37 Z" fill="#000000" fill-rule="nonzero" fill-opacity="1"></path><path clip-path="url(#clip300)" d="M226.783 1313.8 L243.102 1313.8 L243.102 1317.74 L221.158 1317.74 L221.158 1313.8 Q223.82 1311.05 228.403 1306.42 Q233.01 1301.77 234.19 1300.42 Q236.435 1297.9 237.315 1296.17 Q238.218 1294.41 238.218 1292.72 Q238.218 1289.96 236.273 1288.23 Q234.352 1286.49 231.25 1286.49 Q229.051 1286.49 226.598 1287.25 Q224.167 1288.02 221.389 1289.57 L221.389 1284.85 Q224.213 1283.71 226.667 1283.13 Q229.121 1282.55 231.158 1282.55 Q236.528 1282.55 239.722 1285.24 Q242.917 1287.92 242.917 1292.42 Q242.917 1294.55 242.107 1296.47 Q241.32 1298.36 239.213 1300.96 Q238.634 1301.63 235.533 1304.85 Q232.431 1308.04 226.783 1313.8 Z" fill="#000000" fill-rule="nonzero" fill-opacity="1"></path><path clip-path="url(#clip300)" d="M252.963 1283.18 L271.32 1283.18 L271.32 1287.11 L257.246 1287.11 L257.246 1295.59 Q258.264 1295.24 259.283 1295.08 Q260.301 1294.89 261.32 1294.89 Q267.107 1294.89 270.486 1298.06 Q273.866 1301.24 273.866 1306.65 Q273.866 1312.23 270.394 1315.33 Q266.921 1318.41 260.602 1318.41 Q258.426 1318.41 256.158 1318.04 Q253.912 1317.67 251.505 1316.93 L251.505 1312.23 Q253.588 1313.36 255.81 1313.92 Q258.033 1314.48 260.509 1314.48 Q264.514 1314.48 266.852 1312.37 Q269.19 1310.26 269.19 1306.65 Q269.19 1303.04 266.852 1300.93 Q264.514 1298.83 260.509 1298.83 Q258.634 1298.83 256.759 1299.24 Q254.908 1299.66 252.963 1300.54 L252.963 1283.18 Z" fill="#000000" fill-rule="nonzero" fill-opacity="1"></path><path clip-path="url(#clip300)" d="M126.205 1112.79 Q122.593 1112.79 120.765 1116.35 Q118.959 1119.9 118.959 1127.03 Q118.959 1134.13 120.765 1137.7 Q122.593 1141.24 126.205 1141.24 Q129.839 1141.24 131.644 1137.7 Q133.473 1134.13 133.473 1127.03 Q133.473 1119.9 131.644 1116.35 Q129.839 1112.79 126.205 1112.79 M126.205 1109.09 Q132.015 1109.09 135.07 1113.69 Q138.149 1118.28 138.149 1127.03 Q138.149 1135.75 135.07 1140.36 Q132.015 1144.94 126.205 1144.94 Q120.394 1144.94 117.316 1140.36 Q114.26 1135.75 114.26 1127.03 Q114.26 1118.28 117.316 1113.69 Q120.394 1109.09 126.205 1109.09 Z" fill="#000000" fill-rule="nonzero" fill-opacity="1"></path><path clip-path="url(#clip300)" d="M146.366 1138.39 L151.251 1138.39 L151.251 1144.27 L146.366 1144.27 L146.366 1138.39 Z" fill="#000000" fill-rule="nonzero" fill-opacity="1"></path><path clip-path="url(#clip300)" d="M161.575 1143.55 L161.575 1139.29 Q163.334 1140.13 165.14 1140.57 Q166.945 1141.01 168.681 1141.01 Q173.311 1141.01 175.741 1137.91 Q178.195 1134.78 178.542 1128.44 Q177.2 1130.43 175.139 1131.49 Q173.079 1132.56 170.579 1132.56 Q165.394 1132.56 162.362 1129.43 Q159.353 1126.29 159.353 1120.85 Q159.353 1115.52 162.501 1112.3 Q165.649 1109.09 170.88 1109.09 Q176.876 1109.09 180.024 1113.69 Q183.195 1118.28 183.195 1127.03 Q183.195 1135.2 179.306 1140.08 Q175.44 1144.94 168.889 1144.94 Q167.13 1144.94 165.325 1144.6 Q163.519 1144.25 161.575 1143.55 M170.88 1128.9 Q174.028 1128.9 175.857 1126.75 Q177.709 1124.6 177.709 1120.85 Q177.709 1117.12 175.857 1114.97 Q174.028 1112.79 170.88 1112.79 Q167.732 1112.79 165.88 1114.97 Q164.052 1117.12 164.052 1120.85 Q164.052 1124.6 165.88 1126.75 Q167.732 1128.9 170.88 1128.9 Z" fill="#000000" fill-rule="nonzero" fill-opacity="1"></path><path clip-path="url(#clip300)" d="M191.737 1143.55 L191.737 1139.29 Q193.496 1140.13 195.301 1140.57 Q197.107 1141.01 198.843 1141.01 Q203.473 1141.01 205.903 1137.91 Q208.357 1134.78 208.704 1128.44 Q207.362 1130.43 205.301 1131.49 Q203.241 1132.56 200.741 1132.56 Q195.556 1132.56 192.524 1129.43 Q189.514 1126.29 189.514 1120.85 Q189.514 1115.52 192.663 1112.3 Q195.811 1109.09 201.042 1109.09 Q207.037 1109.09 210.186 1113.69 Q213.357 1118.28 213.357 1127.03 Q213.357 1135.2 209.468 1140.08 Q205.602 1144.94 199.051 1144.94 Q197.292 1144.94 195.487 1144.6 Q193.681 1144.25 191.737 1143.55 M201.042 1128.9 Q204.19 1128.9 206.019 1126.75 Q207.871 1124.6 207.871 1120.85 Q207.871 1117.12 206.019 1114.97 Q204.19 1112.79 201.042 1112.79 Q197.894 1112.79 196.042 1114.97 Q194.213 1117.12 194.213 1120.85 Q194.213 1124.6 196.042 1126.75 Q197.894 1128.9 201.042 1128.9 Z" fill="#000000" fill-rule="nonzero" fill-opacity="1"></path><path clip-path="url(#clip300)" d="M235.926 1125.64 Q239.283 1126.35 241.158 1128.62 Q243.056 1130.89 243.056 1134.23 Q243.056 1139.34 239.537 1142.14 Q236.019 1144.94 229.537 1144.94 Q227.361 1144.94 225.047 1144.5 Q222.755 1144.09 220.301 1143.23 L220.301 1138.72 Q222.246 1139.85 224.56 1140.43 Q226.875 1141.01 229.398 1141.01 Q233.797 1141.01 236.088 1139.27 Q238.403 1137.54 238.403 1134.23 Q238.403 1131.17 236.25 1129.46 Q234.121 1127.72 230.301 1127.72 L226.273 1127.72 L226.273 1123.88 L230.486 1123.88 Q233.935 1123.88 235.764 1122.51 Q237.593 1121.12 237.593 1118.53 Q237.593 1115.87 235.695 1114.46 Q233.82 1113.02 230.301 1113.02 Q228.38 1113.02 226.181 1113.44 Q223.982 1113.85 221.343 1114.73 L221.343 1110.57 Q224.005 1109.83 226.32 1109.46 Q228.658 1109.09 230.718 1109.09 Q236.042 1109.09 239.144 1111.52 Q242.246 1113.92 242.246 1118.04 Q242.246 1120.92 240.602 1122.91 Q238.959 1124.87 235.926 1125.64 Z" fill="#000000" fill-rule="nonzero" fill-opacity="1"></path><path clip-path="url(#clip300)" d="M261.921 1112.79 Q258.31 1112.79 256.482 1116.35 Q254.676 1119.9 254.676 1127.03 Q254.676 1134.13 256.482 1137.7 Q258.31 1141.24 261.921 1141.24 Q265.556 1141.24 267.361 1137.7 Q269.19 1134.13 269.19 1127.03 Q269.19 1119.9 267.361 1116.35 Q265.556 1112.79 261.921 1112.79 M261.921 1109.09 Q267.732 1109.09 270.787 1113.69 Q273.866 1118.28 273.866 1127.03 Q273.866 1135.75 270.787 1140.36 Q267.732 1144.94 261.921 1144.94 Q256.111 1144.94 253.033 1140.36 Q249.977 1135.75 249.977 1127.03 Q249.977 1118.28 253.033 1113.69 Q256.111 1109.09 261.921 1109.09 Z" fill="#000000" fill-rule="nonzero" fill-opacity="1"></path><path clip-path="url(#clip300)" d="M127.2 939.322 Q123.589 939.322 121.76 942.887 Q119.955 946.429 119.955 953.558 Q119.955 960.665 121.76 964.229 Q123.589 967.771 127.2 967.771 Q130.834 967.771 132.64 964.229 Q134.468 960.665 134.468 953.558 Q134.468 946.429 132.64 942.887 Q130.834 939.322 127.2 939.322 M127.2 935.618 Q133.01 935.618 136.066 940.225 Q139.144 944.808 139.144 953.558 Q139.144 962.285 136.066 966.891 Q133.01 971.475 127.2 971.475 Q121.39 971.475 118.311 966.891 Q115.256 962.285 115.256 953.558 Q115.256 944.808 118.311 940.225 Q121.39 935.618 127.2 935.618 Z" fill="#000000" fill-rule="nonzero" fill-opacity="1"></path><path clip-path="url(#clip300)" d="M147.362 964.924 L152.246 964.924 L152.246 970.803 L147.362 970.803 L147.362 964.924 Z" fill="#000000" fill-rule="nonzero" fill-opacity="1"></path><path clip-path="url(#clip300)" d="M162.57 970.086 L162.57 965.827 Q164.329 966.66 166.135 967.1 Q167.94 967.54 169.677 967.54 Q174.306 967.54 176.737 964.438 Q179.19 961.313 179.538 954.97 Q178.195 956.961 176.135 958.026 Q174.075 959.091 171.575 959.091 Q166.39 959.091 163.357 955.966 Q160.348 952.817 160.348 947.378 Q160.348 942.054 163.496 938.836 Q166.644 935.618 171.876 935.618 Q177.871 935.618 181.019 940.225 Q184.19 944.808 184.19 953.558 Q184.19 961.729 180.301 966.614 Q176.436 971.475 169.885 971.475 Q168.126 971.475 166.32 971.127 Q164.515 970.78 162.57 970.086 M171.876 955.433 Q175.024 955.433 176.852 953.28 Q178.704 951.128 178.704 947.378 Q178.704 943.651 176.852 941.498 Q175.024 939.322 171.876 939.322 Q168.727 939.322 166.876 941.498 Q165.047 943.651 165.047 947.378 Q165.047 951.128 166.876 953.28 Q168.727 955.433 171.876 955.433 Z" fill="#000000" fill-rule="nonzero" fill-opacity="1"></path><path clip-path="url(#clip300)" d="M192.732 970.086 L192.732 965.827 Q194.491 966.66 196.297 967.1 Q198.102 967.54 199.838 967.54 Q204.468 967.54 206.899 964.438 Q209.352 961.313 209.699 954.97 Q208.357 956.961 206.297 958.026 Q204.237 959.091 201.737 959.091 Q196.551 959.091 193.519 955.966 Q190.51 952.817 190.51 947.378 Q190.51 942.054 193.658 938.836 Q196.806 935.618 202.037 935.618 Q208.033 935.618 211.181 940.225 Q214.352 944.808 214.352 953.558 Q214.352 961.729 210.463 966.614 Q206.598 971.475 200.047 971.475 Q198.287 971.475 196.482 971.127 Q194.676 970.78 192.732 970.086 M202.037 955.433 Q205.186 955.433 207.014 953.28 Q208.866 951.128 208.866 947.378 Q208.866 943.651 207.014 941.498 Q205.186 939.322 202.037 939.322 Q198.889 939.322 197.037 941.498 Q195.209 943.651 195.209 947.378 Q195.209 951.128 197.037 953.28 Q198.889 955.433 202.037 955.433 Z" fill="#000000" fill-rule="nonzero" fill-opacity="1"></path><path clip-path="url(#clip300)" d="M236.922 952.169 Q240.278 952.887 242.153 955.155 Q244.051 957.424 244.051 960.757 Q244.051 965.873 240.533 968.674 Q237.014 971.475 230.533 971.475 Q228.357 971.475 226.042 971.035 Q223.75 970.618 221.297 969.762 L221.297 965.248 Q223.241 966.382 225.556 966.961 Q227.871 967.54 230.394 967.54 Q234.792 967.54 237.084 965.803 Q239.398 964.067 239.398 960.757 Q239.398 957.702 237.246 955.989 Q235.116 954.253 231.297 954.253 L227.269 954.253 L227.269 950.41 L231.482 950.41 Q234.931 950.41 236.76 949.044 Q238.588 947.655 238.588 945.063 Q238.588 942.401 236.69 940.989 Q234.815 939.554 231.297 939.554 Q229.375 939.554 227.176 939.97 Q224.977 940.387 222.338 941.267 L222.338 937.1 Q225 936.359 227.315 935.989 Q229.653 935.618 231.713 935.618 Q237.037 935.618 240.139 938.049 Q243.241 940.456 243.241 944.577 Q243.241 947.447 241.597 949.438 Q239.954 951.405 236.922 952.169 Z" fill="#000000" fill-rule="nonzero" fill-opacity="1"></path><path clip-path="url(#clip300)" d="M252.963 936.243 L271.32 936.243 L271.32 940.179 L257.246 940.179 L257.246 948.651 Q258.264 948.304 259.283 948.141 Q260.301 947.956 261.32 947.956 Q267.107 947.956 270.486 951.128 Q273.866 954.299 273.866 959.716 Q273.866 965.294 270.394 968.396 Q266.921 971.475 260.602 971.475 Q258.426 971.475 256.158 971.104 Q253.912 970.734 251.505 969.993 L251.505 965.294 Q253.588 966.428 255.81 966.984 Q258.033 967.54 260.509 967.54 Q264.514 967.54 266.852 965.433 Q269.19 963.327 269.19 959.716 Q269.19 956.104 266.852 953.998 Q264.514 951.891 260.509 951.891 Q258.634 951.891 256.759 952.308 Q254.908 952.725 252.963 953.604 L252.963 936.243 Z" fill="#000000" fill-rule="nonzero" fill-opacity="1"></path><path clip-path="url(#clip300)" d="M126.205 765.854 Q122.593 765.854 120.765 769.419 Q118.959 772.96 118.959 780.09 Q118.959 787.197 120.765 790.761 Q122.593 794.303 126.205 794.303 Q129.839 794.303 131.644 790.761 Q133.473 787.197 133.473 780.09 Q133.473 772.96 131.644 769.419 Q129.839 765.854 126.205 765.854 M126.205 762.15 Q132.015 762.15 135.07 766.757 Q138.149 771.34 138.149 780.09 Q138.149 788.817 135.07 793.423 Q132.015 798.007 126.205 798.007 Q120.394 798.007 117.316 793.423 Q114.26 788.817 114.26 780.09 Q114.26 771.34 117.316 766.757 Q120.394 762.15 126.205 762.15 Z" fill="#000000" fill-rule="nonzero" fill-opacity="1"></path><path clip-path="url(#clip300)" d="M146.366 791.456 L151.251 791.456 L151.251 797.335 L146.366 797.335 L146.366 791.456 Z" fill="#000000" fill-rule="nonzero" fill-opacity="1"></path><path clip-path="url(#clip300)" d="M161.575 796.618 L161.575 792.359 Q163.334 793.192 165.14 793.632 Q166.945 794.071 168.681 794.071 Q173.311 794.071 175.741 790.97 Q178.195 787.845 178.542 781.502 Q177.2 783.493 175.139 784.558 Q173.079 785.622 170.579 785.622 Q165.394 785.622 162.362 782.497 Q159.353 779.349 159.353 773.91 Q159.353 768.585 162.501 765.368 Q165.649 762.15 170.88 762.15 Q176.876 762.15 180.024 766.757 Q183.195 771.34 183.195 780.09 Q183.195 788.261 179.306 793.146 Q175.44 798.007 168.889 798.007 Q167.13 798.007 165.325 797.659 Q163.519 797.312 161.575 796.618 M170.88 781.965 Q174.028 781.965 175.857 779.812 Q177.709 777.66 177.709 773.91 Q177.709 770.183 175.857 768.03 Q174.028 765.854 170.88 765.854 Q167.732 765.854 165.88 768.03 Q164.052 770.183 164.052 773.91 Q164.052 777.66 165.88 779.812 Q167.732 781.965 170.88 781.965 Z" fill="#000000" fill-rule="nonzero" fill-opacity="1"></path><path clip-path="url(#clip300)" d="M191.737 796.618 L191.737 792.359 Q193.496 793.192 195.301 793.632 Q197.107 794.071 198.843 794.071 Q203.473 794.071 205.903 790.97 Q208.357 787.845 208.704 781.502 Q207.362 783.493 205.301 784.558 Q203.241 785.622 200.741 785.622 Q195.556 785.622 192.524 782.497 Q189.514 779.349 189.514 773.91 Q189.514 768.585 192.663 765.368 Q195.811 762.15 201.042 762.15 Q207.037 762.15 210.186 766.757 Q213.357 771.34 213.357 780.09 Q213.357 788.261 209.468 793.146 Q205.602 798.007 199.051 798.007 Q197.292 798.007 195.487 797.659 Q193.681 797.312 191.737 796.618 M201.042 781.965 Q204.19 781.965 206.019 779.812 Q207.871 777.66 207.871 773.91 Q207.871 770.183 206.019 768.03 Q204.19 765.854 201.042 765.854 Q197.894 765.854 196.042 768.03 Q194.213 770.183 194.213 773.91 Q194.213 777.66 196.042 779.812 Q197.894 781.965 201.042 781.965 Z" fill="#000000" fill-rule="nonzero" fill-opacity="1"></path><path clip-path="url(#clip300)" d="M234.607 766.849 L222.801 785.298 L234.607 785.298 L234.607 766.849 M233.38 762.775 L239.259 762.775 L239.259 785.298 L244.19 785.298 L244.19 789.187 L239.259 789.187 L239.259 797.335 L234.607 797.335 L234.607 789.187 L219.005 789.187 L219.005 784.673 L233.38 762.775 Z" fill="#000000" fill-rule="nonzero" fill-opacity="1"></path><path clip-path="url(#clip300)" d="M261.921 765.854 Q258.31 765.854 256.482 769.419 Q254.676 772.96 254.676 780.09 Q254.676 787.197 256.482 790.761 Q258.31 794.303 261.921 794.303 Q265.556 794.303 267.361 790.761 Q269.19 787.197 269.19 780.09 Q269.19 772.96 267.361 769.419 Q265.556 765.854 261.921 765.854 M261.921 762.15 Q267.732 762.15 270.787 766.757 Q273.866 771.34 273.866 780.09 Q273.866 788.817 270.787 793.423 Q267.732 798.007 261.921 798.007 Q256.111 798.007 253.033 793.423 Q249.977 788.817 249.977 780.09 Q249.977 771.34 253.033 766.757 Q256.111 762.15 261.921 762.15 Z" fill="#000000" fill-rule="nonzero" fill-opacity="1"></path><path clip-path="url(#clip300)" d="M127.2 592.386 Q123.589 592.386 121.76 595.951 Q119.955 599.492 119.955 606.622 Q119.955 613.728 121.76 617.293 Q123.589 620.835 127.2 620.835 Q130.834 620.835 132.64 617.293 Q134.468 613.728 134.468 606.622 Q134.468 599.492 132.64 595.951 Q130.834 592.386 127.2 592.386 M127.2 588.682 Q133.01 588.682 136.066 593.289 Q139.144 597.872 139.144 606.622 Q139.144 615.349 136.066 619.955 Q133.01 624.539 127.2 624.539 Q121.39 624.539 118.311 619.955 Q115.256 615.349 115.256 606.622 Q115.256 597.872 118.311 593.289 Q121.39 588.682 127.2 588.682 Z" fill="#000000" fill-rule="nonzero" fill-opacity="1"></path><path clip-path="url(#clip300)" d="M147.362 617.988 L152.246 617.988 L152.246 623.867 L147.362 623.867 L147.362 617.988 Z" fill="#000000" fill-rule="nonzero" fill-opacity="1"></path><path clip-path="url(#clip300)" d="M162.57 623.15 L162.57 618.89 Q164.329 619.724 166.135 620.164 Q167.94 620.603 169.677 620.603 Q174.306 620.603 176.737 617.502 Q179.19 614.377 179.538 608.034 Q178.195 610.025 176.135 611.09 Q174.075 612.154 171.575 612.154 Q166.39 612.154 163.357 609.029 Q160.348 605.881 160.348 600.441 Q160.348 595.117 163.496 591.9 Q166.644 588.682 171.876 588.682 Q177.871 588.682 181.019 593.289 Q184.19 597.872 184.19 606.622 Q184.19 614.793 180.301 619.677 Q176.436 624.539 169.885 624.539 Q168.126 624.539 166.32 624.191 Q164.515 623.844 162.57 623.15 M171.876 608.497 Q175.024 608.497 176.852 606.344 Q178.704 604.191 178.704 600.441 Q178.704 596.715 176.852 594.562 Q175.024 592.386 171.876 592.386 Q168.727 592.386 166.876 594.562 Q165.047 596.715 165.047 600.441 Q165.047 604.191 166.876 606.344 Q168.727 608.497 171.876 608.497 Z" fill="#000000" fill-rule="nonzero" fill-opacity="1"></path><path clip-path="url(#clip300)" d="M192.732 623.15 L192.732 618.89 Q194.491 619.724 196.297 620.164 Q198.102 620.603 199.838 620.603 Q204.468 620.603 206.899 617.502 Q209.352 614.377 209.699 608.034 Q208.357 610.025 206.297 611.09 Q204.237 612.154 201.737 612.154 Q196.551 612.154 193.519 609.029 Q190.51 605.881 190.51 600.441 Q190.51 595.117 193.658 591.9 Q196.806 588.682 202.037 588.682 Q208.033 588.682 211.181 593.289 Q214.352 597.872 214.352 606.622 Q214.352 614.793 210.463 619.677 Q206.598 624.539 200.047 624.539 Q198.287 624.539 196.482 624.191 Q194.676 623.844 192.732 623.15 M202.037 608.497 Q205.186 608.497 207.014 606.344 Q208.866 604.191 208.866 600.441 Q208.866 596.715 207.014 594.562 Q205.186 592.386 202.037 592.386 Q198.889 592.386 197.037 594.562 Q195.209 596.715 195.209 600.441 Q195.209 604.191 197.037 606.344 Q198.889 608.497 202.037 608.497 Z" fill="#000000" fill-rule="nonzero" fill-opacity="1"></path><path clip-path="url(#clip300)" d="M235.602 593.381 L223.797 611.83 L235.602 611.83 L235.602 593.381 M234.375 589.307 L240.255 589.307 L240.255 611.83 L245.185 611.83 L245.185 615.719 L240.255 615.719 L240.255 623.867 L235.602 623.867 L235.602 615.719 L220 615.719 L220 611.205 L234.375 589.307 Z" fill="#000000" fill-rule="nonzero" fill-opacity="1"></path><path clip-path="url(#clip300)" d="M252.963 589.307 L271.32 589.307 L271.32 593.242 L257.246 593.242 L257.246 601.715 Q258.264 601.367 259.283 601.205 Q260.301 601.02 261.32 601.02 Q267.107 601.02 270.486 604.191 Q273.866 607.363 273.866 612.779 Q273.866 618.358 270.394 621.46 Q266.921 624.539 260.602 624.539 Q258.426 624.539 256.158 624.168 Q253.912 623.798 251.505 623.057 L251.505 618.358 Q253.588 619.492 255.81 620.048 Q258.033 620.603 260.509 620.603 Q264.514 620.603 266.852 618.497 Q269.19 616.39 269.19 612.779 Q269.19 609.168 266.852 607.062 Q264.514 604.955 260.509 604.955 Q258.634 604.955 256.759 605.372 Q254.908 605.789 252.963 606.668 L252.963 589.307 Z" fill="#000000" fill-rule="nonzero" fill-opacity="1"></path><path clip-path="url(#clip300)" d="M126.205 418.918 Q122.593 418.918 120.765 422.483 Q118.959 426.024 118.959 433.154 Q118.959 440.26 120.765 443.825 Q122.593 447.367 126.205 447.367 Q129.839 447.367 131.644 443.825 Q133.473 440.26 133.473 433.154 Q133.473 426.024 131.644 422.483 Q129.839 418.918 126.205 418.918 M126.205 415.214 Q132.015 415.214 135.07 419.821 Q138.149 424.404 138.149 433.154 Q138.149 441.881 135.07 446.487 Q132.015 451.07 126.205 451.07 Q120.394 451.07 117.316 446.487 Q114.26 441.881 114.26 433.154 Q114.26 424.404 117.316 419.821 Q120.394 415.214 126.205 415.214 Z" fill="#000000" fill-rule="nonzero" fill-opacity="1"></path><path clip-path="url(#clip300)" d="M146.366 444.52 L151.251 444.52 L151.251 450.399 L146.366 450.399 L146.366 444.52 Z" fill="#000000" fill-rule="nonzero" fill-opacity="1"></path><path clip-path="url(#clip300)" d="M161.575 449.682 L161.575 445.422 Q163.334 446.256 165.14 446.696 Q166.945 447.135 168.681 447.135 Q173.311 447.135 175.741 444.034 Q178.195 440.909 178.542 434.566 Q177.2 436.557 175.139 437.621 Q173.079 438.686 170.579 438.686 Q165.394 438.686 162.362 435.561 Q159.353 432.413 159.353 426.973 Q159.353 421.649 162.501 418.432 Q165.649 415.214 170.88 415.214 Q176.876 415.214 180.024 419.821 Q183.195 424.404 183.195 433.154 Q183.195 441.325 179.306 446.209 Q175.44 451.07 168.889 451.07 Q167.13 451.07 165.325 450.723 Q163.519 450.376 161.575 449.682 M170.88 435.029 Q174.028 435.029 175.857 432.876 Q177.709 430.723 177.709 426.973 Q177.709 423.247 175.857 421.094 Q174.028 418.918 170.88 418.918 Q167.732 418.918 165.88 421.094 Q164.052 423.247 164.052 426.973 Q164.052 430.723 165.88 432.876 Q167.732 435.029 170.88 435.029 Z" fill="#000000" fill-rule="nonzero" fill-opacity="1"></path><path clip-path="url(#clip300)" d="M191.737 449.682 L191.737 445.422 Q193.496 446.256 195.301 446.696 Q197.107 447.135 198.843 447.135 Q203.473 447.135 205.903 444.034 Q208.357 440.909 208.704 434.566 Q207.362 436.557 205.301 437.621 Q203.241 438.686 200.741 438.686 Q195.556 438.686 192.524 435.561 Q189.514 432.413 189.514 426.973 Q189.514 421.649 192.663 418.432 Q195.811 415.214 201.042 415.214 Q207.037 415.214 210.186 419.821 Q213.357 424.404 213.357 433.154 Q213.357 441.325 209.468 446.209 Q205.602 451.07 199.051 451.07 Q197.292 451.07 195.487 450.723 Q193.681 450.376 191.737 449.682 M201.042 435.029 Q204.19 435.029 206.019 432.876 Q207.871 430.723 207.871 426.973 Q207.871 423.247 206.019 421.094 Q204.19 418.918 201.042 418.918 Q197.894 418.918 196.042 421.094 Q194.213 423.247 194.213 426.973 Q194.213 430.723 196.042 432.876 Q197.894 435.029 201.042 435.029 Z" fill="#000000" fill-rule="nonzero" fill-opacity="1"></path><path clip-path="url(#clip300)" d="M221.806 415.839 L240.162 415.839 L240.162 419.774 L226.088 419.774 L226.088 428.247 Q227.107 427.899 228.125 427.737 Q229.144 427.552 230.162 427.552 Q235.949 427.552 239.329 430.723 Q242.709 433.895 242.709 439.311 Q242.709 444.89 239.236 447.992 Q235.764 451.07 229.445 451.07 Q227.269 451.07 225 450.7 Q222.755 450.33 220.348 449.589 L220.348 444.89 Q222.431 446.024 224.653 446.58 Q226.875 447.135 229.352 447.135 Q233.357 447.135 235.695 445.029 Q238.033 442.922 238.033 439.311 Q238.033 435.7 235.695 433.594 Q233.357 431.487 229.352 431.487 Q227.477 431.487 225.602 431.904 Q223.75 432.321 221.806 433.2 L221.806 415.839 Z" fill="#000000" fill-rule="nonzero" fill-opacity="1"></path><path clip-path="url(#clip300)" d="M261.921 418.918 Q258.31 418.918 256.482 422.483 Q254.676 426.024 254.676 433.154 Q254.676 440.26 256.482 443.825 Q258.31 447.367 261.921 447.367 Q265.556 447.367 267.361 443.825 Q269.19 440.26 269.19 433.154 Q269.19 426.024 267.361 422.483 Q265.556 418.918 261.921 418.918 M261.921 415.214 Q267.732 415.214 270.787 419.821 Q273.866 424.404 273.866 433.154 Q273.866 441.881 270.787 446.487 Q267.732 451.07 261.921 451.07 Q256.111 451.07 253.033 446.487 Q249.977 441.881 249.977 433.154 Q249.977 424.404 253.033 419.821 Q256.111 415.214 261.921 415.214 Z" fill="#000000" fill-rule="nonzero" fill-opacity="1"></path><path clip-path="url(#clip300)" d="M127.2 245.45 Q123.589 245.45 121.76 249.015 Q119.955 252.556 119.955 259.686 Q119.955 266.792 121.76 270.357 Q123.589 273.899 127.2 273.899 Q130.834 273.899 132.64 270.357 Q134.468 266.792 134.468 259.686 Q134.468 252.556 132.64 249.015 Q130.834 245.45 127.2 245.45 M127.2 241.746 Q133.01 241.746 136.066 246.353 Q139.144 250.936 139.144 259.686 Q139.144 268.413 136.066 273.019 Q133.01 277.602 127.2 277.602 Q121.39 277.602 118.311 273.019 Q115.256 268.413 115.256 259.686 Q115.256 250.936 118.311 246.353 Q121.39 241.746 127.2 241.746 Z" fill="#000000" fill-rule="nonzero" fill-opacity="1"></path><path clip-path="url(#clip300)" d="M147.362 271.052 L152.246 271.052 L152.246 276.931 L147.362 276.931 L147.362 271.052 Z" fill="#000000" fill-rule="nonzero" fill-opacity="1"></path><path clip-path="url(#clip300)" d="M162.57 276.214 L162.57 271.954 Q164.329 272.788 166.135 273.227 Q167.94 273.667 169.677 273.667 Q174.306 273.667 176.737 270.565 Q179.19 267.44 179.538 261.098 Q178.195 263.089 176.135 264.153 Q174.075 265.218 171.575 265.218 Q166.39 265.218 163.357 262.093 Q160.348 258.945 160.348 253.505 Q160.348 248.181 163.496 244.964 Q166.644 241.746 171.876 241.746 Q177.871 241.746 181.019 246.353 Q184.19 250.936 184.19 259.686 Q184.19 267.857 180.301 272.741 Q176.436 277.602 169.885 277.602 Q168.126 277.602 166.32 277.255 Q164.515 276.908 162.57 276.214 M171.876 261.561 Q175.024 261.561 176.852 259.408 Q178.704 257.255 178.704 253.505 Q178.704 249.779 176.852 247.626 Q175.024 245.45 171.876 245.45 Q168.727 245.45 166.876 247.626 Q165.047 249.779 165.047 253.505 Q165.047 257.255 166.876 259.408 Q168.727 261.561 171.876 261.561 Z" fill="#000000" fill-rule="nonzero" fill-opacity="1"></path><path clip-path="url(#clip300)" d="M192.732 276.214 L192.732 271.954 Q194.491 272.788 196.297 273.227 Q198.102 273.667 199.838 273.667 Q204.468 273.667 206.899 270.565 Q209.352 267.44 209.699 261.098 Q208.357 263.089 206.297 264.153 Q204.237 265.218 201.737 265.218 Q196.551 265.218 193.519 262.093 Q190.51 258.945 190.51 253.505 Q190.51 248.181 193.658 244.964 Q196.806 241.746 202.037 241.746 Q208.033 241.746 211.181 246.353 Q214.352 250.936 214.352 259.686 Q214.352 267.857 210.463 272.741 Q206.598 277.602 200.047 277.602 Q198.287 277.602 196.482 277.255 Q194.676 276.908 192.732 276.214 M202.037 261.561 Q205.186 261.561 207.014 259.408 Q208.866 257.255 208.866 253.505 Q208.866 249.779 207.014 247.626 Q205.186 245.45 202.037 245.45 Q198.889 245.45 197.037 247.626 Q195.209 249.779 195.209 253.505 Q195.209 257.255 197.037 259.408 Q198.889 261.561 202.037 261.561 Z" fill="#000000" fill-rule="nonzero" fill-opacity="1"></path><path clip-path="url(#clip300)" d="M222.801 242.371 L241.158 242.371 L241.158 246.306 L227.084 246.306 L227.084 254.778 Q228.102 254.431 229.121 254.269 Q230.139 254.084 231.158 254.084 Q236.945 254.084 240.324 257.255 Q243.704 260.427 243.704 265.843 Q243.704 271.422 240.232 274.524 Q236.76 277.602 230.44 277.602 Q228.264 277.602 225.996 277.232 Q223.75 276.862 221.343 276.121 L221.343 271.422 Q223.426 272.556 225.648 273.112 Q227.871 273.667 230.347 273.667 Q234.352 273.667 236.69 271.561 Q239.028 269.454 239.028 265.843 Q239.028 262.232 236.69 260.126 Q234.352 258.019 230.347 258.019 Q228.473 258.019 226.598 258.436 Q224.746 258.853 222.801 259.732 L222.801 242.371 Z" fill="#000000" fill-rule="nonzero" fill-opacity="1"></path><path clip-path="url(#clip300)" d="M252.963 242.371 L271.32 242.371 L271.32 246.306 L257.246 246.306 L257.246 254.778 Q258.264 254.431 259.283 254.269 Q260.301 254.084 261.32 254.084 Q267.107 254.084 270.486 257.255 Q273.866 260.427 273.866 265.843 Q273.866 271.422 270.394 274.524 Q266.921 277.602 260.602 277.602 Q258.426 277.602 256.158 277.232 Q253.912 276.862 251.505 276.121 L251.505 271.422 Q253.588 272.556 255.81 273.112 Q258.033 273.667 260.509 273.667 Q264.514 273.667 266.852 271.561 Q269.19 269.454 269.19 265.843 Q269.19 262.232 266.852 260.126 Q264.514 258.019 260.509 258.019 Q258.634 258.019 256.759 258.436 Q254.908 258.853 252.963 259.732 L252.963 242.371 Z" fill="#000000" fill-rule="nonzero" fill-opacity="1"></path><path clip-path="url(#clip300)" d="M42.4881 1062.89 L77.5631 1062.89 L77.5631 1068.75 L42.679 1068.75 Q37.6183 1068.75 35.1038 1070.72 Q32.5894 1072.69 32.5894 1076.64 Q32.5894 1081.38 35.6131 1084.12 Q38.6368 1086.86 43.8567 1086.86 L64.0042 1086.86 L64.0042 1092.74 L28.3562 1092.74 L28.3562 1086.86 L33.8944 1086.86 Q30.6797 1084.76 29.0883 1081.92 Q27.4968 1079.06 27.4968 1075.33 Q27.4968 1069.19 31.2844 1066.04 Q35.1038 1062.89 42.4881 1062.89 Z" fill="#000000" fill-rule="nonzero" fill-opacity="1"></path><path clip-path="url(#clip300)" d="M34.4036 1029.72 L34.4036 988.919 L39.7508 988.919 L39.7508 1029.72 L34.4036 1029.72 M47.3897 1029.72 L47.3897 988.919 L52.8005 988.919 L52.8005 1029.72 L47.3897 1029.72 Z" fill="#000000" fill-rule="nonzero" fill-opacity="1"></path><path clip-path="url(#clip300)" d="M16.4842 954.895 L16.4842 948.465 L35.9632 948.465 L35.9632 925.103 L16.4842 925.103 L16.4842 918.674 L64.0042 918.674 L64.0042 925.103 L41.3741 925.103 L41.3741 948.465 L64.0042 948.465 L64.0042 954.895 L16.4842 954.895 Z" fill="#000000" fill-rule="nonzero" fill-opacity="1"></path><path clip-path="url(#clip300)" d="M74.8259 879.047 L79.3773 879.047 L79.3773 912.913 L74.8259 912.913 L74.8259 879.047 Z" fill="#000000" fill-rule="nonzero" fill-opacity="1"></path><path clip-path="url(#clip300)" d="M33.7671 850.083 L14.479 850.083 L14.479 844.227 L64.0042 844.227 L64.0042 850.083 L58.657 850.083 Q61.8398 851.929 63.3994 854.762 Q64.9272 857.563 64.9272 861.51 Q64.9272 867.971 59.771 872.045 Q54.6147 876.087 46.212 876.087 Q37.8093 876.087 32.6531 872.045 Q27.4968 867.971 27.4968 861.51 Q27.4968 857.563 29.0564 854.762 Q30.5842 851.929 33.7671 850.083 M46.212 870.04 Q52.6732 870.04 56.3653 867.398 Q60.0256 864.725 60.0256 860.078 Q60.0256 855.431 56.3653 852.757 Q52.6732 850.083 46.212 850.083 Q39.7508 850.083 36.0905 852.757 Q32.3984 855.431 32.3984 860.078 Q32.3984 864.725 36.0905 867.398 Q39.7508 870.04 46.212 870.04 Z" fill="#000000" fill-rule="nonzero" fill-opacity="1"></path><path clip-path="url(#clip300)" d="M28.3562 832.164 L28.3562 826.307 L64.0042 826.307 L64.0042 832.164 L28.3562 832.164 M14.479 832.164 L14.479 826.307 L21.895 826.307 L21.895 832.164 L14.479 832.164 Z" fill="#000000" fill-rule="nonzero" fill-opacity="1"></path><path clip-path="url(#clip300)" d="M29.4065 791.328 L34.9447 791.328 Q33.6716 793.811 33.035 796.484 Q32.3984 799.158 32.3984 802.022 Q32.3984 806.383 33.7352 808.579 Q35.072 810.743 37.7456 810.743 Q39.7826 810.743 40.9603 809.184 Q42.1061 807.624 43.1565 802.913 L43.6021 800.908 Q44.9389 794.67 47.3897 792.06 Q49.8086 789.418 54.1691 789.418 Q59.1344 789.418 62.0308 793.365 Q64.9272 797.28 64.9272 804.155 Q64.9272 807.019 64.3543 810.139 Q63.8132 813.226 62.6992 816.663 L56.6518 816.663 Q58.3387 813.417 59.198 810.266 Q60.0256 807.115 60.0256 804.027 Q60.0256 799.89 58.6251 797.662 Q57.1929 795.434 54.6147 795.434 Q52.2276 795.434 50.9545 797.057 Q49.6813 798.648 48.5037 804.091 L48.0262 806.128 Q46.8804 811.571 44.5251 813.99 Q42.138 816.409 38.0002 816.409 Q32.9713 816.409 30.2341 812.844 Q27.4968 809.279 27.4968 802.723 Q27.4968 799.476 27.9743 796.611 Q28.4517 793.747 29.4065 791.328 Z" fill="#000000" fill-rule="nonzero" fill-opacity="1"></path><path clip-path="url(#clip300)" d="M18.2347 774.3 L28.3562 774.3 L28.3562 762.237 L32.9077 762.237 L32.9077 774.3 L52.2594 774.3 Q56.6199 774.3 57.8613 773.122 Q59.1026 771.913 59.1026 768.252 L59.1026 762.237 L64.0042 762.237 L64.0042 768.252 Q64.0042 775.032 61.4897 777.61 Q58.9434 780.188 52.2594 780.188 L32.9077 780.188 L32.9077 784.485 L28.3562 784.485 L28.3562 780.188 L18.2347 780.188 L18.2347 774.3 Z" fill="#000000" fill-rule="nonzero" fill-opacity="1"></path><path clip-path="url(#clip300)" d="M16.4842 723.406 L16.4842 717.995 L70.0516 734.546 L70.0516 739.957 L16.4842 723.406 Z" fill="#000000" fill-rule="nonzero" fill-opacity="1"></path><path clip-path="url(#clip300)" d="M16.4842 690.877 L16.4842 684.448 L58.5933 684.448 L58.5933 661.308 L64.0042 661.308 L64.0042 690.877 L16.4842 690.877 Z" fill="#000000" fill-rule="nonzero" fill-opacity="1"></path><path clip-path="url(#clip300)" d="M74.8259 627.729 L79.3773 627.729 L79.3773 661.595 L74.8259 661.595 L74.8259 627.729 Z" fill="#000000" fill-rule="nonzero" fill-opacity="1"></path><path clip-path="url(#clip300)" d="M46.0847 606.022 Q46.0847 613.12 47.7079 615.857 Q49.3312 618.594 53.2461 618.594 Q56.3653 618.594 58.2114 616.557 Q60.0256 614.489 60.0256 610.956 Q60.0256 606.086 56.5881 603.158 Q53.1188 600.198 47.3897 600.198 L46.0847 600.198 L46.0847 606.022 M43.6657 594.341 L64.0042 594.341 L64.0042 600.198 L58.5933 600.198 Q61.8398 602.203 63.3994 605.195 Q64.9272 608.187 64.9272 612.515 Q64.9272 617.99 61.8716 621.236 Q58.7843 624.451 53.6281 624.451 Q47.6125 624.451 44.5569 620.441 Q41.5014 616.398 41.5014 608.409 L41.5014 600.198 L40.9285 600.198 Q36.8862 600.198 34.6901 602.871 Q32.4621 605.513 32.4621 610.319 Q32.4621 613.375 33.1941 616.271 Q33.9262 619.167 35.3903 621.841 L29.9795 621.841 Q28.7381 618.626 28.1334 615.603 Q27.4968 612.579 27.4968 609.714 Q27.4968 601.98 31.5072 598.161 Q35.5176 594.341 43.6657 594.341 Z" fill="#000000" fill-rule="nonzero" fill-opacity="1"></path><path clip-path="url(#clip300)" d="M28.3562 586.479 L28.3562 580.273 L58.275 569.133 L28.3562 557.993 L28.3562 551.786 L64.0042 565.154 L64.0042 573.111 L28.3562 586.479 Z" fill="#000000" fill-rule="nonzero" fill-opacity="1"></path><path clip-path="url(#clip300)" d="M45.7664 520.244 Q39.4007 520.244 35.8996 522.886 Q32.3984 525.496 32.3984 530.238 Q32.3984 534.949 35.8996 537.591 Q39.4007 540.201 45.7664 540.201 Q52.1003 540.201 55.6014 537.591 Q59.1026 534.949 59.1026 530.238 Q59.1026 525.496 55.6014 522.886 Q52.1003 520.244 45.7664 520.244 M59.58 514.388 Q68.683 514.388 73.1071 518.43 Q77.5631 522.472 77.5631 530.811 Q77.5631 533.899 77.0857 536.636 Q76.6401 539.373 75.6852 541.951 L69.9879 541.951 Q71.3884 539.373 72.0568 536.859 Q72.7252 534.344 72.7252 531.734 Q72.7252 525.973 69.7015 523.109 Q66.7096 520.244 60.6303 520.244 L57.7339 520.244 Q60.885 522.059 62.4446 524.891 Q64.0042 527.724 64.0042 531.671 Q64.0042 538.227 59.0071 542.238 Q54.01 546.248 45.7664 546.248 Q37.491 546.248 32.4939 542.238 Q27.4968 538.227 27.4968 531.671 Q27.4968 527.724 29.0564 524.891 Q30.616 522.059 33.7671 520.244 L28.3562 520.244 L28.3562 514.388 L59.58 514.388 Z" fill="#000000" fill-rule="nonzero" fill-opacity="1"></path><path clip-path="url(#clip300)" d="M366.71 33.264 L404.95 33.264 L404.95 40.1505 L374.892 40.1505 L374.892 58.0555 L403.694 58.0555 L403.694 64.9421 L374.892 64.9421 L374.892 86.8575 L405.679 86.8575 L405.679 93.744 L366.71 93.744 L366.71 33.264 Z" fill="#000000" fill-rule="nonzero" fill-opacity="1"></path><path clip-path="url(#clip300)" d="M441.773 30.7119 L441.773 36.9098 L434.643 36.9098 Q430.633 36.9098 429.053 38.5302 Q427.514 40.1505 427.514 44.3635 L427.514 48.3739 L439.788 48.3739 L439.788 54.1667 L427.514 54.1667 L427.514 93.744 L420.019 93.744 L420.019 54.1667 L412.89 54.1667 L412.89 48.3739 L420.019 48.3739 L420.019 45.2142 Q420.019 37.639 423.544 34.1957 Q427.068 30.7119 434.724 30.7119 L441.773 30.7119 Z" fill="#000000" fill-rule="nonzero" fill-opacity="1"></path><path clip-path="url(#clip300)" d="M470.98 30.7119 L470.98 36.9098 L463.85 36.9098 Q459.84 36.9098 458.26 38.5302 Q456.721 40.1505 456.721 44.3635 L456.721 48.3739 L468.995 48.3739 L468.995 54.1667 L456.721 54.1667 L456.721 93.744 L449.226 93.744 L449.226 54.1667 L442.097 54.1667 L442.097 48.3739 L449.226 48.3739 L449.226 45.2142 Q449.226 37.639 452.751 34.1957 Q456.275 30.7119 463.931 30.7119 L470.98 30.7119 Z" fill="#000000" fill-rule="nonzero" fill-opacity="1"></path><path clip-path="url(#clip300)" d="M477.218 48.3739 L484.672 48.3739 L484.672 93.744 L477.218 93.744 L477.218 48.3739 M477.218 30.7119 L484.672 30.7119 L484.672 40.1505 L477.218 40.1505 L477.218 30.7119 Z" fill="#000000" fill-rule="nonzero" fill-opacity="1"></path><path clip-path="url(#clip300)" d="M532.918 50.1158 L532.918 57.0833 Q529.758 55.3414 526.558 54.4907 Q523.399 53.5995 520.158 53.5995 Q512.907 53.5995 508.896 58.2176 Q504.886 62.7951 504.886 71.0994 Q504.886 79.4038 508.896 84.0218 Q512.907 88.5994 520.158 88.5994 Q523.399 88.5994 526.558 87.7487 Q529.758 86.8575 532.918 85.1156 L532.918 92.0021 Q529.799 93.4604 526.437 94.1896 Q523.115 94.9188 519.348 94.9188 Q509.099 94.9188 503.063 88.4778 Q497.027 82.0369 497.027 71.0994 Q497.027 60 503.103 53.64 Q509.22 47.2801 519.834 47.2801 Q523.277 47.2801 526.558 48.0093 Q529.839 48.6979 532.918 50.1158 Z" fill="#000000" fill-rule="nonzero" fill-opacity="1"></path><path clip-path="url(#clip300)" d="M545.881 48.3739 L553.335 48.3739 L553.335 93.744 L545.881 93.744 L545.881 48.3739 M545.881 30.7119 L553.335 30.7119 L553.335 40.1505 L545.881 40.1505 L545.881 30.7119 Z" fill="#000000" fill-rule="nonzero" fill-opacity="1"></path><path clip-path="url(#clip300)" d="M607.738 69.1955 L607.738 72.8413 L573.468 72.8413 Q573.954 80.5381 578.086 84.589 Q582.258 88.5994 589.671 88.5994 Q593.965 88.5994 597.976 87.5461 Q602.027 86.4929 605.996 84.3864 L605.996 91.435 Q601.986 93.1364 597.773 94.0276 Q593.56 94.9188 589.226 94.9188 Q578.369 94.9188 572.009 88.5994 Q565.69 82.2799 565.69 71.5045 Q565.69 60.3645 571.685 53.8426 Q577.721 47.2801 587.929 47.2801 Q597.084 47.2801 602.391 53.1944 Q607.738 59.0683 607.738 69.1955 M600.285 67.008 Q600.204 60.8912 596.841 57.2454 Q593.52 53.5995 588.01 53.5995 Q581.772 53.5995 578.005 57.1238 Q574.278 60.6481 573.711 67.0485 L600.285 67.008 Z" fill="#000000" fill-rule="nonzero" fill-opacity="1"></path><path clip-path="url(#clip300)" d="M657.686 66.3599 L657.686 93.744 L650.232 93.744 L650.232 66.6029 Q650.232 60.162 647.721 56.9618 Q645.209 53.7616 640.186 53.7616 Q634.15 53.7616 630.666 57.6099 Q627.183 61.4583 627.183 68.1018 L627.183 93.744 L619.689 93.744 L619.689 48.3739 L627.183 48.3739 L627.183 55.4224 Q629.856 51.331 633.462 49.3056 Q637.107 47.2801 641.847 47.2801 Q649.665 47.2801 653.676 52.1412 Q657.686 56.9618 657.686 66.3599 Z" fill="#000000" fill-rule="nonzero" fill-opacity="1"></path><path clip-path="url(#clip300)" d="M691.43 97.9569 Q688.27 106.059 685.273 108.53 Q682.275 111.001 677.252 111.001 L671.297 111.001 L671.297 104.762 L675.672 104.762 Q678.751 104.762 680.452 103.304 Q682.153 101.846 684.219 96.4176 L685.556 93.0148 L667.206 48.3739 L675.105 48.3739 L689.283 83.8598 L703.461 48.3739 L711.36 48.3739 L691.43 97.9569 Z" fill="#000000" fill-rule="nonzero" fill-opacity="1"></path><path clip-path="url(#clip300)" d="M765.602 53.5995 Q759.607 53.5995 756.123 58.2986 Q752.639 62.9571 752.639 71.0994 Q752.639 79.2418 756.082 83.9408 Q759.566 88.5994 765.602 88.5994 Q771.557 88.5994 775.041 83.9003 Q778.524 79.2013 778.524 71.0994 Q778.524 63.0381 775.041 58.3391 Q771.557 53.5995 765.602 53.5995 M765.602 47.2801 Q775.324 47.2801 780.874 53.5995 Q786.424 59.9189 786.424 71.0994 Q786.424 82.2394 780.874 88.5994 Q775.324 94.9188 765.602 94.9188 Q755.839 94.9188 750.29 88.5994 Q744.78 82.2394 744.78 71.0994 Q744.78 59.9189 750.29 53.5995 Q755.839 47.2801 765.602 47.2801 Z" fill="#000000" fill-rule="nonzero" fill-opacity="1"></path><path clip-path="url(#clip300)" d="M821.748 30.7119 L821.748 36.9098 L814.618 36.9098 Q810.608 36.9098 809.028 38.5302 Q807.488 40.1505 807.488 44.3635 L807.488 48.3739 L819.763 48.3739 L819.763 54.1667 L807.488 54.1667 L807.488 93.744 L799.994 93.744 L799.994 54.1667 L792.865 54.1667 L792.865 48.3739 L799.994 48.3739 L799.994 45.2142 Q799.994 37.639 803.519 34.1957 Q807.043 30.7119 814.699 30.7119 L821.748 30.7119 Z" fill="#000000" fill-rule="nonzero" fill-opacity="1"></path><path clip-path="url(#clip300)" d="M854.681 33.264 L862.864 33.264 L862.864 58.0555 L892.598 58.0555 L892.598 33.264 L900.781 33.264 L900.781 93.744 L892.598 93.744 L892.598 64.9421 L862.864 64.9421 L862.864 93.744 L854.681 93.744 L854.681 33.264 Z" fill="#000000" fill-rule="nonzero" fill-opacity="1"></path><path clip-path="url(#clip300)" d="M915.972 75.839 L915.972 48.3739 L923.425 48.3739 L923.425 75.5554 Q923.425 81.9964 925.937 85.2371 Q928.448 88.4373 933.472 88.4373 Q939.507 88.4373 942.991 84.589 Q946.515 80.7406 946.515 74.0971 L946.515 48.3739 L953.969 48.3739 L953.969 93.744 L946.515 93.744 L946.515 86.7764 Q943.801 90.9084 940.196 92.9338 Q936.631 94.9188 931.892 94.9188 Q924.073 94.9188 920.023 90.0577 Q915.972 85.1966 915.972 75.839 M934.727 47.2801 L934.727 47.2801 Z" fill="#000000" fill-rule="nonzero" fill-opacity="1"></path><path clip-path="url(#clip300)" d="M992.291 30.7119 L992.291 36.9098 L985.161 36.9098 Q981.151 36.9098 979.571 38.5302 Q978.031 40.1505 978.031 44.3635 L978.031 48.3739 L990.306 48.3739 L990.306 54.1667 L978.031 54.1667 L978.031 93.744 L970.537 93.744 L970.537 54.1667 L963.408 54.1667 L963.408 48.3739 L970.537 48.3739 L970.537 45.2142 Q970.537 37.639 974.062 34.1957 Q977.586 30.7119 985.242 30.7119 L992.291 30.7119 Z" fill="#000000" fill-rule="nonzero" fill-opacity="1"></path><path clip-path="url(#clip300)" d="M1021.5 30.7119 L1021.5 36.9098 L1014.37 36.9098 Q1010.36 36.9098 1008.78 38.5302 Q1007.24 40.1505 1007.24 44.3635 L1007.24 48.3739 L1019.51 48.3739 L1019.51 54.1667 L1007.24 54.1667 L1007.24 93.744 L999.744 93.744 L999.744 54.1667 L992.615 54.1667 L992.615 48.3739 L999.744 48.3739 L999.744 45.2142 Q999.744 37.639 1003.27 34.1957 Q1006.79 30.7119 1014.45 30.7119 L1021.5 30.7119 Z" fill="#000000" fill-rule="nonzero" fill-opacity="1"></path><path clip-path="url(#clip300)" d="M1063.06 57.0833 Q1065.86 52.0602 1069.74 49.6702 Q1073.63 47.2801 1078.9 47.2801 Q1085.99 47.2801 1089.84 52.2627 Q1093.68 57.2048 1093.68 66.3599 L1093.68 93.744 L1086.19 93.744 L1086.19 66.6029 Q1086.19 60.081 1083.88 56.9213 Q1081.57 53.7616 1076.83 53.7616 Q1071.04 53.7616 1067.68 57.6099 Q1064.32 61.4583 1064.32 68.1018 L1064.32 93.744 L1056.82 93.744 L1056.82 66.6029 Q1056.82 60.0405 1054.51 56.9213 Q1052.2 53.7616 1047.38 53.7616 Q1041.67 53.7616 1038.31 57.6504 Q1034.95 61.4988 1034.95 68.1018 L1034.95 93.744 L1027.45 93.744 L1027.45 48.3739 L1034.95 48.3739 L1034.95 55.4224 Q1037.5 51.25 1041.06 49.2651 Q1044.63 47.2801 1049.53 47.2801 Q1054.47 47.2801 1057.92 49.7917 Q1061.4 52.3032 1063.06 57.0833 Z" fill="#000000" fill-rule="nonzero" fill-opacity="1"></path><path clip-path="url(#clip300)" d="M1129.17 70.9374 Q1120.14 70.9374 1116.65 73.0034 Q1113.17 75.0693 1113.17 80.0519 Q1113.17 84.0218 1115.76 86.3714 Q1118.4 88.6804 1122.89 88.6804 Q1129.09 88.6804 1132.82 84.3054 Q1136.58 79.8899 1136.58 72.5983 L1136.58 70.9374 L1129.17 70.9374 M1144.04 67.8587 L1144.04 93.744 L1136.58 93.744 L1136.58 86.8575 Q1134.03 90.9894 1130.22 92.9743 Q1126.42 94.9188 1120.91 94.9188 Q1113.94 94.9188 1109.81 91.0299 Q1105.72 87.1005 1105.72 80.5381 Q1105.72 72.8818 1110.82 68.993 Q1115.96 65.1041 1126.13 65.1041 L1136.58 65.1041 L1136.58 64.3749 Q1136.58 59.2303 1133.18 56.4352 Q1129.82 53.5995 1123.7 53.5995 Q1119.81 53.5995 1116.13 54.5312 Q1112.44 55.463 1109.04 57.3264 L1109.04 50.4398 Q1113.13 48.86 1116.98 48.0903 Q1120.83 47.2801 1124.47 47.2801 Q1134.32 47.2801 1139.18 52.3843 Q1144.04 57.4884 1144.04 67.8587 Z" fill="#000000" fill-rule="nonzero" fill-opacity="1"></path><path clip-path="url(#clip300)" d="M1197.1 66.3599 L1197.1 93.744 L1189.65 93.744 L1189.65 66.6029 Q1189.65 60.162 1187.14 56.9618 Q1184.63 53.7616 1179.6 53.7616 Q1173.57 53.7616 1170.08 57.6099 Q1166.6 61.4583 1166.6 68.1018 L1166.6 93.744 L1159.11 93.744 L1159.11 48.3739 L1166.6 48.3739 L1166.6 55.4224 Q1169.27 51.331 1172.88 49.3056 Q1176.53 47.2801 1181.27 47.2801 Q1189.08 47.2801 1193.09 52.1412 Q1197.1 56.9618 1197.1 66.3599 Z" fill="#000000" fill-rule="nonzero" fill-opacity="1"></path><path clip-path="url(#clip300)" d="M1277.15 69.1955 L1277.15 72.8413 L1242.88 72.8413 Q1243.37 80.5381 1247.5 84.589 Q1251.67 88.5994 1259.08 88.5994 Q1263.38 88.5994 1267.39 87.5461 Q1271.44 86.4929 1275.41 84.3864 L1275.41 91.435 Q1271.4 93.1364 1267.19 94.0276 Q1262.97 94.9188 1258.64 94.9188 Q1247.78 94.9188 1241.42 88.5994 Q1235.1 82.2799 1235.1 71.5045 Q1235.1 60.3645 1241.1 53.8426 Q1247.13 47.2801 1257.34 47.2801 Q1266.5 47.2801 1271.8 53.1944 Q1277.15 59.0683 1277.15 69.1955 M1269.7 67.008 Q1269.62 60.8912 1266.25 57.2454 Q1262.93 53.5995 1257.42 53.5995 Q1251.18 53.5995 1247.42 57.1238 Q1243.69 60.6481 1243.12 67.0485 L1269.7 67.008 Z" fill="#000000" fill-rule="nonzero" fill-opacity="1"></path><path clip-path="url(#clip300)" d="M1327.1 66.3599 L1327.1 93.744 L1319.64 93.744 L1319.64 66.6029 Q1319.64 60.162 1317.13 56.9618 Q1314.62 53.7616 1309.6 53.7616 Q1303.56 53.7616 1300.08 57.6099 Q1296.59 61.4583 1296.59 68.1018 L1296.59 93.744 L1289.1 93.744 L1289.1 48.3739 L1296.59 48.3739 L1296.59 55.4224 Q1299.27 51.331 1302.87 49.3056 Q1306.52 47.2801 1311.26 47.2801 Q1319.08 47.2801 1323.09 52.1412 Q1327.1 56.9618 1327.1 66.3599 Z" fill="#000000" fill-rule="nonzero" fill-opacity="1"></path><path clip-path="url(#clip300)" d="M1374.62 50.1158 L1374.62 57.0833 Q1371.46 55.3414 1368.26 54.4907 Q1365.1 53.5995 1361.85 53.5995 Q1354.6 53.5995 1350.59 58.2176 Q1346.58 62.7951 1346.58 71.0994 Q1346.58 79.4038 1350.59 84.0218 Q1354.6 88.5994 1361.85 88.5994 Q1365.1 88.5994 1368.26 87.7487 Q1371.46 86.8575 1374.62 85.1156 L1374.62 92.0021 Q1371.5 93.4604 1368.13 94.1896 Q1364.81 94.9188 1361.04 94.9188 Q1350.8 94.9188 1344.76 88.4778 Q1338.72 82.0369 1338.72 71.0994 Q1338.72 60 1344.8 53.64 Q1350.92 47.2801 1361.53 47.2801 Q1364.97 47.2801 1368.26 48.0093 Q1371.54 48.6979 1374.62 50.1158 Z" fill="#000000" fill-rule="nonzero" fill-opacity="1"></path><path clip-path="url(#clip300)" d="M1405.16 53.5995 Q1399.16 53.5995 1395.68 58.2986 Q1392.2 62.9571 1392.2 71.0994 Q1392.2 79.2418 1395.64 83.9408 Q1399.12 88.5994 1405.16 88.5994 Q1411.11 88.5994 1414.6 83.9003 Q1418.08 79.2013 1418.08 71.0994 Q1418.08 63.0381 1414.6 58.3391 Q1411.11 53.5995 1405.16 53.5995 M1405.16 47.2801 Q1414.88 47.2801 1420.43 53.5995 Q1425.98 59.9189 1425.98 71.0994 Q1425.98 82.2394 1420.43 88.5994 Q1414.88 94.9188 1405.16 94.9188 Q1395.4 94.9188 1389.85 88.5994 Q1384.34 82.2394 1384.34 71.0994 Q1384.34 59.9189 1389.85 53.5995 Q1395.4 47.2801 1405.16 47.2801 Z" fill="#000000" fill-rule="nonzero" fill-opacity="1"></path><path clip-path="url(#clip300)" d="M1468.19 55.2604 L1468.19 30.7119 L1475.64 30.7119 L1475.64 93.744 L1468.19 93.744 L1468.19 86.9385 Q1465.84 90.9894 1462.24 92.9743 Q1458.67 94.9188 1453.65 94.9188 Q1445.42 94.9188 1440.24 88.3563 Q1435.1 81.7938 1435.1 71.0994 Q1435.1 60.4051 1440.24 53.8426 Q1445.42 47.2801 1453.65 47.2801 Q1458.67 47.2801 1462.24 49.2651 Q1465.84 51.2095 1468.19 55.2604 M1442.79 71.0994 Q1442.79 79.3228 1446.15 84.0218 Q1449.56 88.6804 1455.47 88.6804 Q1461.39 88.6804 1464.79 84.0218 Q1468.19 79.3228 1468.19 71.0994 Q1468.19 62.8761 1464.79 58.2176 Q1461.39 53.5185 1455.47 53.5185 Q1449.56 53.5185 1446.15 58.2176 Q1442.79 62.8761 1442.79 71.0994 Z" fill="#000000" fill-rule="nonzero" fill-opacity="1"></path><path clip-path="url(#clip300)" d="M1491 48.3739 L1498.45 48.3739 L1498.45 93.744 L1491 93.744 L1491 48.3739 M1491 30.7119 L1498.45 30.7119 L1498.45 40.1505 L1491 40.1505 L1491 30.7119 Z" fill="#000000" fill-rule="nonzero" fill-opacity="1"></path><path clip-path="url(#clip300)" d="M1551.76 66.3599 L1551.76 93.744 L1544.31 93.744 L1544.31 66.6029 Q1544.31 60.162 1541.8 56.9618 Q1539.28 53.7616 1534.26 53.7616 Q1528.23 53.7616 1524.74 57.6099 Q1521.26 61.4583 1521.26 68.1018 L1521.26 93.744 L1513.76 93.744 L1513.76 48.3739 L1521.26 48.3739 L1521.26 55.4224 Q1523.93 51.331 1527.54 49.3056 Q1531.18 47.2801 1535.92 47.2801 Q1543.74 47.2801 1547.75 52.1412 Q1551.76 56.9618 1551.76 66.3599 Z" fill="#000000" fill-rule="nonzero" fill-opacity="1"></path><path clip-path="url(#clip300)" d="M1596.48 70.5323 Q1596.48 62.4305 1593.12 57.9745 Q1589.8 53.5185 1583.76 53.5185 Q1577.77 53.5185 1574.41 57.9745 Q1571.08 62.4305 1571.08 70.5323 Q1571.08 78.5936 1574.41 83.0496 Q1577.77 87.5056 1583.76 87.5056 Q1589.8 87.5056 1593.12 83.0496 Q1596.48 78.5936 1596.48 70.5323 M1603.94 88.1132 Q1603.94 99.6988 1598.79 105.33 Q1593.65 111.001 1583.03 111.001 Q1579.1 111.001 1575.62 110.393 Q1572.14 109.826 1568.86 108.611 L1568.86 101.36 Q1572.14 103.142 1575.34 103.993 Q1578.54 104.843 1581.86 104.843 Q1589.19 104.843 1592.84 100.995 Q1596.48 97.1873 1596.48 89.45 L1596.48 85.7637 Q1594.17 89.7741 1590.57 91.7591 Q1586.96 93.744 1581.94 93.744 Q1573.6 93.744 1568.49 87.3841 Q1563.39 81.0242 1563.39 70.5323 Q1563.39 60 1568.49 53.64 Q1573.6 47.2801 1581.94 47.2801 Q1586.96 47.2801 1590.57 49.2651 Q1594.17 51.25 1596.48 55.2604 L1596.48 48.3739 L1603.94 48.3739 L1603.94 88.1132 Z" fill="#000000" fill-rule="nonzero" fill-opacity="1"></path><path clip-path="url(#clip300)" d="M1641.33 48.3739 L1648.78 48.3739 L1658.1 83.7788 L1667.37 48.3739 L1676.16 48.3739 L1685.48 83.7788 L1694.76 48.3739 L1702.21 48.3739 L1690.34 93.744 L1681.55 93.744 L1671.79 56.5567 L1661.99 93.744 L1653.2 93.744 L1641.33 48.3739 Z" fill="#000000" fill-rule="nonzero" fill-opacity="1"></path><path clip-path="url(#clip300)" d="M1713.51 48.3739 L1720.97 48.3739 L1720.97 93.744 L1713.51 93.744 L1713.51 48.3739 M1713.51 30.7119 L1720.97 30.7119 L1720.97 40.1505 L1713.51 40.1505 L1713.51 30.7119 Z" fill="#000000" fill-rule="nonzero" fill-opacity="1"></path><path clip-path="url(#clip300)" d="M1743.94 35.492 L1743.94 48.3739 L1759.29 48.3739 L1759.29 54.1667 L1743.94 54.1667 L1743.94 78.7962 Q1743.94 84.3459 1745.43 85.9258 Q1746.97 87.5056 1751.63 87.5056 L1759.29 87.5056 L1759.29 93.744 L1751.63 93.744 Q1743 93.744 1739.72 90.5438 Q1736.44 87.3031 1736.44 78.7962 L1736.44 54.1667 L1730.97 54.1667 L1730.97 48.3739 L1736.44 48.3739 L1736.44 35.492 L1743.94 35.492 Z" fill="#000000" fill-rule="nonzero" fill-opacity="1"></path><path clip-path="url(#clip300)" d="M1806.81 66.3599 L1806.81 93.744 L1799.35 93.744 L1799.35 66.6029 Q1799.35 60.162 1796.84 56.9618 Q1794.33 53.7616 1789.31 53.7616 Q1783.27 53.7616 1779.79 57.6099 Q1776.3 61.4583 1776.3 68.1018 L1776.3 93.744 L1768.81 93.744 L1768.81 30.7119 L1776.3 30.7119 L1776.3 55.4224 Q1778.98 51.331 1782.58 49.3056 Q1786.23 47.2801 1790.97 47.2801 Q1798.79 47.2801 1802.8 52.1412 Q1806.81 56.9618 1806.81 66.3599 Z" fill="#000000" fill-rule="nonzero" fill-opacity="1"></path><path clip-path="url(#clip300)" d="M1874.33 55.3414 Q1873.08 54.6123 1871.58 54.2882 Q1870.12 53.9236 1868.34 53.9236 Q1862.02 53.9236 1858.62 58.0555 Q1855.25 62.1469 1855.25 69.8437 L1855.25 93.744 L1847.76 93.744 L1847.76 48.3739 L1855.25 48.3739 L1855.25 55.4224 Q1857.6 51.2905 1861.37 49.3056 Q1865.14 47.2801 1870.53 47.2801 Q1871.3 47.2801 1872.23 47.4017 Q1873.16 47.4827 1874.29 47.6852 L1874.33 55.3414 Z" fill="#000000" fill-rule="nonzero" fill-opacity="1"></path><path clip-path="url(#clip300)" d="M1919.14 69.1955 L1919.14 72.8413 L1884.87 72.8413 Q1885.35 80.5381 1889.48 84.589 Q1893.66 88.5994 1901.07 88.5994 Q1905.36 88.5994 1909.37 87.5461 Q1913.43 86.4929 1917.4 84.3864 L1917.4 91.435 Q1913.39 93.1364 1909.17 94.0276 Q1904.96 94.9188 1900.62 94.9188 Q1889.77 94.9188 1883.41 88.5994 Q1877.09 82.2799 1877.09 71.5045 Q1877.09 60.3645 1883.08 53.8426 Q1889.12 47.2801 1899.33 47.2801 Q1908.48 47.2801 1913.79 53.1944 Q1919.14 59.0683 1919.14 69.1955 M1911.68 67.008 Q1911.6 60.8912 1908.24 57.2454 Q1904.92 53.5995 1899.41 53.5995 Q1893.17 53.5995 1889.4 57.1238 Q1885.68 60.6481 1885.11 67.0485 L1911.68 67.008 Z" fill="#000000" fill-rule="nonzero" fill-opacity="1"></path><path clip-path="url(#clip300)" d="M1938.58 86.9385 L1938.58 111.001 L1931.09 111.001 L1931.09 48.3739 L1938.58 48.3739 L1938.58 55.2604 Q1940.93 51.2095 1944.5 49.2651 Q1948.1 47.2801 1953.08 47.2801 Q1961.35 47.2801 1966.49 53.8426 Q1971.68 60.4051 1971.68 71.0994 Q1971.68 81.7938 1966.49 88.3563 Q1961.35 94.9188 1953.08 94.9188 Q1948.1 94.9188 1944.5 92.9743 Q1940.93 90.9894 1938.58 86.9385 M1963.94 71.0994 Q1963.94 62.8761 1960.54 58.2176 Q1957.18 53.5185 1951.26 53.5185 Q1945.35 53.5185 1941.94 58.2176 Q1938.58 62.8761 1938.58 71.0994 Q1938.58 79.3228 1941.94 84.0218 Q1945.35 88.6804 1951.26 88.6804 Q1957.18 88.6804 1960.54 84.0218 Q1963.94 79.3228 1963.94 71.0994 Z" fill="#000000" fill-rule="nonzero" fill-opacity="1"></path><path clip-path="url(#clip300)" d="M2022.84 69.1955 L2022.84 72.8413 L1988.57 72.8413 Q1989.06 80.5381 1993.19 84.589 Q1997.36 88.5994 2004.77 88.5994 Q2009.07 88.5994 2013.08 87.5461 Q2017.13 86.4929 2021.1 84.3864 L2021.1 91.435 Q2017.09 93.1364 2012.88 94.0276 Q2008.66 94.9188 2004.33 94.9188 Q1993.47 94.9188 1987.11 88.5994 Q1980.79 82.2799 1980.79 71.5045 Q1980.79 60.3645 1986.79 53.8426 Q1992.82 47.2801 2003.03 47.2801 Q2012.19 47.2801 2017.49 53.1944 Q2022.84 59.0683 2022.84 69.1955 M2015.39 67.008 Q2015.31 60.8912 2011.94 57.2454 Q2008.62 53.5995 2003.11 53.5995 Q1996.87 53.5995 1993.11 57.1238 Q1989.38 60.6481 1988.81 67.0485 L2015.39 67.008 Z" fill="#000000" fill-rule="nonzero" fill-opacity="1"></path><path clip-path="url(#clip300)" d="M2042.45 35.492 L2042.45 48.3739 L2057.8 48.3739 L2057.8 54.1667 L2042.45 54.1667 L2042.45 78.7962 Q2042.45 84.3459 2043.95 85.9258 Q2045.49 87.5056 2050.14 87.5056 L2057.8 87.5056 L2057.8 93.744 L2050.14 93.744 Q2041.52 93.744 2038.23 90.5438 Q2034.95 87.3031 2034.95 78.7962 L2034.95 54.1667 L2029.48 54.1667 L2029.48 48.3739 L2034.95 48.3739 L2034.95 35.492 L2042.45 35.492 Z" fill="#000000" fill-rule="nonzero" fill-opacity="1"></path><path clip-path="url(#clip300)" d="M2088.22 70.9374 Q2079.19 70.9374 2075.71 73.0034 Q2072.22 75.0693 2072.22 80.0519 Q2072.22 84.0218 2074.81 86.3714 Q2077.45 88.6804 2081.94 88.6804 Q2088.14 88.6804 2091.87 84.3054 Q2095.64 79.8899 2095.64 72.5983 L2095.64 70.9374 L2088.22 70.9374 M2103.09 67.8587 L2103.09 93.744 L2095.64 93.744 L2095.64 86.8575 Q2093.08 90.9894 2089.28 92.9743 Q2085.47 94.9188 2079.96 94.9188 Q2072.99 94.9188 2068.86 91.0299 Q2064.77 87.1005 2064.77 80.5381 Q2064.77 72.8818 2069.87 68.993 Q2075.02 65.1041 2085.18 65.1041 L2095.64 65.1041 L2095.64 64.3749 Q2095.64 59.2303 2092.23 56.4352 Q2088.87 53.5995 2082.75 53.5995 Q2078.86 53.5995 2075.18 54.5312 Q2071.49 55.463 2068.09 57.3264 L2068.09 50.4398 Q2072.18 48.86 2076.03 48.0903 Q2079.88 47.2801 2083.52 47.2801 Q2093.37 47.2801 2098.23 52.3843 Q2103.09 57.4884 2103.09 67.8587 Z" fill="#000000" fill-rule="nonzero" fill-opacity="1"></path><path clip-path="url(#clip300)" d="M2125.81 35.492 L2125.81 48.3739 L2141.17 48.3739 L2141.17 54.1667 L2125.81 54.1667 L2125.81 78.7962 Q2125.81 84.3459 2127.31 85.9258 Q2128.85 87.5056 2133.51 87.5056 L2141.17 87.5056 L2141.17 93.744 L2133.51 93.744 Q2124.88 93.744 2121.6 90.5438 Q2118.32 87.3031 2118.32 78.7962 L2118.32 54.1667 L2112.85 54.1667 L2112.85 48.3739 L2118.32 48.3739 L2118.32 35.492 L2125.81 35.492 Z" fill="#000000" fill-rule="nonzero" fill-opacity="1"></path><path clip-path="url(#clip300)" d="M2150.97 48.3739 L2158.42 48.3739 L2158.42 93.744 L2150.97 93.744 L2150.97 48.3739 M2150.97 30.7119 L2158.42 30.7119 L2158.42 40.1505 L2150.97 40.1505 L2150.97 30.7119 Z" fill="#000000" fill-rule="nonzero" fill-opacity="1"></path><path clip-path="url(#clip300)" d="M2191.6 53.5995 Q2185.61 53.5995 2182.12 58.2986 Q2178.64 62.9571 2178.64 71.0994 Q2178.64 79.2418 2182.08 83.9408 Q2185.57 88.5994 2191.6 88.5994 Q2197.56 88.5994 2201.04 83.9003 Q2204.52 79.2013 2204.52 71.0994 Q2204.52 63.0381 2201.04 58.3391 Q2197.56 53.5995 2191.6 53.5995 M2191.6 47.2801 Q2201.32 47.2801 2206.87 53.5995 Q2212.42 59.9189 2212.42 71.0994 Q2212.42 82.2394 2206.87 88.5994 Q2201.32 94.9188 2191.6 94.9188 Q2181.84 94.9188 2176.29 88.5994 Q2170.78 82.2394 2170.78 71.0994 Q2170.78 59.9189 2176.29 53.5995 Q2181.84 47.2801 2191.6 47.2801 Z" fill="#000000" fill-rule="nonzero" fill-opacity="1"></path><path clip-path="url(#clip300)" d="M2262.49 66.3599 L2262.49 93.744 L2255.04 93.744 L2255.04 66.6029 Q2255.04 60.162 2252.53 56.9618 Q2250.02 53.7616 2244.99 53.7616 Q2238.96 53.7616 2235.47 57.6099 Q2231.99 61.4583 2231.99 68.1018 L2231.99 93.744 L2224.49 93.744 L2224.49 48.3739 L2231.99 48.3739 L2231.99 55.4224 Q2234.66 51.331 2238.27 49.3056 Q2241.91 47.2801 2246.65 47.2801 Q2254.47 47.2801 2258.48 52.1412 Q2262.49 56.9618 2262.49 66.3599 Z" fill="#000000" fill-rule="nonzero" fill-opacity="1"></path><path clip-path="url(#clip300)" d="M786.383 145.98 L786.383 121.432 L793.837 121.432 L793.837 184.464 L786.383 184.464 L786.383 177.658 Q784.034 181.709 780.428 183.694 Q776.864 185.639 771.84 185.639 Q763.617 185.639 758.432 179.076 Q753.287 172.514 753.287 161.819 Q753.287 151.125 758.432 144.563 Q763.617 138 771.84 138 Q776.864 138 780.428 139.985 Q784.034 141.93 786.383 145.98 M760.984 161.819 Q760.984 170.043 764.346 174.742 Q767.749 179.4 773.663 179.4 Q779.578 179.4 782.98 174.742 Q786.383 170.043 786.383 161.819 Q786.383 153.596 782.98 148.938 Q779.578 144.239 773.663 144.239 Q767.749 144.239 764.346 148.938 Q760.984 153.596 760.984 161.819 Z" fill="#000000" fill-rule="nonzero" fill-opacity="1"></path><path clip-path="url(#clip300)" d="M809.19 139.094 L816.643 139.094 L816.643 184.464 L809.19 184.464 L809.19 139.094 M809.19 121.432 L816.643 121.432 L816.643 130.871 L809.19 130.871 L809.19 121.432 Z" fill="#000000" fill-rule="nonzero" fill-opacity="1"></path><path clip-path="url(#clip300)" d="M861.163 140.431 L861.163 147.479 Q858.003 145.859 854.6 145.049 Q851.198 144.239 847.552 144.239 Q842.002 144.239 839.207 145.94 Q836.452 147.641 836.452 151.044 Q836.452 153.637 838.437 155.135 Q840.422 156.594 846.418 157.931 L848.97 158.498 Q856.909 160.199 860.231 163.318 Q863.593 166.397 863.593 171.947 Q863.593 178.266 858.57 181.952 Q853.588 185.639 844.838 185.639 Q841.192 185.639 837.222 184.91 Q833.293 184.221 828.918 182.803 L828.918 175.106 Q833.05 177.253 837.06 178.347 Q841.07 179.4 845 179.4 Q850.266 179.4 853.102 177.618 Q855.937 175.795 855.937 172.514 Q855.937 169.476 853.871 167.855 Q851.846 166.235 844.919 164.736 L842.326 164.128 Q835.399 162.67 832.32 159.672 Q829.242 156.634 829.242 151.368 Q829.242 144.968 833.779 141.484 Q838.316 138 846.661 138 Q850.793 138 854.438 138.608 Q858.084 139.215 861.163 140.431 Z" fill="#000000" fill-rule="nonzero" fill-opacity="1"></path><path clip-path="url(#clip300)" d="M882.835 126.212 L882.835 139.094 L898.188 139.094 L898.188 144.887 L882.835 144.887 L882.835 169.516 Q882.835 175.066 884.334 176.646 Q885.873 178.226 890.532 178.226 L898.188 178.226 L898.188 184.464 L890.532 184.464 Q881.904 184.464 878.622 181.264 Q875.341 178.023 875.341 169.516 L875.341 144.887 L869.872 144.887 L869.872 139.094 L875.341 139.094 L875.341 126.212 L882.835 126.212 Z" fill="#000000" fill-rule="nonzero" fill-opacity="1"></path><path clip-path="url(#clip300)" d="M934.282 146.061 Q933.026 145.332 931.527 145.008 Q930.069 144.644 928.286 144.644 Q921.967 144.644 918.564 148.776 Q915.202 152.867 915.202 160.564 L915.202 184.464 L907.708 184.464 L907.708 139.094 L915.202 139.094 L915.202 146.142 Q917.551 142.011 921.319 140.026 Q925.086 138 930.474 138 Q931.244 138 932.175 138.122 Q933.107 138.203 934.241 138.405 L934.282 146.061 Z" fill="#000000" fill-rule="nonzero" fill-opacity="1"></path><path clip-path="url(#clip300)" d="M942.1 139.094 L949.554 139.094 L949.554 184.464 L942.1 184.464 L942.1 139.094 M942.1 121.432 L949.554 121.432 L949.554 130.871 L942.1 130.871 L942.1 121.432 Z" fill="#000000" fill-rule="nonzero" fill-opacity="1"></path><path clip-path="url(#clip300)" d="M997.719 161.819 Q997.719 153.596 994.316 148.938 Q990.954 144.239 985.04 144.239 Q979.125 144.239 975.722 148.938 Q972.36 153.596 972.36 161.819 Q972.36 170.043 975.722 174.742 Q979.125 179.4 985.04 179.4 Q990.954 179.4 994.316 174.742 Q997.719 170.043 997.719 161.819 M972.36 145.98 Q974.71 141.93 978.275 139.985 Q981.88 138 986.862 138 Q995.126 138 1000.27 144.563 Q1005.46 151.125 1005.46 161.819 Q1005.46 172.514 1000.27 179.076 Q995.126 185.639 986.862 185.639 Q981.88 185.639 978.275 183.694 Q974.71 181.709 972.36 177.658 L972.36 184.464 L964.866 184.464 L964.866 121.432 L972.36 121.432 L972.36 145.98 Z" fill="#000000" fill-rule="nonzero" fill-opacity="1"></path><path clip-path="url(#clip300)" d="M1017.04 166.559 L1017.04 139.094 L1024.5 139.094 L1024.5 166.275 Q1024.5 172.716 1027.01 175.957 Q1029.52 179.157 1034.54 179.157 Q1040.58 179.157 1044.06 175.309 Q1047.59 171.461 1047.59 164.817 L1047.59 139.094 L1055.04 139.094 L1055.04 184.464 L1047.59 184.464 L1047.59 177.496 Q1044.87 181.628 1041.27 183.654 Q1037.7 185.639 1032.96 185.639 Q1025.14 185.639 1021.09 180.778 Q1017.04 175.917 1017.04 166.559 M1035.8 138 L1035.8 138 Z" fill="#000000" fill-rule="nonzero" fill-opacity="1"></path><path clip-path="url(#clip300)" d="M1077.76 126.212 L1077.76 139.094 L1093.12 139.094 L1093.12 144.887 L1077.76 144.887 L1077.76 169.516 Q1077.76 175.066 1079.26 176.646 Q1080.8 178.226 1085.46 178.226 L1093.12 178.226 L1093.12 184.464 L1085.46 184.464 Q1076.83 184.464 1073.55 181.264 Q1070.27 178.023 1070.27 169.516 L1070.27 144.887 L1064.8 144.887 L1064.8 139.094 L1070.27 139.094 L1070.27 126.212 L1077.76 126.212 Z" fill="#000000" fill-rule="nonzero" fill-opacity="1"></path><path clip-path="url(#clip300)" d="M1102.92 139.094 L1110.37 139.094 L1110.37 184.464 L1102.92 184.464 L1102.92 139.094 M1102.92 121.432 L1110.37 121.432 L1110.37 130.871 L1102.92 130.871 L1102.92 121.432 Z" fill="#000000" fill-rule="nonzero" fill-opacity="1"></path><path clip-path="url(#clip300)" d="M1143.55 144.32 Q1137.56 144.32 1134.07 149.019 Q1130.59 153.677 1130.59 161.819 Q1130.59 169.962 1134.03 174.661 Q1137.52 179.319 1143.55 179.319 Q1149.51 179.319 1152.99 174.62 Q1156.47 169.921 1156.47 161.819 Q1156.47 153.758 1152.99 149.059 Q1149.51 144.32 1143.55 144.32 M1143.55 138 Q1153.27 138 1158.82 144.32 Q1164.37 150.639 1164.37 161.819 Q1164.37 172.959 1158.82 179.319 Q1153.27 185.639 1143.55 185.639 Q1133.79 185.639 1128.24 179.319 Q1122.73 172.959 1122.73 161.819 Q1122.73 150.639 1128.24 144.32 Q1133.79 138 1143.55 138 Z" fill="#000000" fill-rule="nonzero" fill-opacity="1"></path><path clip-path="url(#clip300)" d="M1214.44 157.08 L1214.44 184.464 L1206.99 184.464 L1206.99 157.323 Q1206.99 150.882 1204.48 147.682 Q1201.97 144.482 1196.94 144.482 Q1190.91 144.482 1187.42 148.33 Q1183.94 152.178 1183.94 158.822 L1183.94 184.464 L1176.44 184.464 L1176.44 139.094 L1183.94 139.094 L1183.94 146.142 Q1186.61 142.051 1190.22 140.026 Q1193.86 138 1198.6 138 Q1206.42 138 1210.43 142.861 Q1214.44 147.682 1214.44 157.08 Z" fill="#000000" fill-rule="nonzero" fill-opacity="1"></path><path clip-path="url(#clip300)" d="M1231.21 174.175 L1239.76 174.175 L1239.76 184.464 L1231.21 184.464 L1231.21 174.175 M1231.21 141.565 L1239.76 141.565 L1239.76 151.854 L1231.21 151.854 L1231.21 141.565 Z" fill="#000000" fill-rule="nonzero" fill-opacity="1"></path><path clip-path="url(#clip300)" d="M1282.94 121.432 L1300.12 121.432 L1300.12 127.225 L1290.4 127.225 L1290.4 189.609 L1300.12 189.609 L1300.12 195.401 L1282.94 195.401 L1282.94 121.432 Z" fill="#000000" fill-rule="nonzero" fill-opacity="1"></path><path clip-path="url(#clip300)" d="M1334.55 129.372 Q1328.23 129.372 1325.03 135.61 Q1321.87 141.808 1321.87 154.285 Q1321.87 166.721 1325.03 172.959 Q1328.23 179.157 1334.55 179.157 Q1340.91 179.157 1344.07 172.959 Q1347.27 166.721 1347.27 154.285 Q1347.27 141.808 1344.07 135.61 Q1340.91 129.372 1334.55 129.372 M1334.55 122.89 Q1344.72 122.89 1350.07 130.952 Q1355.45 138.972 1355.45 154.285 Q1355.45 169.557 1350.07 177.618 Q1344.72 185.639 1334.55 185.639 Q1324.38 185.639 1319 177.618 Q1313.65 169.557 1313.65 154.285 Q1313.65 138.972 1319 130.952 Q1324.38 122.89 1334.55 122.89 Z" fill="#000000" fill-rule="nonzero" fill-opacity="1"></path><path clip-path="url(#clip300)" d="M1369.83 174.175 L1378.38 174.175 L1378.38 184.464 L1369.83 184.464 L1369.83 174.175 Z" fill="#000000" fill-rule="nonzero" fill-opacity="1"></path><path clip-path="url(#clip300)" d="M1396.29 123.984 L1428.41 123.984 L1428.41 130.871 L1403.78 130.871 L1403.78 145.697 Q1405.56 145.089 1407.35 144.806 Q1409.13 144.482 1410.91 144.482 Q1421.04 144.482 1426.95 150.031 Q1432.87 155.581 1432.87 165.06 Q1432.87 174.823 1426.79 180.251 Q1420.71 185.639 1409.66 185.639 Q1405.85 185.639 1401.88 184.991 Q1397.95 184.342 1393.74 183.046 L1393.74 174.823 Q1397.38 176.808 1401.27 177.78 Q1405.16 178.752 1409.49 178.752 Q1416.5 178.752 1420.59 175.066 Q1424.68 171.38 1424.68 165.06 Q1424.68 158.741 1420.59 155.054 Q1416.5 151.368 1409.49 151.368 Q1406.21 151.368 1402.93 152.097 Q1399.69 152.826 1396.29 154.366 L1396.29 123.984 Z" fill="#000000" fill-rule="nonzero" fill-opacity="1"></path><path clip-path="url(#clip300)" d="M1449.07 123.984 L1481.19 123.984 L1481.19 130.871 L1456.56 130.871 L1456.56 145.697 Q1458.35 145.089 1460.13 144.806 Q1461.91 144.482 1463.69 144.482 Q1473.82 144.482 1479.74 150.031 Q1485.65 155.581 1485.65 165.06 Q1485.65 174.823 1479.57 180.251 Q1473.5 185.639 1462.44 185.639 Q1458.63 185.639 1454.66 184.991 Q1450.73 184.342 1446.52 183.046 L1446.52 174.823 Q1450.16 176.808 1454.05 177.78 Q1457.94 178.752 1462.28 178.752 Q1469.28 178.752 1473.38 175.066 Q1477.47 171.38 1477.47 165.06 Q1477.47 158.741 1473.38 155.054 Q1469.28 151.368 1462.28 151.368 Q1459 151.368 1455.71 152.097 Q1452.47 152.826 1449.07 154.366 L1449.07 123.984 Z" fill="#000000" fill-rule="nonzero" fill-opacity="1"></path><path clip-path="url(#clip300)" d="M1502.62 174.175 L1511.17 174.175 L1511.17 181.142 L1504.53 194.105 L1499.3 194.105 L1502.62 181.142 L1502.62 174.175 Z" fill="#000000" fill-rule="nonzero" fill-opacity="1"></path><path clip-path="url(#clip300)" d="M1572.02 129.372 Q1565.7 129.372 1562.5 135.61 Q1559.34 141.808 1559.34 154.285 Q1559.34 166.721 1562.5 172.959 Q1565.7 179.157 1572.02 179.157 Q1578.38 179.157 1581.54 172.959 Q1584.74 166.721 1584.74 154.285 Q1584.74 141.808 1581.54 135.61 Q1578.38 129.372 1572.02 129.372 M1572.02 122.89 Q1582.18 122.89 1587.53 130.952 Q1592.92 138.972 1592.92 154.285 Q1592.92 169.557 1587.53 177.618 Q1582.18 185.639 1572.02 185.639 Q1561.85 185.639 1556.46 177.618 Q1551.11 169.557 1551.11 154.285 Q1551.11 138.972 1556.46 130.952 Q1561.85 122.89 1572.02 122.89 Z" fill="#000000" fill-rule="nonzero" fill-opacity="1"></path><path clip-path="url(#clip300)" d="M1607.3 174.175 L1615.85 174.175 L1615.85 184.464 L1607.3 184.464 L1607.3 174.175 Z" fill="#000000" fill-rule="nonzero" fill-opacity="1"></path><path clip-path="url(#clip300)" d="M1640.72 177.577 L1669.28 177.577 L1669.28 184.464 L1630.88 184.464 L1630.88 177.577 Q1635.53 172.757 1643.55 164.655 Q1651.62 156.513 1653.68 154.163 Q1657.61 149.748 1659.15 146.71 Q1660.73 143.631 1660.73 140.674 Q1660.73 135.853 1657.33 132.815 Q1653.97 129.777 1648.54 129.777 Q1644.69 129.777 1640.39 131.114 Q1636.14 132.45 1631.28 135.164 L1631.28 126.901 Q1636.22 124.916 1640.52 123.903 Q1644.81 122.89 1648.38 122.89 Q1657.77 122.89 1663.36 127.589 Q1668.95 132.288 1668.95 140.147 Q1668.95 143.874 1667.54 147.236 Q1666.16 150.558 1662.47 155.095 Q1661.46 156.27 1656.03 161.9 Q1650.6 167.491 1640.72 177.577 Z" fill="#000000" fill-rule="nonzero" fill-opacity="1"></path><path clip-path="url(#clip300)" d="M1686.53 123.984 L1718.66 123.984 L1718.66 130.871 L1694.03 130.871 L1694.03 145.697 Q1695.81 145.089 1697.59 144.806 Q1699.38 144.482 1701.16 144.482 Q1711.29 144.482 1717.2 150.031 Q1723.11 155.581 1723.11 165.06 Q1723.11 174.823 1717.04 180.251 Q1710.96 185.639 1699.9 185.639 Q1696.09 185.639 1692.12 184.991 Q1688.2 184.342 1683.98 183.046 L1683.98 174.823 Q1687.63 176.808 1691.52 177.78 Q1695.41 178.752 1699.74 178.752 Q1706.75 178.752 1710.84 175.066 Q1714.93 171.38 1714.93 165.06 Q1714.93 158.741 1710.84 155.054 Q1706.75 151.368 1699.74 151.368 Q1696.46 151.368 1693.18 152.097 Q1689.94 152.826 1686.53 154.366 L1686.53 123.984 Z" fill="#000000" fill-rule="nonzero" fill-opacity="1"></path><path clip-path="url(#clip300)" d="M1740.09 174.175 L1748.63 174.175 L1748.63 181.142 L1741.99 194.105 L1736.77 194.105 L1740.09 181.142 L1740.09 174.175 Z" fill="#000000" fill-rule="nonzero" fill-opacity="1"></path><path clip-path="url(#clip300)" d="M1809.48 129.372 Q1803.16 129.372 1799.96 135.61 Q1796.8 141.808 1796.8 154.285 Q1796.8 166.721 1799.96 172.959 Q1803.16 179.157 1809.48 179.157 Q1815.84 179.157 1819 172.959 Q1822.2 166.721 1822.2 154.285 Q1822.2 141.808 1819 135.61 Q1815.84 129.372 1809.48 129.372 M1809.48 122.89 Q1819.65 122.89 1824.99 130.952 Q1830.38 138.972 1830.38 154.285 Q1830.38 169.557 1824.99 177.618 Q1819.65 185.639 1809.48 185.639 Q1799.31 185.639 1793.92 177.618 Q1788.58 169.557 1788.58 154.285 Q1788.58 138.972 1793.92 130.952 Q1799.31 122.89 1809.48 122.89 Z" fill="#000000" fill-rule="nonzero" fill-opacity="1"></path><path clip-path="url(#clip300)" d="M1844.76 174.175 L1853.31 174.175 L1853.31 184.464 L1844.76 184.464 L1844.76 174.175 Z" fill="#000000" fill-rule="nonzero" fill-opacity="1"></path><path clip-path="url(#clip300)" d="M1878.18 177.577 L1906.74 177.577 L1906.74 184.464 L1868.34 184.464 L1868.34 177.577 Q1873 172.757 1881.02 164.655 Q1889.08 156.513 1891.15 154.163 Q1895.08 149.748 1896.61 146.71 Q1898.19 143.631 1898.19 140.674 Q1898.19 135.853 1894.79 132.815 Q1891.43 129.777 1886 129.777 Q1882.15 129.777 1877.86 131.114 Q1873.61 132.45 1868.74 135.164 L1868.74 126.901 Q1873.69 124.916 1877.98 123.903 Q1882.27 122.89 1885.84 122.89 Q1895.24 122.89 1900.83 127.589 Q1906.42 132.288 1906.42 140.147 Q1906.42 143.874 1905 147.236 Q1903.62 150.558 1899.94 155.095 Q1898.92 156.27 1893.5 161.9 Q1888.07 167.491 1878.18 177.577 Z" fill="#000000" fill-rule="nonzero" fill-opacity="1"></path><path clip-path="url(#clip300)" d="M1940.28 121.432 L1940.28 195.401 L1923.11 195.401 L1923.11 189.609 L1932.79 189.609 L1932.79 127.225 L1923.11 127.225 L1923.11 121.432 L1940.28 121.432 Z" fill="#000000" fill-rule="nonzero" fill-opacity="1"></path><polyline clip-path="url(#clip302)" style="stroke:#009af9; stroke-linecap:round; stroke-linejoin:round; stroke-width:4; stroke-opacity:1; fill:none" points="367.683,1388.11 849.497,1388.11 1331.31,1388.11 1813.12,596.528 2294.94,219.025 "></polyline>
<path clip-path="url(#clip300)" d="M377.962 328.94 L634.681 328.94 L634.681 225.26 L377.962 225.26  Z" fill="#ffffff" fill-rule="evenodd" fill-opacity="1"></path>
<polyline clip-path="url(#clip300)" style="stroke:#000000; stroke-linecap:round; stroke-linejoin:round; stroke-width:4; stroke-opacity:1; fill:none" points="377.962,328.94 634.681,328.94 634.681,225.26 377.962,225.26 377.962,328.94 "></polyline>
<polyline clip-path="url(#clip300)" style="stroke:#009af9; stroke-linecap:round; stroke-linejoin:round; stroke-width:4; stroke-opacity:1; fill:none" points="400.661,277.1 536.854,277.1 "></polyline>
<path clip-path="url(#clip300)" d="M573.395 296.787 Q571.589 301.417 569.876 302.829 Q568.163 304.241 565.293 304.241 L561.89 304.241 L561.89 300.676 L564.39 300.676 Q566.15 300.676 567.122 299.843 Q568.094 299.009 569.275 295.907 L570.038 293.963 L559.552 268.454 L564.066 268.454 L572.168 288.732 L580.27 268.454 L584.784 268.454 L573.395 296.787 Z" fill="#000000" fill-rule="nonzero" fill-opacity="1"></path><path clip-path="url(#clip300)" d="M592.075 290.445 L599.714 290.445 L599.714 264.079 L591.404 265.746 L591.404 261.486 L599.668 259.82 L604.344 259.82 L604.344 290.445 L611.983 290.445 L611.983 294.38 L592.075 294.38 L592.075 290.445 Z" fill="#000000" fill-rule="nonzero" fill-opacity="1"></path></svg>