<svg xmlns="http://www.w3.org/2000/svg" xmlns:xlink="http://www.w3.org/1999/xlink" width="600" height="400" viewBox="0 0 2400 1600">
<defs>
  <clipPath id="clip380">
    <rect x="0" y="0" width="2400" height="1600"></rect>
  </clipPath>
</defs>
<path clip-path="url(#clip380)" d="M0 1600 L2400 1600 L2400 0 L0 0  Z" fill="#ffffff" fill-rule="evenodd" fill-opacity="1"></path>
<defs>
  <clipPath id="clip381">
    <rect x="480" y="0" width="1681" height="1600"></rect>
  </clipPath>
</defs>
<path clip-path="url(#clip380)" d="M280.19 1423.18 L2352.76 1423.18 L2352.76 183.952 L280.19 183.952  Z" fill="#ffffff" fill-rule="evenodd" fill-opacity="1"></path>
<defs>
  <clipPath id="clip382">
    <rect x="280" y="183" width="2074" height="1240"></rect>
  </clipPath>
</defs>
<polyline clip-path="url(#clip382)" style="stroke:#000000; stroke-linecap:round; stroke-linejoin:round; stroke-width:2; stroke-opacity:0.1; fill:none" points="338.848,1423.18 338.848,183.952 "></polyline>
<polyline clip-path="url(#clip382)" style="stroke:#000000; stroke-linecap:round; stroke-linejoin:round; stroke-width:2; stroke-opacity:0.1; fill:none" points="827.66,1423.18 827.66,183.952 "></polyline>
<polyline clip-path="url(#clip382)" style="stroke:#000000; stroke-linecap:round; stroke-linejoin:round; stroke-width:2; stroke-opacity:0.1; fill:none" points="1316.47,1423.18 1316.47,183.952 "></polyline>
<polyline clip-path="url(#clip382)" style="stroke:#000000; stroke-linecap:round; stroke-linejoin:round; stroke-width:2; stroke-opacity:0.1; fill:none" points="1805.29,1423.18 1805.29,183.952 "></polyline>
<polyline clip-path="url(#clip382)" style="stroke:#000000; stroke-linecap:round; stroke-linejoin:round; stroke-width:2; stroke-opacity:0.1; fill:none" points="2294.1,1423.18 2294.1,183.952 "></polyline>
<polyline clip-path="url(#clip380)" style="stroke:#000000; stroke-linecap:round; stroke-linejoin:round; stroke-width:4; stroke-opacity:1; fill:none" points="280.19,1423.18 2352.76,1423.18 "></polyline>
<polyline clip-path="url(#clip380)" style="stroke:#000000; stroke-linecap:round; stroke-linejoin:round; stroke-width:4; stroke-opacity:1; fill:none" points="338.848,1423.18 338.848,1404.28 "></polyline>
<polyline clip-path="url(#clip380)" style="stroke:#000000; stroke-linecap:round; stroke-linejoin:round; stroke-width:4; stroke-opacity:1; fill:none" points="827.66,1423.18 827.66,1404.28 "></polyline>
<polyline clip-path="url(#clip380)" style="stroke:#000000; stroke-linecap:round; stroke-linejoin:round; stroke-width:4; stroke-opacity:1; fill:none" points="1316.47,1423.18 1316.47,1404.28 "></polyline>
<polyline clip-path="url(#clip380)" style="stroke:#000000; stroke-linecap:round; stroke-linejoin:round; stroke-width:4; stroke-opacity:1; fill:none" points="1805.29,1423.18 1805.29,1404.28 "></polyline>
<polyline clip-path="url(#clip380)" style="stroke:#000000; stroke-linecap:round; stroke-linejoin:round; stroke-width:4; stroke-opacity:1; fill:none" points="2294.1,1423.18 2294.1,1404.28 "></polyline>
<path clip-path="url(#clip380)" d="M329.23 1481.64 L336.868 1481.64 L336.868 1455.28 L328.558 1456.95 L328.558 1452.69 L336.822 1451.02 L341.498 1451.02 L341.498 1481.64 L349.137 1481.64 L349.137 1485.58 L329.23 1485.58 L329.23 1481.64 Z" fill="#000000" fill-rule="nonzero" fill-opacity="1"></path><path clip-path="url(#clip380)" d="M822.313 1481.64 L838.632 1481.64 L838.632 1485.58 L816.688 1485.58 L816.688 1481.64 Q819.35 1478.89 823.933 1474.26 Q828.54 1469.61 829.72 1468.27 Q831.966 1465.74 832.845 1464.01 Q833.748 1462.25 833.748 1460.56 Q833.748 1457.8 831.804 1456.07 Q829.882 1454.33 826.781 1454.33 Q824.582 1454.33 822.128 1455.09 Q819.697 1455.86 816.92 1457.41 L816.92 1452.69 Q819.744 1451.55 822.197 1450.97 Q824.651 1450.39 826.688 1450.39 Q832.058 1450.39 835.253 1453.08 Q838.447 1455.77 838.447 1460.26 Q838.447 1462.39 837.637 1464.31 Q836.85 1466.2 834.744 1468.8 Q834.165 1469.47 831.063 1472.69 Q827.961 1475.88 822.313 1481.64 Z" fill="#000000" fill-rule="nonzero" fill-opacity="1"></path><path clip-path="url(#clip380)" d="M1320.72 1466.95 Q1324.08 1467.66 1325.95 1469.93 Q1327.85 1472.2 1327.85 1475.53 Q1327.85 1480.65 1324.33 1483.45 Q1320.81 1486.25 1314.33 1486.25 Q1312.16 1486.25 1309.84 1485.81 Q1307.55 1485.39 1305.1 1484.54 L1305.1 1480.02 Q1307.04 1481.16 1309.35 1481.74 Q1311.67 1482.32 1314.19 1482.32 Q1318.59 1482.32 1320.88 1480.58 Q1323.2 1478.84 1323.2 1475.53 Q1323.2 1472.48 1321.04 1470.77 Q1318.92 1469.03 1315.1 1469.03 L1311.07 1469.03 L1311.07 1465.19 L1315.28 1465.19 Q1318.73 1465.19 1320.56 1463.82 Q1322.39 1462.43 1322.39 1459.84 Q1322.39 1457.18 1320.49 1455.77 Q1318.61 1454.33 1315.1 1454.33 Q1313.17 1454.33 1310.98 1454.75 Q1308.78 1455.16 1306.14 1456.04 L1306.14 1451.88 Q1308.8 1451.14 1311.11 1450.77 Q1313.45 1450.39 1315.51 1450.39 Q1320.84 1450.39 1323.94 1452.83 Q1327.04 1455.23 1327.04 1459.35 Q1327.04 1462.22 1325.4 1464.21 Q1323.75 1466.18 1320.72 1466.95 Z" fill="#000000" fill-rule="nonzero" fill-opacity="1"></path><path clip-path="url(#clip380)" d="M1808.29 1455.09 L1796.49 1473.54 L1808.29 1473.54 L1808.29 1455.09 M1807.07 1451.02 L1812.95 1451.02 L1812.95 1473.54 L1817.88 1473.54 L1817.88 1477.43 L1812.95 1477.43 L1812.95 1485.58 L1808.29 1485.58 L1808.29 1477.43 L1792.69 1477.43 L1792.69 1472.92 L1807.07 1451.02 Z" fill="#000000" fill-rule="nonzero" fill-opacity="1"></path><path clip-path="url(#clip380)" d="M2284.38 1451.02 L2302.73 1451.02 L2302.73 1454.96 L2288.66 1454.96 L2288.66 1463.43 Q2289.68 1463.08 2290.7 1462.92 Q2291.71 1462.73 2292.73 1462.73 Q2298.52 1462.73 2301.9 1465.9 Q2305.28 1469.08 2305.28 1474.49 Q2305.28 1480.07 2301.81 1483.17 Q2298.33 1486.25 2292.02 1486.25 Q2289.84 1486.25 2287.57 1485.88 Q2285.33 1485.51 2282.92 1484.77 L2282.92 1480.07 Q2285 1481.2 2287.22 1481.76 Q2289.45 1482.32 2291.92 1482.32 Q2295.93 1482.32 2298.27 1480.21 Q2300.6 1478.1 2300.6 1474.49 Q2300.6 1470.88 2298.27 1468.77 Q2295.93 1466.67 2291.92 1466.67 Q2290.05 1466.67 2288.17 1467.08 Q2286.32 1467.5 2284.38 1468.38 L2284.38 1451.02 Z" fill="#000000" fill-rule="nonzero" fill-opacity="1"></path><path clip-path="url(#clip380)" d="M1331.4 1546.53 L1331.4 1568.04 L1325.54 1568.04 L1325.54 1546.72 Q1325.54 1541.66 1323.57 1539.14 Q1321.6 1536.63 1317.65 1536.63 Q1312.91 1536.63 1310.17 1539.65 Q1307.43 1542.68 1307.43 1547.9 L1307.43 1568.04 L1301.55 1568.04 L1301.55 1532.4 L1307.43 1532.4 L1307.43 1537.93 Q1309.53 1534.72 1312.37 1533.13 Q1315.23 1531.54 1318.96 1531.54 Q1325.1 1531.54 1328.25 1535.36 Q1331.4 1539.14 1331.4 1546.53 Z" fill="#000000" fill-rule="nonzero" fill-opacity="1"></path><polyline clip-path="url(#clip382)" style="stroke:#000000; stroke-linecap:round; stroke-linejoin:round; stroke-width:2; stroke-opacity:0.1; fill:none" points="280.19,1193.23 2352.76,1193.23 "></polyline>
<polyline clip-path="url(#clip382)" style="stroke:#000000; stroke-linecap:round; stroke-linejoin:round; stroke-width:2; stroke-opacity:0.1; fill:none" points="280.19,911.272 2352.76,911.272 "></polyline>
<polyline clip-path="url(#clip382)" style="stroke:#000000; stroke-linecap:round; stroke-linejoin:round; stroke-width:2; stroke-opacity:0.1; fill:none" points="280.19,629.312 2352.76,629.312 "></polyline>
<polyline clip-path="url(#clip382)" style="stroke:#000000; stroke-linecap:round; stroke-linejoin:round; stroke-width:2; stroke-opacity:0.1; fill:none" points="280.19,347.351 2352.76,347.351 "></polyline>
<polyline clip-path="url(#clip380)" style="stroke:#000000; stroke-linecap:round; stroke-linejoin:round; stroke-width:4; stroke-opacity:1; fill:none" points="280.19,1423.18 280.19,183.952 "></polyline>
<polyline clip-path="url(#clip380)" style="stroke:#000000; stroke-linecap:round; stroke-linejoin:round; stroke-width:4; stroke-opacity:1; fill:none" points="280.19,1193.23 299.088,1193.23 "></polyline>
<polyline clip-path="url(#clip380)" style="stroke:#000000; stroke-linecap:round; stroke-linejoin:round; stroke-width:4; stroke-opacity:1; fill:none" points="280.19,911.272 299.088,911.272 "></polyline>
<polyline clip-path="url(#clip380)" style="stroke:#000000; stroke-linecap:round; stroke-linejoin:round; stroke-width:4; stroke-opacity:1; fill:none" points="280.19,629.312 299.088,629.312 "></polyline>
<polyline clip-path="url(#clip380)" style="stroke:#000000; stroke-linecap:round; stroke-linejoin:round; stroke-width:4; stroke-opacity:1; fill:none" points="280.19,347.351 299.088,347.351 "></polyline>
<path clip-path="url(#clip380)" d="M126.691 1179.03 Q123.08 1179.03 121.251 1182.6 Q119.445 1186.14 119.445 1193.27 Q119.445 1200.37 121.251 1203.94 Q123.08 1207.48 126.691 1207.48 Q130.325 1207.48 132.13 1203.94 Q133.959 1200.37 133.959 1193.27 Q133.959 1186.14 132.13 1182.6 Q130.325 1179.03 126.691 1179.03 M126.691 1175.33 Q132.501 1175.33 135.556 1179.93 Q138.635 1184.52 138.635 1193.27 Q138.635 1201.99 135.556 1206.6 Q132.501 1211.18 126.691 1211.18 Q120.88 1211.18 117.802 1206.6 Q114.746 1201.99 114.746 1193.27 Q114.746 1184.52 117.802 1179.93 Q120.88 1175.33 126.691 1175.33 Z" fill="#000000" fill-rule="nonzero" fill-opacity="1"></path><path clip-path="url(#clip380)" d="M146.853 1204.63 L151.737 1204.63 L151.737 1210.51 L146.853 1210.51 L146.853 1204.63 Z" fill="#000000" fill-rule="nonzero" fill-opacity="1"></path><path clip-path="url(#clip380)" d="M162.061 1209.8 L162.061 1205.54 Q163.82 1206.37 165.626 1206.81 Q167.431 1207.25 169.167 1207.25 Q173.797 1207.25 176.227 1204.15 Q178.681 1201.02 179.028 1194.68 Q177.686 1196.67 175.626 1197.74 Q173.565 1198.8 171.065 1198.8 Q165.88 1198.8 162.848 1195.68 Q159.839 1192.53 159.839 1187.09 Q159.839 1181.76 162.987 1178.55 Q166.135 1175.33 171.366 1175.33 Q177.362 1175.33 180.51 1179.93 Q183.681 1184.52 183.681 1193.27 Q183.681 1201.44 179.792 1206.32 Q175.926 1211.18 169.376 1211.18 Q167.616 1211.18 165.811 1210.84 Q164.005 1210.49 162.061 1209.8 M171.366 1195.14 Q174.514 1195.14 176.343 1192.99 Q178.195 1190.84 178.195 1187.09 Q178.195 1183.36 176.343 1181.21 Q174.514 1179.03 171.366 1179.03 Q168.218 1179.03 166.366 1181.21 Q164.538 1183.36 164.538 1187.09 Q164.538 1190.84 166.366 1192.99 Q168.218 1195.14 171.366 1195.14 Z" fill="#000000" fill-rule="nonzero" fill-opacity="1"></path><path clip-path="url(#clip380)" d="M192.223 1209.8 L192.223 1205.54 Q193.982 1206.37 195.787 1206.81 Q197.593 1207.25 199.329 1207.25 Q203.959 1207.25 206.389 1204.15 Q208.843 1201.02 209.19 1194.68 Q207.848 1196.67 205.787 1197.74 Q203.727 1198.8 201.227 1198.8 Q196.042 1198.8 193.01 1195.68 Q190 1192.53 190 1187.09 Q190 1181.76 193.149 1178.55 Q196.297 1175.33 201.528 1175.33 Q207.524 1175.33 210.672 1179.93 Q213.843 1184.52 213.843 1193.27 Q213.843 1201.44 209.954 1206.32 Q206.088 1211.18 199.537 1211.18 Q197.778 1211.18 195.973 1210.84 Q194.167 1210.49 192.223 1209.8 M201.528 1195.14 Q204.676 1195.14 206.505 1192.99 Q208.357 1190.84 208.357 1187.09 Q208.357 1183.36 206.505 1181.21 Q204.676 1179.03 201.528 1179.03 Q198.38 1179.03 196.528 1181.21 Q194.7 1183.36 194.7 1187.09 Q194.7 1190.84 196.528 1192.99 Q198.38 1195.14 201.528 1195.14 Z" fill="#000000" fill-rule="nonzero" fill-opacity="1"></path><path clip-path="url(#clip380)" d="M232.246 1179.03 Q228.635 1179.03 226.806 1182.6 Q225 1186.14 225 1193.27 Q225 1200.37 226.806 1203.94 Q228.635 1207.48 232.246 1207.48 Q235.88 1207.48 237.685 1203.94 Q239.514 1200.37 239.514 1193.27 Q239.514 1186.14 237.685 1182.6 Q235.88 1179.03 232.246 1179.03 M232.246 1175.33 Q238.056 1175.33 241.111 1179.93 Q244.19 1184.52 244.19 1193.27 Q244.19 1201.99 241.111 1206.6 Q238.056 1211.18 232.246 1211.18 Q226.435 1211.18 223.357 1206.6 Q220.301 1201.99 220.301 1193.27 Q220.301 1184.52 223.357 1179.93 Q226.435 1175.33 232.246 1175.33 Z" fill="#000000" fill-rule="nonzero" fill-opacity="1"></path><path clip-path="url(#clip380)" d="M128.288 897.071 Q124.677 897.071 122.848 900.636 Q121.043 904.178 121.043 911.307 Q121.043 918.414 122.848 921.978 Q124.677 925.52 128.288 925.52 Q131.922 925.52 133.728 921.978 Q135.556 918.414 135.556 911.307 Q135.556 904.178 133.728 900.636 Q131.922 897.071 128.288 897.071 M128.288 893.367 Q134.098 893.367 137.154 897.974 Q140.232 902.557 140.232 911.307 Q140.232 920.034 137.154 924.64 Q134.098 929.224 128.288 929.224 Q122.478 929.224 119.399 924.64 Q116.343 920.034 116.343 911.307 Q116.343 902.557 119.399 897.974 Q122.478 893.367 128.288 893.367 Z" fill="#000000" fill-rule="nonzero" fill-opacity="1"></path><path clip-path="url(#clip380)" d="M148.45 922.673 L153.334 922.673 L153.334 928.552 L148.45 928.552 L148.45 922.673 Z" fill="#000000" fill-rule="nonzero" fill-opacity="1"></path><path clip-path="url(#clip380)" d="M163.658 927.835 L163.658 923.576 Q165.417 924.409 167.223 924.849 Q169.028 925.289 170.764 925.289 Q175.394 925.289 177.825 922.187 Q180.278 919.062 180.626 912.719 Q179.283 914.71 177.223 915.775 Q175.163 916.84 172.663 916.84 Q167.477 916.84 164.445 913.715 Q161.436 910.566 161.436 905.127 Q161.436 899.803 164.584 896.585 Q167.732 893.367 172.964 893.367 Q178.959 893.367 182.107 897.974 Q185.278 902.557 185.278 911.307 Q185.278 919.478 181.389 924.363 Q177.524 929.224 170.973 929.224 Q169.214 929.224 167.408 928.876 Q165.602 928.529 163.658 927.835 M172.964 913.182 Q176.112 913.182 177.94 911.029 Q179.792 908.877 179.792 905.127 Q179.792 901.4 177.94 899.247 Q176.112 897.071 172.964 897.071 Q169.815 897.071 167.964 899.247 Q166.135 901.4 166.135 905.127 Q166.135 908.877 167.964 911.029 Q169.815 913.182 172.964 913.182 Z" fill="#000000" fill-rule="nonzero" fill-opacity="1"></path><path clip-path="url(#clip380)" d="M193.82 927.835 L193.82 923.576 Q195.579 924.409 197.385 924.849 Q199.19 925.289 200.926 925.289 Q205.556 925.289 207.987 922.187 Q210.44 919.062 210.787 912.719 Q209.445 914.71 207.385 915.775 Q205.324 916.84 202.824 916.84 Q197.639 916.84 194.607 913.715 Q191.598 910.566 191.598 905.127 Q191.598 899.803 194.746 896.585 Q197.894 893.367 203.125 893.367 Q209.121 893.367 212.269 897.974 Q215.44 902.557 215.44 911.307 Q215.44 919.478 211.551 924.363 Q207.686 929.224 201.135 929.224 Q199.375 929.224 197.57 928.876 Q195.764 928.529 193.82 927.835 M203.125 913.182 Q206.274 913.182 208.102 911.029 Q209.954 908.877 209.954 905.127 Q209.954 901.4 208.102 899.247 Q206.274 897.071 203.125 897.071 Q199.977 897.071 198.125 899.247 Q196.297 901.4 196.297 905.127 Q196.297 908.877 198.125 911.029 Q199.977 913.182 203.125 913.182 Z" fill="#000000" fill-rule="nonzero" fill-opacity="1"></path><path clip-path="url(#clip380)" d="M227.871 924.617 L244.19 924.617 L244.19 928.552 L222.246 928.552 L222.246 924.617 Q224.908 921.863 229.491 917.233 Q234.097 912.58 235.278 911.238 Q237.523 908.715 238.403 906.978 Q239.306 905.219 239.306 903.529 Q239.306 900.775 237.361 899.039 Q235.44 897.303 232.338 897.303 Q230.139 897.303 227.685 898.066 Q225.255 898.83 222.477 900.381 L222.477 895.659 Q225.301 894.525 227.755 893.946 Q230.209 893.367 232.246 893.367 Q237.616 893.367 240.81 896.053 Q244.005 898.738 244.005 903.228 Q244.005 905.358 243.195 907.279 Q242.408 909.178 240.301 911.77 Q239.722 912.441 236.621 915.659 Q233.519 918.853 227.871 924.617 Z" fill="#000000" fill-rule="nonzero" fill-opacity="1"></path><path clip-path="url(#clip380)" d="M126.205 615.11 Q122.593 615.11 120.765 618.675 Q118.959 622.217 118.959 629.346 Q118.959 636.453 120.765 640.018 Q122.593 643.559 126.205 643.559 Q129.839 643.559 131.644 640.018 Q133.473 636.453 133.473 629.346 Q133.473 622.217 131.644 618.675 Q129.839 615.11 126.205 615.11 M126.205 611.407 Q132.015 611.407 135.07 616.013 Q138.149 620.596 138.149 629.346 Q138.149 638.073 135.07 642.68 Q132.015 647.263 126.205 647.263 Q120.394 647.263 117.316 642.68 Q114.26 638.073 114.26 629.346 Q114.26 620.596 117.316 616.013 Q120.394 611.407 126.205 611.407 Z" fill="#000000" fill-rule="nonzero" fill-opacity="1"></path><path clip-path="url(#clip380)" d="M146.366 640.712 L151.251 640.712 L151.251 646.592 L146.366 646.592 L146.366 640.712 Z" fill="#000000" fill-rule="nonzero" fill-opacity="1"></path><path clip-path="url(#clip380)" d="M161.575 645.874 L161.575 641.615 Q163.334 642.448 165.14 642.888 Q166.945 643.328 168.681 643.328 Q173.311 643.328 175.741 640.226 Q178.195 637.101 178.542 630.758 Q177.2 632.749 175.139 633.814 Q173.079 634.879 170.579 634.879 Q165.394 634.879 162.362 631.754 Q159.353 628.606 159.353 623.166 Q159.353 617.842 162.501 614.624 Q165.649 611.407 170.88 611.407 Q176.876 611.407 180.024 616.013 Q183.195 620.596 183.195 629.346 Q183.195 637.518 179.306 642.402 Q175.44 647.263 168.889 647.263 Q167.13 647.263 165.325 646.916 Q163.519 646.568 161.575 645.874 M170.88 631.221 Q174.028 631.221 175.857 629.068 Q177.709 626.916 177.709 623.166 Q177.709 619.439 175.857 617.286 Q174.028 615.11 170.88 615.11 Q167.732 615.11 165.88 617.286 Q164.052 619.439 164.052 623.166 Q164.052 626.916 165.88 629.068 Q167.732 631.221 170.88 631.221 Z" fill="#000000" fill-rule="nonzero" fill-opacity="1"></path><path clip-path="url(#clip380)" d="M191.737 645.874 L191.737 641.615 Q193.496 642.448 195.301 642.888 Q197.107 643.328 198.843 643.328 Q203.473 643.328 205.903 640.226 Q208.357 637.101 208.704 630.758 Q207.362 632.749 205.301 633.814 Q203.241 634.879 200.741 634.879 Q195.556 634.879 192.524 631.754 Q189.514 628.606 189.514 623.166 Q189.514 617.842 192.663 614.624 Q195.811 611.407 201.042 611.407 Q207.037 611.407 210.186 616.013 Q213.357 620.596 213.357 629.346 Q213.357 637.518 209.468 642.402 Q205.602 647.263 199.051 647.263 Q197.292 647.263 195.487 646.916 Q193.681 646.568 191.737 645.874 M201.042 631.221 Q204.19 631.221 206.019 629.068 Q207.871 626.916 207.871 623.166 Q207.871 619.439 206.019 617.286 Q204.19 615.11 201.042 615.11 Q197.894 615.11 196.042 617.286 Q194.213 619.439 194.213 623.166 Q194.213 626.916 196.042 629.068 Q197.894 631.221 201.042 631.221 Z" fill="#000000" fill-rule="nonzero" fill-opacity="1"></path><path clip-path="url(#clip380)" d="M234.607 616.106 L222.801 634.555 L234.607 634.555 L234.607 616.106 M233.38 612.032 L239.259 612.032 L239.259 634.555 L244.19 634.555 L244.19 638.443 L239.259 638.443 L239.259 646.592 L234.607 646.592 L234.607 638.443 L219.005 638.443 L219.005 633.93 L233.38 612.032 Z" fill="#000000" fill-rule="nonzero" fill-opacity="1"></path><path clip-path="url(#clip380)" d="M126.529 333.149 Q122.918 333.149 121.089 336.714 Q119.283 340.256 119.283 347.385 Q119.283 354.492 121.089 358.057 Q122.918 361.598 126.529 361.598 Q130.163 361.598 131.968 358.057 Q133.797 354.492 133.797 347.385 Q133.797 340.256 131.968 336.714 Q130.163 333.149 126.529 333.149 M126.529 329.446 Q132.339 329.446 135.394 334.052 Q138.473 338.635 138.473 347.385 Q138.473 356.112 135.394 360.719 Q132.339 365.302 126.529 365.302 Q120.718 365.302 117.64 360.719 Q114.584 356.112 114.584 347.385 Q114.584 338.635 117.64 334.052 Q120.718 329.446 126.529 329.446 Z" fill="#000000" fill-rule="nonzero" fill-opacity="1"></path><path clip-path="url(#clip380)" d="M146.691 358.751 L151.575 358.751 L151.575 364.631 L146.691 364.631 L146.691 358.751 Z" fill="#000000" fill-rule="nonzero" fill-opacity="1"></path><path clip-path="url(#clip380)" d="M161.899 363.913 L161.899 359.654 Q163.658 360.487 165.464 360.927 Q167.269 361.367 169.005 361.367 Q173.635 361.367 176.065 358.265 Q178.519 355.14 178.866 348.797 Q177.524 350.788 175.464 351.853 Q173.403 352.918 170.903 352.918 Q165.718 352.918 162.686 349.793 Q159.677 346.645 159.677 341.205 Q159.677 335.881 162.825 332.663 Q165.973 329.446 171.204 329.446 Q177.2 329.446 180.348 334.052 Q183.519 338.635 183.519 347.385 Q183.519 355.557 179.63 360.441 Q175.764 365.302 169.214 365.302 Q167.454 365.302 165.649 364.955 Q163.843 364.608 161.899 363.913 M171.204 349.26 Q174.352 349.26 176.181 347.108 Q178.033 344.955 178.033 341.205 Q178.033 337.478 176.181 335.325 Q174.352 333.149 171.204 333.149 Q168.056 333.149 166.204 335.325 Q164.376 337.478 164.376 341.205 Q164.376 344.955 166.204 347.108 Q168.056 349.26 171.204 349.26 Z" fill="#000000" fill-rule="nonzero" fill-opacity="1"></path><path clip-path="url(#clip380)" d="M192.061 363.913 L192.061 359.654 Q193.82 360.487 195.625 360.927 Q197.431 361.367 199.167 361.367 Q203.797 361.367 206.227 358.265 Q208.681 355.14 209.028 348.797 Q207.686 350.788 205.625 351.853 Q203.565 352.918 201.065 352.918 Q195.88 352.918 192.848 349.793 Q189.838 346.645 189.838 341.205 Q189.838 335.881 192.987 332.663 Q196.135 329.446 201.366 329.446 Q207.362 329.446 210.51 334.052 Q213.681 338.635 213.681 347.385 Q213.681 355.557 209.792 360.441 Q205.926 365.302 199.375 365.302 Q197.616 365.302 195.811 364.955 Q194.005 364.608 192.061 363.913 M201.366 349.26 Q204.514 349.26 206.343 347.108 Q208.195 344.955 208.195 341.205 Q208.195 337.478 206.343 335.325 Q204.514 333.149 201.366 333.149 Q198.218 333.149 196.366 335.325 Q194.538 337.478 194.538 341.205 Q194.538 344.955 196.366 347.108 Q198.218 349.26 201.366 349.26 Z" fill="#000000" fill-rule="nonzero" fill-opacity="1"></path><path clip-path="url(#clip380)" d="M232.662 345.487 Q229.514 345.487 227.662 347.64 Q225.834 349.793 225.834 353.543 Q225.834 357.27 227.662 359.446 Q229.514 361.598 232.662 361.598 Q235.81 361.598 237.639 359.446 Q239.491 357.27 239.491 353.543 Q239.491 349.793 237.639 347.64 Q235.81 345.487 232.662 345.487 M241.945 330.835 L241.945 335.094 Q240.185 334.26 238.38 333.821 Q236.597 333.381 234.838 333.381 Q230.209 333.381 227.755 336.506 Q225.324 339.631 224.977 345.95 Q226.343 343.936 228.403 342.872 Q230.463 341.784 232.94 341.784 Q238.148 341.784 241.158 344.955 Q244.19 348.103 244.19 353.543 Q244.19 358.867 241.042 362.084 Q237.894 365.302 232.662 365.302 Q226.667 365.302 223.496 360.719 Q220.324 356.112 220.324 347.385 Q220.324 339.191 224.213 334.33 Q228.102 329.446 234.653 329.446 Q236.412 329.446 238.195 329.793 Q240 330.14 241.945 330.835 Z" fill="#000000" fill-rule="nonzero" fill-opacity="1"></path><path clip-path="url(#clip380)" d="M42.4881 1062.89 L77.5631 1062.89 L77.5631 1068.75 L42.679 1068.75 Q37.6183 1068.75 35.1038 1070.72 Q32.5894 1072.69 32.5894 1076.64 Q32.5894 1081.38 35.6131 1084.12 Q38.6368 1086.86 43.8567 1086.86 L64.0042 1086.86 L64.0042 1092.74 L28.3562 1092.74 L28.3562 1086.86 L33.8944 1086.86 Q30.6797 1084.76 29.0883 1081.92 Q27.4968 1079.06 27.4968 1075.33 Q27.4968 1069.19 31.2844 1066.04 Q35.1038 1062.89 42.4881 1062.89 Z" fill="#000000" fill-rule="nonzero" fill-opacity="1"></path><path clip-path="url(#clip380)" d="M34.4036 1029.72 L34.4036 988.919 L39.7508 988.919 L39.7508 1029.72 L34.4036 1029.72 M47.3897 1029.72 L47.3897 988.919 L52.8005 988.919 L52.8005 1029.72 L47.3897 1029.72 Z" fill="#000000" fill-rule="nonzero" fill-opacity="1"></path><path clip-path="url(#clip380)" d="M16.4842 954.895 L16.4842 948.465 L35.9632 948.465 L35.9632 925.103 L16.4842 925.103 L16.4842 918.674 L64.0042 918.674 L64.0042 925.103 L41.3741 925.103 L41.3741 948.465 L64.0042 948.465 L64.0042 954.895 L16.4842 954.895 Z" fill="#000000" fill-rule="nonzero" fill-opacity="1"></path><path clip-path="url(#clip380)" d="M74.8259 879.047 L79.3773 879.047 L79.3773 912.913 L74.8259 912.913 L74.8259 879.047 Z" fill="#000000" fill-rule="nonzero" fill-opacity="1"></path><path clip-path="url(#clip380)" d="M33.7671 850.083 L14.479 850.083 L14.479 844.227 L64.0042 844.227 L64.0042 850.083 L58.657 850.083 Q61.8398 851.929 63.3994 854.762 Q64.9272 857.563 64.9272 861.51 Q64.9272 867.971 59.771 872.045 Q54.6147 876.087 46.212 876.087 Q37.8093 876.087 32.6531 872.045 Q27.4968 867.971 27.4968 861.51 Q27.4968 857.563 29.0564 854.762 Q30.5842 851.929 33.7671 850.083 M46.212 870.04 Q52.6732 870.04 56.3653 867.398 Q60.0256 864.725 60.0256 860.078 Q60.0256 855.431 56.3653 852.757 Q52.6732 850.083 46.212 850.083 Q39.7508 850.083 36.0905 852.757 Q32.3984 855.431 32.3984 860.078 Q32.3984 864.725 36.0905 867.398 Q39.7508 870.04 46.212 870.04 Z" fill="#000000" fill-rule="nonzero" fill-opacity="1"></path><path clip-path="url(#clip380)" d="M28.3562 832.164 L28.3562 826.307 L64.0042 826.307 L64.0042 832.164 L28.3562 832.164 M14.479 832.164 L14.479 826.307 L21.895 826.307 L21.895 832.164 L14.479 832.164 Z" fill="#000000" fill-rule="nonzero" fill-opacity="1"></path><path clip-path="url(#clip380)" d="M29.4065 791.328 L34.9447 791.328 Q33.6716 793.811 33.035 796.484 Q32.3984 799.158 32.3984 802.022 Q32.3984 806.383 33.7352 808.579 Q35.072 810.743 37.7456 810.743 Q39.7826 810.743 40.9603 809.184 Q42.1061 807.624 43.1565 802.913 L43.6021 800.908 Q44.9389 794.67 47.3897 792.06 Q49.8086 789.418 54.1691 789.418 Q59.1344 789.418 62.0308 793.365 Q64.9272 797.28 64.9272 804.155 Q64.9272 807.019 64.3543 810.139 Q63.8132 813.226 62.6992 816.663 L56.6518 816.663 Q58.3387 813.417 59.198 810.266 Q60.0256 807.115 60.0256 804.027 Q60.0256 799.89 58.6251 797.662 Q57.1929 795.434 54.6147 795.434 Q52.2276 795.434 50.9545 797.057 Q49.6813 798.648 48.5037 804.091 L48.0262 806.128 Q46.8804 811.571 44.5251 813.99 Q42.138 816.409 38.0002 816.409 Q32.9713 816.409 30.2341 812.844 Q27.4968 809.279 27.4968 802.723 Q27.4968 799.476 27.9743 796.611 Q28.4517 793.747 29.4065 791.328 Z" fill="#000000" fill-rule="nonzero" fill-opacity="1"></path><path clip-path="url(#clip380)" d="M18.2347 774.3 L28.3562 774.3 L28.3562 762.237 L32.9077 762.237 L32.9077 774.3 L52.2594 774.3 Q56.6199 774.3 57.8613 773.122 Q59.1026 771.913 59.1026 768.252 L59.1026 762.237 L64.0042 762.237 L64.0042 768.252 Q64.0042 775.032 61.4897 777.61 Q58.9434 780.188 52.2594 780.188 L32.9077 780.188 L32.9077 784.485 L28.3562 784.485 L28.3562 780.188 L18.2347 780.188 L18.2347 774.3 Z" fill="#000000" fill-rule="nonzero" fill-opacity="1"></path><path clip-path="url(#clip380)" d="M16.4842 723.406 L16.4842 717.995 L70.0516 734.546 L70.0516 739.957 L16.4842 723.406 Z" fill="#000000" fill-rule="nonzero" fill-opacity="1"></path><path clip-path="url(#clip380)" d="M16.4842 690.877 L16.4842 684.448 L58.5933 684.448 L58.5933 661.308 L64.0042 661.308 L64.0042 690.877 L16.4842 690.877 Z" fill="#000000" fill-rule="nonzero" fill-opacity="1"></path><path clip-path="url(#clip380)" d="M74.8259 627.729 L79.3773 627.729 L79.3773 661.595 L74.8259 661.595 L74.8259 627.729 Z" fill="#000000" fill-rule="nonzero" fill-opacity="1"></path><path clip-path="url(#clip380)" d="M46.0847 606.022 Q46.0847 613.12 47.7079 615.857 Q49.3312 618.594 53.2461 618.594 Q56.3653 618.594 58.2114 616.557 Q60.0256 614.489 60.0256 610.956 Q60.0256 606.086 56.5881 603.158 Q53.1188 600.198 47.3897 600.198 L46.0847 600.198 L46.0847 606.022 M43.6657 594.341 L64.0042 594.341 L64.0042 600.198 L58.5933 600.198 Q61.8398 602.203 63.3994 605.195 Q64.9272 608.187 64.9272 612.515 Q64.9272 617.99 61.8716 621.236 Q58.7843 624.451 53.6281 624.451 Q47.6125 624.451 44.5569 620.441 Q41.5014 616.398 41.5014 608.409 L41.5014 600.198 L40.9285 600.198 Q36.8862 600.198 34.6901 602.871 Q32.4621 605.513 32.4621 610.319 Q32.4621 613.375 33.1941 616.271 Q33.9262 619.167 35.3903 621.841 L29.9795 621.841 Q28.7381 618.626 28.1334 615.603 Q27.4968 612.579 27.4968 609.714 Q27.4968 601.98 31.5072 598.161 Q35.5176 594.341 43.6657 594.341 Z" fill="#000000" fill-rule="nonzero" fill-opacity="1"></path><path clip-path="url(#clip380)" d="M28.3562 586.479 L28.3562 580.273 L58.275 569.133 L28.3562 557.993 L28.3562 551.786 L64.0042 565.154 L64.0042 573.111 L28.3562 586.479 Z" fill="#000000" fill-rule="nonzero" fill-opacity="1"></path><path clip-path="url(#clip380)" d="M45.7664 520.244 Q39.4007 520.244 35.8996 522.886 Q32.3984 525.496 32.3984 530.238 Q32.3984 534.949 35.8996 537.591 Q39.4007 540.201 45.7664 540.201 Q52.1003 540.201 55.6014 537.591 Q59.1026 534.949 59.1026 530.238 Q59.1026 525.496 55.6014 522.886 Q52.1003 520.244 45.7664 520.244 M59.58 514.388 Q68.683 514.388 73.1071 518.43 Q77.5631 522.472 77.5631 530.811 Q77.5631 533.899 77.0857 536.636 Q76.6401 539.373 75.6852 541.951 L69.9879 541.951 Q71.3884 539.373 72.0568 536.859 Q72.7252 534.344 72.7252 531.734 Q72.7252 525.973 69.7015 523.109 Q66.7096 520.244 60.6303 520.244 L57.7339 520.244 Q60.885 522.059 62.4446 524.891 Q64.0042 527.724 64.0042 531.671 Q64.0042 538.227 59.0071 542.238 Q54.01 546.248 45.7664 546.248 Q37.491 546.248 32.4939 542.238 Q27.4968 538.227 27.4968 531.671 Q27.4968 527.724 29.0564 524.891 Q30.616 522.059 33.7671 520.244 L28.3562 520.244 L28.3562 514.388 L59.58 514.388 Z" fill="#000000" fill-rule="nonzero" fill-opacity="1"></path><path clip-path="url(#clip380)" d="M351.872 33.264 L390.112 33.264 L390.112 40.1505 L360.054 40.1505 L360.054 58.0555 L388.856 58.0555 L388.856 64.9421 L360.054 64.9421 L360.054 86.8575 L390.841 86.8575 L390.841 93.744 L351.872 93.744 L351.872 33.264 Z" fill="#000000" fill-rule="nonzero" fill-opacity="1"></path><path clip-path="url(#clip380)" d="M426.935 30.7119 L426.935 36.9098 L419.805 36.9098 Q415.795 36.9098 414.215 38.5302 Q412.676 40.1505 412.676 44.3635 L412.676 48.3739 L424.95 48.3739 L424.95 54.1667 L412.676 54.1667 L412.676 93.744 L405.182 93.744 L405.182 54.1667 L398.052 54.1667 L398.052 48.3739 L405.182 48.3739 L405.182 45.2142 Q405.182 37.639 408.706 34.1957 Q412.23 30.7119 419.886 30.7119 L426.935 30.7119 Z" fill="#000000" fill-rule="nonzero" fill-opacity="1"></path><path clip-path="url(#clip380)" d="M456.142 30.7119 L456.142 36.9098 L449.012 36.9098 Q445.002 36.9098 443.422 38.5302 Q441.883 40.1505 441.883 44.3635 L441.883 48.3739 L454.157 48.3739 L454.157 54.1667 L441.883 54.1667 L441.883 93.744 L434.389 93.744 L434.389 54.1667 L427.259 54.1667 L427.259 48.3739 L434.389 48.3739 L434.389 45.2142 Q434.389 37.639 437.913 34.1957 Q441.437 30.7119 449.093 30.7119 L456.142 30.7119 Z" fill="#000000" fill-rule="nonzero" fill-opacity="1"></path><path clip-path="url(#clip380)" d="M462.38 48.3739 L469.834 48.3739 L469.834 93.744 L462.38 93.744 L462.38 48.3739 M462.38 30.7119 L469.834 30.7119 L469.834 40.1505 L462.38 40.1505 L462.38 30.7119 Z" fill="#000000" fill-rule="nonzero" fill-opacity="1"></path><path clip-path="url(#clip380)" d="M518.08 50.1158 L518.08 57.0833 Q514.921 55.3414 511.72 54.4907 Q508.561 53.5995 505.32 53.5995 Q498.069 53.5995 494.058 58.2176 Q490.048 62.7951 490.048 71.0994 Q490.048 79.4038 494.058 84.0218 Q498.069 88.5994 505.32 88.5994 Q508.561 88.5994 511.72 87.7487 Q514.921 86.8575 518.08 85.1156 L518.08 92.0021 Q514.961 93.4604 511.599 94.1896 Q508.277 94.9188 504.51 94.9188 Q494.261 94.9188 488.225 88.4778 Q482.189 82.0369 482.189 71.0994 Q482.189 60 488.266 53.64 Q494.382 47.2801 504.996 47.2801 Q508.439 47.2801 511.72 48.0093 Q515.002 48.6979 518.08 50.1158 Z" fill="#000000" fill-rule="nonzero" fill-opacity="1"></path><path clip-path="url(#clip380)" d="M531.043 48.3739 L538.497 48.3739 L538.497 93.744 L531.043 93.744 L531.043 48.3739 M531.043 30.7119 L538.497 30.7119 L538.497 40.1505 L531.043 40.1505 L531.043 30.7119 Z" fill="#000000" fill-rule="nonzero" fill-opacity="1"></path><path clip-path="url(#clip380)" d="M592.9 69.1955 L592.9 72.8413 L558.63 72.8413 Q559.116 80.5381 563.248 84.589 Q567.42 88.5994 574.833 88.5994 Q579.127 88.5994 583.138 87.5461 Q587.189 86.4929 591.159 84.3864 L591.159 91.435 Q587.148 93.1364 582.935 94.0276 Q578.722 94.9188 574.388 94.9188 Q563.531 94.9188 557.171 88.5994 Q550.852 82.2799 550.852 71.5045 Q550.852 60.3645 556.847 53.8426 Q562.883 47.2801 573.092 47.2801 Q582.247 47.2801 587.553 53.1944 Q592.9 59.0683 592.9 69.1955 M585.447 67.008 Q585.366 60.8912 582.004 57.2454 Q578.682 53.5995 573.173 53.5995 Q566.934 53.5995 563.167 57.1238 Q559.44 60.6481 558.873 67.0485 L585.447 67.008 Z" fill="#000000" fill-rule="nonzero" fill-opacity="1"></path><path clip-path="url(#clip380)" d="M642.848 66.3599 L642.848 93.744 L635.394 93.744 L635.394 66.6029 Q635.394 60.162 632.883 56.9618 Q630.371 53.7616 625.348 53.7616 Q619.312 53.7616 615.829 57.6099 Q612.345 61.4583 612.345 68.1018 L612.345 93.744 L604.851 93.744 L604.851 48.3739 L612.345 48.3739 L612.345 55.4224 Q615.018 51.331 618.624 49.3056 Q622.27 47.2801 627.009 47.2801 Q634.827 47.2801 638.838 52.1412 Q642.848 56.9618 642.848 66.3599 Z" fill="#000000" fill-rule="nonzero" fill-opacity="1"></path><path clip-path="url(#clip380)" d="M676.592 97.9569 Q673.432 106.059 670.435 108.53 Q667.437 111.001 662.414 111.001 L656.459 111.001 L656.459 104.762 L660.834 104.762 Q663.913 104.762 665.614 103.304 Q667.316 101.846 669.382 96.4176 L670.718 93.0148 L652.368 48.3739 L660.267 48.3739 L674.445 83.8598 L688.623 48.3739 L696.523 48.3739 L676.592 97.9569 Z" fill="#000000" fill-rule="nonzero" fill-opacity="1"></path><path clip-path="url(#clip380)" d="M750.764 53.5995 Q744.769 53.5995 741.285 58.2986 Q737.801 62.9571 737.801 71.0994 Q737.801 79.2418 741.245 83.9408 Q744.728 88.5994 750.764 88.5994 Q756.719 88.5994 760.203 83.9003 Q763.687 79.2013 763.687 71.0994 Q763.687 63.0381 760.203 58.3391 Q756.719 53.5995 750.764 53.5995 M750.764 47.2801 Q760.486 47.2801 766.036 53.5995 Q771.586 59.9189 771.586 71.0994 Q771.586 82.2394 766.036 88.5994 Q760.486 94.9188 750.764 94.9188 Q741.002 94.9188 735.452 88.5994 Q729.943 82.2394 729.943 71.0994 Q729.943 59.9189 735.452 53.5995 Q741.002 47.2801 750.764 47.2801 Z" fill="#000000" fill-rule="nonzero" fill-opacity="1"></path><path clip-path="url(#clip380)" d="M806.91 30.7119 L806.91 36.9098 L799.78 36.9098 Q795.77 36.9098 794.19 38.5302 Q792.651 40.1505 792.651 44.3635 L792.651 48.3739 L804.925 48.3739 L804.925 54.1667 L792.651 54.1667 L792.651 93.744 L785.156 93.744 L785.156 54.1667 L778.027 54.1667 L778.027 48.3739 L785.156 48.3739 L785.156 45.2142 Q785.156 37.639 788.681 34.1957 Q792.205 30.7119 799.861 30.7119 L806.91 30.7119 Z" fill="#000000" fill-rule="nonzero" fill-opacity="1"></path><path clip-path="url(#clip380)" d="M839.844 33.264 L848.026 33.264 L848.026 58.0555 L877.76 58.0555 L877.76 33.264 L885.943 33.264 L885.943 93.744 L877.76 93.744 L877.76 64.9421 L848.026 64.9421 L848.026 93.744 L839.844 93.744 L839.844 33.264 Z" fill="#000000" fill-rule="nonzero" fill-opacity="1"></path><path clip-path="url(#clip380)" d="M901.134 75.839 L901.134 48.3739 L908.587 48.3739 L908.587 75.5554 Q908.587 81.9964 911.099 85.2371 Q913.611 88.4373 918.634 88.4373 Q924.67 88.4373 928.153 84.589 Q931.678 80.7406 931.678 74.0971 L931.678 48.3739 L939.131 48.3739 L939.131 93.744 L931.678 93.744 L931.678 86.7764 Q928.963 90.9084 925.358 92.9338 Q921.793 94.9188 917.054 94.9188 Q909.236 94.9188 905.185 90.0577 Q901.134 85.1966 901.134 75.839 M919.889 47.2801 L919.889 47.2801 Z" fill="#000000" fill-rule="nonzero" fill-opacity="1"></path><path clip-path="url(#clip380)" d="M977.453 30.7119 L977.453 36.9098 L970.323 36.9098 Q966.313 36.9098 964.733 38.5302 Q963.194 40.1505 963.194 44.3635 L963.194 48.3739 L975.468 48.3739 L975.468 54.1667 L963.194 54.1667 L963.194 93.744 L955.699 93.744 L955.699 54.1667 L948.57 54.1667 L948.57 48.3739 L955.699 48.3739 L955.699 45.2142 Q955.699 37.639 959.224 34.1957 Q962.748 30.7119 970.404 30.7119 L977.453 30.7119 Z" fill="#000000" fill-rule="nonzero" fill-opacity="1"></path><path clip-path="url(#clip380)" d="M1006.66 30.7119 L1006.66 36.9098 L999.53 36.9098 Q995.52 36.9098 993.94 38.5302 Q992.401 40.1505 992.401 44.3635 L992.401 48.3739 L1004.67 48.3739 L1004.67 54.1667 L992.401 54.1667 L992.401 93.744 L984.906 93.744 L984.906 54.1667 L977.777 54.1667 L977.777 48.3739 L984.906 48.3739 L984.906 45.2142 Q984.906 37.639 988.431 34.1957 Q991.955 30.7119 999.611 30.7119 L1006.66 30.7119 Z" fill="#000000" fill-rule="nonzero" fill-opacity="1"></path><path clip-path="url(#clip380)" d="M1048.22 57.0833 Q1051.02 52.0602 1054.91 49.6702 Q1058.79 47.2801 1064.06 47.2801 Q1071.15 47.2801 1075 52.2627 Q1078.85 57.2048 1078.85 66.3599 L1078.85 93.744 L1071.35 93.744 L1071.35 66.6029 Q1071.35 60.081 1069.04 56.9213 Q1066.73 53.7616 1062 53.7616 Q1056.2 53.7616 1052.84 57.6099 Q1049.48 61.4583 1049.48 68.1018 L1049.48 93.744 L1041.98 93.744 L1041.98 66.6029 Q1041.98 60.0405 1039.67 56.9213 Q1037.37 53.7616 1032.55 53.7616 Q1026.83 53.7616 1023.47 57.6504 Q1020.11 61.4988 1020.11 68.1018 L1020.11 93.744 L1012.61 93.744 L1012.61 48.3739 L1020.11 48.3739 L1020.11 55.4224 Q1022.66 51.25 1026.23 49.2651 Q1029.79 47.2801 1034.69 47.2801 Q1039.63 47.2801 1043.08 49.7917 Q1046.56 52.3032 1048.22 57.0833 Z" fill="#000000" fill-rule="nonzero" fill-opacity="1"></path><path clip-path="url(#clip380)" d="M1114.33 70.9374 Q1105.3 70.9374 1101.82 73.0034 Q1098.33 75.0693 1098.33 80.0519 Q1098.33 84.0218 1100.92 86.3714 Q1103.56 88.6804 1108.05 88.6804 Q1114.25 88.6804 1117.98 84.3054 Q1121.75 79.8899 1121.75 72.5983 L1121.75 70.9374 L1114.33 70.9374 M1129.2 67.8587 L1129.2 93.744 L1121.75 93.744 L1121.75 86.8575 Q1119.19 90.9894 1115.39 92.9743 Q1111.58 94.9188 1106.07 94.9188 Q1099.1 94.9188 1094.97 91.0299 Q1090.88 87.1005 1090.88 80.5381 Q1090.88 72.8818 1095.98 68.993 Q1101.13 65.1041 1111.29 65.1041 L1121.75 65.1041 L1121.75 64.3749 Q1121.75 59.2303 1118.34 56.4352 Q1114.98 53.5995 1108.86 53.5995 Q1104.98 53.5995 1101.29 54.5312 Q1097.6 55.463 1094.2 57.3264 L1094.2 50.4398 Q1098.29 48.86 1102.14 48.0903 Q1105.99 47.2801 1109.63 47.2801 Q1119.48 47.2801 1124.34 52.3843 Q1129.2 57.4884 1129.2 67.8587 Z" fill="#000000" fill-rule="nonzero" fill-opacity="1"></path><path clip-path="url(#clip380)" d="M1182.27 66.3599 L1182.27 93.744 L1174.81 93.744 L1174.81 66.6029 Q1174.81 60.162 1172.3 56.9618 Q1169.79 53.7616 1164.77 53.7616 Q1158.73 53.7616 1155.25 57.6099 Q1151.76 61.4583 1151.76 68.1018 L1151.76 93.744 L1144.27 93.744 L1144.27 48.3739 L1151.76 48.3739 L1151.76 55.4224 Q1154.44 51.331 1158.04 49.3056 Q1161.69 47.2801 1166.43 47.2801 Q1174.25 47.2801 1178.26 52.1412 Q1182.27 56.9618 1182.27 66.3599 Z" fill="#000000" fill-rule="nonzero" fill-opacity="1"></path><path clip-path="url(#clip380)" d="M1262.31 69.1955 L1262.31 72.8413 L1228.04 72.8413 Q1228.53 80.5381 1232.66 84.589 Q1236.83 88.5994 1244.25 88.5994 Q1248.54 88.5994 1252.55 87.5461 Q1256.6 86.4929 1260.57 84.3864 L1260.57 91.435 Q1256.56 93.1364 1252.35 94.0276 Q1248.13 94.9188 1243.8 94.9188 Q1232.94 94.9188 1226.58 88.5994 Q1220.26 82.2799 1220.26 71.5045 Q1220.26 60.3645 1226.26 53.8426 Q1232.3 47.2801 1242.5 47.2801 Q1251.66 47.2801 1256.97 53.1944 Q1262.31 59.0683 1262.31 69.1955 M1254.86 67.008 Q1254.78 60.8912 1251.42 57.2454 Q1248.09 53.5995 1242.58 53.5995 Q1236.35 53.5995 1232.58 57.1238 Q1228.85 60.6481 1228.28 67.0485 L1254.86 67.008 Z" fill="#000000" fill-rule="nonzero" fill-opacity="1"></path><path clip-path="url(#clip380)" d="M1312.26 66.3599 L1312.26 93.744 L1304.81 93.744 L1304.81 66.6029 Q1304.81 60.162 1302.29 56.9618 Q1299.78 53.7616 1294.76 53.7616 Q1288.72 53.7616 1285.24 57.6099 Q1281.76 61.4583 1281.76 68.1018 L1281.76 93.744 L1274.26 93.744 L1274.26 48.3739 L1281.76 48.3739 L1281.76 55.4224 Q1284.43 51.331 1288.04 49.3056 Q1291.68 47.2801 1296.42 47.2801 Q1304.24 47.2801 1308.25 52.1412 Q1312.26 56.9618 1312.26 66.3599 Z" fill="#000000" fill-rule="nonzero" fill-opacity="1"></path><path clip-path="url(#clip380)" d="M1359.78 50.1158 L1359.78 57.0833 Q1356.62 55.3414 1353.42 54.4907 Q1350.26 53.5995 1347.02 53.5995 Q1339.77 53.5995 1335.76 58.2176 Q1331.74 62.7951 1331.74 71.0994 Q1331.74 79.4038 1335.76 84.0218 Q1339.77 88.5994 1347.02 88.5994 Q1350.26 88.5994 1353.42 87.7487 Q1356.62 86.8575 1359.78 85.1156 L1359.78 92.0021 Q1356.66 93.4604 1353.3 94.1896 Q1349.97 94.9188 1346.21 94.9188 Q1335.96 94.9188 1329.92 88.4778 Q1323.89 82.0369 1323.89 71.0994 Q1323.89 60 1329.96 53.64 Q1336.08 47.2801 1346.69 47.2801 Q1350.14 47.2801 1353.42 48.0093 Q1356.7 48.6979 1359.78 50.1158 Z" fill="#000000" fill-rule="nonzero" fill-opacity="1"></path><path clip-path="url(#clip380)" d="M1390.32 53.5995 Q1384.33 53.5995 1380.84 58.2986 Q1377.36 62.9571 1377.36 71.0994 Q1377.36 79.2418 1380.8 83.9408 Q1384.29 88.5994 1390.32 88.5994 Q1396.28 88.5994 1399.76 83.9003 Q1403.24 79.2013 1403.24 71.0994 Q1403.24 63.0381 1399.76 58.3391 Q1396.28 53.5995 1390.32 53.5995 M1390.32 47.2801 Q1400.04 47.2801 1405.59 53.5995 Q1411.14 59.9189 1411.14 71.0994 Q1411.14 82.2394 1405.59 88.5994 Q1400.04 94.9188 1390.32 94.9188 Q1380.56 94.9188 1375.01 88.5994 Q1369.5 82.2394 1369.5 71.0994 Q1369.5 59.9189 1375.01 53.5995 Q1380.56 47.2801 1390.32 47.2801 Z" fill="#000000" fill-rule="nonzero" fill-opacity="1"></path><path clip-path="url(#clip380)" d="M1453.35 55.2604 L1453.35 30.7119 L1460.81 30.7119 L1460.81 93.744 L1453.35 93.744 L1453.35 86.9385 Q1451 90.9894 1447.4 92.9743 Q1443.83 94.9188 1438.81 94.9188 Q1430.59 94.9188 1425.4 88.3563 Q1420.26 81.7938 1420.26 71.0994 Q1420.26 60.4051 1425.4 53.8426 Q1430.59 47.2801 1438.81 47.2801 Q1443.83 47.2801 1447.4 49.2651 Q1451 51.2095 1453.35 55.2604 M1427.95 71.0994 Q1427.95 79.3228 1431.32 84.0218 Q1434.72 88.6804 1440.63 88.6804 Q1446.55 88.6804 1449.95 84.0218 Q1453.35 79.3228 1453.35 71.0994 Q1453.35 62.8761 1449.95 58.2176 Q1446.55 53.5185 1440.63 53.5185 Q1434.72 53.5185 1431.32 58.2176 Q1427.95 62.8761 1427.95 71.0994 Z" fill="#000000" fill-rule="nonzero" fill-opacity="1"></path><path clip-path="url(#clip380)" d="M1476.16 48.3739 L1483.61 48.3739 L1483.61 93.744 L1476.16 93.744 L1476.16 48.3739 M1476.16 30.7119 L1483.61 30.7119 L1483.61 40.1505 L1476.16 40.1505 L1476.16 30.7119 Z" fill="#000000" fill-rule="nonzero" fill-opacity="1"></path><path clip-path="url(#clip380)" d="M1536.92 66.3599 L1536.92 93.744 L1529.47 93.744 L1529.47 66.6029 Q1529.47 60.162 1526.96 56.9618 Q1524.45 53.7616 1519.42 53.7616 Q1513.39 53.7616 1509.9 57.6099 Q1506.42 61.4583 1506.42 68.1018 L1506.42 93.744 L1498.93 93.744 L1498.93 48.3739 L1506.42 48.3739 L1506.42 55.4224 Q1509.09 51.331 1512.7 49.3056 Q1516.34 47.2801 1521.08 47.2801 Q1528.9 47.2801 1532.91 52.1412 Q1536.92 56.9618 1536.92 66.3599 Z" fill="#000000" fill-rule="nonzero" fill-opacity="1"></path><path clip-path="url(#clip380)" d="M1581.65 70.5323 Q1581.65 62.4305 1578.28 57.9745 Q1574.96 53.5185 1568.93 53.5185 Q1562.93 53.5185 1559.57 57.9745 Q1556.25 62.4305 1556.25 70.5323 Q1556.25 78.5936 1559.57 83.0496 Q1562.93 87.5056 1568.93 87.5056 Q1574.96 87.5056 1578.28 83.0496 Q1581.65 78.5936 1581.65 70.5323 M1589.1 88.1132 Q1589.1 99.6988 1583.95 105.33 Q1578.81 111.001 1568.2 111.001 Q1564.27 111.001 1560.78 110.393 Q1557.3 109.826 1554.02 108.611 L1554.02 101.36 Q1557.3 103.142 1560.5 103.993 Q1563.7 104.843 1567.02 104.843 Q1574.35 104.843 1578 100.995 Q1581.65 97.1873 1581.65 89.45 L1581.65 85.7637 Q1579.34 89.7741 1575.73 91.7591 Q1572.13 93.744 1567.1 93.744 Q1558.76 93.744 1553.65 87.3841 Q1548.55 81.0242 1548.55 70.5323 Q1548.55 60 1553.65 53.64 Q1558.76 47.2801 1567.1 47.2801 Q1572.13 47.2801 1575.73 49.2651 Q1579.34 51.25 1581.65 55.2604 L1581.65 48.3739 L1589.1 48.3739 L1589.1 88.1132 Z" fill="#000000" fill-rule="nonzero" fill-opacity="1"></path><path clip-path="url(#clip380)" d="M1626.49 48.3739 L1633.94 48.3739 L1643.26 83.7788 L1652.54 48.3739 L1661.33 48.3739 L1670.64 83.7788 L1679.92 48.3739 L1687.37 48.3739 L1675.5 93.744 L1666.71 93.744 L1656.95 56.5567 L1647.15 93.744 L1638.36 93.744 L1626.49 48.3739 Z" fill="#000000" fill-rule="nonzero" fill-opacity="1"></path><path clip-path="url(#clip380)" d="M1698.68 48.3739 L1706.13 48.3739 L1706.13 93.744 L1698.68 93.744 L1698.68 48.3739 M1698.68 30.7119 L1706.13 30.7119 L1706.13 40.1505 L1698.68 40.1505 L1698.68 30.7119 Z" fill="#000000" fill-rule="nonzero" fill-opacity="1"></path><path clip-path="url(#clip380)" d="M1729.1 35.492 L1729.1 48.3739 L1744.45 48.3739 L1744.45 54.1667 L1729.1 54.1667 L1729.1 78.7962 Q1729.1 84.3459 1730.6 85.9258 Q1732.14 87.5056 1736.79 87.5056 L1744.45 87.5056 L1744.45 93.744 L1736.79 93.744 Q1728.17 93.744 1724.89 90.5438 Q1721.6 87.3031 1721.6 78.7962 L1721.6 54.1667 L1716.14 54.1667 L1716.14 48.3739 L1721.6 48.3739 L1721.6 35.492 L1729.1 35.492 Z" fill="#000000" fill-rule="nonzero" fill-opacity="1"></path><path clip-path="url(#clip380)" d="M1791.97 66.3599 L1791.97 93.744 L1784.51 93.744 L1784.51 66.6029 Q1784.51 60.162 1782 56.9618 Q1779.49 53.7616 1774.47 53.7616 Q1768.43 53.7616 1764.95 57.6099 Q1761.46 61.4583 1761.46 68.1018 L1761.46 93.744 L1753.97 93.744 L1753.97 30.7119 L1761.46 30.7119 L1761.46 55.4224 Q1764.14 51.331 1767.74 49.3056 Q1771.39 47.2801 1776.13 47.2801 Q1783.95 47.2801 1787.96 52.1412 Q1791.97 56.9618 1791.97 66.3599 Z" fill="#000000" fill-rule="nonzero" fill-opacity="1"></path><path clip-path="url(#clip380)" d="M1859.5 55.3414 Q1858.24 54.6123 1856.74 54.2882 Q1855.28 53.9236 1853.5 53.9236 Q1847.18 53.9236 1843.78 58.0555 Q1840.42 62.1469 1840.42 69.8437 L1840.42 93.744 L1832.92 93.744 L1832.92 48.3739 L1840.42 48.3739 L1840.42 55.4224 Q1842.77 51.2905 1846.53 49.3056 Q1850.3 47.2801 1855.69 47.2801 Q1856.46 47.2801 1857.39 47.4017 Q1858.32 47.4827 1859.46 47.6852 L1859.5 55.3414 Z" fill="#000000" fill-rule="nonzero" fill-opacity="1"></path><path clip-path="url(#clip380)" d="M1904.3 69.1955 L1904.3 72.8413 L1870.03 72.8413 Q1870.52 80.5381 1874.65 84.589 Q1878.82 88.5994 1886.23 88.5994 Q1890.53 88.5994 1894.54 87.5461 Q1898.59 86.4929 1902.56 84.3864 L1902.56 91.435 Q1898.55 93.1364 1894.33 94.0276 Q1890.12 94.9188 1885.79 94.9188 Q1874.93 94.9188 1868.57 88.5994 Q1862.25 82.2799 1862.25 71.5045 Q1862.25 60.3645 1868.25 53.8426 Q1874.28 47.2801 1884.49 47.2801 Q1893.65 47.2801 1898.95 53.1944 Q1904.3 59.0683 1904.3 69.1955 M1896.85 67.008 Q1896.76 60.8912 1893.4 57.2454 Q1890.08 53.5995 1884.57 53.5995 Q1878.33 53.5995 1874.57 57.1238 Q1870.84 60.6481 1870.27 67.0485 L1896.85 67.008 Z" fill="#000000" fill-rule="nonzero" fill-opacity="1"></path><path clip-path="url(#clip380)" d="M1923.74 86.9385 L1923.74 111.001 L1916.25 111.001 L1916.25 48.3739 L1923.74 48.3739 L1923.74 55.2604 Q1926.09 51.2095 1929.66 49.2651 Q1933.26 47.2801 1938.25 47.2801 Q1946.51 47.2801 1951.65 53.8426 Q1956.84 60.4051 1956.84 71.0994 Q1956.84 81.7938 1951.65 88.3563 Q1946.51 94.9188 1938.25 94.9188 Q1933.26 94.9188 1929.66 92.9743 Q1926.09 90.9894 1923.74 86.9385 M1949.1 71.0994 Q1949.1 62.8761 1945.7 58.2176 Q1942.34 53.5185 1936.42 53.5185 Q1930.51 53.5185 1927.11 58.2176 Q1923.74 62.8761 1923.74 71.0994 Q1923.74 79.3228 1927.11 84.0218 Q1930.51 88.6804 1936.42 88.6804 Q1942.34 88.6804 1945.7 84.0218 Q1949.1 79.3228 1949.1 71.0994 Z" fill="#000000" fill-rule="nonzero" fill-opacity="1"></path><path clip-path="url(#clip380)" d="M2008 69.1955 L2008 72.8413 L1973.73 72.8413 Q1974.22 80.5381 1978.35 84.589 Q1982.52 88.5994 1989.94 88.5994 Q1994.23 88.5994 1998.24 87.5461 Q2002.29 86.4929 2006.26 84.3864 L2006.26 91.435 Q2002.25 93.1364 1998.04 94.0276 Q1993.82 94.9188 1989.49 94.9188 Q1978.63 94.9188 1972.27 88.5994 Q1965.95 82.2799 1965.95 71.5045 Q1965.95 60.3645 1971.95 53.8426 Q1977.99 47.2801 1988.19 47.2801 Q1997.35 47.2801 2002.66 53.1944 Q2008 59.0683 2008 69.1955 M2000.55 67.008 Q2000.47 60.8912 1997.11 57.2454 Q1993.78 53.5995 1988.27 53.5995 Q1982.04 53.5995 1978.27 57.1238 Q1974.54 60.6481 1973.98 67.0485 L2000.55 67.008 Z" fill="#000000" fill-rule="nonzero" fill-opacity="1"></path><path clip-path="url(#clip380)" d="M2027.61 35.492 L2027.61 48.3739 L2042.96 48.3739 L2042.96 54.1667 L2027.61 54.1667 L2027.61 78.7962 Q2027.61 84.3459 2029.11 85.9258 Q2030.65 87.5056 2035.31 87.5056 L2042.96 87.5056 L2042.96 93.744 L2035.31 93.744 Q2026.68 93.744 2023.4 90.5438 Q2020.12 87.3031 2020.12 78.7962 L2020.12 54.1667 L2014.65 54.1667 L2014.65 48.3739 L2020.12 48.3739 L2020.12 35.492 L2027.61 35.492 Z" fill="#000000" fill-rule="nonzero" fill-opacity="1"></path><path clip-path="url(#clip380)" d="M2073.38 70.9374 Q2064.35 70.9374 2060.87 73.0034 Q2057.38 75.0693 2057.38 80.0519 Q2057.38 84.0218 2059.98 86.3714 Q2062.61 88.6804 2067.11 88.6804 Q2073.3 88.6804 2077.03 84.3054 Q2080.8 79.8899 2080.8 72.5983 L2080.8 70.9374 L2073.38 70.9374 M2088.25 67.8587 L2088.25 93.744 L2080.8 93.744 L2080.8 86.8575 Q2078.25 90.9894 2074.44 92.9743 Q2070.63 94.9188 2065.12 94.9188 Q2058.15 94.9188 2054.02 91.0299 Q2049.93 87.1005 2049.93 80.5381 Q2049.93 72.8818 2055.03 68.993 Q2060.18 65.1041 2070.35 65.1041 L2080.8 65.1041 L2080.8 64.3749 Q2080.8 59.2303 2077.39 56.4352 Q2074.03 53.5995 2067.92 53.5995 Q2064.03 53.5995 2060.34 54.5312 Q2056.65 55.463 2053.25 57.3264 L2053.25 50.4398 Q2057.34 48.86 2061.19 48.0903 Q2065.04 47.2801 2068.69 47.2801 Q2078.53 47.2801 2083.39 52.3843 Q2088.25 57.4884 2088.25 67.8587 Z" fill="#000000" fill-rule="nonzero" fill-opacity="1"></path><path clip-path="url(#clip380)" d="M2110.98 35.492 L2110.98 48.3739 L2126.33 48.3739 L2126.33 54.1667 L2110.98 54.1667 L2110.98 78.7962 Q2110.98 84.3459 2112.48 85.9258 Q2114.01 87.5056 2118.67 87.5056 L2126.33 87.5056 L2126.33 93.744 L2118.67 93.744 Q2110.05 93.744 2106.76 90.5438 Q2103.48 87.3031 2103.48 78.7962 L2103.48 54.1667 L2098.01 54.1667 L2098.01 48.3739 L2103.48 48.3739 L2103.48 35.492 L2110.98 35.492 Z" fill="#000000" fill-rule="nonzero" fill-opacity="1"></path><path clip-path="url(#clip380)" d="M2136.13 48.3739 L2143.59 48.3739 L2143.59 93.744 L2136.13 93.744 L2136.13 48.3739 M2136.13 30.7119 L2143.59 30.7119 L2143.59 40.1505 L2136.13 40.1505 L2136.13 30.7119 Z" fill="#000000" fill-rule="nonzero" fill-opacity="1"></path><path clip-path="url(#clip380)" d="M2176.76 53.5995 Q2170.77 53.5995 2167.28 58.2986 Q2163.8 62.9571 2163.8 71.0994 Q2163.8 79.2418 2167.24 83.9408 Q2170.73 88.5994 2176.76 88.5994 Q2182.72 88.5994 2186.2 83.9003 Q2189.69 79.2013 2189.69 71.0994 Q2189.69 63.0381 2186.2 58.3391 Q2182.72 53.5995 2176.76 53.5995 M2176.76 47.2801 Q2186.49 47.2801 2192.04 53.5995 Q2197.59 59.9189 2197.59 71.0994 Q2197.59 82.2394 2192.04 88.5994 Q2186.49 94.9188 2176.76 94.9188 Q2167 94.9188 2161.45 88.5994 Q2155.94 82.2394 2155.94 71.0994 Q2155.94 59.9189 2161.45 53.5995 Q2167 47.2801 2176.76 47.2801 Z" fill="#000000" fill-rule="nonzero" fill-opacity="1"></path><path clip-path="url(#clip380)" d="M2247.65 66.3599 L2247.65 93.744 L2240.2 93.744 L2240.2 66.6029 Q2240.2 60.162 2237.69 56.9618 Q2235.18 53.7616 2230.15 53.7616 Q2224.12 53.7616 2220.63 57.6099 Q2217.15 61.4583 2217.15 68.1018 L2217.15 93.744 L2209.66 93.744 L2209.66 48.3739 L2217.15 48.3739 L2217.15 55.4224 Q2219.82 51.331 2223.43 49.3056 Q2227.08 47.2801 2231.82 47.2801 Q2239.63 47.2801 2243.64 52.1412 Q2247.65 56.9618 2247.65 66.3599 Z" fill="#000000" fill-rule="nonzero" fill-opacity="1"></path><path clip-path="url(#clip380)" d="M534.081 145.98 L534.081 121.432 L541.535 121.432 L541.535 184.464 L534.081 184.464 L534.081 177.658 Q531.732 181.709 528.126 183.694 Q524.562 185.639 519.539 185.639 Q511.315 185.639 506.13 179.076 Q500.985 172.514 500.985 161.819 Q500.985 151.125 506.13 144.563 Q511.315 138 519.539 138 Q524.562 138 528.126 139.985 Q531.732 141.93 534.081 145.98 M508.682 161.819 Q508.682 170.043 512.044 174.742 Q515.447 179.4 521.361 179.4 Q527.276 179.4 530.679 174.742 Q534.081 170.043 534.081 161.819 Q534.081 153.596 530.679 148.938 Q527.276 144.239 521.361 144.239 Q515.447 144.239 512.044 148.938 Q508.682 153.596 508.682 161.819 Z" fill="#000000" fill-rule="nonzero" fill-opacity="1"></path><path clip-path="url(#clip380)" d="M556.888 139.094 L564.342 139.094 L564.342 184.464 L556.888 184.464 L556.888 139.094 M556.888 121.432 L564.342 121.432 L564.342 130.871 L556.888 130.871 L556.888 121.432 Z" fill="#000000" fill-rule="nonzero" fill-opacity="1"></path><path clip-path="url(#clip380)" d="M608.861 140.431 L608.861 147.479 Q605.701 145.859 602.299 145.049 Q598.896 144.239 595.25 144.239 Q589.7 144.239 586.905 145.94 Q584.15 147.641 584.15 151.044 Q584.15 153.637 586.135 155.135 Q588.12 156.594 594.116 157.931 L596.668 158.498 Q604.608 160.199 607.929 163.318 Q611.292 166.397 611.292 171.947 Q611.292 178.266 606.268 181.952 Q601.286 185.639 592.536 185.639 Q588.89 185.639 584.92 184.91 Q580.991 184.221 576.616 182.803 L576.616 175.106 Q580.748 177.253 584.758 178.347 Q588.769 179.4 592.698 179.4 Q597.964 179.4 600.8 177.618 Q603.635 175.795 603.635 172.514 Q603.635 169.476 601.569 167.855 Q599.544 166.235 592.617 164.736 L590.024 164.128 Q583.097 162.67 580.019 159.672 Q576.94 156.634 576.94 151.368 Q576.94 144.968 581.477 141.484 Q586.014 138 594.359 138 Q598.491 138 602.137 138.608 Q605.782 139.215 608.861 140.431 Z" fill="#000000" fill-rule="nonzero" fill-opacity="1"></path><path clip-path="url(#clip380)" d="M630.533 126.212 L630.533 139.094 L645.886 139.094 L645.886 144.887 L630.533 144.887 L630.533 169.516 Q630.533 175.066 632.032 176.646 Q633.572 178.226 638.23 178.226 L645.886 178.226 L645.886 184.464 L638.23 184.464 Q629.602 184.464 626.32 181.264 Q623.039 178.023 623.039 169.516 L623.039 144.887 L617.57 144.887 L617.57 139.094 L623.039 139.094 L623.039 126.212 L630.533 126.212 Z" fill="#000000" fill-rule="nonzero" fill-opacity="1"></path><path clip-path="url(#clip380)" d="M681.98 146.061 Q680.724 145.332 679.225 145.008 Q677.767 144.644 675.984 144.644 Q669.665 144.644 666.262 148.776 Q662.9 152.867 662.9 160.564 L662.9 184.464 L655.406 184.464 L655.406 139.094 L662.9 139.094 L662.9 146.142 Q665.25 142.011 669.017 140.026 Q672.784 138 678.172 138 Q678.942 138 679.873 138.122 Q680.805 138.203 681.939 138.405 L681.98 146.061 Z" fill="#000000" fill-rule="nonzero" fill-opacity="1"></path><path clip-path="url(#clip380)" d="M689.798 139.094 L697.252 139.094 L697.252 184.464 L689.798 184.464 L689.798 139.094 M689.798 121.432 L697.252 121.432 L697.252 130.871 L689.798 130.871 L689.798 121.432 Z" fill="#000000" fill-rule="nonzero" fill-opacity="1"></path><path clip-path="url(#clip380)" d="M745.417 161.819 Q745.417 153.596 742.014 148.938 Q738.652 144.239 732.738 144.239 Q726.823 144.239 723.421 148.938 Q720.058 153.596 720.058 161.819 Q720.058 170.043 723.421 174.742 Q726.823 179.4 732.738 179.4 Q738.652 179.4 742.014 174.742 Q745.417 170.043 745.417 161.819 M720.058 145.98 Q722.408 141.93 725.973 139.985 Q729.578 138 734.561 138 Q742.824 138 747.969 144.563 Q753.154 151.125 753.154 161.819 Q753.154 172.514 747.969 179.076 Q742.824 185.639 734.561 185.639 Q729.578 185.639 725.973 183.694 Q722.408 181.709 720.058 177.658 L720.058 184.464 L712.564 184.464 L712.564 121.432 L720.058 121.432 L720.058 145.98 Z" fill="#000000" fill-rule="nonzero" fill-opacity="1"></path><path clip-path="url(#clip380)" d="M764.74 166.559 L764.74 139.094 L772.193 139.094 L772.193 166.275 Q772.193 172.716 774.705 175.957 Q777.217 179.157 782.24 179.157 Q788.276 179.157 791.759 175.309 Q795.284 171.461 795.284 164.817 L795.284 139.094 L802.737 139.094 L802.737 184.464 L795.284 184.464 L795.284 177.496 Q792.57 181.628 788.964 183.654 Q785.399 185.639 780.66 185.639 Q772.842 185.639 768.791 180.778 Q764.74 175.917 764.74 166.559 M783.495 138 L783.495 138 Z" fill="#000000" fill-rule="nonzero" fill-opacity="1"></path><path clip-path="url(#clip380)" d="M825.463 126.212 L825.463 139.094 L840.816 139.094 L840.816 144.887 L825.463 144.887 L825.463 169.516 Q825.463 175.066 826.962 176.646 Q828.501 178.226 833.16 178.226 L840.816 178.226 L840.816 184.464 L833.16 184.464 Q824.531 184.464 821.25 181.264 Q817.969 178.023 817.969 169.516 L817.969 144.887 L812.5 144.887 L812.5 139.094 L817.969 139.094 L817.969 126.212 L825.463 126.212 Z" fill="#000000" fill-rule="nonzero" fill-opacity="1"></path><path clip-path="url(#clip380)" d="M850.619 139.094 L858.073 139.094 L858.073 184.464 L850.619 184.464 L850.619 139.094 M850.619 121.432 L858.073 121.432 L858.073 130.871 L850.619 130.871 L850.619 121.432 Z" fill="#000000" fill-rule="nonzero" fill-opacity="1"></path><path clip-path="url(#clip380)" d="M891.25 144.32 Q885.254 144.32 881.77 149.019 Q878.287 153.677 878.287 161.819 Q878.287 169.962 881.73 174.661 Q885.214 179.319 891.25 179.319 Q897.204 179.319 900.688 174.62 Q904.172 169.921 904.172 161.819 Q904.172 153.758 900.688 149.059 Q897.204 144.32 891.25 144.32 M891.25 138 Q900.972 138 906.521 144.32 Q912.071 150.639 912.071 161.819 Q912.071 172.959 906.521 179.319 Q900.972 185.639 891.25 185.639 Q881.487 185.639 875.937 179.319 Q870.428 172.959 870.428 161.819 Q870.428 150.639 875.937 144.32 Q881.487 138 891.25 138 Z" fill="#000000" fill-rule="nonzero" fill-opacity="1"></path><path clip-path="url(#clip380)" d="M962.14 157.08 L962.14 184.464 L954.687 184.464 L954.687 157.323 Q954.687 150.882 952.175 147.682 Q949.664 144.482 944.64 144.482 Q938.605 144.482 935.121 148.33 Q931.637 152.178 931.637 158.822 L931.637 184.464 L924.143 184.464 L924.143 139.094 L931.637 139.094 L931.637 146.142 Q934.311 142.051 937.916 140.026 Q941.562 138 946.301 138 Q954.12 138 958.13 142.861 Q962.14 147.682 962.14 157.08 Z" fill="#000000" fill-rule="nonzero" fill-opacity="1"></path><path clip-path="url(#clip380)" d="M978.911 174.175 L987.459 174.175 L987.459 184.464 L978.911 184.464 L978.911 174.175 M978.911 141.565 L987.459 141.565 L987.459 151.854 L978.911 151.854 L978.911 141.565 Z" fill="#000000" fill-rule="nonzero" fill-opacity="1"></path><path clip-path="url(#clip380)" d="M1030.64 121.432 L1047.82 121.432 L1047.82 127.225 L1038.09 127.225 L1038.09 189.609 L1047.82 189.609 L1047.82 195.401 L1030.64 195.401 L1030.64 121.432 Z" fill="#000000" fill-rule="nonzero" fill-opacity="1"></path><path clip-path="url(#clip380)" d="M1082.25 129.372 Q1075.93 129.372 1072.73 135.61 Q1069.57 141.808 1069.57 154.285 Q1069.57 166.721 1072.73 172.959 Q1075.93 179.157 1082.25 179.157 Q1088.61 179.157 1091.77 172.959 Q1094.97 166.721 1094.97 154.285 Q1094.97 141.808 1091.77 135.61 Q1088.61 129.372 1082.25 129.372 M1082.25 122.89 Q1092.42 122.89 1097.76 130.952 Q1103.15 138.972 1103.15 154.285 Q1103.15 169.557 1097.76 177.618 Q1092.42 185.639 1082.25 185.639 Q1072.08 185.639 1066.69 177.618 Q1061.35 169.557 1061.35 154.285 Q1061.35 138.972 1066.69 130.952 Q1072.08 122.89 1082.25 122.89 Z" fill="#000000" fill-rule="nonzero" fill-opacity="1"></path><path clip-path="url(#clip380)" d="M1117.53 174.175 L1126.08 174.175 L1126.08 184.464 L1117.53 184.464 L1117.53 174.175 Z" fill="#000000" fill-rule="nonzero" fill-opacity="1"></path><path clip-path="url(#clip380)" d="M1166.39 131.114 L1145.73 163.399 L1166.39 163.399 L1166.39 131.114 M1164.24 123.984 L1174.53 123.984 L1174.53 163.399 L1183.16 163.399 L1183.16 170.205 L1174.53 170.205 L1174.53 184.464 L1166.39 184.464 L1166.39 170.205 L1139.08 170.205 L1139.08 162.306 L1164.24 123.984 Z" fill="#000000" fill-rule="nonzero" fill-opacity="1"></path><path clip-path="url(#clip380)" d="M1196.77 123.984 L1228.89 123.984 L1228.89 130.871 L1204.26 130.871 L1204.26 145.697 Q1206.05 145.089 1207.83 144.806 Q1209.61 144.482 1211.39 144.482 Q1221.52 144.482 1227.43 150.031 Q1233.35 155.581 1233.35 165.06 Q1233.35 174.823 1227.27 180.251 Q1221.2 185.639 1210.14 185.639 Q1206.33 185.639 1202.36 184.991 Q1198.43 184.342 1194.22 183.046 L1194.22 174.823 Q1197.86 176.808 1201.75 177.78 Q1205.64 178.752 1209.97 178.752 Q1216.98 178.752 1221.07 175.066 Q1225.17 171.38 1225.17 165.06 Q1225.17 158.741 1221.07 155.054 Q1216.98 151.368 1209.97 151.368 Q1206.69 151.368 1203.41 152.097 Q1200.17 152.826 1196.77 154.366 L1196.77 123.984 Z" fill="#000000" fill-rule="nonzero" fill-opacity="1"></path><path clip-path="url(#clip380)" d="M1250.32 174.175 L1258.87 174.175 L1258.87 181.142 L1252.23 194.105 L1247 194.105 L1250.32 181.142 L1250.32 174.175 Z" fill="#000000" fill-rule="nonzero" fill-opacity="1"></path><path clip-path="url(#clip380)" d="M1319.71 129.372 Q1313.39 129.372 1310.19 135.61 Q1307.03 141.808 1307.03 154.285 Q1307.03 166.721 1310.19 172.959 Q1313.39 179.157 1319.71 179.157 Q1326.07 179.157 1329.23 172.959 Q1332.43 166.721 1332.43 154.285 Q1332.43 141.808 1329.23 135.61 Q1326.07 129.372 1319.71 129.372 M1319.71 122.89 Q1329.88 122.89 1335.23 130.952 Q1340.62 138.972 1340.62 154.285 Q1340.62 169.557 1335.23 177.618 Q1329.88 185.639 1319.71 185.639 Q1309.55 185.639 1304.16 177.618 Q1298.81 169.557 1298.81 154.285 Q1298.81 138.972 1304.16 130.952 Q1309.55 122.89 1319.71 122.89 Z" fill="#000000" fill-rule="nonzero" fill-opacity="1"></path><path clip-path="url(#clip380)" d="M1355 174.175 L1363.54 174.175 L1363.54 184.464 L1355 184.464 L1355 174.175 Z" fill="#000000" fill-rule="nonzero" fill-opacity="1"></path><path clip-path="url(#clip380)" d="M1388.42 177.577 L1416.98 177.577 L1416.98 184.464 L1378.57 184.464 L1378.57 177.577 Q1383.23 172.757 1391.25 164.655 Q1399.31 156.513 1401.38 154.163 Q1405.31 149.748 1406.85 146.71 Q1408.43 143.631 1408.43 140.674 Q1408.43 135.853 1405.03 132.815 Q1401.66 129.777 1396.24 129.777 Q1392.39 129.777 1388.09 131.114 Q1383.84 132.45 1378.98 135.164 L1378.98 126.901 Q1383.92 124.916 1388.21 123.903 Q1392.51 122.89 1396.07 122.89 Q1405.47 122.89 1411.06 127.589 Q1416.65 132.288 1416.65 140.147 Q1416.65 143.874 1415.23 147.236 Q1413.86 150.558 1410.17 155.095 Q1409.16 156.27 1403.73 161.9 Q1398.3 167.491 1388.42 177.577 Z" fill="#000000" fill-rule="nonzero" fill-opacity="1"></path><path clip-path="url(#clip380)" d="M1434.23 123.984 L1466.36 123.984 L1466.36 130.871 L1441.73 130.871 L1441.73 145.697 Q1443.51 145.089 1445.29 144.806 Q1447.07 144.482 1448.86 144.482 Q1458.98 144.482 1464.9 150.031 Q1470.81 155.581 1470.81 165.06 Q1470.81 174.823 1464.74 180.251 Q1458.66 185.639 1447.6 185.639 Q1443.79 185.639 1439.82 184.991 Q1435.89 184.342 1431.68 183.046 L1431.68 174.823 Q1435.33 176.808 1439.22 177.78 Q1443.1 178.752 1447.44 178.752 Q1454.45 178.752 1458.54 175.066 Q1462.63 171.38 1462.63 165.06 Q1462.63 158.741 1458.54 155.054 Q1454.45 151.368 1447.44 151.368 Q1444.16 151.368 1440.88 152.097 Q1437.64 152.826 1434.23 154.366 L1434.23 123.984 Z" fill="#000000" fill-rule="nonzero" fill-opacity="1"></path><path clip-path="url(#clip380)" d="M1487.79 174.175 L1496.33 174.175 L1496.33 181.142 L1489.69 194.105 L1484.46 194.105 L1487.79 181.142 L1487.79 174.175 Z" fill="#000000" fill-rule="nonzero" fill-opacity="1"></path><path clip-path="url(#clip380)" d="M1557.18 129.372 Q1550.86 129.372 1547.66 135.61 Q1544.5 141.808 1544.5 154.285 Q1544.5 166.721 1547.66 172.959 Q1550.86 179.157 1557.18 179.157 Q1563.54 179.157 1566.7 172.959 Q1569.9 166.721 1569.9 154.285 Q1569.9 141.808 1566.7 135.61 Q1563.54 129.372 1557.18 129.372 M1557.18 122.89 Q1567.35 122.89 1572.69 130.952 Q1578.08 138.972 1578.08 154.285 Q1578.08 169.557 1572.69 177.618 Q1567.35 185.639 1557.18 185.639 Q1547.01 185.639 1541.62 177.618 Q1536.28 169.557 1536.28 154.285 Q1536.28 138.972 1541.62 130.952 Q1547.01 122.89 1557.18 122.89 Z" fill="#000000" fill-rule="nonzero" fill-opacity="1"></path><path clip-path="url(#clip380)" d="M1592.46 174.175 L1601.01 174.175 L1601.01 184.464 L1592.46 184.464 L1592.46 174.175 Z" fill="#000000" fill-rule="nonzero" fill-opacity="1"></path><path clip-path="url(#clip380)" d="M1620.25 177.577 L1633.62 177.577 L1633.62 131.438 L1619.08 134.354 L1619.08 126.901 L1633.54 123.984 L1641.72 123.984 L1641.72 177.577 L1655.09 177.577 L1655.09 184.464 L1620.25 184.464 L1620.25 177.577 Z" fill="#000000" fill-rule="nonzero" fill-opacity="1"></path><path clip-path="url(#clip380)" d="M1671.7 123.984 L1703.82 123.984 L1703.82 130.871 L1679.19 130.871 L1679.19 145.697 Q1680.97 145.089 1682.76 144.806 Q1684.54 144.482 1686.32 144.482 Q1696.45 144.482 1702.36 150.031 Q1708.28 155.581 1708.28 165.06 Q1708.28 174.823 1702.2 180.251 Q1696.12 185.639 1685.06 185.639 Q1681.26 185.639 1677.29 184.991 Q1673.36 184.342 1669.14 183.046 L1669.14 174.823 Q1672.79 176.808 1676.68 177.78 Q1680.57 178.752 1684.9 178.752 Q1691.91 178.752 1696 175.066 Q1700.09 171.38 1700.09 165.06 Q1700.09 158.741 1696 155.054 Q1691.91 151.368 1684.9 151.368 Q1681.62 151.368 1678.34 152.097 Q1675.1 152.826 1671.7 154.366 L1671.7 123.984 Z" fill="#000000" fill-rule="nonzero" fill-opacity="1"></path><path clip-path="url(#clip380)" d="M1725.25 174.175 L1733.8 174.175 L1733.8 181.142 L1727.15 194.105 L1721.93 194.105 L1725.25 181.142 L1725.25 174.175 Z" fill="#000000" fill-rule="nonzero" fill-opacity="1"></path><path clip-path="url(#clip380)" d="M1794.64 129.372 Q1788.32 129.372 1785.12 135.61 Q1781.96 141.808 1781.96 154.285 Q1781.96 166.721 1785.12 172.959 Q1788.32 179.157 1794.64 179.157 Q1801 179.157 1804.16 172.959 Q1807.36 166.721 1807.36 154.285 Q1807.36 141.808 1804.16 135.61 Q1801 129.372 1794.64 129.372 M1794.64 122.89 Q1804.81 122.89 1810.16 130.952 Q1815.54 138.972 1815.54 154.285 Q1815.54 169.557 1810.16 177.618 Q1804.81 185.639 1794.64 185.639 Q1784.47 185.639 1779.09 177.618 Q1773.74 169.557 1773.74 154.285 Q1773.74 138.972 1779.09 130.952 Q1784.47 122.89 1794.64 122.89 Z" fill="#000000" fill-rule="nonzero" fill-opacity="1"></path><path clip-path="url(#clip380)" d="M1829.93 174.175 L1838.47 174.175 L1838.47 184.464 L1829.93 184.464 L1829.93 174.175 Z" fill="#000000" fill-rule="nonzero" fill-opacity="1"></path><path clip-path="url(#clip380)" d="M1857.71 177.577 L1871.08 177.577 L1871.08 131.438 L1856.54 134.354 L1856.54 126.901 L1871 123.984 L1879.18 123.984 L1879.18 177.577 L1892.55 177.577 L1892.55 184.464 L1857.71 184.464 L1857.71 177.577 Z" fill="#000000" fill-rule="nonzero" fill-opacity="1"></path><path clip-path="url(#clip380)" d="M1909.93 174.175 L1918.48 174.175 L1918.48 181.142 L1911.83 194.105 L1906.61 194.105 L1909.93 181.142 L1909.93 174.175 Z" fill="#000000" fill-rule="nonzero" fill-opacity="1"></path><path clip-path="url(#clip380)" d="M1979.32 129.372 Q1973 129.372 1969.8 135.61 Q1966.64 141.808 1966.64 154.285 Q1966.64 166.721 1969.8 172.959 Q1973 179.157 1979.32 179.157 Q1985.68 179.157 1988.84 172.959 Q1992.04 166.721 1992.04 154.285 Q1992.04 141.808 1988.84 135.61 Q1985.68 129.372 1979.32 129.372 M1979.32 122.89 Q1989.49 122.89 1994.84 130.952 Q2000.23 138.972 2000.23 154.285 Q2000.23 169.557 1994.84 177.618 Q1989.49 185.639 1979.32 185.639 Q1969.15 185.639 1963.77 177.618 Q1958.42 169.557 1958.42 154.285 Q1958.42 138.972 1963.77 130.952 Q1969.15 122.89 1979.32 122.89 Z" fill="#000000" fill-rule="nonzero" fill-opacity="1"></path><path clip-path="url(#clip380)" d="M2014.61 174.175 L2023.15 174.175 L2023.15 184.464 L2014.61 184.464 L2014.61 174.175 Z" fill="#000000" fill-rule="nonzero" fill-opacity="1"></path><path clip-path="url(#clip380)" d="M2058.48 129.372 Q2052.16 129.372 2048.96 135.61 Q2045.8 141.808 2045.8 154.285 Q2045.8 166.721 2048.96 172.959 Q2052.16 179.157 2058.48 179.157 Q2064.84 179.157 2068 172.959 Q2071.2 166.721 2071.2 154.285 Q2071.2 141.808 2068 135.61 Q2064.84 129.372 2058.48 129.372 M2058.48 122.89 Q2068.64 122.89 2073.99 130.952 Q2079.38 138.972 2079.38 154.285 Q2079.38 169.557 2073.99 177.618 Q2068.64 185.639 2058.48 185.639 Q2048.31 185.639 2042.92 177.618 Q2037.57 169.557 2037.57 154.285 Q2037.57 138.972 2042.92 130.952 Q2048.31 122.89 2058.48 122.89 Z" fill="#000000" fill-rule="nonzero" fill-opacity="1"></path><path clip-path="url(#clip380)" d="M2093.84 123.984 L2125.97 123.984 L2125.97 130.871 L2101.34 130.871 L2101.34 145.697 Q2103.12 145.089 2104.9 144.806 Q2106.68 144.482 2108.47 144.482 Q2118.59 144.482 2124.51 150.031 Q2130.42 155.581 2130.42 165.06 Q2130.42 174.823 2124.34 180.251 Q2118.27 185.639 2107.21 185.639 Q2103.4 185.639 2099.43 184.991 Q2095.5 184.342 2091.29 183.046 L2091.29 174.823 Q2094.94 176.808 2098.82 177.78 Q2102.71 178.752 2107.05 178.752 Q2114.06 178.752 2118.15 175.066 Q2122.24 171.38 2122.24 165.06 Q2122.24 158.741 2118.15 155.054 Q2114.06 151.368 2107.05 151.368 Q2103.77 151.368 2100.48 152.097 Q2097.24 152.826 2093.84 154.366 L2093.84 123.984 Z" fill="#000000" fill-rule="nonzero" fill-opacity="1"></path><path clip-path="url(#clip380)" d="M2162.91 121.432 L2162.91 195.401 L2145.73 195.401 L2145.73 189.609 L2155.42 189.609 L2155.42 127.225 L2145.73 127.225 L2145.73 121.432 L2162.91 121.432 Z" fill="#000000" fill-rule="nonzero" fill-opacity="1"></path><polyline clip-path="url(#clip382)" style="stroke:#009af9; stroke-linecap:round; stroke-linejoin:round; stroke-width:4; stroke-opacity:1; fill:none" points="338.848,1388.11 827.66,951.193 1316.47,614.365 1805.29,367.16 2294.1,219.025 "></polyline>
<path clip-path="url(#clip380)" d="M349.276 328.94 L608.962 328.94 L608.962 225.26 L349.276 225.26  Z" fill="#ffffff" fill-rule="evenodd" fill-opacity="1"></path>
<polyline clip-path="url(#clip380)" style="stroke:#000000; stroke-linecap:round; stroke-linejoin:round; stroke-width:4; stroke-opacity:1; fill:none" points="349.276,328.94 608.962,328.94 608.962,225.26 349.276,225.26 349.276,328.94 "></polyline>
<polyline clip-path="url(#clip380)" style="stroke:#009af9; stroke-linecap:round; stroke-linejoin:round; stroke-width:4; stroke-opacity:1; fill:none" points="372.304,277.1 510.475,277.1 "></polyline>
<path clip-path="url(#clip380)" d="M547.346 296.787 Q545.541 301.417 543.828 302.829 Q542.115 304.241 539.244 304.241 L535.842 304.241 L535.842 300.676 L538.342 300.676 Q540.101 300.676 541.073 299.843 Q542.045 299.009 543.226 295.907 L543.99 293.963 L533.504 268.454 L538.017 268.454 L546.119 288.732 L554.221 268.454 L558.735 268.454 L547.346 296.787 Z" fill="#000000" fill-rule="nonzero" fill-opacity="1"></path><path clip-path="url(#clip380)" d="M566.027 290.445 L573.665 290.445 L573.665 264.079 L565.355 265.746 L565.355 261.486 L573.619 259.82 L578.295 259.82 L578.295 290.445 L585.934 290.445 L585.934 294.38 L566.027 294.38 L566.027 290.445 Z" fill="#000000" fill-rule="nonzero" fill-opacity="1"></path></svg>