<svg xmlns="http://www.w3.org/2000/svg" xmlns:xlink="http://www.w3.org/1999/xlink" width="600" height="400" viewBox="0 0 2400 1600">
<defs>
  <clipPath id="clip180">
    <rect x="0" y="0" width="2400" height="1600"></rect>
  </clipPath>
</defs>
<path clip-path="url(#clip180)" d="M0 1600 L2400 1600 L2400 0 L0 0  Z" fill="#ffffff" fill-rule="evenodd" fill-opacity="1"></path>
<defs>
  <clipPath id="clip181">
    <rect x="480" y="0" width="1681" height="1600"></rect>
  </clipPath>
</defs>
<path clip-path="url(#clip180)" d="M219.866 1423.18 L2352.76 1423.18 L2352.76 183.952 L219.866 183.952  Z" fill="#ffffff" fill-rule="evenodd" fill-opacity="1"></path>
<defs>
  <clipPath id="clip182">
    <rect x="219" y="183" width="2134" height="1240"></rect>
  </clipPath>
</defs>
<polyline clip-path="url(#clip182)" style="stroke:#000000; stroke-linecap:round; stroke-linejoin:round; stroke-width:2; stroke-opacity:0.1; fill:none" points="280.231,1423.18 280.231,183.952 "></polyline>
<polyline clip-path="url(#clip182)" style="stroke:#000000; stroke-linecap:round; stroke-linejoin:round; stroke-width:2; stroke-opacity:0.1; fill:none" points="783.271,1423.18 783.271,183.952 "></polyline>
<polyline clip-path="url(#clip182)" style="stroke:#000000; stroke-linecap:round; stroke-linejoin:round; stroke-width:2; stroke-opacity:0.1; fill:none" points="1286.31,1423.18 1286.31,183.952 "></polyline>
<polyline clip-path="url(#clip182)" style="stroke:#000000; stroke-linecap:round; stroke-linejoin:round; stroke-width:2; stroke-opacity:0.1; fill:none" points="1789.35,1423.18 1789.35,183.952 "></polyline>
<polyline clip-path="url(#clip182)" style="stroke:#000000; stroke-linecap:round; stroke-linejoin:round; stroke-width:2; stroke-opacity:0.1; fill:none" points="2292.39,1423.18 2292.39,183.952 "></polyline>
<polyline clip-path="url(#clip180)" style="stroke:#000000; stroke-linecap:round; stroke-linejoin:round; stroke-width:4; stroke-opacity:1; fill:none" points="219.866,1423.18 2352.76,1423.18 "></polyline>
<polyline clip-path="url(#clip180)" style="stroke:#000000; stroke-linecap:round; stroke-linejoin:round; stroke-width:4; stroke-opacity:1; fill:none" points="280.231,1423.18 280.231,1404.28 "></polyline>
<polyline clip-path="url(#clip180)" style="stroke:#000000; stroke-linecap:round; stroke-linejoin:round; stroke-width:4; stroke-opacity:1; fill:none" points="783.271,1423.18 783.271,1404.28 "></polyline>
<polyline clip-path="url(#clip180)" style="stroke:#000000; stroke-linecap:round; stroke-linejoin:round; stroke-width:4; stroke-opacity:1; fill:none" points="1286.31,1423.18 1286.31,1404.28 "></polyline>
<polyline clip-path="url(#clip180)" style="stroke:#000000; stroke-linecap:round; stroke-linejoin:round; stroke-width:4; stroke-opacity:1; fill:none" points="1789.35,1423.18 1789.35,1404.28 "></polyline>
<polyline clip-path="url(#clip180)" style="stroke:#000000; stroke-linecap:round; stroke-linejoin:round; stroke-width:4; stroke-opacity:1; fill:none" points="2292.39,1423.18 2292.39,1404.28 "></polyline>
<path clip-path="url(#clip180)" d="M270.613 1481.64 L278.252 1481.64 L278.252 1455.28 L269.942 1456.95 L269.942 1452.69 L278.206 1451.02 L282.882 1451.02 L282.882 1481.64 L290.52 1481.64 L290.52 1485.58 L270.613 1485.58 L270.613 1481.64 Z" fill="#000000" fill-rule="nonzero" fill-opacity="1"></path><path clip-path="url(#clip180)" d="M777.924 1481.64 L794.243 1481.64 L794.243 1485.58 L772.299 1485.58 L772.299 1481.64 Q774.961 1478.89 779.544 1474.26 Q784.151 1469.61 785.331 1468.27 Q787.577 1465.74 788.456 1464.01 Q789.359 1462.25 789.359 1460.56 Q789.359 1457.8 787.415 1456.07 Q785.493 1454.33 782.391 1454.33 Q780.192 1454.33 777.739 1455.09 Q775.308 1455.86 772.53 1457.41 L772.53 1452.69 Q775.354 1451.55 777.808 1450.97 Q780.262 1450.39 782.299 1450.39 Q787.669 1450.39 790.864 1453.08 Q794.058 1455.77 794.058 1460.26 Q794.058 1462.39 793.248 1464.31 Q792.461 1466.2 790.354 1468.8 Q789.776 1469.47 786.674 1472.69 Q783.572 1475.88 777.924 1481.64 Z" fill="#000000" fill-rule="nonzero" fill-opacity="1"></path><path clip-path="url(#clip180)" d="M1290.56 1466.95 Q1293.92 1467.66 1295.79 1469.93 Q1297.69 1472.2 1297.69 1475.53 Q1297.69 1480.65 1294.17 1483.45 Q1290.65 1486.25 1284.17 1486.25 Q1281.99 1486.25 1279.68 1485.81 Q1277.39 1485.39 1274.93 1484.54 L1274.93 1480.02 Q1276.88 1481.16 1279.19 1481.74 Q1281.51 1482.32 1284.03 1482.32 Q1288.43 1482.32 1290.72 1480.58 Q1293.04 1478.84 1293.04 1475.53 Q1293.04 1472.48 1290.88 1470.77 Q1288.75 1469.03 1284.93 1469.03 L1280.91 1469.03 L1280.91 1465.19 L1285.12 1465.19 Q1288.57 1465.19 1290.4 1463.82 Q1292.23 1462.43 1292.23 1459.84 Q1292.23 1457.18 1290.33 1455.77 Q1288.45 1454.33 1284.93 1454.33 Q1283.01 1454.33 1280.81 1454.75 Q1278.61 1455.16 1275.98 1456.04 L1275.98 1451.88 Q1278.64 1451.14 1280.95 1450.77 Q1283.29 1450.39 1285.35 1450.39 Q1290.67 1450.39 1293.78 1452.83 Q1296.88 1455.23 1296.88 1459.35 Q1296.88 1462.22 1295.23 1464.21 Q1293.59 1466.18 1290.56 1466.95 Z" fill="#000000" fill-rule="nonzero" fill-opacity="1"></path><path clip-path="url(#clip180)" d="M1792.36 1455.09 L1780.55 1473.54 L1792.36 1473.54 L1792.36 1455.09 M1791.13 1451.02 L1797.01 1451.02 L1797.01 1473.54 L1801.94 1473.54 L1801.94 1477.43 L1797.01 1477.43 L1797.01 1485.58 L1792.36 1485.58 L1792.36 1477.43 L1776.76 1477.43 L1776.76 1472.92 L1791.13 1451.02 Z" fill="#000000" fill-rule="nonzero" fill-opacity="1"></path><path clip-path="url(#clip180)" d="M2282.67 1451.02 L2301.03 1451.02 L2301.03 1454.96 L2286.95 1454.96 L2286.95 1463.43 Q2287.97 1463.08 2288.99 1462.92 Q2290.01 1462.73 2291.03 1462.73 Q2296.81 1462.73 2300.19 1465.9 Q2303.57 1469.08 2303.57 1474.49 Q2303.57 1480.07 2300.1 1483.17 Q2296.63 1486.25 2290.31 1486.25 Q2288.13 1486.25 2285.86 1485.88 Q2283.62 1485.51 2281.21 1484.77 L2281.21 1480.07 Q2283.29 1481.2 2285.52 1481.76 Q2287.74 1482.32 2290.22 1482.32 Q2294.22 1482.32 2296.56 1480.21 Q2298.9 1478.1 2298.9 1474.49 Q2298.9 1470.88 2296.56 1468.77 Q2294.22 1466.67 2290.22 1466.67 Q2288.34 1466.67 2286.47 1467.08 Q2284.61 1467.5 2282.67 1468.38 L2282.67 1451.02 Z" fill="#000000" fill-rule="nonzero" fill-opacity="1"></path><path clip-path="url(#clip180)" d="M1301.24 1546.53 L1301.24 1568.04 L1295.38 1568.04 L1295.38 1546.72 Q1295.38 1541.66 1293.41 1539.14 Q1291.44 1536.63 1287.49 1536.63 Q1282.75 1536.63 1280.01 1539.65 Q1277.27 1542.68 1277.27 1547.9 L1277.27 1568.04 L1271.38 1568.04 L1271.38 1532.4 L1277.27 1532.4 L1277.27 1537.93 Q1279.37 1534.72 1282.21 1533.13 Q1285.07 1531.54 1288.79 1531.54 Q1294.94 1531.54 1298.09 1535.36 Q1301.24 1539.14 1301.24 1546.53 Z" fill="#000000" fill-rule="nonzero" fill-opacity="1"></path><polyline clip-path="url(#clip182)" style="stroke:#000000; stroke-linecap:round; stroke-linejoin:round; stroke-width:2; stroke-opacity:0.1; fill:none" points="219.866,1285.2 2352.76,1285.2 "></polyline>
<polyline clip-path="url(#clip182)" style="stroke:#000000; stroke-linecap:round; stroke-linejoin:round; stroke-width:2; stroke-opacity:0.1; fill:none" points="219.866,989.923 2352.76,989.923 "></polyline>
<polyline clip-path="url(#clip182)" style="stroke:#000000; stroke-linecap:round; stroke-linejoin:round; stroke-width:2; stroke-opacity:0.1; fill:none" points="219.866,694.648 2352.76,694.648 "></polyline>
<polyline clip-path="url(#clip182)" style="stroke:#000000; stroke-linecap:round; stroke-linejoin:round; stroke-width:2; stroke-opacity:0.1; fill:none" points="219.866,399.373 2352.76,399.373 "></polyline>
<polyline clip-path="url(#clip180)" style="stroke:#000000; stroke-linecap:round; stroke-linejoin:round; stroke-width:4; stroke-opacity:1; fill:none" points="219.866,1423.18 219.866,183.952 "></polyline>
<polyline clip-path="url(#clip180)" style="stroke:#000000; stroke-linecap:round; stroke-linejoin:round; stroke-width:4; stroke-opacity:1; fill:none" points="219.866,1285.2 238.764,1285.2 "></polyline>
<polyline clip-path="url(#clip180)" style="stroke:#000000; stroke-linecap:round; stroke-linejoin:round; stroke-width:4; stroke-opacity:1; fill:none" points="219.866,989.923 238.764,989.923 "></polyline>
<polyline clip-path="url(#clip180)" style="stroke:#000000; stroke-linecap:round; stroke-linejoin:round; stroke-width:4; stroke-opacity:1; fill:none" points="219.866,694.648 238.764,694.648 "></polyline>
<polyline clip-path="url(#clip180)" style="stroke:#000000; stroke-linecap:round; stroke-linejoin:round; stroke-width:4; stroke-opacity:1; fill:none" points="219.866,399.373 238.764,399.373 "></polyline>
<path clip-path="url(#clip180)" d="M127.339 1271 Q123.728 1271 121.899 1274.56 Q120.093 1278.1 120.093 1285.23 Q120.093 1292.34 121.899 1295.9 Q123.728 1299.45 127.339 1299.45 Q130.973 1299.45 132.779 1295.9 Q134.607 1292.34 134.607 1285.23 Q134.607 1278.1 132.779 1274.56 Q130.973 1271 127.339 1271 M127.339 1267.29 Q133.149 1267.29 136.204 1271.9 Q139.283 1276.48 139.283 1285.23 Q139.283 1293.96 136.204 1298.57 Q133.149 1303.15 127.339 1303.15 Q121.529 1303.15 118.45 1298.57 Q115.394 1293.96 115.394 1285.23 Q115.394 1276.48 118.45 1271.9 Q121.529 1267.29 127.339 1267.29 Z" fill="#000000" fill-rule="nonzero" fill-opacity="1"></path><path clip-path="url(#clip180)" d="M147.501 1296.6 L152.385 1296.6 L152.385 1302.48 L147.501 1302.48 L147.501 1296.6 Z" fill="#000000" fill-rule="nonzero" fill-opacity="1"></path><path clip-path="url(#clip180)" d="M176.737 1283.84 Q180.093 1284.56 181.968 1286.83 Q183.866 1289.1 183.866 1292.43 Q183.866 1297.55 180.348 1300.35 Q176.829 1303.15 170.348 1303.15 Q168.172 1303.15 165.857 1302.71 Q163.565 1302.29 161.112 1301.44 L161.112 1296.92 Q163.056 1298.06 165.371 1298.64 Q167.686 1299.21 170.209 1299.21 Q174.607 1299.21 176.899 1297.48 Q179.214 1295.74 179.214 1292.43 Q179.214 1289.38 177.061 1287.66 Q174.931 1285.93 171.112 1285.93 L167.084 1285.93 L167.084 1282.08 L171.297 1282.08 Q174.746 1282.08 176.575 1280.72 Q178.403 1279.33 178.403 1276.74 Q178.403 1274.08 176.505 1272.66 Q174.63 1271.23 171.112 1271.23 Q169.19 1271.23 166.991 1271.64 Q164.792 1272.06 162.153 1272.94 L162.153 1268.77 Q164.815 1268.03 167.13 1267.66 Q169.468 1267.29 171.528 1267.29 Q176.852 1267.29 179.954 1269.72 Q183.056 1272.13 183.056 1276.25 Q183.056 1279.12 181.413 1281.11 Q179.769 1283.08 176.737 1283.84 Z" fill="#000000" fill-rule="nonzero" fill-opacity="1"></path><path clip-path="url(#clip180)" d="M126.205 975.722 Q122.593 975.722 120.765 979.286 Q118.959 982.828 118.959 989.958 Q118.959 997.064 120.765 1000.63 Q122.593 1004.17 126.205 1004.17 Q129.839 1004.17 131.644 1000.63 Q133.473 997.064 133.473 989.958 Q133.473 982.828 131.644 979.286 Q129.839 975.722 126.205 975.722 M126.205 972.018 Q132.015 972.018 135.07 976.624 Q138.149 981.208 138.149 989.958 Q138.149 998.684 135.07 1003.29 Q132.015 1007.87 126.205 1007.87 Q120.394 1007.87 117.316 1003.29 Q114.26 998.684 114.26 989.958 Q114.26 981.208 117.316 976.624 Q120.394 972.018 126.205 972.018 Z" fill="#000000" fill-rule="nonzero" fill-opacity="1"></path><path clip-path="url(#clip180)" d="M146.366 1001.32 L151.251 1001.32 L151.251 1007.2 L146.366 1007.2 L146.366 1001.32 Z" fill="#000000" fill-rule="nonzero" fill-opacity="1"></path><path clip-path="url(#clip180)" d="M174.283 976.717 L162.477 995.166 L174.283 995.166 L174.283 976.717 M173.056 972.643 L178.936 972.643 L178.936 995.166 L183.866 995.166 L183.866 999.055 L178.936 999.055 L178.936 1007.2 L174.283 1007.2 L174.283 999.055 L158.681 999.055 L158.681 994.541 L173.056 972.643 Z" fill="#000000" fill-rule="nonzero" fill-opacity="1"></path><path clip-path="url(#clip180)" d="M127.686 680.446 Q124.075 680.446 122.246 684.011 Q120.441 687.553 120.441 694.682 Q120.441 701.789 122.246 705.354 Q124.075 708.895 127.686 708.895 Q131.32 708.895 133.126 705.354 Q134.954 701.789 134.954 694.682 Q134.954 687.553 133.126 684.011 Q131.32 680.446 127.686 680.446 M127.686 676.743 Q133.496 676.743 136.552 681.349 Q139.63 685.933 139.63 694.682 Q139.63 703.409 136.552 708.016 Q133.496 712.599 127.686 712.599 Q121.876 712.599 118.797 708.016 Q115.742 703.409 115.742 694.682 Q115.742 685.933 118.797 681.349 Q121.876 676.743 127.686 676.743 Z" fill="#000000" fill-rule="nonzero" fill-opacity="1"></path><path clip-path="url(#clip180)" d="M147.848 706.048 L152.732 706.048 L152.732 711.928 L147.848 711.928 L147.848 706.048 Z" fill="#000000" fill-rule="nonzero" fill-opacity="1"></path><path clip-path="url(#clip180)" d="M162.964 677.368 L181.32 677.368 L181.32 681.303 L167.246 681.303 L167.246 689.775 Q168.264 689.428 169.283 689.266 Q170.302 689.081 171.32 689.081 Q177.107 689.081 180.487 692.252 Q183.866 695.423 183.866 700.84 Q183.866 706.419 180.394 709.52 Q176.922 712.599 170.602 712.599 Q168.427 712.599 166.158 712.229 Q163.913 711.858 161.505 711.118 L161.505 706.419 Q163.589 707.553 165.811 708.108 Q168.033 708.664 170.51 708.664 Q174.514 708.664 176.852 706.557 Q179.19 704.451 179.19 700.84 Q179.19 697.229 176.852 695.122 Q174.514 693.016 170.51 693.016 Q168.635 693.016 166.76 693.432 Q164.908 693.849 162.964 694.729 L162.964 677.368 Z" fill="#000000" fill-rule="nonzero" fill-opacity="1"></path><path clip-path="url(#clip180)" d="M126.529 385.171 Q122.918 385.171 121.089 388.736 Q119.283 392.278 119.283 399.407 Q119.283 406.514 121.089 410.079 Q122.918 413.62 126.529 413.62 Q130.163 413.62 131.968 410.079 Q133.797 406.514 133.797 399.407 Q133.797 392.278 131.968 388.736 Q130.163 385.171 126.529 385.171 M126.529 381.468 Q132.339 381.468 135.394 386.074 Q138.473 390.657 138.473 399.407 Q138.473 408.134 135.394 412.741 Q132.339 417.324 126.529 417.324 Q120.718 417.324 117.64 412.741 Q114.584 408.134 114.584 399.407 Q114.584 390.657 117.64 386.074 Q120.718 381.468 126.529 381.468 Z" fill="#000000" fill-rule="nonzero" fill-opacity="1"></path><path clip-path="url(#clip180)" d="M146.691 410.773 L151.575 410.773 L151.575 416.653 L146.691 416.653 L146.691 410.773 Z" fill="#000000" fill-rule="nonzero" fill-opacity="1"></path><path clip-path="url(#clip180)" d="M172.339 397.509 Q169.19 397.509 167.339 399.662 Q165.51 401.815 165.51 405.565 Q165.51 409.292 167.339 411.468 Q169.19 413.62 172.339 413.62 Q175.487 413.62 177.315 411.468 Q179.167 409.292 179.167 405.565 Q179.167 401.815 177.315 399.662 Q175.487 397.509 172.339 397.509 M181.621 382.857 L181.621 387.116 Q179.862 386.282 178.056 385.843 Q176.274 385.403 174.514 385.403 Q169.885 385.403 167.431 388.528 Q165.001 391.653 164.653 397.972 Q166.019 395.958 168.079 394.894 Q170.139 393.806 172.616 393.806 Q177.825 393.806 180.834 396.977 Q183.866 400.125 183.866 405.565 Q183.866 410.889 180.718 414.106 Q177.57 417.324 172.339 417.324 Q166.343 417.324 163.172 412.741 Q160.001 408.134 160.001 399.407 Q160.001 391.213 163.89 386.352 Q167.778 381.468 174.329 381.468 Q176.089 381.468 177.871 381.815 Q179.676 382.162 181.621 382.857 Z" fill="#000000" fill-rule="nonzero" fill-opacity="1"></path><path clip-path="url(#clip180)" d="M42.4881 1062.89 L77.5631 1062.89 L77.5631 1068.75 L42.679 1068.75 Q37.6183 1068.75 35.1038 1070.72 Q32.5894 1072.69 32.5894 1076.64 Q32.5894 1081.38 35.6131 1084.12 Q38.6368 1086.86 43.8567 1086.86 L64.0042 1086.86 L64.0042 1092.74 L28.3562 1092.74 L28.3562 1086.86 L33.8944 1086.86 Q30.6797 1084.76 29.0883 1081.92 Q27.4968 1079.06 27.4968 1075.33 Q27.4968 1069.19 31.2844 1066.04 Q35.1038 1062.89 42.4881 1062.89 Z" fill="#000000" fill-rule="nonzero" fill-opacity="1"></path><path clip-path="url(#clip180)" d="M34.4036 1029.72 L34.4036 988.919 L39.7508 988.919 L39.7508 1029.72 L34.4036 1029.72 M47.3897 1029.72 L47.3897 988.919 L52.8005 988.919 L52.8005 1029.72 L47.3897 1029.72 Z" fill="#000000" fill-rule="nonzero" fill-opacity="1"></path><path clip-path="url(#clip180)" d="M16.4842 954.895 L16.4842 948.465 L35.9632 948.465 L35.9632 925.103 L16.4842 925.103 L16.4842 918.674 L64.0042 918.674 L64.0042 925.103 L41.3741 925.103 L41.3741 948.465 L64.0042 948.465 L64.0042 954.895 L16.4842 954.895 Z" fill="#000000" fill-rule="nonzero" fill-opacity="1"></path><path clip-path="url(#clip180)" d="M74.8259 879.047 L79.3773 879.047 L79.3773 912.913 L74.8259 912.913 L74.8259 879.047 Z" fill="#000000" fill-rule="nonzero" fill-opacity="1"></path><path clip-path="url(#clip180)" d="M33.7671 850.083 L14.479 850.083 L14.479 844.227 L64.0042 844.227 L64.0042 850.083 L58.657 850.083 Q61.8398 851.929 63.3994 854.762 Q64.9272 857.563 64.9272 861.51 Q64.9272 867.971 59.771 872.045 Q54.6147 876.087 46.212 876.087 Q37.8093 876.087 32.6531 872.045 Q27.4968 867.971 27.4968 861.51 Q27.4968 857.563 29.0564 854.762 Q30.5842 851.929 33.7671 850.083 M46.212 870.04 Q52.6732 870.04 56.3653 867.398 Q60.0256 864.725 60.0256 860.078 Q60.0256 855.431 56.3653 852.757 Q52.6732 850.083 46.212 850.083 Q39.7508 850.083 36.0905 852.757 Q32.3984 855.431 32.3984 860.078 Q32.3984 864.725 36.0905 867.398 Q39.7508 870.04 46.212 870.04 Z" fill="#000000" fill-rule="nonzero" fill-opacity="1"></path><path clip-path="url(#clip180)" d="M28.3562 832.164 L28.3562 826.307 L64.0042 826.307 L64.0042 832.164 L28.3562 832.164 M14.479 832.164 L14.479 826.307 L21.895 826.307 L21.895 832.164 L14.479 832.164 Z" fill="#000000" fill-rule="nonzero" fill-opacity="1"></path><path clip-path="url(#clip180)" d="M29.4065 791.328 L34.9447 791.328 Q33.6716 793.811 33.035 796.484 Q32.3984 799.158 32.3984 802.022 Q32.3984 806.383 33.7352 808.579 Q35.072 810.743 37.7456 810.743 Q39.7826 810.743 40.9603 809.184 Q42.1061 807.624 43.1565 802.913 L43.6021 800.908 Q44.9389 794.67 47.3897 792.06 Q49.8086 789.418 54.1691 789.418 Q59.1344 789.418 62.0308 793.365 Q64.9272 797.28 64.9272 804.155 Q64.9272 807.019 64.3543 810.139 Q63.8132 813.226 62.6992 816.663 L56.6518 816.663 Q58.3387 813.417 59.198 810.266 Q60.0256 807.115 60.0256 804.027 Q60.0256 799.89 58.6251 797.662 Q57.1929 795.434 54.6147 795.434 Q52.2276 795.434 50.9545 797.057 Q49.6813 798.648 48.5037 804.091 L48.0262 806.128 Q46.8804 811.571 44.5251 813.99 Q42.138 816.409 38.0002 816.409 Q32.9713 816.409 30.2341 812.844 Q27.4968 809.279 27.4968 802.723 Q27.4968 799.476 27.9743 796.611 Q28.4517 793.747 29.4065 791.328 Z" fill="#000000" fill-rule="nonzero" fill-opacity="1"></path><path clip-path="url(#clip180)" d="M18.2347 774.3 L28.3562 774.3 L28.3562 762.237 L32.9077 762.237 L32.9077 774.3 L52.2594 774.3 Q56.6199 774.3 57.8613 773.122 Q59.1026 771.913 59.1026 768.252 L59.1026 762.237 L64.0042 762.237 L64.0042 768.252 Q64.0042 775.032 61.4897 777.61 Q58.9434 780.188 52.2594 780.188 L32.9077 780.188 L32.9077 784.485 L28.3562 784.485 L28.3562 780.188 L18.2347 780.188 L18.2347 774.3 Z" fill="#000000" fill-rule="nonzero" fill-opacity="1"></path><path clip-path="url(#clip180)" d="M16.4842 723.406 L16.4842 717.995 L70.0516 734.546 L70.0516 739.957 L16.4842 723.406 Z" fill="#000000" fill-rule="nonzero" fill-opacity="1"></path><path clip-path="url(#clip180)" d="M16.4842 690.877 L16.4842 684.448 L58.5933 684.448 L58.5933 661.308 L64.0042 661.308 L64.0042 690.877 L16.4842 690.877 Z" fill="#000000" fill-rule="nonzero" fill-opacity="1"></path><path clip-path="url(#clip180)" d="M74.8259 627.729 L79.3773 627.729 L79.3773 661.595 L74.8259 661.595 L74.8259 627.729 Z" fill="#000000" fill-rule="nonzero" fill-opacity="1"></path><path clip-path="url(#clip180)" d="M46.0847 606.022 Q46.0847 613.12 47.7079 615.857 Q49.3312 618.594 53.2461 618.594 Q56.3653 618.594 58.2114 616.557 Q60.0256 614.489 60.0256 610.956 Q60.0256 606.086 56.5881 603.158 Q53.1188 600.198 47.3897 600.198 L46.0847 600.198 L46.0847 606.022 M43.6657 594.341 L64.0042 594.341 L64.0042 600.198 L58.5933 600.198 Q61.8398 602.203 63.3994 605.195 Q64.9272 608.187 64.9272 612.515 Q64.9272 617.99 61.8716 621.236 Q58.7843 624.451 53.6281 624.451 Q47.6125 624.451 44.5569 620.441 Q41.5014 616.398 41.5014 608.409 L41.5014 600.198 L40.9285 600.198 Q36.8862 600.198 34.6901 602.871 Q32.4621 605.513 32.4621 610.319 Q32.4621 613.375 33.1941 616.271 Q33.9262 619.167 35.3903 621.841 L29.9795 621.841 Q28.7381 618.626 28.1334 615.603 Q27.4968 612.579 27.4968 609.714 Q27.4968 601.98 31.5072 598.161 Q35.5176 594.341 43.6657 594.341 Z" fill="#000000" fill-rule="nonzero" fill-opacity="1"></path><path clip-path="url(#clip180)" d="M28.3562 586.479 L28.3562 580.273 L58.275 569.133 L28.3562 557.993 L28.3562 551.786 L64.0042 565.154 L64.0042 573.111 L28.3562 586.479 Z" fill="#000000" fill-rule="nonzero" fill-opacity="1"></path><path clip-path="url(#clip180)" d="M45.7664 520.244 Q39.4007 520.244 35.8996 522.886 Q32.3984 525.496 32.3984 530.238 Q32.3984 534.949 35.8996 537.591 Q39.4007 540.201 45.7664 540.201 Q52.1003 540.201 55.6014 537.591 Q59.1026 534.949 59.1026 530.238 Q59.1026 525.496 55.6014 522.886 Q52.1003 520.244 45.7664 520.244 M59.58 514.388 Q68.683 514.388 73.1071 518.43 Q77.5631 522.472 77.5631 530.811 Q77.5631 533.899 77.0857 536.636 Q76.6401 539.373 75.6852 541.951 L69.9879 541.951 Q71.3884 539.373 72.0568 536.859 Q72.7252 534.344 72.7252 531.734 Q72.7252 525.973 69.7015 523.109 Q66.7096 520.244 60.6303 520.244 L57.7339 520.244 Q60.885 522.059 62.4446 524.891 Q64.0042 527.724 64.0042 531.671 Q64.0042 538.227 59.0071 542.238 Q54.01 546.248 45.7664 546.248 Q37.491 546.248 32.4939 542.238 Q27.4968 538.227 27.4968 531.671 Q27.4968 527.724 29.0564 524.891 Q30.616 522.059 33.7671 520.244 L28.3562 520.244 L28.3562 514.388 L59.58 514.388 Z" fill="#000000" fill-rule="nonzero" fill-opacity="1"></path><path clip-path="url(#clip180)" d="M424.117 33.264 L462.357 33.264 L462.357 40.1505 L432.299 40.1505 L432.299 58.0555 L461.101 58.0555 L461.101 64.9421 L432.299 64.9421 L432.299 86.8575 L463.086 86.8575 L463.086 93.744 L424.117 93.744 L424.117 33.264 Z" fill="#000000" fill-rule="nonzero" fill-opacity="1"></path><path clip-path="url(#clip180)" d="M499.18 30.7119 L499.18 36.9098 L492.05 36.9098 Q488.04 36.9098 486.46 38.5302 Q484.921 40.1505 484.921 44.3635 L484.921 48.3739 L497.195 48.3739 L497.195 54.1667 L484.921 54.1667 L484.921 93.744 L477.427 93.744 L477.427 54.1667 L470.297 54.1667 L470.297 48.3739 L477.427 48.3739 L477.427 45.2142 Q477.427 37.639 480.951 34.1957 Q484.475 30.7119 492.131 30.7119 L499.18 30.7119 Z" fill="#000000" fill-rule="nonzero" fill-opacity="1"></path><path clip-path="url(#clip180)" d="M528.387 30.7119 L528.387 36.9098 L521.257 36.9098 Q517.247 36.9098 515.667 38.5302 Q514.128 40.1505 514.128 44.3635 L514.128 48.3739 L526.402 48.3739 L526.402 54.1667 L514.128 54.1667 L514.128 93.744 L506.634 93.744 L506.634 54.1667 L499.504 54.1667 L499.504 48.3739 L506.634 48.3739 L506.634 45.2142 Q506.634 37.639 510.158 34.1957 Q513.682 30.7119 521.338 30.7119 L528.387 30.7119 Z" fill="#000000" fill-rule="nonzero" fill-opacity="1"></path><path clip-path="url(#clip180)" d="M534.625 48.3739 L542.079 48.3739 L542.079 93.744 L534.625 93.744 L534.625 48.3739 M534.625 30.7119 L542.079 30.7119 L542.079 40.1505 L534.625 40.1505 L534.625 30.7119 Z" fill="#000000" fill-rule="nonzero" fill-opacity="1"></path><path clip-path="url(#clip180)" d="M590.325 50.1158 L590.325 57.0833 Q587.166 55.3414 583.965 54.4907 Q580.806 53.5995 577.565 53.5995 Q570.314 53.5995 566.303 58.2176 Q562.293 62.7951 562.293 71.0994 Q562.293 79.4038 566.303 84.0218 Q570.314 88.5994 577.565 88.5994 Q580.806 88.5994 583.965 87.7487 Q587.166 86.8575 590.325 85.1156 L590.325 92.0021 Q587.206 93.4604 583.844 94.1896 Q580.522 94.9188 576.755 94.9188 Q566.506 94.9188 560.47 88.4778 Q554.434 82.0369 554.434 71.0994 Q554.434 60 560.511 53.64 Q566.627 47.2801 577.241 47.2801 Q580.684 47.2801 583.965 48.0093 Q587.247 48.6979 590.325 50.1158 Z" fill="#000000" fill-rule="nonzero" fill-opacity="1"></path><path clip-path="url(#clip180)" d="M603.288 48.3739 L610.742 48.3739 L610.742 93.744 L603.288 93.744 L603.288 48.3739 M603.288 30.7119 L610.742 30.7119 L610.742 40.1505 L603.288 40.1505 L603.288 30.7119 Z" fill="#000000" fill-rule="nonzero" fill-opacity="1"></path><path clip-path="url(#clip180)" d="M665.145 69.1955 L665.145 72.8413 L630.875 72.8413 Q631.361 80.5381 635.493 84.589 Q639.665 88.5994 647.078 88.5994 Q651.372 88.5994 655.383 87.5461 Q659.434 86.4929 663.404 84.3864 L663.404 91.435 Q659.393 93.1364 655.18 94.0276 Q650.967 94.9188 646.633 94.9188 Q635.776 94.9188 629.416 88.5994 Q623.097 82.2799 623.097 71.5045 Q623.097 60.3645 629.092 53.8426 Q635.128 47.2801 645.337 47.2801 Q654.492 47.2801 659.798 53.1944 Q665.145 59.0683 665.145 69.1955 M657.692 67.008 Q657.611 60.8912 654.249 57.2454 Q650.927 53.5995 645.418 53.5995 Q639.179 53.5995 635.412 57.1238 Q631.685 60.6481 631.118 67.0485 L657.692 67.008 Z" fill="#000000" fill-rule="nonzero" fill-opacity="1"></path><path clip-path="url(#clip180)" d="M715.093 66.3599 L715.093 93.744 L707.639 93.744 L707.639 66.6029 Q707.639 60.162 705.128 56.9618 Q702.616 53.7616 697.593 53.7616 Q691.557 53.7616 688.074 57.6099 Q684.59 61.4583 684.59 68.1018 L684.59 93.744 L677.096 93.744 L677.096 48.3739 L684.59 48.3739 L684.59 55.4224 Q687.263 51.331 690.869 49.3056 Q694.514 47.2801 699.254 47.2801 Q707.072 47.2801 711.083 52.1412 Q715.093 56.9618 715.093 66.3599 Z" fill="#000000" fill-rule="nonzero" fill-opacity="1"></path><path clip-path="url(#clip180)" d="M748.837 97.9569 Q745.677 106.059 742.68 108.53 Q739.682 111.001 734.659 111.001 L728.704 111.001 L728.704 104.762 L733.079 104.762 Q736.158 104.762 737.859 103.304 Q739.561 101.846 741.627 96.4176 L742.963 93.0148 L724.613 48.3739 L732.512 48.3739 L746.69 83.8598 L760.868 48.3739 L768.768 48.3739 L748.837 97.9569 Z" fill="#000000" fill-rule="nonzero" fill-opacity="1"></path><path clip-path="url(#clip180)" d="M823.009 53.5995 Q817.014 53.5995 813.53 58.2986 Q810.046 62.9571 810.046 71.0994 Q810.046 79.2418 813.49 83.9408 Q816.973 88.5994 823.009 88.5994 Q828.964 88.5994 832.448 83.9003 Q835.932 79.2013 835.932 71.0994 Q835.932 63.0381 832.448 58.3391 Q828.964 53.5995 823.009 53.5995 M823.009 47.2801 Q832.731 47.2801 838.281 53.5995 Q843.831 59.9189 843.831 71.0994 Q843.831 82.2394 838.281 88.5994 Q832.731 94.9188 823.009 94.9188 Q813.246 94.9188 807.697 88.5994 Q802.188 82.2394 802.188 71.0994 Q802.188 59.9189 807.697 53.5995 Q813.246 47.2801 823.009 47.2801 Z" fill="#000000" fill-rule="nonzero" fill-opacity="1"></path><path clip-path="url(#clip180)" d="M879.155 30.7119 L879.155 36.9098 L872.025 36.9098 Q868.015 36.9098 866.435 38.5302 Q864.896 40.1505 864.896 44.3635 L864.896 48.3739 L877.17 48.3739 L877.17 54.1667 L864.896 54.1667 L864.896 93.744 L857.401 93.744 L857.401 54.1667 L850.272 54.1667 L850.272 48.3739 L857.401 48.3739 L857.401 45.2142 Q857.401 37.639 860.926 34.1957 Q864.45 30.7119 872.106 30.7119 L879.155 30.7119 Z" fill="#000000" fill-rule="nonzero" fill-opacity="1"></path><path clip-path="url(#clip180)" d="M948.344 35.2489 L948.344 43.2292 Q943.686 41.0012 939.554 39.9075 Q935.422 38.8137 931.573 38.8137 Q924.889 38.8137 921.244 41.4063 Q917.638 43.9989 917.638 48.779 Q917.638 52.7894 920.028 54.8553 Q922.459 56.8808 929.183 58.1366 L934.125 59.1493 Q943.281 60.8912 947.615 65.3067 Q951.99 69.6816 951.99 77.0543 Q951.99 85.8447 946.076 90.3817 Q940.202 94.9188 928.819 94.9188 Q924.525 94.9188 919.664 93.9465 Q914.843 92.9743 909.658 91.0704 L909.658 82.6445 Q914.641 85.4396 919.421 86.8575 Q924.201 88.2753 928.819 88.2753 Q935.827 88.2753 939.635 85.5207 Q943.443 82.766 943.443 77.6619 Q943.443 73.2059 940.688 70.6944 Q937.974 68.1828 931.735 66.927 L926.753 65.9548 Q917.598 64.1319 913.506 60.243 Q909.415 56.3542 909.415 49.4271 Q909.415 41.4063 915.046 36.7883 Q920.717 32.1703 930.642 32.1703 Q934.895 32.1703 939.311 32.9399 Q943.726 33.7096 948.344 35.2489 Z" fill="#000000" fill-rule="nonzero" fill-opacity="1"></path><path clip-path="url(#clip180)" d="M964.75 33.264 L999.507 33.264 L999.507 40.1505 L972.933 40.1505 L972.933 57.9745 L996.914 57.9745 L996.914 64.8611 L972.933 64.8611 L972.933 93.744 L964.75 93.744 L964.75 33.264 Z" fill="#000000" fill-rule="nonzero" fill-opacity="1"></path><path clip-path="url(#clip180)" d="M1012.47 33.264 L1050.71 33.264 L1050.71 40.1505 L1020.65 40.1505 L1020.65 58.0555 L1049.45 58.0555 L1049.45 64.9421 L1020.65 64.9421 L1020.65 86.8575 L1051.44 86.8575 L1051.44 93.744 L1012.47 93.744 L1012.47 33.264 Z" fill="#000000" fill-rule="nonzero" fill-opacity="1"></path><path clip-path="url(#clip180)" d="M1129.74 69.1955 L1129.74 72.8413 L1095.47 72.8413 Q1095.96 80.5381 1100.09 84.589 Q1104.26 88.5994 1111.68 88.5994 Q1115.97 88.5994 1119.98 87.5461 Q1124.03 86.4929 1128 84.3864 L1128 91.435 Q1123.99 93.1364 1119.78 94.0276 Q1115.57 94.9188 1111.23 94.9188 Q1100.37 94.9188 1094.01 88.5994 Q1087.7 82.2799 1087.7 71.5045 Q1087.7 60.3645 1093.69 53.8426 Q1099.73 47.2801 1109.93 47.2801 Q1119.09 47.2801 1124.4 53.1944 Q1129.74 59.0683 1129.74 69.1955 M1122.29 67.008 Q1122.21 60.8912 1118.85 57.2454 Q1115.52 53.5995 1110.02 53.5995 Q1103.78 53.5995 1100.01 57.1238 Q1096.28 60.6481 1095.72 67.0485 L1122.29 67.008 Z" fill="#000000" fill-rule="nonzero" fill-opacity="1"></path><path clip-path="url(#clip180)" d="M1179.69 66.3599 L1179.69 93.744 L1172.24 93.744 L1172.24 66.6029 Q1172.24 60.162 1169.73 56.9618 Q1167.21 53.7616 1162.19 53.7616 Q1156.16 53.7616 1152.67 57.6099 Q1149.19 61.4583 1149.19 68.1018 L1149.19 93.744 L1141.69 93.744 L1141.69 48.3739 L1149.19 48.3739 L1149.19 55.4224 Q1151.86 51.331 1155.47 49.3056 Q1159.11 47.2801 1163.85 47.2801 Q1171.67 47.2801 1175.68 52.1412 Q1179.69 56.9618 1179.69 66.3599 Z" fill="#000000" fill-rule="nonzero" fill-opacity="1"></path><path clip-path="url(#clip180)" d="M1227.21 50.1158 L1227.21 57.0833 Q1224.05 55.3414 1220.85 54.4907 Q1217.69 53.5995 1214.45 53.5995 Q1207.2 53.5995 1203.19 58.2176 Q1199.18 62.7951 1199.18 71.0994 Q1199.18 79.4038 1203.19 84.0218 Q1207.2 88.5994 1214.45 88.5994 Q1217.69 88.5994 1220.85 87.7487 Q1224.05 86.8575 1227.21 85.1156 L1227.21 92.0021 Q1224.09 93.4604 1220.73 94.1896 Q1217.41 94.9188 1213.64 94.9188 Q1203.39 94.9188 1197.35 88.4778 Q1191.32 82.0369 1191.32 71.0994 Q1191.32 60 1197.39 53.64 Q1203.51 47.2801 1214.12 47.2801 Q1217.57 47.2801 1220.85 48.0093 Q1224.13 48.6979 1227.21 50.1158 Z" fill="#000000" fill-rule="nonzero" fill-opacity="1"></path><path clip-path="url(#clip180)" d="M1257.75 53.5995 Q1251.76 53.5995 1248.27 58.2986 Q1244.79 62.9571 1244.79 71.0994 Q1244.79 79.2418 1248.23 83.9408 Q1251.72 88.5994 1257.75 88.5994 Q1263.71 88.5994 1267.19 83.9003 Q1270.67 79.2013 1270.67 71.0994 Q1270.67 63.0381 1267.19 58.3391 Q1263.71 53.5995 1257.75 53.5995 M1257.75 47.2801 Q1267.47 47.2801 1273.02 53.5995 Q1278.57 59.9189 1278.57 71.0994 Q1278.57 82.2394 1273.02 88.5994 Q1267.47 94.9188 1257.75 94.9188 Q1247.99 94.9188 1242.44 88.5994 Q1236.93 82.2394 1236.93 71.0994 Q1236.93 59.9189 1242.44 53.5995 Q1247.99 47.2801 1257.75 47.2801 Z" fill="#000000" fill-rule="nonzero" fill-opacity="1"></path><path clip-path="url(#clip180)" d="M1320.78 55.2604 L1320.78 30.7119 L1328.24 30.7119 L1328.24 93.744 L1320.78 93.744 L1320.78 86.9385 Q1318.43 90.9894 1314.83 92.9743 Q1311.26 94.9188 1306.24 94.9188 Q1298.02 94.9188 1292.83 88.3563 Q1287.69 81.7938 1287.69 71.0994 Q1287.69 60.4051 1292.83 53.8426 Q1298.02 47.2801 1306.24 47.2801 Q1311.26 47.2801 1314.83 49.2651 Q1318.43 51.2095 1320.78 55.2604 M1295.39 71.0994 Q1295.39 79.3228 1298.75 84.0218 Q1302.15 88.6804 1308.06 88.6804 Q1313.98 88.6804 1317.38 84.0218 Q1320.78 79.3228 1320.78 71.0994 Q1320.78 62.8761 1317.38 58.2176 Q1313.98 53.5185 1308.06 53.5185 Q1302.15 53.5185 1298.75 58.2176 Q1295.39 62.8761 1295.39 71.0994 Z" fill="#000000" fill-rule="nonzero" fill-opacity="1"></path><path clip-path="url(#clip180)" d="M1343.59 48.3739 L1351.04 48.3739 L1351.04 93.744 L1343.59 93.744 L1343.59 48.3739 M1343.59 30.7119 L1351.04 30.7119 L1351.04 40.1505 L1343.59 40.1505 L1343.59 30.7119 Z" fill="#000000" fill-rule="nonzero" fill-opacity="1"></path><path clip-path="url(#clip180)" d="M1404.35 66.3599 L1404.35 93.744 L1396.9 93.744 L1396.9 66.6029 Q1396.9 60.162 1394.39 56.9618 Q1391.88 53.7616 1386.85 53.7616 Q1380.82 53.7616 1377.33 57.6099 Q1373.85 61.4583 1373.85 68.1018 L1373.85 93.744 L1366.36 93.744 L1366.36 48.3739 L1373.85 48.3739 L1373.85 55.4224 Q1376.52 51.331 1380.13 49.3056 Q1383.78 47.2801 1388.52 47.2801 Q1396.33 47.2801 1400.34 52.1412 Q1404.35 56.9618 1404.35 66.3599 Z" fill="#000000" fill-rule="nonzero" fill-opacity="1"></path><path clip-path="url(#clip180)" d="M1449.08 70.5323 Q1449.08 62.4305 1445.71 57.9745 Q1442.39 53.5185 1436.36 53.5185 Q1430.36 53.5185 1427 57.9745 Q1423.68 62.4305 1423.68 70.5323 Q1423.68 78.5936 1427 83.0496 Q1430.36 87.5056 1436.36 87.5056 Q1442.39 87.5056 1445.71 83.0496 Q1449.08 78.5936 1449.08 70.5323 M1456.53 88.1132 Q1456.53 99.6988 1451.39 105.33 Q1446.24 111.001 1435.63 111.001 Q1431.7 111.001 1428.21 110.393 Q1424.73 109.826 1421.45 108.611 L1421.45 101.36 Q1424.73 103.142 1427.93 103.993 Q1431.13 104.843 1434.45 104.843 Q1441.78 104.843 1445.43 100.995 Q1449.08 97.1873 1449.08 89.45 L1449.08 85.7637 Q1446.77 89.7741 1443.16 91.7591 Q1439.56 93.744 1434.53 93.744 Q1426.19 93.744 1421.08 87.3841 Q1415.98 81.0242 1415.98 70.5323 Q1415.98 60 1421.08 53.64 Q1426.19 47.2801 1434.53 47.2801 Q1439.56 47.2801 1443.16 49.2651 Q1446.77 51.25 1449.08 55.2604 L1449.08 48.3739 L1456.53 48.3739 L1456.53 88.1132 Z" fill="#000000" fill-rule="nonzero" fill-opacity="1"></path><path clip-path="url(#clip180)" d="M1493.92 48.3739 L1501.37 48.3739 L1510.69 83.7788 L1519.97 48.3739 L1528.76 48.3739 L1538.07 83.7788 L1547.35 48.3739 L1554.81 48.3739 L1542.94 93.744 L1534.15 93.744 L1524.38 56.5567 L1514.58 93.744 L1505.79 93.744 L1493.92 48.3739 Z" fill="#000000" fill-rule="nonzero" fill-opacity="1"></path><path clip-path="url(#clip180)" d="M1566.11 48.3739 L1573.56 48.3739 L1573.56 93.744 L1566.11 93.744 L1566.11 48.3739 M1566.11 30.7119 L1573.56 30.7119 L1573.56 40.1505 L1566.11 40.1505 L1566.11 30.7119 Z" fill="#000000" fill-rule="nonzero" fill-opacity="1"></path><path clip-path="url(#clip180)" d="M1596.53 35.492 L1596.53 48.3739 L1611.88 48.3739 L1611.88 54.1667 L1596.53 54.1667 L1596.53 78.7962 Q1596.53 84.3459 1598.03 85.9258 Q1599.57 87.5056 1604.23 87.5056 L1611.88 87.5056 L1611.88 93.744 L1604.23 93.744 Q1595.6 93.744 1592.32 90.5438 Q1589.04 87.3031 1589.04 78.7962 L1589.04 54.1667 L1583.57 54.1667 L1583.57 48.3739 L1589.04 48.3739 L1589.04 35.492 L1596.53 35.492 Z" fill="#000000" fill-rule="nonzero" fill-opacity="1"></path><path clip-path="url(#clip180)" d="M1659.4 66.3599 L1659.4 93.744 L1651.95 93.744 L1651.95 66.6029 Q1651.95 60.162 1649.43 56.9618 Q1646.92 53.7616 1641.9 53.7616 Q1635.86 53.7616 1632.38 57.6099 Q1628.9 61.4583 1628.9 68.1018 L1628.9 93.744 L1621.4 93.744 L1621.4 30.7119 L1628.9 30.7119 L1628.9 55.4224 Q1631.57 51.331 1635.17 49.3056 Q1638.82 47.2801 1643.56 47.2801 Q1651.38 47.2801 1655.39 52.1412 Q1659.4 56.9618 1659.4 66.3599 Z" fill="#000000" fill-rule="nonzero" fill-opacity="1"></path><path clip-path="url(#clip180)" d="M1726.93 55.3414 Q1725.67 54.6123 1724.17 54.2882 Q1722.71 53.9236 1720.93 53.9236 Q1714.61 53.9236 1711.21 58.0555 Q1707.85 62.1469 1707.85 69.8437 L1707.85 93.744 L1700.35 93.744 L1700.35 48.3739 L1707.85 48.3739 L1707.85 55.4224 Q1710.2 51.2905 1713.97 49.3056 Q1717.73 47.2801 1723.12 47.2801 Q1723.89 47.2801 1724.82 47.4017 Q1725.75 47.4827 1726.89 47.6852 L1726.93 55.3414 Z" fill="#000000" fill-rule="nonzero" fill-opacity="1"></path><path clip-path="url(#clip180)" d="M1771.73 69.1955 L1771.73 72.8413 L1737.46 72.8413 Q1737.95 80.5381 1742.08 84.589 Q1746.25 88.5994 1753.66 88.5994 Q1757.96 88.5994 1761.97 87.5461 Q1766.02 86.4929 1769.99 84.3864 L1769.99 91.435 Q1765.98 93.1364 1761.77 94.0276 Q1757.55 94.9188 1753.22 94.9188 Q1742.36 94.9188 1736 88.5994 Q1729.68 82.2799 1729.68 71.5045 Q1729.68 60.3645 1735.68 53.8426 Q1741.71 47.2801 1751.92 47.2801 Q1761.08 47.2801 1766.38 53.1944 Q1771.73 59.0683 1771.73 69.1955 M1764.28 67.008 Q1764.2 60.8912 1760.83 57.2454 Q1757.51 53.5995 1752 53.5995 Q1745.76 53.5995 1742 57.1238 Q1738.27 60.6481 1737.7 67.0485 L1764.28 67.008 Z" fill="#000000" fill-rule="nonzero" fill-opacity="1"></path><path clip-path="url(#clip180)" d="M1791.18 86.9385 L1791.18 111.001 L1783.68 111.001 L1783.68 48.3739 L1791.18 48.3739 L1791.18 55.2604 Q1793.52 51.2095 1797.09 49.2651 Q1800.69 47.2801 1805.68 47.2801 Q1813.94 47.2801 1819.09 53.8426 Q1824.27 60.4051 1824.27 71.0994 Q1824.27 81.7938 1819.09 88.3563 Q1813.94 94.9188 1805.68 94.9188 Q1800.69 94.9188 1797.09 92.9743 Q1793.52 90.9894 1791.18 86.9385 M1816.53 71.0994 Q1816.53 62.8761 1813.13 58.2176 Q1809.77 53.5185 1803.85 53.5185 Q1797.94 53.5185 1794.54 58.2176 Q1791.18 62.8761 1791.18 71.0994 Q1791.18 79.3228 1794.54 84.0218 Q1797.94 88.6804 1803.85 88.6804 Q1809.77 88.6804 1813.13 84.0218 Q1816.53 79.3228 1816.53 71.0994 Z" fill="#000000" fill-rule="nonzero" fill-opacity="1"></path><path clip-path="url(#clip180)" d="M1875.43 69.1955 L1875.43 72.8413 L1841.16 72.8413 Q1841.65 80.5381 1845.78 84.589 Q1849.95 88.5994 1857.37 88.5994 Q1861.66 88.5994 1865.67 87.5461 Q1869.72 86.4929 1873.69 84.3864 L1873.69 91.435 Q1869.68 93.1364 1865.47 94.0276 Q1861.26 94.9188 1856.92 94.9188 Q1846.07 94.9188 1839.71 88.5994 Q1833.39 82.2799 1833.39 71.5045 Q1833.39 60.3645 1839.38 53.8426 Q1845.42 47.2801 1855.63 47.2801 Q1864.78 47.2801 1870.09 53.1944 Q1875.43 59.0683 1875.43 69.1955 M1867.98 67.008 Q1867.9 60.8912 1864.54 57.2454 Q1861.22 53.5995 1855.71 53.5995 Q1849.47 53.5995 1845.7 57.1238 Q1841.97 60.6481 1841.41 67.0485 L1867.98 67.008 Z" fill="#000000" fill-rule="nonzero" fill-opacity="1"></path><path clip-path="url(#clip180)" d="M1895.04 35.492 L1895.04 48.3739 L1910.39 48.3739 L1910.39 54.1667 L1895.04 54.1667 L1895.04 78.7962 Q1895.04 84.3459 1896.54 85.9258 Q1898.08 87.5056 1902.74 87.5056 L1910.39 87.5056 L1910.39 93.744 L1902.74 93.744 Q1894.11 93.744 1890.83 90.5438 Q1887.55 87.3031 1887.55 78.7962 L1887.55 54.1667 L1882.08 54.1667 L1882.08 48.3739 L1887.55 48.3739 L1887.55 35.492 L1895.04 35.492 Z" fill="#000000" fill-rule="nonzero" fill-opacity="1"></path><path clip-path="url(#clip180)" d="M1940.82 70.9374 Q1931.78 70.9374 1928.3 73.0034 Q1924.81 75.0693 1924.81 80.0519 Q1924.81 84.0218 1927.41 86.3714 Q1930.04 88.6804 1934.54 88.6804 Q1940.73 88.6804 1944.46 84.3054 Q1948.23 79.8899 1948.23 72.5983 L1948.23 70.9374 L1940.82 70.9374 M1955.68 67.8587 L1955.68 93.744 L1948.23 93.744 L1948.23 86.8575 Q1945.68 90.9894 1941.87 92.9743 Q1938.06 94.9188 1932.55 94.9188 Q1925.58 94.9188 1921.45 91.0299 Q1917.36 87.1005 1917.36 80.5381 Q1917.36 72.8818 1922.47 68.993 Q1927.61 65.1041 1937.78 65.1041 L1948.23 65.1041 L1948.23 64.3749 Q1948.23 59.2303 1944.83 56.4352 Q1941.46 53.5995 1935.35 53.5995 Q1931.46 53.5995 1927.77 54.5312 Q1924.09 55.463 1920.68 57.3264 L1920.68 50.4398 Q1924.77 48.86 1928.62 48.0903 Q1932.47 47.2801 1936.12 47.2801 Q1945.96 47.2801 1950.82 52.3843 Q1955.68 57.4884 1955.68 67.8587 Z" fill="#000000" fill-rule="nonzero" fill-opacity="1"></path><path clip-path="url(#clip180)" d="M1978.41 35.492 L1978.41 48.3739 L1993.76 48.3739 L1993.76 54.1667 L1978.41 54.1667 L1978.41 78.7962 Q1978.41 84.3459 1979.91 85.9258 Q1981.45 87.5056 1986.1 87.5056 L1993.76 87.5056 L1993.76 93.744 L1986.1 93.744 Q1977.48 93.744 1974.2 90.5438 Q1970.91 87.3031 1970.91 78.7962 L1970.91 54.1667 L1965.45 54.1667 L1965.45 48.3739 L1970.91 48.3739 L1970.91 35.492 L1978.41 35.492 Z" fill="#000000" fill-rule="nonzero" fill-opacity="1"></path><path clip-path="url(#clip180)" d="M2003.56 48.3739 L2011.02 48.3739 L2011.02 93.744 L2003.56 93.744 L2003.56 48.3739 M2003.56 30.7119 L2011.02 30.7119 L2011.02 40.1505 L2003.56 40.1505 L2003.56 30.7119 Z" fill="#000000" fill-rule="nonzero" fill-opacity="1"></path><path clip-path="url(#clip180)" d="M2044.19 53.5995 Q2038.2 53.5995 2034.72 58.2986 Q2031.23 62.9571 2031.23 71.0994 Q2031.23 79.2418 2034.68 83.9408 Q2038.16 88.5994 2044.19 88.5994 Q2050.15 88.5994 2053.63 83.9003 Q2057.12 79.2013 2057.12 71.0994 Q2057.12 63.0381 2053.63 58.3391 Q2050.15 53.5995 2044.19 53.5995 M2044.19 47.2801 Q2053.92 47.2801 2059.47 53.5995 Q2065.02 59.9189 2065.02 71.0994 Q2065.02 82.2394 2059.47 88.5994 Q2053.92 94.9188 2044.19 94.9188 Q2034.43 94.9188 2028.88 88.5994 Q2023.37 82.2394 2023.37 71.0994 Q2023.37 59.9189 2028.88 53.5995 Q2034.43 47.2801 2044.19 47.2801 Z" fill="#000000" fill-rule="nonzero" fill-opacity="1"></path><path clip-path="url(#clip180)" d="M2115.09 66.3599 L2115.09 93.744 L2107.63 93.744 L2107.63 66.6029 Q2107.63 60.162 2105.12 56.9618 Q2102.61 53.7616 2097.59 53.7616 Q2091.55 53.7616 2088.07 57.6099 Q2084.58 61.4583 2084.58 68.1018 L2084.58 93.744 L2077.09 93.744 L2077.09 48.3739 L2084.58 48.3739 L2084.58 55.4224 Q2087.26 51.331 2090.86 49.3056 Q2094.51 47.2801 2099.25 47.2801 Q2107.06 47.2801 2111.08 52.1412 Q2115.09 56.9618 2115.09 66.3599 Z" fill="#000000" fill-rule="nonzero" fill-opacity="1"></path><path clip-path="url(#clip180)" d="M833.724 145.98 L833.724 121.432 L841.177 121.432 L841.177 184.464 L833.724 184.464 L833.724 177.658 Q831.374 181.709 827.769 183.694 Q824.204 185.639 819.181 185.639 Q810.958 185.639 805.773 179.076 Q800.628 172.514 800.628 161.819 Q800.628 151.125 805.773 144.563 Q810.958 138 819.181 138 Q824.204 138 827.769 139.985 Q831.374 141.93 833.724 145.98 M808.325 161.819 Q808.325 170.043 811.687 174.742 Q815.09 179.4 821.004 179.4 Q826.918 179.4 830.321 174.742 Q833.724 170.043 833.724 161.819 Q833.724 153.596 830.321 148.938 Q826.918 144.239 821.004 144.239 Q815.09 144.239 811.687 148.938 Q808.325 153.596 808.325 161.819 Z" fill="#000000" fill-rule="nonzero" fill-opacity="1"></path><path clip-path="url(#clip180)" d="M856.53 139.094 L863.984 139.094 L863.984 184.464 L856.53 184.464 L856.53 139.094 M856.53 121.432 L863.984 121.432 L863.984 130.871 L856.53 130.871 L856.53 121.432 Z" fill="#000000" fill-rule="nonzero" fill-opacity="1"></path><path clip-path="url(#clip180)" d="M908.504 140.431 L908.504 147.479 Q905.344 145.859 901.941 145.049 Q898.538 144.239 894.892 144.239 Q889.343 144.239 886.548 145.94 Q883.793 147.641 883.793 151.044 Q883.793 153.637 885.778 155.135 Q887.763 156.594 893.758 157.931 L896.31 158.498 Q904.25 160.199 907.572 163.318 Q910.934 166.397 910.934 171.947 Q910.934 178.266 905.911 181.952 Q900.928 185.639 892.178 185.639 Q888.533 185.639 884.563 184.91 Q880.633 184.221 876.258 182.803 L876.258 175.106 Q880.39 177.253 884.401 178.347 Q888.411 179.4 892.34 179.4 Q897.607 179.4 900.442 177.618 Q903.278 175.795 903.278 172.514 Q903.278 169.476 901.212 167.855 Q899.186 166.235 892.259 164.736 L889.667 164.128 Q882.74 162.67 879.661 159.672 Q876.582 156.634 876.582 151.368 Q876.582 144.968 881.119 141.484 Q885.656 138 894.001 138 Q898.133 138 901.779 138.608 Q905.425 139.215 908.504 140.431 Z" fill="#000000" fill-rule="nonzero" fill-opacity="1"></path><path clip-path="url(#clip180)" d="M930.176 126.212 L930.176 139.094 L945.529 139.094 L945.529 144.887 L930.176 144.887 L930.176 169.516 Q930.176 175.066 931.675 176.646 Q933.214 178.226 937.873 178.226 L945.529 178.226 L945.529 184.464 L937.873 184.464 Q929.244 184.464 925.963 181.264 Q922.682 178.023 922.682 169.516 L922.682 144.887 L917.213 144.887 L917.213 139.094 L922.682 139.094 L922.682 126.212 L930.176 126.212 Z" fill="#000000" fill-rule="nonzero" fill-opacity="1"></path><path clip-path="url(#clip180)" d="M981.622 146.061 Q980.367 145.332 978.868 145.008 Q977.409 144.644 975.627 144.644 Q969.308 144.644 965.905 148.776 Q962.543 152.867 962.543 160.564 L962.543 184.464 L955.048 184.464 L955.048 139.094 L962.543 139.094 L962.543 146.142 Q964.892 142.011 968.659 140.026 Q972.427 138 977.814 138 Q978.584 138 979.516 138.122 Q980.448 138.203 981.582 138.405 L981.622 146.061 Z" fill="#000000" fill-rule="nonzero" fill-opacity="1"></path><path clip-path="url(#clip180)" d="M989.441 139.094 L996.894 139.094 L996.894 184.464 L989.441 184.464 L989.441 139.094 M989.441 121.432 L996.894 121.432 L996.894 130.871 L989.441 130.871 L989.441 121.432 Z" fill="#000000" fill-rule="nonzero" fill-opacity="1"></path><path clip-path="url(#clip180)" d="M1045.06 161.819 Q1045.06 153.596 1041.66 148.938 Q1038.29 144.239 1032.38 144.239 Q1026.47 144.239 1023.06 148.938 Q1019.7 153.596 1019.7 161.819 Q1019.7 170.043 1023.06 174.742 Q1026.47 179.4 1032.38 179.4 Q1038.29 179.4 1041.66 174.742 Q1045.06 170.043 1045.06 161.819 M1019.7 145.98 Q1022.05 141.93 1025.62 139.985 Q1029.22 138 1034.2 138 Q1042.47 138 1047.61 144.563 Q1052.8 151.125 1052.8 161.819 Q1052.8 172.514 1047.61 179.076 Q1042.47 185.639 1034.2 185.639 Q1029.22 185.639 1025.62 183.694 Q1022.05 181.709 1019.7 177.658 L1019.7 184.464 L1012.21 184.464 L1012.21 121.432 L1019.7 121.432 L1019.7 145.98 Z" fill="#000000" fill-rule="nonzero" fill-opacity="1"></path><path clip-path="url(#clip180)" d="M1064.38 166.559 L1064.38 139.094 L1071.84 139.094 L1071.84 166.275 Q1071.84 172.716 1074.35 175.957 Q1076.86 179.157 1081.88 179.157 Q1087.92 179.157 1091.4 175.309 Q1094.93 171.461 1094.93 164.817 L1094.93 139.094 L1102.38 139.094 L1102.38 184.464 L1094.93 184.464 L1094.93 177.496 Q1092.21 181.628 1088.61 183.654 Q1085.04 185.639 1080.3 185.639 Q1072.48 185.639 1068.43 180.778 Q1064.38 175.917 1064.38 166.559 M1083.14 138 L1083.14 138 Z" fill="#000000" fill-rule="nonzero" fill-opacity="1"></path><path clip-path="url(#clip180)" d="M1125.11 126.212 L1125.11 139.094 L1140.46 139.094 L1140.46 144.887 L1125.11 144.887 L1125.11 169.516 Q1125.11 175.066 1126.6 176.646 Q1128.14 178.226 1132.8 178.226 L1140.46 178.226 L1140.46 184.464 L1132.8 184.464 Q1124.17 184.464 1120.89 181.264 Q1117.61 178.023 1117.61 169.516 L1117.61 144.887 L1112.14 144.887 L1112.14 139.094 L1117.61 139.094 L1117.61 126.212 L1125.11 126.212 Z" fill="#000000" fill-rule="nonzero" fill-opacity="1"></path><path clip-path="url(#clip180)" d="M1150.26 139.094 L1157.72 139.094 L1157.72 184.464 L1150.26 184.464 L1150.26 139.094 M1150.26 121.432 L1157.72 121.432 L1157.72 130.871 L1150.26 130.871 L1150.26 121.432 Z" fill="#000000" fill-rule="nonzero" fill-opacity="1"></path><path clip-path="url(#clip180)" d="M1190.89 144.32 Q1184.9 144.32 1181.41 149.019 Q1177.93 153.677 1177.93 161.819 Q1177.93 169.962 1181.37 174.661 Q1184.86 179.319 1190.89 179.319 Q1196.85 179.319 1200.33 174.62 Q1203.81 169.921 1203.81 161.819 Q1203.81 153.758 1200.33 149.059 Q1196.85 144.32 1190.89 144.32 M1190.89 138 Q1200.61 138 1206.16 144.32 Q1211.71 150.639 1211.71 161.819 Q1211.71 172.959 1206.16 179.319 Q1200.61 185.639 1190.89 185.639 Q1181.13 185.639 1175.58 179.319 Q1170.07 172.959 1170.07 161.819 Q1170.07 150.639 1175.58 144.32 Q1181.13 138 1190.89 138 Z" fill="#000000" fill-rule="nonzero" fill-opacity="1"></path><path clip-path="url(#clip180)" d="M1261.78 157.08 L1261.78 184.464 L1254.33 184.464 L1254.33 157.323 Q1254.33 150.882 1251.82 147.682 Q1249.31 144.482 1244.28 144.482 Q1238.25 144.482 1234.76 148.33 Q1231.28 152.178 1231.28 158.822 L1231.28 184.464 L1223.79 184.464 L1223.79 139.094 L1231.28 139.094 L1231.28 146.142 Q1233.95 142.051 1237.56 140.026 Q1241.2 138 1245.94 138 Q1253.76 138 1257.77 142.861 Q1261.78 147.682 1261.78 157.08 Z" fill="#000000" fill-rule="nonzero" fill-opacity="1"></path><path clip-path="url(#clip180)" d="M1278.55 174.175 L1287.1 174.175 L1287.1 184.464 L1278.55 184.464 L1278.55 174.175 M1278.55 141.565 L1287.1 141.565 L1287.1 151.854 L1278.55 151.854 L1278.55 141.565 Z" fill="#000000" fill-rule="nonzero" fill-opacity="1"></path><path clip-path="url(#clip180)" d="M1330.28 121.432 L1347.46 121.432 L1347.46 127.225 L1337.74 127.225 L1337.74 189.609 L1347.46 189.609 L1347.46 195.401 L1330.28 195.401 L1330.28 121.432 Z" fill="#000000" fill-rule="nonzero" fill-opacity="1"></path><path clip-path="url(#clip180)" d="M1381.89 129.372 Q1375.57 129.372 1372.37 135.61 Q1369.21 141.808 1369.21 154.285 Q1369.21 166.721 1372.37 172.959 Q1375.57 179.157 1381.89 179.157 Q1388.25 179.157 1391.41 172.959 Q1394.61 166.721 1394.61 154.285 Q1394.61 141.808 1391.41 135.61 Q1388.25 129.372 1381.89 129.372 M1381.89 122.89 Q1392.06 122.89 1397.41 130.952 Q1402.79 138.972 1402.79 154.285 Q1402.79 169.557 1397.41 177.618 Q1392.06 185.639 1381.89 185.639 Q1371.72 185.639 1366.34 177.618 Q1360.99 169.557 1360.99 154.285 Q1360.99 138.972 1366.34 130.952 Q1371.72 122.89 1381.89 122.89 Z" fill="#000000" fill-rule="nonzero" fill-opacity="1"></path><path clip-path="url(#clip180)" d="M1417.18 174.175 L1425.72 174.175 L1425.72 184.464 L1417.18 184.464 L1417.18 174.175 Z" fill="#000000" fill-rule="nonzero" fill-opacity="1"></path><path clip-path="url(#clip180)" d="M1444.96 177.577 L1458.33 177.577 L1458.33 131.438 L1443.79 134.354 L1443.79 126.901 L1458.25 123.984 L1466.43 123.984 L1466.43 177.577 L1479.8 177.577 L1479.8 184.464 L1444.96 184.464 L1444.96 177.577 Z" fill="#000000" fill-rule="nonzero" fill-opacity="1"></path><path clip-path="url(#clip180)" d="M1496.41 123.984 L1528.53 123.984 L1528.53 130.871 L1503.91 130.871 L1503.91 145.697 Q1505.69 145.089 1507.47 144.806 Q1509.25 144.482 1511.03 144.482 Q1521.16 144.482 1527.08 150.031 Q1532.99 155.581 1532.99 165.06 Q1532.99 174.823 1526.91 180.251 Q1520.84 185.639 1509.78 185.639 Q1505.97 185.639 1502 184.991 Q1498.07 184.342 1493.86 183.046 L1493.86 174.823 Q1497.5 176.808 1501.39 177.78 Q1505.28 178.752 1509.62 178.752 Q1516.63 178.752 1520.72 175.066 Q1524.81 171.38 1524.81 165.06 Q1524.81 158.741 1520.72 155.054 Q1516.63 151.368 1509.62 151.368 Q1506.34 151.368 1503.05 152.097 Q1499.81 152.826 1496.41 154.366 L1496.41 123.984 Z" fill="#000000" fill-rule="nonzero" fill-opacity="1"></path><path clip-path="url(#clip180)" d="M1549.96 174.175 L1558.51 174.175 L1558.51 181.142 L1551.87 194.105 L1546.64 194.105 L1549.96 181.142 L1549.96 174.175 Z" fill="#000000" fill-rule="nonzero" fill-opacity="1"></path><path clip-path="url(#clip180)" d="M1619.36 129.372 Q1613.04 129.372 1609.84 135.61 Q1606.68 141.808 1606.68 154.285 Q1606.68 166.721 1609.84 172.959 Q1613.04 179.157 1619.36 179.157 Q1625.72 179.157 1628.88 172.959 Q1632.08 166.721 1632.08 154.285 Q1632.08 141.808 1628.88 135.61 Q1625.72 129.372 1619.36 129.372 M1619.36 122.89 Q1629.52 122.89 1634.87 130.952 Q1640.26 138.972 1640.26 154.285 Q1640.26 169.557 1634.87 177.618 Q1629.52 185.639 1619.36 185.639 Q1609.19 185.639 1603.8 177.618 Q1598.45 169.557 1598.45 154.285 Q1598.45 138.972 1603.8 130.952 Q1609.19 122.89 1619.36 122.89 Z" fill="#000000" fill-rule="nonzero" fill-opacity="1"></path><path clip-path="url(#clip180)" d="M1654.64 174.175 L1663.19 174.175 L1663.19 184.464 L1654.64 184.464 L1654.64 174.175 Z" fill="#000000" fill-rule="nonzero" fill-opacity="1"></path><path clip-path="url(#clip180)" d="M1698.51 155.743 Q1692.68 155.743 1689.32 158.862 Q1685.99 161.981 1685.99 167.45 Q1685.99 172.919 1689.32 176.038 Q1692.68 179.157 1698.51 179.157 Q1704.34 179.157 1707.71 176.038 Q1711.07 172.878 1711.07 167.45 Q1711.07 161.981 1707.71 158.862 Q1704.38 155.743 1698.51 155.743 M1690.33 152.259 Q1685.06 150.963 1682.1 147.358 Q1679.19 143.752 1679.19 138.567 Q1679.19 131.316 1684.33 127.103 Q1689.52 122.89 1698.51 122.89 Q1707.54 122.89 1712.69 127.103 Q1717.83 131.316 1717.83 138.567 Q1717.83 143.752 1714.88 147.358 Q1711.96 150.963 1706.73 152.259 Q1712.65 153.637 1715.93 157.647 Q1719.25 161.657 1719.25 167.45 Q1719.25 176.241 1713.86 180.94 Q1708.52 185.639 1698.51 185.639 Q1688.51 185.639 1683.12 180.94 Q1677.77 176.241 1677.77 167.45 Q1677.77 161.657 1681.09 157.647 Q1684.41 153.637 1690.33 152.259 M1687.33 139.337 Q1687.33 144.036 1690.25 146.669 Q1693.2 149.302 1698.51 149.302 Q1703.78 149.302 1706.73 146.669 Q1709.73 144.036 1709.73 139.337 Q1709.73 134.638 1706.73 132.005 Q1703.78 129.372 1698.51 129.372 Q1693.2 129.372 1690.25 132.005 Q1687.33 134.638 1687.33 139.337 Z" fill="#000000" fill-rule="nonzero" fill-opacity="1"></path><path clip-path="url(#clip180)" d="M1733.88 123.984 L1766 123.984 L1766 130.871 L1741.37 130.871 L1741.37 145.697 Q1743.15 145.089 1744.93 144.806 Q1746.72 144.482 1748.5 144.482 Q1758.63 144.482 1764.54 150.031 Q1770.45 155.581 1770.45 165.06 Q1770.45 174.823 1764.38 180.251 Q1758.3 185.639 1747.24 185.639 Q1743.44 185.639 1739.47 184.991 Q1735.54 184.342 1731.32 183.046 L1731.32 174.823 Q1734.97 176.808 1738.86 177.78 Q1742.75 178.752 1747.08 178.752 Q1754.09 178.752 1758.18 175.066 Q1762.27 171.38 1762.27 165.06 Q1762.27 158.741 1758.18 155.054 Q1754.09 151.368 1747.08 151.368 Q1743.8 151.368 1740.52 152.097 Q1737.28 152.826 1733.88 154.366 L1733.88 123.984 Z" fill="#000000" fill-rule="nonzero" fill-opacity="1"></path><path clip-path="url(#clip180)" d="M1802.94 121.432 L1802.94 195.401 L1785.77 195.401 L1785.77 189.609 L1795.45 189.609 L1795.45 127.225 L1785.77 127.225 L1785.77 121.432 L1802.94 121.432 Z" fill="#000000" fill-rule="nonzero" fill-opacity="1"></path><polyline clip-path="url(#clip182)" style="stroke:#009af9; stroke-linecap:round; stroke-linejoin:round; stroke-width:4; stroke-opacity:1; fill:none" points="280.231,1388.11 783.271,797.748 1286.31,528.667 1789.35,219.025 2292.39,241.84 "></polyline>
<path clip-path="url(#clip180)" d="M290.963 328.94 L556.682 328.94 L556.682 225.26 L290.963 225.26  Z" fill="#ffffff" fill-rule="evenodd" fill-opacity="1"></path>
<polyline clip-path="url(#clip180)" style="stroke:#000000; stroke-linecap:round; stroke-linejoin:round; stroke-width:4; stroke-opacity:1; fill:none" points="290.963,328.94 556.682,328.94 556.682,225.26 290.963,225.26 290.963,328.94 "></polyline>
<polyline clip-path="url(#clip180)" style="stroke:#009af9; stroke-linecap:round; stroke-linejoin:round; stroke-width:4; stroke-opacity:1; fill:none" points="314.661,277.1 456.854,277.1 "></polyline>
<path clip-path="url(#clip180)" d="M494.395 296.787 Q492.59 301.417 490.877 302.829 Q489.164 304.241 486.293 304.241 L482.891 304.241 L482.891 300.676 L485.391 300.676 Q487.15 300.676 488.122 299.843 Q489.094 299.009 490.275 295.907 L491.039 293.963 L480.553 268.454 L485.067 268.454 L493.168 288.732 L501.27 268.454 L505.784 268.454 L494.395 296.787 Z" fill="#000000" fill-rule="nonzero" fill-opacity="1"></path><path clip-path="url(#clip180)" d="M513.076 290.445 L520.715 290.445 L520.715 264.079 L512.404 265.746 L512.404 261.486 L520.668 259.82 L525.344 259.82 L525.344 290.445 L532.983 290.445 L532.983 294.38 L513.076 294.38 L513.076 290.445 Z" fill="#000000" fill-rule="nonzero" fill-opacity="1"></path></svg>