<svg xmlns="http://www.w3.org/2000/svg" xmlns:xlink="http://www.w3.org/1999/xlink" width="600" height="400" viewBox="0 0 2400 1600">
<defs>
  <clipPath id="clip340">
    <rect x="0" y="0" width="2400" height="1600"></rect>
  </clipPath>
</defs>
<path clip-path="url(#clip340)" d="M0 1600 L2400 1600 L2400 0 L0 0  Z" fill="#ffffff" fill-rule="evenodd" fill-opacity="1"></path>
<defs>
  <clipPath id="clip341">
    <rect x="480" y="0" width="1681" height="1600"></rect>
  </clipPath>
</defs>
<path clip-path="url(#clip340)" d="M249.542 1423.18 L2352.76 1423.18 L2352.76 183.952 L249.542 183.952  Z" fill="#ffffff" fill-rule="evenodd" fill-opacity="1"></path>
<defs>
  <clipPath id="clip342">
    <rect x="249" y="183" width="2104" height="1240"></rect>
  </clipPath>
</defs>
<polyline clip-path="url(#clip342)" style="stroke:#000000; stroke-linecap:round; stroke-linejoin:round; stroke-width:2; stroke-opacity:0.1; fill:none" points="309.067,1423.18 309.067,183.952 "></polyline>
<polyline clip-path="url(#clip342)" style="stroke:#000000; stroke-linecap:round; stroke-linejoin:round; stroke-width:2; stroke-opacity:0.1; fill:none" points="805.108,1423.18 805.108,183.952 "></polyline>
<polyline clip-path="url(#clip342)" style="stroke:#000000; stroke-linecap:round; stroke-linejoin:round; stroke-width:2; stroke-opacity:0.1; fill:none" points="1301.15,1423.18 1301.15,183.952 "></polyline>
<polyline clip-path="url(#clip342)" style="stroke:#000000; stroke-linecap:round; stroke-linejoin:round; stroke-width:2; stroke-opacity:0.1; fill:none" points="1797.19,1423.18 1797.19,183.952 "></polyline>
<polyline clip-path="url(#clip342)" style="stroke:#000000; stroke-linecap:round; stroke-linejoin:round; stroke-width:2; stroke-opacity:0.1; fill:none" points="2293.23,1423.18 2293.23,183.952 "></polyline>
<polyline clip-path="url(#clip340)" style="stroke:#000000; stroke-linecap:round; stroke-linejoin:round; stroke-width:4; stroke-opacity:1; fill:none" points="249.542,1423.18 2352.76,1423.18 "></polyline>
<polyline clip-path="url(#clip340)" style="stroke:#000000; stroke-linecap:round; stroke-linejoin:round; stroke-width:4; stroke-opacity:1; fill:none" points="309.067,1423.18 309.067,1404.28 "></polyline>
<polyline clip-path="url(#clip340)" style="stroke:#000000; stroke-linecap:round; stroke-linejoin:round; stroke-width:4; stroke-opacity:1; fill:none" points="805.108,1423.18 805.108,1404.28 "></polyline>
<polyline clip-path="url(#clip340)" style="stroke:#000000; stroke-linecap:round; stroke-linejoin:round; stroke-width:4; stroke-opacity:1; fill:none" points="1301.15,1423.18 1301.15,1404.28 "></polyline>
<polyline clip-path="url(#clip340)" style="stroke:#000000; stroke-linecap:round; stroke-linejoin:round; stroke-width:4; stroke-opacity:1; fill:none" points="1797.19,1423.18 1797.19,1404.28 "></polyline>
<polyline clip-path="url(#clip340)" style="stroke:#000000; stroke-linecap:round; stroke-linejoin:round; stroke-width:4; stroke-opacity:1; fill:none" points="2293.23,1423.18 2293.23,1404.28 "></polyline>
<path clip-path="url(#clip340)" d="M299.449 1481.64 L307.088 1481.64 L307.088 1455.28 L298.778 1456.95 L298.778 1452.69 L307.042 1451.02 L311.717 1451.02 L311.717 1481.64 L319.356 1481.64 L319.356 1485.58 L299.449 1485.58 L299.449 1481.64 Z" fill="#000000" fill-rule="nonzero" fill-opacity="1"></path><path clip-path="url(#clip340)" d="M799.761 1481.64 L816.08 1481.64 L816.08 1485.58 L794.136 1485.58 L794.136 1481.64 Q796.798 1478.89 801.381 1474.26 Q805.988 1469.61 807.168 1468.27 Q809.413 1465.74 810.293 1464.01 Q811.196 1462.25 811.196 1460.56 Q811.196 1457.8 809.251 1456.07 Q807.33 1454.33 804.228 1454.33 Q802.029 1454.33 799.576 1455.09 Q797.145 1455.86 794.367 1457.41 L794.367 1452.69 Q797.191 1451.55 799.645 1450.97 Q802.099 1450.39 804.136 1450.39 Q809.506 1450.39 812.701 1453.08 Q815.895 1455.77 815.895 1460.26 Q815.895 1462.39 815.085 1464.31 Q814.298 1466.2 812.191 1468.8 Q811.613 1469.47 808.511 1472.69 Q805.409 1475.88 799.761 1481.64 Z" fill="#000000" fill-rule="nonzero" fill-opacity="1"></path><path clip-path="url(#clip340)" d="M1305.4 1466.95 Q1308.75 1467.66 1310.63 1469.93 Q1312.53 1472.2 1312.53 1475.53 Q1312.53 1480.65 1309.01 1483.45 Q1305.49 1486.25 1299.01 1486.25 Q1296.83 1486.25 1294.52 1485.81 Q1292.23 1485.39 1289.77 1484.54 L1289.77 1480.02 Q1291.72 1481.16 1294.03 1481.74 Q1296.35 1482.32 1298.87 1482.32 Q1303.27 1482.32 1305.56 1480.58 Q1307.87 1478.84 1307.87 1475.53 Q1307.87 1472.48 1305.72 1470.77 Q1303.59 1469.03 1299.77 1469.03 L1295.74 1469.03 L1295.74 1465.19 L1299.96 1465.19 Q1303.41 1465.19 1305.23 1463.82 Q1307.06 1462.43 1307.06 1459.84 Q1307.06 1457.18 1305.17 1455.77 Q1303.29 1454.33 1299.77 1454.33 Q1297.85 1454.33 1295.65 1454.75 Q1293.45 1455.16 1290.81 1456.04 L1290.81 1451.88 Q1293.48 1451.14 1295.79 1450.77 Q1298.13 1450.39 1300.19 1450.39 Q1305.51 1450.39 1308.61 1452.83 Q1311.72 1455.23 1311.72 1459.35 Q1311.72 1462.22 1310.07 1464.21 Q1308.43 1466.18 1305.4 1466.95 Z" fill="#000000" fill-rule="nonzero" fill-opacity="1"></path><path clip-path="url(#clip340)" d="M1800.2 1455.09 L1788.39 1473.54 L1800.2 1473.54 L1800.2 1455.09 M1798.97 1451.02 L1804.85 1451.02 L1804.85 1473.54 L1809.78 1473.54 L1809.78 1477.43 L1804.85 1477.43 L1804.85 1485.58 L1800.2 1485.58 L1800.2 1477.43 L1784.6 1477.43 L1784.6 1472.92 L1798.97 1451.02 Z" fill="#000000" fill-rule="nonzero" fill-opacity="1"></path><path clip-path="url(#clip340)" d="M2283.51 1451.02 L2301.87 1451.02 L2301.87 1454.96 L2287.79 1454.96 L2287.79 1463.43 Q2288.81 1463.08 2289.83 1462.92 Q2290.85 1462.73 2291.87 1462.73 Q2297.65 1462.73 2301.03 1465.9 Q2304.41 1469.08 2304.41 1474.49 Q2304.41 1480.07 2300.94 1483.17 Q2297.47 1486.25 2291.15 1486.25 Q2288.97 1486.25 2286.7 1485.88 Q2284.46 1485.51 2282.05 1484.77 L2282.05 1480.07 Q2284.13 1481.2 2286.36 1481.76 Q2288.58 1482.32 2291.06 1482.32 Q2295.06 1482.32 2297.4 1480.21 Q2299.74 1478.1 2299.74 1474.49 Q2299.74 1470.88 2297.4 1468.77 Q2295.06 1466.67 2291.06 1466.67 Q2289.18 1466.67 2287.31 1467.08 Q2285.45 1467.5 2283.51 1468.38 L2283.51 1451.02 Z" fill="#000000" fill-rule="nonzero" fill-opacity="1"></path><path clip-path="url(#clip340)" d="M1316.08 1546.53 L1316.08 1568.04 L1310.22 1568.04 L1310.22 1546.72 Q1310.22 1541.66 1308.25 1539.14 Q1306.27 1536.63 1302.33 1536.63 Q1297.58 1536.63 1294.85 1539.65 Q1292.11 1542.68 1292.11 1547.9 L1292.11 1568.04 L1286.22 1568.04 L1286.22 1532.4 L1292.11 1532.4 L1292.11 1537.93 Q1294.21 1534.72 1297.04 1533.13 Q1299.91 1531.54 1303.63 1531.54 Q1309.77 1531.54 1312.93 1535.36 Q1316.08 1539.14 1316.08 1546.53 Z" fill="#000000" fill-rule="nonzero" fill-opacity="1"></path><polyline clip-path="url(#clip342)" style="stroke:#000000; stroke-linecap:round; stroke-linejoin:round; stroke-width:2; stroke-opacity:0.1; fill:none" points="249.542,1359.27 2352.76,1359.27 "></polyline>
<polyline clip-path="url(#clip342)" style="stroke:#000000; stroke-linecap:round; stroke-linejoin:round; stroke-width:2; stroke-opacity:0.1; fill:none" points="249.542,1155.38 2352.76,1155.38 "></polyline>
<polyline clip-path="url(#clip342)" style="stroke:#000000; stroke-linecap:round; stroke-linejoin:round; stroke-width:2; stroke-opacity:0.1; fill:none" points="249.542,951.49 2352.76,951.49 "></polyline>
<polyline clip-path="url(#clip342)" style="stroke:#000000; stroke-linecap:round; stroke-linejoin:round; stroke-width:2; stroke-opacity:0.1; fill:none" points="249.542,747.6 2352.76,747.6 "></polyline>
<polyline clip-path="url(#clip342)" style="stroke:#000000; stroke-linecap:round; stroke-linejoin:round; stroke-width:2; stroke-opacity:0.1; fill:none" points="249.542,543.711 2352.76,543.711 "></polyline>
<polyline clip-path="url(#clip342)" style="stroke:#000000; stroke-linecap:round; stroke-linejoin:round; stroke-width:2; stroke-opacity:0.1; fill:none" points="249.542,339.821 2352.76,339.821 "></polyline>
<polyline clip-path="url(#clip340)" style="stroke:#000000; stroke-linecap:round; stroke-linejoin:round; stroke-width:4; stroke-opacity:1; fill:none" points="249.542,1423.18 249.542,183.952 "></polyline>
<polyline clip-path="url(#clip340)" style="stroke:#000000; stroke-linecap:round; stroke-linejoin:round; stroke-width:4; stroke-opacity:1; fill:none" points="249.542,1359.27 268.44,1359.27 "></polyline>
<polyline clip-path="url(#clip340)" style="stroke:#000000; stroke-linecap:round; stroke-linejoin:round; stroke-width:4; stroke-opacity:1; fill:none" points="249.542,1155.38 268.44,1155.38 "></polyline>
<polyline clip-path="url(#clip340)" style="stroke:#000000; stroke-linecap:round; stroke-linejoin:round; stroke-width:4; stroke-opacity:1; fill:none" points="249.542,951.49 268.44,951.49 "></polyline>
<polyline clip-path="url(#clip340)" style="stroke:#000000; stroke-linecap:round; stroke-linejoin:round; stroke-width:4; stroke-opacity:1; fill:none" points="249.542,747.6 268.44,747.6 "></polyline>
<polyline clip-path="url(#clip340)" style="stroke:#000000; stroke-linecap:round; stroke-linejoin:round; stroke-width:4; stroke-opacity:1; fill:none" points="249.542,543.711 268.44,543.711 "></polyline>
<polyline clip-path="url(#clip340)" style="stroke:#000000; stroke-linecap:round; stroke-linejoin:round; stroke-width:4; stroke-opacity:1; fill:none" points="249.542,339.821 268.44,339.821 "></polyline>
<path clip-path="url(#clip340)" d="M127.2 1345.07 Q123.589 1345.07 121.76 1348.63 Q119.955 1352.17 119.955 1359.3 Q119.955 1366.41 121.76 1369.97 Q123.589 1373.52 127.2 1373.52 Q130.834 1373.52 132.64 1369.97 Q134.468 1366.41 134.468 1359.3 Q134.468 1352.17 132.64 1348.63 Q130.834 1345.07 127.2 1345.07 M127.2 1341.36 Q133.01 1341.36 136.066 1345.97 Q139.144 1350.55 139.144 1359.3 Q139.144 1368.03 136.066 1372.64 Q133.01 1377.22 127.2 1377.22 Q121.39 1377.22 118.311 1372.64 Q115.256 1368.03 115.256 1359.3 Q115.256 1350.55 118.311 1345.97 Q121.39 1341.36 127.2 1341.36 Z" fill="#000000" fill-rule="nonzero" fill-opacity="1"></path><path clip-path="url(#clip340)" d="M147.362 1370.67 L152.246 1370.67 L152.246 1376.55 L147.362 1376.55 L147.362 1370.67 Z" fill="#000000" fill-rule="nonzero" fill-opacity="1"></path><path clip-path="url(#clip340)" d="M162.477 1341.99 L180.834 1341.99 L180.834 1345.92 L166.76 1345.92 L166.76 1354.4 Q167.778 1354.05 168.797 1353.89 Q169.815 1353.7 170.834 1353.7 Q176.621 1353.7 180.001 1356.87 Q183.38 1360.04 183.38 1365.46 Q183.38 1371.04 179.908 1374.14 Q176.436 1377.22 170.116 1377.22 Q167.94 1377.22 165.672 1376.85 Q163.427 1376.48 161.019 1375.74 L161.019 1371.04 Q163.102 1372.17 165.325 1372.73 Q167.547 1373.28 170.024 1373.28 Q174.028 1373.28 176.366 1371.18 Q178.704 1369.07 178.704 1365.46 Q178.704 1361.85 176.366 1359.74 Q174.028 1357.64 170.024 1357.64 Q168.149 1357.64 166.274 1358.05 Q164.422 1358.47 162.477 1359.35 L162.477 1341.99 Z" fill="#000000" fill-rule="nonzero" fill-opacity="1"></path><path clip-path="url(#clip340)" d="M192.639 1341.99 L210.996 1341.99 L210.996 1345.92 L196.922 1345.92 L196.922 1354.4 Q197.94 1354.05 198.959 1353.89 Q199.977 1353.7 200.996 1353.7 Q206.783 1353.7 210.162 1356.87 Q213.542 1360.04 213.542 1365.46 Q213.542 1371.04 210.07 1374.14 Q206.598 1377.22 200.278 1377.22 Q198.102 1377.22 195.834 1376.85 Q193.588 1376.48 191.181 1375.74 L191.181 1371.04 Q193.264 1372.17 195.487 1372.73 Q197.709 1373.28 200.186 1373.28 Q204.19 1373.28 206.528 1371.18 Q208.866 1369.07 208.866 1365.46 Q208.866 1361.85 206.528 1359.74 Q204.19 1357.64 200.186 1357.64 Q198.311 1357.64 196.436 1358.05 Q194.584 1358.47 192.639 1359.35 L192.639 1341.99 Z" fill="#000000" fill-rule="nonzero" fill-opacity="1"></path><path clip-path="url(#clip340)" d="M126.205 1141.18 Q122.593 1141.18 120.765 1144.74 Q118.959 1148.28 118.959 1155.41 Q118.959 1162.52 120.765 1166.08 Q122.593 1169.63 126.205 1169.63 Q129.839 1169.63 131.644 1166.08 Q133.473 1162.52 133.473 1155.41 Q133.473 1148.28 131.644 1144.74 Q129.839 1141.18 126.205 1141.18 M126.205 1137.47 Q132.015 1137.47 135.07 1142.08 Q138.149 1146.66 138.149 1155.41 Q138.149 1164.14 135.07 1168.75 Q132.015 1173.33 126.205 1173.33 Q120.394 1173.33 117.316 1168.75 Q114.26 1164.14 114.26 1155.41 Q114.26 1146.66 117.316 1142.08 Q120.394 1137.47 126.205 1137.47 Z" fill="#000000" fill-rule="nonzero" fill-opacity="1"></path><path clip-path="url(#clip340)" d="M146.366 1166.78 L151.251 1166.78 L151.251 1172.66 L146.366 1172.66 L146.366 1166.78 Z" fill="#000000" fill-rule="nonzero" fill-opacity="1"></path><path clip-path="url(#clip340)" d="M172.014 1153.52 Q168.866 1153.52 167.015 1155.67 Q165.186 1157.82 165.186 1161.57 Q165.186 1165.3 167.015 1167.47 Q168.866 1169.63 172.014 1169.63 Q175.163 1169.63 176.991 1167.47 Q178.843 1165.3 178.843 1161.57 Q178.843 1157.82 176.991 1155.67 Q175.163 1153.52 172.014 1153.52 M181.297 1138.86 L181.297 1143.12 Q179.538 1142.29 177.732 1141.85 Q175.95 1141.41 174.19 1141.41 Q169.561 1141.41 167.107 1144.53 Q164.677 1147.66 164.329 1153.98 Q165.695 1151.96 167.755 1150.9 Q169.815 1149.81 172.292 1149.81 Q177.501 1149.81 180.51 1152.98 Q183.542 1156.13 183.542 1161.57 Q183.542 1166.9 180.394 1170.11 Q177.246 1173.33 172.014 1173.33 Q166.019 1173.33 162.848 1168.75 Q159.677 1164.14 159.677 1155.41 Q159.677 1147.22 163.565 1142.36 Q167.454 1137.47 174.005 1137.47 Q175.764 1137.47 177.547 1137.82 Q179.352 1138.17 181.297 1138.86 Z" fill="#000000" fill-rule="nonzero" fill-opacity="1"></path><path clip-path="url(#clip340)" d="M201.598 1141.18 Q197.987 1141.18 196.158 1144.74 Q194.352 1148.28 194.352 1155.41 Q194.352 1162.52 196.158 1166.08 Q197.987 1169.63 201.598 1169.63 Q205.232 1169.63 207.037 1166.08 Q208.866 1162.52 208.866 1155.41 Q208.866 1148.28 207.037 1144.74 Q205.232 1141.18 201.598 1141.18 M201.598 1137.47 Q207.408 1137.47 210.463 1142.08 Q213.542 1146.66 213.542 1155.41 Q213.542 1164.14 210.463 1168.75 Q207.408 1173.33 201.598 1173.33 Q195.787 1173.33 192.709 1168.75 Q189.653 1164.14 189.653 1155.41 Q189.653 1146.66 192.709 1142.08 Q195.787 1137.47 201.598 1137.47 Z" fill="#000000" fill-rule="nonzero" fill-opacity="1"></path><path clip-path="url(#clip340)" d="M127.2 937.288 Q123.589 937.288 121.76 940.853 Q119.955 944.395 119.955 951.524 Q119.955 958.631 121.76 962.196 Q123.589 965.737 127.2 965.737 Q130.834 965.737 132.64 962.196 Q134.468 958.631 134.468 951.524 Q134.468 944.395 132.64 940.853 Q130.834 937.288 127.2 937.288 M127.2 933.585 Q133.01 933.585 136.066 938.191 Q139.144 942.774 139.144 951.524 Q139.144 960.251 136.066 964.858 Q133.01 969.441 127.2 969.441 Q121.39 969.441 118.311 964.858 Q115.256 960.251 115.256 951.524 Q115.256 942.774 118.311 938.191 Q121.39 933.585 127.2 933.585 Z" fill="#000000" fill-rule="nonzero" fill-opacity="1"></path><path clip-path="url(#clip340)" d="M147.362 962.89 L152.246 962.89 L152.246 968.77 L147.362 968.77 L147.362 962.89 Z" fill="#000000" fill-rule="nonzero" fill-opacity="1"></path><path clip-path="url(#clip340)" d="M173.01 949.626 Q169.862 949.626 168.01 951.779 Q166.181 953.932 166.181 957.682 Q166.181 961.408 168.01 963.584 Q169.862 965.737 173.01 965.737 Q176.158 965.737 177.987 963.584 Q179.839 961.408 179.839 957.682 Q179.839 953.932 177.987 951.779 Q176.158 949.626 173.01 949.626 M182.292 934.973 L182.292 939.233 Q180.533 938.399 178.727 937.96 Q176.945 937.52 175.186 937.52 Q170.556 937.52 168.102 940.645 Q165.672 943.77 165.325 950.089 Q166.69 948.075 168.751 947.01 Q170.811 945.922 173.288 945.922 Q178.496 945.922 181.505 949.094 Q184.538 952.242 184.538 957.682 Q184.538 963.006 181.389 966.223 Q178.241 969.441 173.01 969.441 Q167.015 969.441 163.843 964.858 Q160.672 960.251 160.672 951.524 Q160.672 943.33 164.561 938.469 Q168.45 933.585 175.001 933.585 Q176.76 933.585 178.542 933.932 Q180.348 934.279 182.292 934.973 Z" fill="#000000" fill-rule="nonzero" fill-opacity="1"></path><path clip-path="url(#clip340)" d="M192.639 934.21 L210.996 934.21 L210.996 938.145 L196.922 938.145 L196.922 946.617 Q197.94 946.27 198.959 946.108 Q199.977 945.922 200.996 945.922 Q206.783 945.922 210.162 949.094 Q213.542 952.265 213.542 957.682 Q213.542 963.26 210.07 966.362 Q206.598 969.441 200.278 969.441 Q198.102 969.441 195.834 969.07 Q193.588 968.7 191.181 967.959 L191.181 963.26 Q193.264 964.395 195.487 964.95 Q197.709 965.506 200.186 965.506 Q204.19 965.506 206.528 963.399 Q208.866 961.293 208.866 957.682 Q208.866 954.071 206.528 951.964 Q204.19 949.858 200.186 949.858 Q198.311 949.858 196.436 950.274 Q194.584 950.691 192.639 951.571 L192.639 934.21 Z" fill="#000000" fill-rule="nonzero" fill-opacity="1"></path><path clip-path="url(#clip340)" d="M126.205 733.399 Q122.593 733.399 120.765 736.964 Q118.959 740.505 118.959 747.635 Q118.959 754.741 120.765 758.306 Q122.593 761.848 126.205 761.848 Q129.839 761.848 131.644 758.306 Q133.473 754.741 133.473 747.635 Q133.473 740.505 131.644 736.964 Q129.839 733.399 126.205 733.399 M126.205 729.695 Q132.015 729.695 135.07 734.302 Q138.149 738.885 138.149 747.635 Q138.149 756.362 135.07 760.968 Q132.015 765.551 126.205 765.551 Q120.394 765.551 117.316 760.968 Q114.26 756.362 114.26 747.635 Q114.26 738.885 117.316 734.302 Q120.394 729.695 126.205 729.695 Z" fill="#000000" fill-rule="nonzero" fill-opacity="1"></path><path clip-path="url(#clip340)" d="M146.366 759.001 L151.251 759.001 L151.251 764.88 L146.366 764.88 L146.366 759.001 Z" fill="#000000" fill-rule="nonzero" fill-opacity="1"></path><path clip-path="url(#clip340)" d="M160.255 730.32 L182.477 730.32 L182.477 732.311 L169.931 764.88 L165.047 764.88 L176.852 734.255 L160.255 734.255 L160.255 730.32 Z" fill="#000000" fill-rule="nonzero" fill-opacity="1"></path><path clip-path="url(#clip340)" d="M201.598 733.399 Q197.987 733.399 196.158 736.964 Q194.352 740.505 194.352 747.635 Q194.352 754.741 196.158 758.306 Q197.987 761.848 201.598 761.848 Q205.232 761.848 207.037 758.306 Q208.866 754.741 208.866 747.635 Q208.866 740.505 207.037 736.964 Q205.232 733.399 201.598 733.399 M201.598 729.695 Q207.408 729.695 210.463 734.302 Q213.542 738.885 213.542 747.635 Q213.542 756.362 210.463 760.968 Q207.408 765.551 201.598 765.551 Q195.787 765.551 192.709 760.968 Q189.653 756.362 189.653 747.635 Q189.653 738.885 192.709 734.302 Q195.787 729.695 201.598 729.695 Z" fill="#000000" fill-rule="nonzero" fill-opacity="1"></path><path clip-path="url(#clip340)" d="M127.2 529.509 Q123.589 529.509 121.76 533.074 Q119.955 536.616 119.955 543.745 Q119.955 550.852 121.76 554.417 Q123.589 557.958 127.2 557.958 Q130.834 557.958 132.64 554.417 Q134.468 550.852 134.468 543.745 Q134.468 536.616 132.64 533.074 Q130.834 529.509 127.2 529.509 M127.2 525.806 Q133.01 525.806 136.066 530.412 Q139.144 534.995 139.144 543.745 Q139.144 552.472 136.066 557.079 Q133.01 561.662 127.2 561.662 Q121.39 561.662 118.311 557.079 Q115.256 552.472 115.256 543.745 Q115.256 534.995 118.311 530.412 Q121.39 525.806 127.2 525.806 Z" fill="#000000" fill-rule="nonzero" fill-opacity="1"></path><path clip-path="url(#clip340)" d="M147.362 555.111 L152.246 555.111 L152.246 560.991 L147.362 560.991 L147.362 555.111 Z" fill="#000000" fill-rule="nonzero" fill-opacity="1"></path><path clip-path="url(#clip340)" d="M161.251 526.431 L183.473 526.431 L183.473 528.421 L170.927 560.991 L166.042 560.991 L177.848 530.366 L161.251 530.366 L161.251 526.431 Z" fill="#000000" fill-rule="nonzero" fill-opacity="1"></path><path clip-path="url(#clip340)" d="M192.639 526.431 L210.996 526.431 L210.996 530.366 L196.922 530.366 L196.922 538.838 Q197.94 538.491 198.959 538.329 Q199.977 538.144 200.996 538.144 Q206.783 538.144 210.162 541.315 Q213.542 544.486 213.542 549.903 Q213.542 555.481 210.07 558.583 Q206.598 561.662 200.278 561.662 Q198.102 561.662 195.834 561.292 Q193.588 560.921 191.181 560.181 L191.181 555.481 Q193.264 556.616 195.487 557.171 Q197.709 557.727 200.186 557.727 Q204.19 557.727 206.528 555.62 Q208.866 553.514 208.866 549.903 Q208.866 546.292 206.528 544.185 Q204.19 542.079 200.186 542.079 Q198.311 542.079 196.436 542.495 Q194.584 542.912 192.639 543.792 L192.639 526.431 Z" fill="#000000" fill-rule="nonzero" fill-opacity="1"></path><path clip-path="url(#clip340)" d="M126.205 325.62 Q122.593 325.62 120.765 329.185 Q118.959 332.726 118.959 339.856 Q118.959 346.962 120.765 350.527 Q122.593 354.069 126.205 354.069 Q129.839 354.069 131.644 350.527 Q133.473 346.962 133.473 339.856 Q133.473 332.726 131.644 329.185 Q129.839 325.62 126.205 325.62 M126.205 321.916 Q132.015 321.916 135.07 326.523 Q138.149 331.106 138.149 339.856 Q138.149 348.583 135.07 353.189 Q132.015 357.773 126.205 357.773 Q120.394 357.773 117.316 353.189 Q114.26 348.583 114.26 339.856 Q114.26 331.106 117.316 326.523 Q120.394 321.916 126.205 321.916 Z" fill="#000000" fill-rule="nonzero" fill-opacity="1"></path><path clip-path="url(#clip340)" d="M146.366 351.222 L151.251 351.222 L151.251 357.101 L146.366 357.101 L146.366 351.222 Z" fill="#000000" fill-rule="nonzero" fill-opacity="1"></path><path clip-path="url(#clip340)" d="M171.436 340.689 Q168.102 340.689 166.181 342.472 Q164.283 344.254 164.283 347.379 Q164.283 350.504 166.181 352.286 Q168.102 354.069 171.436 354.069 Q174.769 354.069 176.69 352.286 Q178.612 350.481 178.612 347.379 Q178.612 344.254 176.69 342.472 Q174.792 340.689 171.436 340.689 M166.76 338.699 Q163.751 337.958 162.061 335.898 Q160.394 333.837 160.394 330.875 Q160.394 326.731 163.334 324.324 Q166.297 321.916 171.436 321.916 Q176.598 321.916 179.538 324.324 Q182.477 326.731 182.477 330.875 Q182.477 333.837 180.788 335.898 Q179.121 337.958 176.135 338.699 Q179.514 339.486 181.389 341.777 Q183.288 344.069 183.288 347.379 Q183.288 352.402 180.209 355.087 Q177.153 357.773 171.436 357.773 Q165.718 357.773 162.64 355.087 Q159.584 352.402 159.584 347.379 Q159.584 344.069 161.482 341.777 Q163.38 339.486 166.76 338.699 M165.047 331.314 Q165.047 334 166.714 335.504 Q168.403 337.009 171.436 337.009 Q174.445 337.009 176.135 335.504 Q177.848 334 177.848 331.314 Q177.848 328.629 176.135 327.125 Q174.445 325.62 171.436 325.62 Q168.403 325.62 166.714 327.125 Q165.047 328.629 165.047 331.314 Z" fill="#000000" fill-rule="nonzero" fill-opacity="1"></path><path clip-path="url(#clip340)" d="M201.598 325.62 Q197.987 325.62 196.158 329.185 Q194.352 332.726 194.352 339.856 Q194.352 346.962 196.158 350.527 Q197.987 354.069 201.598 354.069 Q205.232 354.069 207.037 350.527 Q208.866 346.962 208.866 339.856 Q208.866 332.726 207.037 329.185 Q205.232 325.62 201.598 325.62 M201.598 321.916 Q207.408 321.916 210.463 326.523 Q213.542 331.106 213.542 339.856 Q213.542 348.583 210.463 353.189 Q207.408 357.773 201.598 357.773 Q195.787 357.773 192.709 353.189 Q189.653 348.583 189.653 339.856 Q189.653 331.106 192.709 326.523 Q195.787 321.916 201.598 321.916 Z" fill="#000000" fill-rule="nonzero" fill-opacity="1"></path><path clip-path="url(#clip340)" d="M42.4881 1062.89 L77.5631 1062.89 L77.5631 1068.75 L42.679 1068.75 Q37.6183 1068.75 35.1038 1070.72 Q32.5894 1072.69 32.5894 1076.64 Q32.5894 1081.38 35.6131 1084.12 Q38.6368 1086.86 43.8567 1086.86 L64.0042 1086.86 L64.0042 1092.74 L28.3562 1092.74 L28.3562 1086.86 L33.8944 1086.86 Q30.6797 1084.76 29.0883 1081.92 Q27.4968 1079.06 27.4968 1075.33 Q27.4968 1069.19 31.2844 1066.04 Q35.1038 1062.89 42.4881 1062.89 Z" fill="#000000" fill-rule="nonzero" fill-opacity="1"></path><path clip-path="url(#clip340)" d="M34.4036 1029.72 L34.4036 988.919 L39.7508 988.919 L39.7508 1029.72 L34.4036 1029.72 M47.3897 1029.72 L47.3897 988.919 L52.8005 988.919 L52.8005 1029.72 L47.3897 1029.72 Z" fill="#000000" fill-rule="nonzero" fill-opacity="1"></path><path clip-path="url(#clip340)" d="M16.4842 954.895 L16.4842 948.465 L35.9632 948.465 L35.9632 925.103 L16.4842 925.103 L16.4842 918.674 L64.0042 918.674 L64.0042 925.103 L41.3741 925.103 L41.3741 948.465 L64.0042 948.465 L64.0042 954.895 L16.4842 954.895 Z" fill="#000000" fill-rule="nonzero" fill-opacity="1"></path><path clip-path="url(#clip340)" d="M74.8259 879.047 L79.3773 879.047 L79.3773 912.913 L74.8259 912.913 L74.8259 879.047 Z" fill="#000000" fill-rule="nonzero" fill-opacity="1"></path><path clip-path="url(#clip340)" d="M33.7671 850.083 L14.479 850.083 L14.479 844.227 L64.0042 844.227 L64.0042 850.083 L58.657 850.083 Q61.8398 851.929 63.3994 854.762 Q64.9272 857.563 64.9272 861.51 Q64.9272 867.971 59.771 872.045 Q54.6147 876.087 46.212 876.087 Q37.8093 876.087 32.6531 872.045 Q27.4968 867.971 27.4968 861.51 Q27.4968 857.563 29.0564 854.762 Q30.5842 851.929 33.7671 850.083 M46.212 870.04 Q52.6732 870.04 56.3653 867.398 Q60.0256 864.725 60.0256 860.078 Q60.0256 855.431 56.3653 852.757 Q52.6732 850.083 46.212 850.083 Q39.7508 850.083 36.0905 852.757 Q32.3984 855.431 32.3984 860.078 Q32.3984 864.725 36.0905 867.398 Q39.7508 870.04 46.212 870.04 Z" fill="#000000" fill-rule="nonzero" fill-opacity="1"></path><path clip-path="url(#clip340)" d="M28.3562 832.164 L28.3562 826.307 L64.0042 826.307 L64.0042 832.164 L28.3562 832.164 M14.479 832.164 L14.479 826.307 L21.895 826.307 L21.895 832.164 L14.479 832.164 Z" fill="#000000" fill-rule="nonzero" fill-opacity="1"></path><path clip-path="url(#clip340)" d="M29.4065 791.328 L34.9447 791.328 Q33.6716 793.811 33.035 796.484 Q32.3984 799.158 32.3984 802.022 Q32.3984 806.383 33.7352 808.579 Q35.072 810.743 37.7456 810.743 Q39.7826 810.743 40.9603 809.184 Q42.1061 807.624 43.1565 802.913 L43.6021 800.908 Q44.9389 794.67 47.3897 792.06 Q49.8086 789.418 54.1691 789.418 Q59.1344 789.418 62.0308 793.365 Q64.9272 797.28 64.9272 804.155 Q64.9272 807.019 64.3543 810.139 Q63.8132 813.226 62.6992 816.663 L56.6518 816.663 Q58.3387 813.417 59.198 810.266 Q60.0256 807.115 60.0256 804.027 Q60.0256 799.89 58.6251 797.662 Q57.1929 795.434 54.6147 795.434 Q52.2276 795.434 50.9545 797.057 Q49.6813 798.648 48.5037 804.091 L48.0262 806.128 Q46.8804 811.571 44.5251 813.99 Q42.138 816.409 38.0002 816.409 Q32.9713 816.409 30.2341 812.844 Q27.4968 809.279 27.4968 802.723 Q27.4968 799.476 27.9743 796.611 Q28.4517 793.747 29.4065 791.328 Z" fill="#000000" fill-rule="nonzero" fill-opacity="1"></path><path clip-path="url(#clip340)" d="M18.2347 774.3 L28.3562 774.3 L28.3562 762.237 L32.9077 762.237 L32.9077 774.3 L52.2594 774.3 Q56.6199 774.3 57.8613 773.122 Q59.1026 771.913 59.1026 768.252 L59.1026 762.237 L64.0042 762.237 L64.0042 768.252 Q64.0042 775.032 61.4897 777.61 Q58.9434 780.188 52.2594 780.188 L32.9077 780.188 L32.9077 784.485 L28.3562 784.485 L28.3562 780.188 L18.2347 780.188 L18.2347 774.3 Z" fill="#000000" fill-rule="nonzero" fill-opacity="1"></path><path clip-path="url(#clip340)" d="M16.4842 723.406 L16.4842 717.995 L70.0516 734.546 L70.0516 739.957 L16.4842 723.406 Z" fill="#000000" fill-rule="nonzero" fill-opacity="1"></path><path clip-path="url(#clip340)" d="M16.4842 690.877 L16.4842 684.448 L58.5933 684.448 L58.5933 661.308 L64.0042 661.308 L64.0042 690.877 L16.4842 690.877 Z" fill="#000000" fill-rule="nonzero" fill-opacity="1"></path><path clip-path="url(#clip340)" d="M74.8259 627.729 L79.3773 627.729 L79.3773 661.595 L74.8259 661.595 L74.8259 627.729 Z" fill="#000000" fill-rule="nonzero" fill-opacity="1"></path><path clip-path="url(#clip340)" d="M46.0847 606.022 Q46.0847 613.12 47.7079 615.857 Q49.3312 618.594 53.2461 618.594 Q56.3653 618.594 58.2114 616.557 Q60.0256 614.489 60.0256 610.956 Q60.0256 606.086 56.5881 603.158 Q53.1188 600.198 47.3897 600.198 L46.0847 600.198 L46.0847 606.022 M43.6657 594.341 L64.0042 594.341 L64.0042 600.198 L58.5933 600.198 Q61.8398 602.203 63.3994 605.195 Q64.9272 608.187 64.9272 612.515 Q64.9272 617.99 61.8716 621.236 Q58.7843 624.451 53.6281 624.451 Q47.6125 624.451 44.5569 620.441 Q41.5014 616.398 41.5014 608.409 L41.5014 600.198 L40.9285 600.198 Q36.8862 600.198 34.6901 602.871 Q32.4621 605.513 32.4621 610.319 Q32.4621 613.375 33.1941 616.271 Q33.9262 619.167 35.3903 621.841 L29.9795 621.841 Q28.7381 618.626 28.1334 615.603 Q27.4968 612.579 27.4968 609.714 Q27.4968 601.98 31.5072 598.161 Q35.5176 594.341 43.6657 594.341 Z" fill="#000000" fill-rule="nonzero" fill-opacity="1"></path><path clip-path="url(#clip340)" d="M28.3562 586.479 L28.3562 580.273 L58.275 569.133 L28.3562 557.993 L28.3562 551.786 L64.0042 565.154 L64.0042 573.111 L28.3562 586.479 Z" fill="#000000" fill-rule="nonzero" fill-opacity="1"></path><path clip-path="url(#clip340)" d="M45.7664 520.244 Q39.4007 520.244 35.8996 522.886 Q32.3984 525.496 32.3984 530.238 Q32.3984 534.949 35.8996 537.591 Q39.4007 540.201 45.7664 540.201 Q52.1003 540.201 55.6014 537.591 Q59.1026 534.949 59.1026 530.238 Q59.1026 525.496 55.6014 522.886 Q52.1003 520.244 45.7664 520.244 M59.58 514.388 Q68.683 514.388 73.1071 518.43 Q77.5631 522.472 77.5631 530.811 Q77.5631 533.899 77.0857 536.636 Q76.6401 539.373 75.6852 541.951 L69.9879 541.951 Q71.3884 539.373 72.0568 536.859 Q72.7252 534.344 72.7252 531.734 Q72.7252 525.973 69.7015 523.109 Q66.7096 520.244 60.6303 520.244 L57.7339 520.244 Q60.885 522.059 62.4446 524.891 Q64.0042 527.724 64.0042 531.671 Q64.0042 538.227 59.0071 542.238 Q54.01 546.248 45.7664 546.248 Q37.491 546.248 32.4939 542.238 Q27.4968 538.227 27.4968 531.671 Q27.4968 527.724 29.0564 524.891 Q30.616 522.059 33.7671 520.244 L28.3562 520.244 L28.3562 514.388 L59.58 514.388 Z" fill="#000000" fill-rule="nonzero" fill-opacity="1"></path><path clip-path="url(#clip340)" d="M438.955 33.264 L477.195 33.264 L477.195 40.1505 L447.137 40.1505 L447.137 58.0555 L475.939 58.0555 L475.939 64.9421 L447.137 64.9421 L447.137 86.8575 L477.924 86.8575 L477.924 93.744 L438.955 93.744 L438.955 33.264 Z" fill="#000000" fill-rule="nonzero" fill-opacity="1"></path><path clip-path="url(#clip340)" d="M514.018 30.7119 L514.018 36.9098 L506.888 36.9098 Q502.878 36.9098 501.298 38.5302 Q499.759 40.1505 499.759 44.3635 L499.759 48.3739 L512.033 48.3739 L512.033 54.1667 L499.759 54.1667 L499.759 93.744 L492.264 93.744 L492.264 54.1667 L485.135 54.1667 L485.135 48.3739 L492.264 48.3739 L492.264 45.2142 Q492.264 37.639 495.789 34.1957 Q499.313 30.7119 506.969 30.7119 L514.018 30.7119 Z" fill="#000000" fill-rule="nonzero" fill-opacity="1"></path><path clip-path="url(#clip340)" d="M543.225 30.7119 L543.225 36.9098 L536.095 36.9098 Q532.085 36.9098 530.505 38.5302 Q528.966 40.1505 528.966 44.3635 L528.966 48.3739 L541.24 48.3739 L541.24 54.1667 L528.966 54.1667 L528.966 93.744 L521.471 93.744 L521.471 54.1667 L514.342 54.1667 L514.342 48.3739 L521.471 48.3739 L521.471 45.2142 Q521.471 37.639 524.996 34.1957 Q528.52 30.7119 536.176 30.7119 L543.225 30.7119 Z" fill="#000000" fill-rule="nonzero" fill-opacity="1"></path><path clip-path="url(#clip340)" d="M549.463 48.3739 L556.917 48.3739 L556.917 93.744 L549.463 93.744 L549.463 48.3739 M549.463 30.7119 L556.917 30.7119 L556.917 40.1505 L549.463 40.1505 L549.463 30.7119 Z" fill="#000000" fill-rule="nonzero" fill-opacity="1"></path><path clip-path="url(#clip340)" d="M605.163 50.1158 L605.163 57.0833 Q602.003 55.3414 598.803 54.4907 Q595.643 53.5995 592.403 53.5995 Q585.152 53.5995 581.141 58.2176 Q577.131 62.7951 577.131 71.0994 Q577.131 79.4038 581.141 84.0218 Q585.152 88.5994 592.403 88.5994 Q595.643 88.5994 598.803 87.7487 Q602.003 86.8575 605.163 85.1156 L605.163 92.0021 Q602.044 93.4604 598.682 94.1896 Q595.36 94.9188 591.593 94.9188 Q581.344 94.9188 575.308 88.4778 Q569.272 82.0369 569.272 71.0994 Q569.272 60 575.348 53.64 Q581.465 47.2801 592.079 47.2801 Q595.522 47.2801 598.803 48.0093 Q602.084 48.6979 605.163 50.1158 Z" fill="#000000" fill-rule="nonzero" fill-opacity="1"></path><path clip-path="url(#clip340)" d="M618.126 48.3739 L625.58 48.3739 L625.58 93.744 L618.126 93.744 L618.126 48.3739 M618.126 30.7119 L625.58 30.7119 L625.58 40.1505 L618.126 40.1505 L618.126 30.7119 Z" fill="#000000" fill-rule="nonzero" fill-opacity="1"></path><path clip-path="url(#clip340)" d="M679.983 69.1955 L679.983 72.8413 L645.713 72.8413 Q646.199 80.5381 650.331 84.589 Q654.503 88.5994 661.916 88.5994 Q666.21 88.5994 670.221 87.5461 Q674.272 86.4929 678.241 84.3864 L678.241 91.435 Q674.231 93.1364 670.018 94.0276 Q665.805 94.9188 661.471 94.9188 Q650.614 94.9188 644.254 88.5994 Q637.935 82.2799 637.935 71.5045 Q637.935 60.3645 643.93 53.8426 Q649.966 47.2801 660.174 47.2801 Q669.329 47.2801 674.636 53.1944 Q679.983 59.0683 679.983 69.1955 M672.53 67.008 Q672.449 60.8912 669.086 57.2454 Q665.765 53.5995 660.255 53.5995 Q654.017 53.5995 650.25 57.1238 Q646.523 60.6481 645.956 67.0485 L672.53 67.008 Z" fill="#000000" fill-rule="nonzero" fill-opacity="1"></path><path clip-path="url(#clip340)" d="M729.931 66.3599 L729.931 93.744 L722.477 93.744 L722.477 66.6029 Q722.477 60.162 719.966 56.9618 Q717.454 53.7616 712.431 53.7616 Q706.395 53.7616 702.911 57.6099 Q699.428 61.4583 699.428 68.1018 L699.428 93.744 L691.933 93.744 L691.933 48.3739 L699.428 48.3739 L699.428 55.4224 Q702.101 51.331 705.707 49.3056 Q709.352 47.2801 714.092 47.2801 Q721.91 47.2801 725.921 52.1412 Q729.931 56.9618 729.931 66.3599 Z" fill="#000000" fill-rule="nonzero" fill-opacity="1"></path><path clip-path="url(#clip340)" d="M763.675 97.9569 Q760.515 106.059 757.518 108.53 Q754.52 111.001 749.497 111.001 L743.542 111.001 L743.542 104.762 L747.917 104.762 Q750.996 104.762 752.697 103.304 Q754.398 101.846 756.464 96.4176 L757.801 93.0148 L739.451 48.3739 L747.35 48.3739 L761.528 83.8598 L775.706 48.3739 L783.605 48.3739 L763.675 97.9569 Z" fill="#000000" fill-rule="nonzero" fill-opacity="1"></path><path clip-path="url(#clip340)" d="M837.847 53.5995 Q831.852 53.5995 828.368 58.2986 Q824.884 62.9571 824.884 71.0994 Q824.884 79.2418 828.327 83.9408 Q831.811 88.5994 837.847 88.5994 Q843.802 88.5994 847.286 83.9003 Q850.769 79.2013 850.769 71.0994 Q850.769 63.0381 847.286 58.3391 Q843.802 53.5995 837.847 53.5995 M837.847 47.2801 Q847.569 47.2801 853.119 53.5995 Q858.669 59.9189 858.669 71.0994 Q858.669 82.2394 853.119 88.5994 Q847.569 94.9188 837.847 94.9188 Q828.084 94.9188 822.535 88.5994 Q817.025 82.2394 817.025 71.0994 Q817.025 59.9189 822.535 53.5995 Q828.084 47.2801 837.847 47.2801 Z" fill="#000000" fill-rule="nonzero" fill-opacity="1"></path><path clip-path="url(#clip340)" d="M893.993 30.7119 L893.993 36.9098 L886.863 36.9098 Q882.853 36.9098 881.273 38.5302 Q879.733 40.1505 879.733 44.3635 L879.733 48.3739 L892.008 48.3739 L892.008 54.1667 L879.733 54.1667 L879.733 93.744 L872.239 93.744 L872.239 54.1667 L865.11 54.1667 L865.11 48.3739 L872.239 48.3739 L872.239 45.2142 Q872.239 37.639 875.764 34.1957 Q879.288 30.7119 886.944 30.7119 L893.993 30.7119 Z" fill="#000000" fill-rule="nonzero" fill-opacity="1"></path><path clip-path="url(#clip340)" d="M963.182 35.2489 L963.182 43.2292 Q958.523 41.0012 954.392 39.9075 Q950.26 38.8137 946.411 38.8137 Q939.727 38.8137 936.081 41.4063 Q932.476 43.9989 932.476 48.779 Q932.476 52.7894 934.866 54.8553 Q937.297 56.8808 944.021 58.1366 L948.963 59.1493 Q958.118 60.8912 962.453 65.3067 Q966.828 69.6816 966.828 77.0543 Q966.828 85.8447 960.914 90.3817 Q955.04 94.9188 943.657 94.9188 Q939.363 94.9188 934.502 93.9465 Q929.681 92.9743 924.496 91.0704 L924.496 82.6445 Q929.479 85.4396 934.259 86.8575 Q939.039 88.2753 943.657 88.2753 Q950.665 88.2753 954.473 85.5207 Q958.28 82.766 958.28 77.6619 Q958.28 73.2059 955.526 70.6944 Q952.812 68.1828 946.573 66.927 L941.591 65.9548 Q932.436 64.1319 928.344 60.243 Q924.253 56.3542 924.253 49.4271 Q924.253 41.4063 929.884 36.7883 Q935.555 32.1703 945.48 32.1703 Q949.733 32.1703 954.149 32.9399 Q958.564 33.7096 963.182 35.2489 Z" fill="#000000" fill-rule="nonzero" fill-opacity="1"></path><path clip-path="url(#clip340)" d="M979.588 33.264 L1014.34 33.264 L1014.34 40.1505 L987.771 40.1505 L987.771 57.9745 L1011.75 57.9745 L1011.75 64.8611 L987.771 64.8611 L987.771 93.744 L979.588 93.744 L979.588 33.264 Z" fill="#000000" fill-rule="nonzero" fill-opacity="1"></path><path clip-path="url(#clip340)" d="M1027.31 33.264 L1065.55 33.264 L1065.55 40.1505 L1035.49 40.1505 L1035.49 58.0555 L1064.29 58.0555 L1064.29 64.9421 L1035.49 64.9421 L1035.49 86.8575 L1066.28 86.8575 L1066.28 93.744 L1027.31 93.744 L1027.31 33.264 Z" fill="#000000" fill-rule="nonzero" fill-opacity="1"></path><path clip-path="url(#clip340)" d="M1144.58 69.1955 L1144.58 72.8413 L1110.31 72.8413 Q1110.8 80.5381 1114.93 84.589 Q1119.1 88.5994 1126.51 88.5994 Q1130.81 88.5994 1134.82 87.5461 Q1138.87 86.4929 1142.84 84.3864 L1142.84 91.435 Q1138.83 93.1364 1134.62 94.0276 Q1130.4 94.9188 1126.07 94.9188 Q1115.21 94.9188 1108.85 88.5994 Q1102.53 82.2799 1102.53 71.5045 Q1102.53 60.3645 1108.53 53.8426 Q1114.56 47.2801 1124.77 47.2801 Q1133.93 47.2801 1139.23 53.1944 Q1144.58 59.0683 1144.58 69.1955 M1137.13 67.008 Q1137.05 60.8912 1133.68 57.2454 Q1130.36 53.5995 1124.85 53.5995 Q1118.62 53.5995 1114.85 57.1238 Q1111.12 60.6481 1110.55 67.0485 L1137.13 67.008 Z" fill="#000000" fill-rule="nonzero" fill-opacity="1"></path><path clip-path="url(#clip340)" d="M1194.53 66.3599 L1194.53 93.744 L1187.08 93.744 L1187.08 66.6029 Q1187.08 60.162 1184.56 56.9618 Q1182.05 53.7616 1177.03 53.7616 Q1170.99 53.7616 1167.51 57.6099 Q1164.03 61.4583 1164.03 68.1018 L1164.03 93.744 L1156.53 93.744 L1156.53 48.3739 L1164.03 48.3739 L1164.03 55.4224 Q1166.7 51.331 1170.3 49.3056 Q1173.95 47.2801 1178.69 47.2801 Q1186.51 47.2801 1190.52 52.1412 Q1194.53 56.9618 1194.53 66.3599 Z" fill="#000000" fill-rule="nonzero" fill-opacity="1"></path><path clip-path="url(#clip340)" d="M1242.05 50.1158 L1242.05 57.0833 Q1238.89 55.3414 1235.69 54.4907 Q1232.53 53.5995 1229.29 53.5995 Q1222.03 53.5995 1218.02 58.2176 Q1214.01 62.7951 1214.01 71.0994 Q1214.01 79.4038 1218.02 84.0218 Q1222.03 88.5994 1229.29 88.5994 Q1232.53 88.5994 1235.69 87.7487 Q1238.89 86.8575 1242.05 85.1156 L1242.05 92.0021 Q1238.93 93.4604 1235.56 94.1896 Q1232.24 94.9188 1228.48 94.9188 Q1218.23 94.9188 1212.19 88.4778 Q1206.16 82.0369 1206.16 71.0994 Q1206.16 60 1212.23 53.64 Q1218.35 47.2801 1228.96 47.2801 Q1232.41 47.2801 1235.69 48.0093 Q1238.97 48.6979 1242.05 50.1158 Z" fill="#000000" fill-rule="nonzero" fill-opacity="1"></path><path clip-path="url(#clip340)" d="M1272.59 53.5995 Q1266.59 53.5995 1263.11 58.2986 Q1259.63 62.9571 1259.63 71.0994 Q1259.63 79.2418 1263.07 83.9408 Q1266.55 88.5994 1272.59 88.5994 Q1278.54 88.5994 1282.03 83.9003 Q1285.51 79.2013 1285.51 71.0994 Q1285.51 63.0381 1282.03 58.3391 Q1278.54 53.5995 1272.59 53.5995 M1272.59 47.2801 Q1282.31 47.2801 1287.86 53.5995 Q1293.41 59.9189 1293.41 71.0994 Q1293.41 82.2394 1287.86 88.5994 Q1282.31 94.9188 1272.59 94.9188 Q1262.83 94.9188 1257.28 88.5994 Q1251.77 82.2394 1251.77 71.0994 Q1251.77 59.9189 1257.28 53.5995 Q1262.83 47.2801 1272.59 47.2801 Z" fill="#000000" fill-rule="nonzero" fill-opacity="1"></path><path clip-path="url(#clip340)" d="M1335.62 55.2604 L1335.62 30.7119 L1343.08 30.7119 L1343.08 93.744 L1335.62 93.744 L1335.62 86.9385 Q1333.27 90.9894 1329.67 92.9743 Q1326.1 94.9188 1321.08 94.9188 Q1312.86 94.9188 1307.67 88.3563 Q1302.53 81.7938 1302.53 71.0994 Q1302.53 60.4051 1307.67 53.8426 Q1312.86 47.2801 1321.08 47.2801 Q1326.1 47.2801 1329.67 49.2651 Q1333.27 51.2095 1335.62 55.2604 M1310.22 71.0994 Q1310.22 79.3228 1313.59 84.0218 Q1316.99 88.6804 1322.9 88.6804 Q1328.82 88.6804 1332.22 84.0218 Q1335.62 79.3228 1335.62 71.0994 Q1335.62 62.8761 1332.22 58.2176 Q1328.82 53.5185 1322.9 53.5185 Q1316.99 53.5185 1313.59 58.2176 Q1310.22 62.8761 1310.22 71.0994 Z" fill="#000000" fill-rule="nonzero" fill-opacity="1"></path><path clip-path="url(#clip340)" d="M1358.43 48.3739 L1365.88 48.3739 L1365.88 93.744 L1358.43 93.744 L1358.43 48.3739 M1358.43 30.7119 L1365.88 30.7119 L1365.88 40.1505 L1358.43 40.1505 L1358.43 30.7119 Z" fill="#000000" fill-rule="nonzero" fill-opacity="1"></path><path clip-path="url(#clip340)" d="M1419.19 66.3599 L1419.19 93.744 L1411.74 93.744 L1411.74 66.6029 Q1411.74 60.162 1409.23 56.9618 Q1406.72 53.7616 1401.69 53.7616 Q1395.66 53.7616 1392.17 57.6099 Q1388.69 61.4583 1388.69 68.1018 L1388.69 93.744 L1381.19 93.744 L1381.19 48.3739 L1388.69 48.3739 L1388.69 55.4224 Q1391.36 51.331 1394.97 49.3056 Q1398.61 47.2801 1403.35 47.2801 Q1411.17 47.2801 1415.18 52.1412 Q1419.19 56.9618 1419.19 66.3599 Z" fill="#000000" fill-rule="nonzero" fill-opacity="1"></path><path clip-path="url(#clip340)" d="M1463.91 70.5323 Q1463.91 62.4305 1460.55 57.9745 Q1457.23 53.5185 1451.19 53.5185 Q1445.2 53.5185 1441.84 57.9745 Q1438.52 62.4305 1438.52 70.5323 Q1438.52 78.5936 1441.84 83.0496 Q1445.2 87.5056 1451.19 87.5056 Q1457.23 87.5056 1460.55 83.0496 Q1463.91 78.5936 1463.91 70.5323 M1471.37 88.1132 Q1471.37 99.6988 1466.22 105.33 Q1461.08 111.001 1450.47 111.001 Q1446.54 111.001 1443.05 110.393 Q1439.57 109.826 1436.29 108.611 L1436.29 101.36 Q1439.57 103.142 1442.77 103.993 Q1445.97 104.843 1449.29 104.843 Q1456.62 104.843 1460.27 100.995 Q1463.91 97.1873 1463.91 89.45 L1463.91 85.7637 Q1461.61 89.7741 1458 91.7591 Q1454.39 93.744 1449.37 93.744 Q1441.03 93.744 1435.92 87.3841 Q1430.82 81.0242 1430.82 70.5323 Q1430.82 60 1435.92 53.64 Q1441.03 47.2801 1449.37 47.2801 Q1454.39 47.2801 1458 49.2651 Q1461.61 51.25 1463.91 55.2604 L1463.91 48.3739 L1471.37 48.3739 L1471.37 88.1132 Z" fill="#000000" fill-rule="nonzero" fill-opacity="1"></path><path clip-path="url(#clip340)" d="M1508.76 48.3739 L1516.21 48.3739 L1525.53 83.7788 L1534.81 48.3739 L1543.6 48.3739 L1552.91 83.7788 L1562.19 48.3739 L1569.64 48.3739 L1557.77 93.744 L1548.98 93.744 L1539.22 56.5567 L1529.42 93.744 L1520.63 93.744 L1508.76 48.3739 Z" fill="#000000" fill-rule="nonzero" fill-opacity="1"></path><path clip-path="url(#clip340)" d="M1580.94 48.3739 L1588.4 48.3739 L1588.4 93.744 L1580.94 93.744 L1580.94 48.3739 M1580.94 30.7119 L1588.4 30.7119 L1588.4 40.1505 L1580.94 40.1505 L1580.94 30.7119 Z" fill="#000000" fill-rule="nonzero" fill-opacity="1"></path><path clip-path="url(#clip340)" d="M1611.37 35.492 L1611.37 48.3739 L1626.72 48.3739 L1626.72 54.1667 L1611.37 54.1667 L1611.37 78.7962 Q1611.37 84.3459 1612.87 85.9258 Q1614.41 87.5056 1619.06 87.5056 L1626.72 87.5056 L1626.72 93.744 L1619.06 93.744 Q1610.44 93.744 1607.15 90.5438 Q1603.87 87.3031 1603.87 78.7962 L1603.87 54.1667 L1598.4 54.1667 L1598.4 48.3739 L1603.87 48.3739 L1603.87 35.492 L1611.37 35.492 Z" fill="#000000" fill-rule="nonzero" fill-opacity="1"></path><path clip-path="url(#clip340)" d="M1674.24 66.3599 L1674.24 93.744 L1666.78 93.744 L1666.78 66.6029 Q1666.78 60.162 1664.27 56.9618 Q1661.76 53.7616 1656.74 53.7616 Q1650.7 53.7616 1647.22 57.6099 Q1643.73 61.4583 1643.73 68.1018 L1643.73 93.744 L1636.24 93.744 L1636.24 30.7119 L1643.73 30.7119 L1643.73 55.4224 Q1646.41 51.331 1650.01 49.3056 Q1653.66 47.2801 1658.4 47.2801 Q1666.22 47.2801 1670.23 52.1412 Q1674.24 56.9618 1674.24 66.3599 Z" fill="#000000" fill-rule="nonzero" fill-opacity="1"></path><path clip-path="url(#clip340)" d="M1741.77 55.3414 Q1740.51 54.6123 1739.01 54.2882 Q1737.55 53.9236 1735.77 53.9236 Q1729.45 53.9236 1726.05 58.0555 Q1722.69 62.1469 1722.69 69.8437 L1722.69 93.744 L1715.19 93.744 L1715.19 48.3739 L1722.69 48.3739 L1722.69 55.4224 Q1725.04 51.2905 1728.8 49.3056 Q1732.57 47.2801 1737.96 47.2801 Q1738.73 47.2801 1739.66 47.4017 Q1740.59 47.4827 1741.73 47.6852 L1741.77 55.3414 Z" fill="#000000" fill-rule="nonzero" fill-opacity="1"></path><path clip-path="url(#clip340)" d="M1786.57 69.1955 L1786.57 72.8413 L1752.3 72.8413 Q1752.78 80.5381 1756.92 84.589 Q1761.09 88.5994 1768.5 88.5994 Q1772.8 88.5994 1776.81 87.5461 Q1780.86 86.4929 1784.83 84.3864 L1784.83 91.435 Q1780.82 93.1364 1776.6 94.0276 Q1772.39 94.9188 1768.06 94.9188 Q1757.2 94.9188 1750.84 88.5994 Q1744.52 82.2799 1744.52 71.5045 Q1744.52 60.3645 1750.52 53.8426 Q1756.55 47.2801 1766.76 47.2801 Q1775.91 47.2801 1781.22 53.1944 Q1786.57 59.0683 1786.57 69.1955 M1779.12 67.008 Q1779.03 60.8912 1775.67 57.2454 Q1772.35 53.5995 1766.84 53.5995 Q1760.6 53.5995 1756.84 57.1238 Q1753.11 60.6481 1752.54 67.0485 L1779.12 67.008 Z" fill="#000000" fill-rule="nonzero" fill-opacity="1"></path><path clip-path="url(#clip340)" d="M1806.01 86.9385 L1806.01 111.001 L1798.52 111.001 L1798.52 48.3739 L1806.01 48.3739 L1806.01 55.2604 Q1808.36 51.2095 1811.93 49.2651 Q1815.53 47.2801 1820.52 47.2801 Q1828.78 47.2801 1833.92 53.8426 Q1839.11 60.4051 1839.11 71.0994 Q1839.11 81.7938 1833.92 88.3563 Q1828.78 94.9188 1820.52 94.9188 Q1815.53 94.9188 1811.93 92.9743 Q1808.36 90.9894 1806.01 86.9385 M1831.37 71.0994 Q1831.37 62.8761 1827.97 58.2176 Q1824.61 53.5185 1818.69 53.5185 Q1812.78 53.5185 1809.38 58.2176 Q1806.01 62.8761 1806.01 71.0994 Q1806.01 79.3228 1809.38 84.0218 Q1812.78 88.6804 1818.69 88.6804 Q1824.61 88.6804 1827.97 84.0218 Q1831.37 79.3228 1831.37 71.0994 Z" fill="#000000" fill-rule="nonzero" fill-opacity="1"></path><path clip-path="url(#clip340)" d="M1890.27 69.1955 L1890.27 72.8413 L1856 72.8413 Q1856.49 80.5381 1860.62 84.589 Q1864.79 88.5994 1872.2 88.5994 Q1876.5 88.5994 1880.51 87.5461 Q1884.56 86.4929 1888.53 84.3864 L1888.53 91.435 Q1884.52 93.1364 1880.31 94.0276 Q1876.09 94.9188 1871.76 94.9188 Q1860.9 94.9188 1854.54 88.5994 Q1848.22 82.2799 1848.22 71.5045 Q1848.22 60.3645 1854.22 53.8426 Q1860.25 47.2801 1870.46 47.2801 Q1879.62 47.2801 1884.92 53.1944 Q1890.27 59.0683 1890.27 69.1955 M1882.82 67.008 Q1882.74 60.8912 1879.38 57.2454 Q1876.05 53.5995 1870.54 53.5995 Q1864.31 53.5995 1860.54 57.1238 Q1856.81 60.6481 1856.24 67.0485 L1882.82 67.008 Z" fill="#000000" fill-rule="nonzero" fill-opacity="1"></path><path clip-path="url(#clip340)" d="M1909.88 35.492 L1909.88 48.3739 L1925.23 48.3739 L1925.23 54.1667 L1909.88 54.1667 L1909.88 78.7962 Q1909.88 84.3459 1911.38 85.9258 Q1912.92 87.5056 1917.58 87.5056 L1925.23 87.5056 L1925.23 93.744 L1917.58 93.744 Q1908.95 93.744 1905.67 90.5438 Q1902.38 87.3031 1902.38 78.7962 L1902.38 54.1667 L1896.92 54.1667 L1896.92 48.3739 L1902.38 48.3739 L1902.38 35.492 L1909.88 35.492 Z" fill="#000000" fill-rule="nonzero" fill-opacity="1"></path><path clip-path="url(#clip340)" d="M1955.65 70.9374 Q1946.62 70.9374 1943.14 73.0034 Q1939.65 75.0693 1939.65 80.0519 Q1939.65 84.0218 1942.25 86.3714 Q1944.88 88.6804 1949.37 88.6804 Q1955.57 88.6804 1959.3 84.3054 Q1963.07 79.8899 1963.07 72.5983 L1963.07 70.9374 L1955.65 70.9374 M1970.52 67.8587 L1970.52 93.744 L1963.07 93.744 L1963.07 86.8575 Q1960.51 90.9894 1956.71 92.9743 Q1952.9 94.9188 1947.39 94.9188 Q1940.42 94.9188 1936.29 91.0299 Q1932.2 87.1005 1932.2 80.5381 Q1932.2 72.8818 1937.3 68.993 Q1942.45 65.1041 1952.62 65.1041 L1963.07 65.1041 L1963.07 64.3749 Q1963.07 59.2303 1959.66 56.4352 Q1956.3 53.5995 1950.18 53.5995 Q1946.3 53.5995 1942.61 54.5312 Q1938.92 55.463 1935.52 57.3264 L1935.52 50.4398 Q1939.61 48.86 1943.46 48.0903 Q1947.31 47.2801 1950.95 47.2801 Q1960.8 47.2801 1965.66 52.3843 Q1970.52 57.4884 1970.52 67.8587 Z" fill="#000000" fill-rule="nonzero" fill-opacity="1"></path><path clip-path="url(#clip340)" d="M1993.25 35.492 L1993.25 48.3739 L2008.6 48.3739 L2008.6 54.1667 L1993.25 54.1667 L1993.25 78.7962 Q1993.25 84.3459 1994.74 85.9258 Q1996.28 87.5056 2000.94 87.5056 L2008.6 87.5056 L2008.6 93.744 L2000.94 93.744 Q1992.31 93.744 1989.03 90.5438 Q1985.75 87.3031 1985.75 78.7962 L1985.75 54.1667 L1980.28 54.1667 L1980.28 48.3739 L1985.75 48.3739 L1985.75 35.492 L1993.25 35.492 Z" fill="#000000" fill-rule="nonzero" fill-opacity="1"></path><path clip-path="url(#clip340)" d="M2018.4 48.3739 L2025.86 48.3739 L2025.86 93.744 L2018.4 93.744 L2018.4 48.3739 M2018.4 30.7119 L2025.86 30.7119 L2025.86 40.1505 L2018.4 40.1505 L2018.4 30.7119 Z" fill="#000000" fill-rule="nonzero" fill-opacity="1"></path><path clip-path="url(#clip340)" d="M2059.03 53.5995 Q2053.04 53.5995 2049.55 58.2986 Q2046.07 62.9571 2046.07 71.0994 Q2046.07 79.2418 2049.51 83.9408 Q2053 88.5994 2059.03 88.5994 Q2064.99 88.5994 2068.47 83.9003 Q2071.96 79.2013 2071.96 71.0994 Q2071.96 63.0381 2068.47 58.3391 Q2064.99 53.5995 2059.03 53.5995 M2059.03 47.2801 Q2068.75 47.2801 2074.3 53.5995 Q2079.85 59.9189 2079.85 71.0994 Q2079.85 82.2394 2074.3 88.5994 Q2068.75 94.9188 2059.03 94.9188 Q2049.27 94.9188 2043.72 88.5994 Q2038.21 82.2394 2038.21 71.0994 Q2038.21 59.9189 2043.72 53.5995 Q2049.27 47.2801 2059.03 47.2801 Z" fill="#000000" fill-rule="nonzero" fill-opacity="1"></path><path clip-path="url(#clip340)" d="M2129.92 66.3599 L2129.92 93.744 L2122.47 93.744 L2122.47 66.6029 Q2122.47 60.162 2119.96 56.9618 Q2117.45 53.7616 2112.42 53.7616 Q2106.39 53.7616 2102.9 57.6099 Q2099.42 61.4583 2099.42 68.1018 L2099.42 93.744 L2091.93 93.744 L2091.93 48.3739 L2099.42 48.3739 L2099.42 55.4224 Q2102.09 51.331 2105.7 49.3056 Q2109.34 47.2801 2114.08 47.2801 Q2121.9 47.2801 2125.91 52.1412 Q2129.92 56.9618 2129.92 66.3599 Z" fill="#000000" fill-rule="nonzero" fill-opacity="1"></path><path clip-path="url(#clip340)" d="M756.221 145.98 L756.221 121.432 L763.675 121.432 L763.675 184.464 L756.221 184.464 L756.221 177.658 Q753.872 181.709 750.267 183.694 Q746.702 185.639 741.679 185.639 Q733.455 185.639 728.27 179.076 Q723.125 172.514 723.125 161.819 Q723.125 151.125 728.27 144.563 Q733.455 138 741.679 138 Q746.702 138 750.267 139.985 Q753.872 141.93 756.221 145.98 M730.822 161.819 Q730.822 170.043 734.184 174.742 Q737.587 179.4 743.501 179.4 Q749.416 179.4 752.819 174.742 Q756.221 170.043 756.221 161.819 Q756.221 153.596 752.819 148.938 Q749.416 144.239 743.501 144.239 Q737.587 144.239 734.184 148.938 Q730.822 153.596 730.822 161.819 Z" fill="#000000" fill-rule="nonzero" fill-opacity="1"></path><path clip-path="url(#clip340)" d="M779.028 139.094 L786.482 139.094 L786.482 184.464 L779.028 184.464 L779.028 139.094 M779.028 121.432 L786.482 121.432 L786.482 130.871 L779.028 130.871 L779.028 121.432 Z" fill="#000000" fill-rule="nonzero" fill-opacity="1"></path><path clip-path="url(#clip340)" d="M831.001 140.431 L831.001 147.479 Q827.841 145.859 824.439 145.049 Q821.036 144.239 817.39 144.239 Q811.84 144.239 809.045 145.94 Q806.291 147.641 806.291 151.044 Q806.291 153.637 808.275 155.135 Q810.26 156.594 816.256 157.931 L818.808 158.498 Q826.748 160.199 830.069 163.318 Q833.432 166.397 833.432 171.947 Q833.432 178.266 828.408 181.952 Q823.426 185.639 814.676 185.639 Q811.03 185.639 807.06 184.91 Q803.131 184.221 798.756 182.803 L798.756 175.106 Q802.888 177.253 806.898 178.347 Q810.909 179.4 814.838 179.4 Q820.104 179.4 822.94 177.618 Q825.775 175.795 825.775 172.514 Q825.775 169.476 823.709 167.855 Q821.684 166.235 814.757 164.736 L812.164 164.128 Q805.237 162.67 802.159 159.672 Q799.08 156.634 799.08 151.368 Q799.08 144.968 803.617 141.484 Q808.154 138 816.499 138 Q820.631 138 824.277 138.608 Q827.922 139.215 831.001 140.431 Z" fill="#000000" fill-rule="nonzero" fill-opacity="1"></path><path clip-path="url(#clip340)" d="M852.673 126.212 L852.673 139.094 L868.026 139.094 L868.026 144.887 L852.673 144.887 L852.673 169.516 Q852.673 175.066 854.172 176.646 Q855.712 178.226 860.37 178.226 L868.026 178.226 L868.026 184.464 L860.37 184.464 Q851.742 184.464 848.46 181.264 Q845.179 178.023 845.179 169.516 L845.179 144.887 L839.71 144.887 L839.71 139.094 L845.179 139.094 L845.179 126.212 L852.673 126.212 Z" fill="#000000" fill-rule="nonzero" fill-opacity="1"></path><path clip-path="url(#clip340)" d="M904.12 146.061 Q902.864 145.332 901.365 145.008 Q899.907 144.644 898.125 144.644 Q891.805 144.644 888.402 148.776 Q885.04 152.867 885.04 160.564 L885.04 184.464 L877.546 184.464 L877.546 139.094 L885.04 139.094 L885.04 146.142 Q887.39 142.011 891.157 140.026 Q894.924 138 900.312 138 Q901.082 138 902.013 138.122 Q902.945 138.203 904.079 138.405 L904.12 146.061 Z" fill="#000000" fill-rule="nonzero" fill-opacity="1"></path><path clip-path="url(#clip340)" d="M911.938 139.094 L919.392 139.094 L919.392 184.464 L911.938 184.464 L911.938 139.094 M911.938 121.432 L919.392 121.432 L919.392 130.871 L911.938 130.871 L911.938 121.432 Z" fill="#000000" fill-rule="nonzero" fill-opacity="1"></path><path clip-path="url(#clip340)" d="M967.557 161.819 Q967.557 153.596 964.154 148.938 Q960.792 144.239 954.878 144.239 Q948.963 144.239 945.561 148.938 Q942.198 153.596 942.198 161.819 Q942.198 170.043 945.561 174.742 Q948.963 179.4 954.878 179.4 Q960.792 179.4 964.154 174.742 Q967.557 170.043 967.557 161.819 M942.198 145.98 Q944.548 141.93 948.113 139.985 Q951.718 138 956.701 138 Q964.964 138 970.109 144.563 Q975.294 151.125 975.294 161.819 Q975.294 172.514 970.109 179.076 Q964.964 185.639 956.701 185.639 Q951.718 185.639 948.113 183.694 Q944.548 181.709 942.198 177.658 L942.198 184.464 L934.704 184.464 L934.704 121.432 L942.198 121.432 L942.198 145.98 Z" fill="#000000" fill-rule="nonzero" fill-opacity="1"></path><path clip-path="url(#clip340)" d="M986.88 166.559 L986.88 139.094 L994.333 139.094 L994.333 166.275 Q994.333 172.716 996.845 175.957 Q999.357 179.157 1004.38 179.157 Q1010.42 179.157 1013.9 175.309 Q1017.42 171.461 1017.42 164.817 L1017.42 139.094 L1024.88 139.094 L1024.88 184.464 L1017.42 184.464 L1017.42 177.496 Q1014.71 181.628 1011.1 183.654 Q1007.54 185.639 1002.8 185.639 Q994.982 185.639 990.931 180.778 Q986.88 175.917 986.88 166.559 M1005.64 138 L1005.64 138 Z" fill="#000000" fill-rule="nonzero" fill-opacity="1"></path><path clip-path="url(#clip340)" d="M1047.6 126.212 L1047.6 139.094 L1062.96 139.094 L1062.96 144.887 L1047.6 144.887 L1047.6 169.516 Q1047.6 175.066 1049.1 176.646 Q1050.64 178.226 1055.3 178.226 L1062.96 178.226 L1062.96 184.464 L1055.3 184.464 Q1046.67 184.464 1043.39 181.264 Q1040.11 178.023 1040.11 169.516 L1040.11 144.887 L1034.64 144.887 L1034.64 139.094 L1040.11 139.094 L1040.11 126.212 L1047.6 126.212 Z" fill="#000000" fill-rule="nonzero" fill-opacity="1"></path><path clip-path="url(#clip340)" d="M1072.76 139.094 L1080.21 139.094 L1080.21 184.464 L1072.76 184.464 L1072.76 139.094 M1072.76 121.432 L1080.21 121.432 L1080.21 130.871 L1072.76 130.871 L1072.76 121.432 Z" fill="#000000" fill-rule="nonzero" fill-opacity="1"></path><path clip-path="url(#clip340)" d="M1113.39 144.32 Q1107.39 144.32 1103.91 149.019 Q1100.43 153.677 1100.43 161.819 Q1100.43 169.962 1103.87 174.661 Q1107.35 179.319 1113.39 179.319 Q1119.34 179.319 1122.83 174.62 Q1126.31 169.921 1126.31 161.819 Q1126.31 153.758 1122.83 149.059 Q1119.34 144.32 1113.39 144.32 M1113.39 138 Q1123.11 138 1128.66 144.32 Q1134.21 150.639 1134.21 161.819 Q1134.21 172.959 1128.66 179.319 Q1123.11 185.639 1113.39 185.639 Q1103.63 185.639 1098.08 179.319 Q1092.57 172.959 1092.57 161.819 Q1092.57 150.639 1098.08 144.32 Q1103.63 138 1113.39 138 Z" fill="#000000" fill-rule="nonzero" fill-opacity="1"></path><path clip-path="url(#clip340)" d="M1184.28 157.08 L1184.28 184.464 L1176.83 184.464 L1176.83 157.323 Q1176.83 150.882 1174.32 147.682 Q1171.8 144.482 1166.78 144.482 Q1160.74 144.482 1157.26 148.33 Q1153.78 152.178 1153.78 158.822 L1153.78 184.464 L1146.28 184.464 L1146.28 139.094 L1153.78 139.094 L1153.78 146.142 Q1156.45 142.051 1160.06 140.026 Q1163.7 138 1168.44 138 Q1176.26 138 1180.27 142.861 Q1184.28 147.682 1184.28 157.08 Z" fill="#000000" fill-rule="nonzero" fill-opacity="1"></path><path clip-path="url(#clip340)" d="M1201.05 174.175 L1209.6 174.175 L1209.6 184.464 L1201.05 184.464 L1201.05 174.175 M1201.05 141.565 L1209.6 141.565 L1209.6 151.854 L1201.05 151.854 L1201.05 141.565 Z" fill="#000000" fill-rule="nonzero" fill-opacity="1"></path><path clip-path="url(#clip340)" d="M1252.78 121.432 L1269.96 121.432 L1269.96 127.225 L1260.23 127.225 L1260.23 189.609 L1269.96 189.609 L1269.96 195.401 L1252.78 195.401 L1252.78 121.432 Z" fill="#000000" fill-rule="nonzero" fill-opacity="1"></path><path clip-path="url(#clip340)" d="M1304.39 129.372 Q1298.07 129.372 1294.87 135.61 Q1291.71 141.808 1291.71 154.285 Q1291.71 166.721 1294.87 172.959 Q1298.07 179.157 1304.39 179.157 Q1310.75 179.157 1313.91 172.959 Q1317.11 166.721 1317.11 154.285 Q1317.11 141.808 1313.91 135.61 Q1310.75 129.372 1304.39 129.372 M1304.39 122.89 Q1314.56 122.89 1319.9 130.952 Q1325.29 138.972 1325.29 154.285 Q1325.29 169.557 1319.9 177.618 Q1314.56 185.639 1304.39 185.639 Q1294.22 185.639 1288.83 177.618 Q1283.49 169.557 1283.49 154.285 Q1283.49 138.972 1288.83 130.952 Q1294.22 122.89 1304.39 122.89 Z" fill="#000000" fill-rule="nonzero" fill-opacity="1"></path><path clip-path="url(#clip340)" d="M1339.67 174.175 L1348.22 174.175 L1348.22 184.464 L1339.67 184.464 L1339.67 174.175 Z" fill="#000000" fill-rule="nonzero" fill-opacity="1"></path><path clip-path="url(#clip340)" d="M1366.13 123.984 L1398.25 123.984 L1398.25 130.871 L1373.62 130.871 L1373.62 145.697 Q1375.4 145.089 1377.18 144.806 Q1378.97 144.482 1380.75 144.482 Q1390.88 144.482 1396.79 150.031 Q1402.71 155.581 1402.71 165.06 Q1402.71 174.823 1396.63 180.251 Q1390.55 185.639 1379.49 185.639 Q1375.69 185.639 1371.72 184.991 Q1367.79 184.342 1363.57 183.046 L1363.57 174.823 Q1367.22 176.808 1371.11 177.78 Q1375 178.752 1379.33 178.752 Q1386.34 178.752 1390.43 175.066 Q1394.52 171.38 1394.52 165.06 Q1394.52 158.741 1390.43 155.054 Q1386.34 151.368 1379.33 151.368 Q1376.05 151.368 1372.77 152.097 Q1369.53 152.826 1366.13 154.366 L1366.13 123.984 Z" fill="#000000" fill-rule="nonzero" fill-opacity="1"></path><path clip-path="url(#clip340)" d="M1418.91 123.984 L1451.03 123.984 L1451.03 130.871 L1426.4 130.871 L1426.4 145.697 Q1428.19 145.089 1429.97 144.806 Q1431.75 144.482 1433.53 144.482 Q1443.66 144.482 1449.57 150.031 Q1455.49 155.581 1455.49 165.06 Q1455.49 174.823 1449.41 180.251 Q1443.34 185.639 1432.28 185.639 Q1428.47 185.639 1424.5 184.991 Q1420.57 184.342 1416.36 183.046 L1416.36 174.823 Q1420 176.808 1423.89 177.78 Q1427.78 178.752 1432.11 178.752 Q1439.12 178.752 1443.21 175.066 Q1447.31 171.38 1447.31 165.06 Q1447.31 158.741 1443.21 155.054 Q1439.12 151.368 1432.11 151.368 Q1428.83 151.368 1425.55 152.097 Q1422.31 152.826 1418.91 154.366 L1418.91 123.984 Z" fill="#000000" fill-rule="nonzero" fill-opacity="1"></path><path clip-path="url(#clip340)" d="M1472.46 174.175 L1481.01 174.175 L1481.01 181.142 L1474.37 194.105 L1469.14 194.105 L1472.46 181.142 L1472.46 174.175 Z" fill="#000000" fill-rule="nonzero" fill-opacity="1"></path><path clip-path="url(#clip340)" d="M1541.85 129.372 Q1535.53 129.372 1532.33 135.61 Q1529.17 141.808 1529.17 154.285 Q1529.17 166.721 1532.33 172.959 Q1535.53 179.157 1541.85 179.157 Q1548.21 179.157 1551.37 172.959 Q1554.57 166.721 1554.57 154.285 Q1554.57 141.808 1551.37 135.61 Q1548.21 129.372 1541.85 129.372 M1541.85 122.89 Q1552.02 122.89 1557.37 130.952 Q1562.76 138.972 1562.76 154.285 Q1562.76 169.557 1557.37 177.618 Q1552.02 185.639 1541.85 185.639 Q1531.69 185.639 1526.3 177.618 Q1520.95 169.557 1520.95 154.285 Q1520.95 138.972 1526.3 130.952 Q1531.69 122.89 1541.85 122.89 Z" fill="#000000" fill-rule="nonzero" fill-opacity="1"></path><path clip-path="url(#clip340)" d="M1577.14 174.175 L1585.68 174.175 L1585.68 184.464 L1577.14 184.464 L1577.14 174.175 Z" fill="#000000" fill-rule="nonzero" fill-opacity="1"></path><path clip-path="url(#clip340)" d="M1610.56 177.577 L1639.12 177.577 L1639.12 184.464 L1600.71 184.464 L1600.71 177.577 Q1605.37 172.757 1613.39 164.655 Q1621.45 156.513 1623.52 154.163 Q1627.45 149.748 1628.99 146.71 Q1630.57 143.631 1630.57 140.674 Q1630.57 135.853 1627.17 132.815 Q1623.8 129.777 1618.38 129.777 Q1614.53 129.777 1610.23 131.114 Q1605.98 132.45 1601.12 135.164 L1601.12 126.901 Q1606.06 124.916 1610.35 123.903 Q1614.65 122.89 1618.21 122.89 Q1627.61 122.89 1633.2 127.589 Q1638.79 132.288 1638.79 140.147 Q1638.79 143.874 1637.37 147.236 Q1636 150.558 1632.31 155.095 Q1631.3 156.27 1625.87 161.9 Q1620.44 167.491 1610.56 177.577 Z" fill="#000000" fill-rule="nonzero" fill-opacity="1"></path><path clip-path="url(#clip340)" d="M1656.37 123.984 L1688.5 123.984 L1688.5 130.871 L1663.87 130.871 L1663.87 145.697 Q1665.65 145.089 1667.43 144.806 Q1669.21 144.482 1671 144.482 Q1681.12 144.482 1687.04 150.031 Q1692.95 155.581 1692.95 165.06 Q1692.95 174.823 1686.88 180.251 Q1680.8 185.639 1669.74 185.639 Q1665.93 185.639 1661.96 184.991 Q1658.03 184.342 1653.82 183.046 L1653.82 174.823 Q1657.47 176.808 1661.36 177.78 Q1665.24 178.752 1669.58 178.752 Q1676.59 178.752 1680.68 175.066 Q1684.77 171.38 1684.77 165.06 Q1684.77 158.741 1680.68 155.054 Q1676.59 151.368 1669.58 151.368 Q1666.3 151.368 1663.02 152.097 Q1659.78 152.826 1656.37 154.366 L1656.37 123.984 Z" fill="#000000" fill-rule="nonzero" fill-opacity="1"></path><path clip-path="url(#clip340)" d="M1709.93 174.175 L1718.47 174.175 L1718.47 181.142 L1711.83 194.105 L1706.6 194.105 L1709.93 181.142 L1709.93 174.175 Z" fill="#000000" fill-rule="nonzero" fill-opacity="1"></path><path clip-path="url(#clip340)" d="M1779.32 129.372 Q1773 129.372 1769.8 135.61 Q1766.64 141.808 1766.64 154.285 Q1766.64 166.721 1769.8 172.959 Q1773 179.157 1779.32 179.157 Q1785.68 179.157 1788.84 172.959 Q1792.04 166.721 1792.04 154.285 Q1792.04 141.808 1788.84 135.61 Q1785.68 129.372 1779.32 129.372 M1779.32 122.89 Q1789.49 122.89 1794.83 130.952 Q1800.22 138.972 1800.22 154.285 Q1800.22 169.557 1794.83 177.618 Q1789.49 185.639 1779.32 185.639 Q1769.15 185.639 1763.76 177.618 Q1758.42 169.557 1758.42 154.285 Q1758.42 138.972 1763.76 130.952 Q1769.15 122.89 1779.32 122.89 Z" fill="#000000" fill-rule="nonzero" fill-opacity="1"></path><path clip-path="url(#clip340)" d="M1814.6 174.175 L1823.15 174.175 L1823.15 184.464 L1814.6 184.464 L1814.6 174.175 Z" fill="#000000" fill-rule="nonzero" fill-opacity="1"></path><path clip-path="url(#clip340)" d="M1848.02 177.577 L1876.58 177.577 L1876.58 184.464 L1838.18 184.464 L1838.18 177.577 Q1842.84 172.757 1850.86 164.655 Q1858.92 156.513 1860.98 154.163 Q1864.91 149.748 1866.45 146.71 Q1868.03 143.631 1868.03 140.674 Q1868.03 135.853 1864.63 132.815 Q1861.27 129.777 1855.84 129.777 Q1851.99 129.777 1847.7 131.114 Q1843.44 132.45 1838.58 135.164 L1838.58 126.901 Q1843.52 124.916 1847.82 123.903 Q1852.11 122.89 1855.68 122.89 Q1865.08 122.89 1870.67 127.589 Q1876.26 132.288 1876.26 140.147 Q1876.26 143.874 1874.84 147.236 Q1873.46 150.558 1869.77 155.095 Q1868.76 156.27 1863.33 161.9 Q1857.91 167.491 1848.02 177.577 Z" fill="#000000" fill-rule="nonzero" fill-opacity="1"></path><path clip-path="url(#clip340)" d="M1910.12 121.432 L1910.12 195.401 L1892.95 195.401 L1892.95 189.609 L1902.63 189.609 L1902.63 127.225 L1892.95 127.225 L1892.95 121.432 L1910.12 121.432 Z" fill="#000000" fill-rule="nonzero" fill-opacity="1"></path><polyline clip-path="url(#clip342)" style="stroke:#009af9; stroke-linecap:round; stroke-linejoin:round; stroke-width:4; stroke-opacity:1; fill:none" points="309.067,1388.11 805.108,847.614 1301.15,587.174 1797.19,369.081 2293.23,219.025 "></polyline>
<path clip-path="url(#clip340)" d="M319.649 328.94 L582.401 328.94 L582.401 225.26 L319.649 225.26  Z" fill="#ffffff" fill-rule="evenodd" fill-opacity="1"></path>
<polyline clip-path="url(#clip340)" style="stroke:#000000; stroke-linecap:round; stroke-linejoin:round; stroke-width:4; stroke-opacity:1; fill:none" points="319.649,328.94 582.401,328.94 582.401,225.26 319.649,225.26 319.649,328.94 "></polyline>
<polyline clip-path="url(#clip340)" style="stroke:#009af9; stroke-linecap:round; stroke-linejoin:round; stroke-width:4; stroke-opacity:1; fill:none" points="343.018,277.1 483.232,277.1 "></polyline>
<path clip-path="url(#clip340)" d="M520.444 296.787 Q518.638 301.417 516.926 302.829 Q515.213 304.241 512.342 304.241 L508.939 304.241 L508.939 300.676 L511.439 300.676 Q513.199 300.676 514.171 299.843 Q515.143 299.009 516.324 295.907 L517.088 293.963 L506.602 268.454 L511.115 268.454 L519.217 288.732 L527.319 268.454 L531.833 268.454 L520.444 296.787 Z" fill="#000000" fill-rule="nonzero" fill-opacity="1"></path><path clip-path="url(#clip340)" d="M539.124 290.445 L546.763 290.445 L546.763 264.079 L538.453 265.746 L538.453 261.486 L546.717 259.82 L551.393 259.82 L551.393 290.445 L559.032 290.445 L559.032 294.38 L539.124 294.38 L539.124 290.445 Z" fill="#000000" fill-rule="nonzero" fill-opacity="1"></path></svg>