<svg xmlns="http://www.w3.org/2000/svg" xmlns:xlink="http://www.w3.org/1999/xlink" width="600" height="400" viewBox="0 0 2400 1600">
<defs>
  <clipPath id="clip420">
    <rect x="0" y="0" width="2400" height="1600"></rect>
  </clipPath>
</defs>
<path clip-path="url(#clip420)" d="M0 1600 L2400 1600 L2400 0 L0 0  Z" fill="#ffffff" fill-rule="evenodd" fill-opacity="1"></path>
<defs>
  <clipPath id="clip421">
    <rect x="480" y="0" width="1681" height="1600"></rect>
  </clipPath>
</defs>
<path clip-path="url(#clip420)" d="M249.542 1423.18 L2352.76 1423.18 L2352.76 183.952 L249.542 183.952  Z" fill="#ffffff" fill-rule="evenodd" fill-opacity="1"></path>
<defs>
  <clipPath id="clip422">
    <rect x="249" y="183" width="2104" height="1240"></rect>
  </clipPath>
</defs>
<polyline clip-path="url(#clip422)" style="stroke:#000000; stroke-linecap:round; stroke-linejoin:round; stroke-width:2; stroke-opacity:0.1; fill:none" points="309.067,1423.18 309.067,183.952 "></polyline>
<polyline clip-path="url(#clip422)" style="stroke:#000000; stroke-linecap:round; stroke-linejoin:round; stroke-width:2; stroke-opacity:0.1; fill:none" points="805.108,1423.18 805.108,183.952 "></polyline>
<polyline clip-path="url(#clip422)" style="stroke:#000000; stroke-linecap:round; stroke-linejoin:round; stroke-width:2; stroke-opacity:0.1; fill:none" points="1301.15,1423.18 1301.15,183.952 "></polyline>
<polyline clip-path="url(#clip422)" style="stroke:#000000; stroke-linecap:round; stroke-linejoin:round; stroke-width:2; stroke-opacity:0.1; fill:none" points="1797.19,1423.18 1797.19,183.952 "></polyline>
<polyline clip-path="url(#clip422)" style="stroke:#000000; stroke-linecap:round; stroke-linejoin:round; stroke-width:2; stroke-opacity:0.1; fill:none" points="2293.23,1423.18 2293.23,183.952 "></polyline>
<polyline clip-path="url(#clip420)" style="stroke:#000000; stroke-linecap:round; stroke-linejoin:round; stroke-width:4; stroke-opacity:1; fill:none" points="249.542,1423.18 2352.76,1423.18 "></polyline>
<polyline clip-path="url(#clip420)" style="stroke:#000000; stroke-linecap:round; stroke-linejoin:round; stroke-width:4; stroke-opacity:1; fill:none" points="309.067,1423.18 309.067,1404.28 "></polyline>
<polyline clip-path="url(#clip420)" style="stroke:#000000; stroke-linecap:round; stroke-linejoin:round; stroke-width:4; stroke-opacity:1; fill:none" points="805.108,1423.18 805.108,1404.28 "></polyline>
<polyline clip-path="url(#clip420)" style="stroke:#000000; stroke-linecap:round; stroke-linejoin:round; stroke-width:4; stroke-opacity:1; fill:none" points="1301.15,1423.18 1301.15,1404.28 "></polyline>
<polyline clip-path="url(#clip420)" style="stroke:#000000; stroke-linecap:round; stroke-linejoin:round; stroke-width:4; stroke-opacity:1; fill:none" points="1797.19,1423.18 1797.19,1404.28 "></polyline>
<polyline clip-path="url(#clip420)" style="stroke:#000000; stroke-linecap:round; stroke-linejoin:round; stroke-width:4; stroke-opacity:1; fill:none" points="2293.23,1423.18 2293.23,1404.28 "></polyline>
<path clip-path="url(#clip420)" d="M299.449 1481.64 L307.088 1481.64 L307.088 1455.28 L298.778 1456.95 L298.778 1452.69 L307.042 1451.02 L311.717 1451.02 L311.717 1481.64 L319.356 1481.64 L319.356 1485.58 L299.449 1485.58 L299.449 1481.64 Z" fill="#000000" fill-rule="nonzero" fill-opacity="1"></path><path clip-path="url(#clip420)" d="M799.761 1481.64 L816.08 1481.64 L816.08 1485.58 L794.136 1485.58 L794.136 1481.64 Q796.798 1478.89 801.381 1474.26 Q805.988 1469.61 807.168 1468.27 Q809.413 1465.74 810.293 1464.01 Q811.196 1462.25 811.196 1460.56 Q811.196 1457.8 809.251 1456.07 Q807.33 1454.33 804.228 1454.33 Q802.029 1454.33 799.576 1455.09 Q797.145 1455.86 794.367 1457.41 L794.367 1452.69 Q797.191 1451.55 799.645 1450.97 Q802.099 1450.39 804.136 1450.39 Q809.506 1450.39 812.701 1453.08 Q815.895 1455.77 815.895 1460.26 Q815.895 1462.39 815.085 1464.31 Q814.298 1466.2 812.191 1468.8 Q811.613 1469.47 808.511 1472.69 Q805.409 1475.88 799.761 1481.64 Z" fill="#000000" fill-rule="nonzero" fill-opacity="1"></path><path clip-path="url(#clip420)" d="M1305.4 1466.95 Q1308.75 1467.66 1310.63 1469.93 Q1312.53 1472.2 1312.53 1475.53 Q1312.53 1480.65 1309.01 1483.45 Q1305.49 1486.25 1299.01 1486.25 Q1296.83 1486.25 1294.52 1485.81 Q1292.23 1485.39 1289.77 1484.54 L1289.77 1480.02 Q1291.72 1481.16 1294.03 1481.74 Q1296.35 1482.32 1298.87 1482.32 Q1303.27 1482.32 1305.56 1480.58 Q1307.87 1478.84 1307.87 1475.53 Q1307.87 1472.48 1305.72 1470.77 Q1303.59 1469.03 1299.77 1469.03 L1295.74 1469.03 L1295.74 1465.19 L1299.96 1465.19 Q1303.41 1465.19 1305.23 1463.82 Q1307.06 1462.43 1307.06 1459.84 Q1307.06 1457.18 1305.17 1455.77 Q1303.29 1454.33 1299.77 1454.33 Q1297.85 1454.33 1295.65 1454.75 Q1293.45 1455.16 1290.81 1456.04 L1290.81 1451.88 Q1293.48 1451.14 1295.79 1450.77 Q1298.13 1450.39 1300.19 1450.39 Q1305.51 1450.39 1308.61 1452.83 Q1311.72 1455.23 1311.72 1459.35 Q1311.72 1462.22 1310.07 1464.21 Q1308.43 1466.18 1305.4 1466.95 Z" fill="#000000" fill-rule="nonzero" fill-opacity="1"></path><path clip-path="url(#clip420)" d="M1800.2 1455.09 L1788.39 1473.54 L1800.2 1473.54 L1800.2 1455.09 M1798.97 1451.02 L1804.85 1451.02 L1804.85 1473.54 L1809.78 1473.54 L1809.78 1477.43 L1804.85 1477.43 L1804.85 1485.58 L1800.2 1485.58 L1800.2 1477.43 L1784.6 1477.43 L1784.6 1472.92 L1798.97 1451.02 Z" fill="#000000" fill-rule="nonzero" fill-opacity="1"></path><path clip-path="url(#clip420)" d="M2283.51 1451.02 L2301.87 1451.02 L2301.87 1454.96 L2287.79 1454.96 L2287.79 1463.43 Q2288.81 1463.08 2289.83 1462.92 Q2290.85 1462.73 2291.87 1462.73 Q2297.65 1462.73 2301.03 1465.9 Q2304.41 1469.08 2304.41 1474.49 Q2304.41 1480.07 2300.94 1483.17 Q2297.47 1486.25 2291.15 1486.25 Q2288.97 1486.25 2286.7 1485.88 Q2284.46 1485.51 2282.05 1484.77 L2282.05 1480.07 Q2284.13 1481.2 2286.36 1481.76 Q2288.58 1482.32 2291.06 1482.32 Q2295.06 1482.32 2297.4 1480.21 Q2299.74 1478.1 2299.74 1474.49 Q2299.74 1470.88 2297.4 1468.77 Q2295.06 1466.67 2291.06 1466.67 Q2289.18 1466.67 2287.31 1467.08 Q2285.45 1467.5 2283.51 1468.38 L2283.51 1451.02 Z" fill="#000000" fill-rule="nonzero" fill-opacity="1"></path><path clip-path="url(#clip420)" d="M1316.08 1546.53 L1316.08 1568.04 L1310.22 1568.04 L1310.22 1546.72 Q1310.22 1541.66 1308.25 1539.14 Q1306.27 1536.63 1302.33 1536.63 Q1297.58 1536.63 1294.85 1539.65 Q1292.11 1542.68 1292.11 1547.9 L1292.11 1568.04 L1286.22 1568.04 L1286.22 1532.4 L1292.11 1532.4 L1292.11 1537.93 Q1294.21 1534.72 1297.04 1533.13 Q1299.91 1531.54 1303.63 1531.54 Q1309.77 1531.54 1312.93 1535.36 Q1316.08 1539.14 1316.08 1546.53 Z" fill="#000000" fill-rule="nonzero" fill-opacity="1"></path><polyline clip-path="url(#clip422)" style="stroke:#000000; stroke-linecap:round; stroke-linejoin:round; stroke-width:2; stroke-opacity:0.1; fill:none" points="249.542,1253.18 2352.76,1253.18 "></polyline>
<polyline clip-path="url(#clip422)" style="stroke:#000000; stroke-linecap:round; stroke-linejoin:round; stroke-width:2; stroke-opacity:0.1; fill:none" points="249.542,1060.85 2352.76,1060.85 "></polyline>
<polyline clip-path="url(#clip422)" style="stroke:#000000; stroke-linecap:round; stroke-linejoin:round; stroke-width:2; stroke-opacity:0.1; fill:none" points="249.542,868.513 2352.76,868.513 "></polyline>
<polyline clip-path="url(#clip422)" style="stroke:#000000; stroke-linecap:round; stroke-linejoin:round; stroke-width:2; stroke-opacity:0.1; fill:none" points="249.542,676.178 2352.76,676.178 "></polyline>
<polyline clip-path="url(#clip422)" style="stroke:#000000; stroke-linecap:round; stroke-linejoin:round; stroke-width:2; stroke-opacity:0.1; fill:none" points="249.542,483.843 2352.76,483.843 "></polyline>
<polyline clip-path="url(#clip422)" style="stroke:#000000; stroke-linecap:round; stroke-linejoin:round; stroke-width:2; stroke-opacity:0.1; fill:none" points="249.542,291.508 2352.76,291.508 "></polyline>
<polyline clip-path="url(#clip420)" style="stroke:#000000; stroke-linecap:round; stroke-linejoin:round; stroke-width:4; stroke-opacity:1; fill:none" points="249.542,1423.18 249.542,183.952 "></polyline>
<polyline clip-path="url(#clip420)" style="stroke:#000000; stroke-linecap:round; stroke-linejoin:round; stroke-width:4; stroke-opacity:1; fill:none" points="249.542,1253.18 268.44,1253.18 "></polyline>
<polyline clip-path="url(#clip420)" style="stroke:#000000; stroke-linecap:round; stroke-linejoin:round; stroke-width:4; stroke-opacity:1; fill:none" points="249.542,1060.85 268.44,1060.85 "></polyline>
<polyline clip-path="url(#clip420)" style="stroke:#000000; stroke-linecap:round; stroke-linejoin:round; stroke-width:4; stroke-opacity:1; fill:none" points="249.542,868.513 268.44,868.513 "></polyline>
<polyline clip-path="url(#clip420)" style="stroke:#000000; stroke-linecap:round; stroke-linejoin:round; stroke-width:4; stroke-opacity:1; fill:none" points="249.542,676.178 268.44,676.178 "></polyline>
<polyline clip-path="url(#clip420)" style="stroke:#000000; stroke-linecap:round; stroke-linejoin:round; stroke-width:4; stroke-opacity:1; fill:none" points="249.542,483.843 268.44,483.843 "></polyline>
<polyline clip-path="url(#clip420)" style="stroke:#000000; stroke-linecap:round; stroke-linejoin:round; stroke-width:4; stroke-opacity:1; fill:none" points="249.542,291.508 268.44,291.508 "></polyline>
<path clip-path="url(#clip420)" d="M126.205 1238.98 Q122.593 1238.98 120.765 1242.55 Q118.959 1246.09 118.959 1253.22 Q118.959 1260.32 120.765 1263.89 Q122.593 1267.43 126.205 1267.43 Q129.839 1267.43 131.644 1263.89 Q133.473 1260.32 133.473 1253.22 Q133.473 1246.09 131.644 1242.55 Q129.839 1238.98 126.205 1238.98 M126.205 1235.28 Q132.015 1235.28 135.07 1239.88 Q138.149 1244.47 138.149 1253.22 Q138.149 1261.94 135.07 1266.55 Q132.015 1271.13 126.205 1271.13 Q120.394 1271.13 117.316 1266.55 Q114.26 1261.94 114.26 1253.22 Q114.26 1244.47 117.316 1239.88 Q120.394 1235.28 126.205 1235.28 Z" fill="#000000" fill-rule="nonzero" fill-opacity="1"></path><path clip-path="url(#clip420)" d="M146.366 1264.58 L151.251 1264.58 L151.251 1270.46 L146.366 1270.46 L146.366 1264.58 Z" fill="#000000" fill-rule="nonzero" fill-opacity="1"></path><path clip-path="url(#clip420)" d="M172.014 1251.32 Q168.866 1251.32 167.015 1253.47 Q165.186 1255.62 165.186 1259.37 Q165.186 1263.1 167.015 1265.28 Q168.866 1267.43 172.014 1267.43 Q175.163 1267.43 176.991 1265.28 Q178.843 1263.1 178.843 1259.37 Q178.843 1255.62 176.991 1253.47 Q175.163 1251.32 172.014 1251.32 M181.297 1236.67 L181.297 1240.93 Q179.538 1240.09 177.732 1239.65 Q175.95 1239.21 174.19 1239.21 Q169.561 1239.21 167.107 1242.34 Q164.677 1245.46 164.329 1251.78 Q165.695 1249.77 167.755 1248.7 Q169.815 1247.62 172.292 1247.62 Q177.501 1247.62 180.51 1250.79 Q183.542 1253.93 183.542 1259.37 Q183.542 1264.7 180.394 1267.92 Q177.246 1271.13 172.014 1271.13 Q166.019 1271.13 162.848 1266.55 Q159.677 1261.94 159.677 1253.22 Q159.677 1245.02 163.565 1240.16 Q167.454 1235.28 174.005 1235.28 Q175.764 1235.28 177.547 1235.62 Q179.352 1235.97 181.297 1236.67 Z" fill="#000000" fill-rule="nonzero" fill-opacity="1"></path><path clip-path="url(#clip420)" d="M201.598 1238.98 Q197.987 1238.98 196.158 1242.55 Q194.352 1246.09 194.352 1253.22 Q194.352 1260.32 196.158 1263.89 Q197.987 1267.43 201.598 1267.43 Q205.232 1267.43 207.037 1263.89 Q208.866 1260.32 208.866 1253.22 Q208.866 1246.09 207.037 1242.55 Q205.232 1238.98 201.598 1238.98 M201.598 1235.28 Q207.408 1235.28 210.463 1239.88 Q213.542 1244.47 213.542 1253.22 Q213.542 1261.94 210.463 1266.55 Q207.408 1271.13 201.598 1271.13 Q195.787 1271.13 192.709 1266.55 Q189.653 1261.94 189.653 1253.22 Q189.653 1244.47 192.709 1239.88 Q195.787 1235.28 201.598 1235.28 Z" fill="#000000" fill-rule="nonzero" fill-opacity="1"></path><path clip-path="url(#clip420)" d="M127.2 1046.65 Q123.589 1046.65 121.76 1050.21 Q119.955 1053.75 119.955 1060.88 Q119.955 1067.99 121.76 1071.55 Q123.589 1075.09 127.2 1075.09 Q130.834 1075.09 132.64 1071.55 Q134.468 1067.99 134.468 1060.88 Q134.468 1053.75 132.64 1050.21 Q130.834 1046.65 127.2 1046.65 M127.2 1042.94 Q133.01 1042.94 136.066 1047.55 Q139.144 1052.13 139.144 1060.88 Q139.144 1069.61 136.066 1074.22 Q133.01 1078.8 127.2 1078.8 Q121.39 1078.8 118.311 1074.22 Q115.256 1069.61 115.256 1060.88 Q115.256 1052.13 118.311 1047.55 Q121.39 1042.94 127.2 1042.94 Z" fill="#000000" fill-rule="nonzero" fill-opacity="1"></path><path clip-path="url(#clip420)" d="M147.362 1072.25 L152.246 1072.25 L152.246 1078.13 L147.362 1078.13 L147.362 1072.25 Z" fill="#000000" fill-rule="nonzero" fill-opacity="1"></path><path clip-path="url(#clip420)" d="M173.01 1058.98 Q169.862 1058.98 168.01 1061.14 Q166.181 1063.29 166.181 1067.04 Q166.181 1070.77 168.01 1072.94 Q169.862 1075.09 173.01 1075.09 Q176.158 1075.09 177.987 1072.94 Q179.839 1070.77 179.839 1067.04 Q179.839 1063.29 177.987 1061.14 Q176.158 1058.98 173.01 1058.98 M182.292 1044.33 L182.292 1048.59 Q180.533 1047.76 178.727 1047.32 Q176.945 1046.88 175.186 1046.88 Q170.556 1046.88 168.102 1050 Q165.672 1053.13 165.325 1059.45 Q166.69 1057.43 168.751 1056.37 Q170.811 1055.28 173.288 1055.28 Q178.496 1055.28 181.505 1058.45 Q184.538 1061.6 184.538 1067.04 Q184.538 1072.36 181.389 1075.58 Q178.241 1078.8 173.01 1078.8 Q167.015 1078.8 163.843 1074.22 Q160.672 1069.61 160.672 1060.88 Q160.672 1052.69 164.561 1047.83 Q168.45 1042.94 175.001 1042.94 Q176.76 1042.94 178.542 1043.29 Q180.348 1043.64 182.292 1044.33 Z" fill="#000000" fill-rule="nonzero" fill-opacity="1"></path><path clip-path="url(#clip420)" d="M192.639 1043.57 L210.996 1043.57 L210.996 1047.5 L196.922 1047.5 L196.922 1055.97 Q197.94 1055.63 198.959 1055.47 Q199.977 1055.28 200.996 1055.28 Q206.783 1055.28 210.162 1058.45 Q213.542 1061.62 213.542 1067.04 Q213.542 1072.62 210.07 1075.72 Q206.598 1078.8 200.278 1078.8 Q198.102 1078.8 195.834 1078.43 Q193.588 1078.06 191.181 1077.32 L191.181 1072.62 Q193.264 1073.75 195.487 1074.31 Q197.709 1074.86 200.186 1074.86 Q204.19 1074.86 206.528 1072.76 Q208.866 1070.65 208.866 1067.04 Q208.866 1063.43 206.528 1061.32 Q204.19 1059.22 200.186 1059.22 Q198.311 1059.22 196.436 1059.63 Q194.584 1060.05 192.639 1060.93 L192.639 1043.57 Z" fill="#000000" fill-rule="nonzero" fill-opacity="1"></path><path clip-path="url(#clip420)" d="M126.205 854.311 Q122.593 854.311 120.765 857.876 Q118.959 861.418 118.959 868.547 Q118.959 875.654 120.765 879.219 Q122.593 882.76 126.205 882.76 Q129.839 882.76 131.644 879.219 Q133.473 875.654 133.473 868.547 Q133.473 861.418 131.644 857.876 Q129.839 854.311 126.205 854.311 M126.205 850.608 Q132.015 850.608 135.07 855.214 Q138.149 859.797 138.149 868.547 Q138.149 877.274 135.07 881.881 Q132.015 886.464 126.205 886.464 Q120.394 886.464 117.316 881.881 Q114.26 877.274 114.26 868.547 Q114.26 859.797 117.316 855.214 Q120.394 850.608 126.205 850.608 Z" fill="#000000" fill-rule="nonzero" fill-opacity="1"></path><path clip-path="url(#clip420)" d="M146.366 879.913 L151.251 879.913 L151.251 885.793 L146.366 885.793 L146.366 879.913 Z" fill="#000000" fill-rule="nonzero" fill-opacity="1"></path><path clip-path="url(#clip420)" d="M160.255 851.233 L182.477 851.233 L182.477 853.223 L169.931 885.793 L165.047 885.793 L176.852 855.168 L160.255 855.168 L160.255 851.233 Z" fill="#000000" fill-rule="nonzero" fill-opacity="1"></path><path clip-path="url(#clip420)" d="M201.598 854.311 Q197.987 854.311 196.158 857.876 Q194.352 861.418 194.352 868.547 Q194.352 875.654 196.158 879.219 Q197.987 882.76 201.598 882.76 Q205.232 882.76 207.037 879.219 Q208.866 875.654 208.866 868.547 Q208.866 861.418 207.037 857.876 Q205.232 854.311 201.598 854.311 M201.598 850.608 Q207.408 850.608 210.463 855.214 Q213.542 859.797 213.542 868.547 Q213.542 877.274 210.463 881.881 Q207.408 886.464 201.598 886.464 Q195.787 886.464 192.709 881.881 Q189.653 877.274 189.653 868.547 Q189.653 859.797 192.709 855.214 Q195.787 850.608 201.598 850.608 Z" fill="#000000" fill-rule="nonzero" fill-opacity="1"></path><path clip-path="url(#clip420)" d="M127.2 661.976 Q123.589 661.976 121.76 665.541 Q119.955 669.083 119.955 676.212 Q119.955 683.319 121.76 686.884 Q123.589 690.425 127.2 690.425 Q130.834 690.425 132.64 686.884 Q134.468 683.319 134.468 676.212 Q134.468 669.083 132.64 665.541 Q130.834 661.976 127.2 661.976 M127.2 658.273 Q133.01 658.273 136.066 662.879 Q139.144 667.462 139.144 676.212 Q139.144 684.939 136.066 689.546 Q133.01 694.129 127.2 694.129 Q121.39 694.129 118.311 689.546 Q115.256 684.939 115.256 676.212 Q115.256 667.462 118.311 662.879 Q121.39 658.273 127.2 658.273 Z" fill="#000000" fill-rule="nonzero" fill-opacity="1"></path><path clip-path="url(#clip420)" d="M147.362 687.578 L152.246 687.578 L152.246 693.458 L147.362 693.458 L147.362 687.578 Z" fill="#000000" fill-rule="nonzero" fill-opacity="1"></path><path clip-path="url(#clip420)" d="M161.251 658.898 L183.473 658.898 L183.473 660.888 L170.927 693.458 L166.042 693.458 L177.848 662.833 L161.251 662.833 L161.251 658.898 Z" fill="#000000" fill-rule="nonzero" fill-opacity="1"></path><path clip-path="url(#clip420)" d="M192.639 658.898 L210.996 658.898 L210.996 662.833 L196.922 662.833 L196.922 671.305 Q197.94 670.958 198.959 670.796 Q199.977 670.611 200.996 670.611 Q206.783 670.611 210.162 673.782 Q213.542 676.953 213.542 682.37 Q213.542 687.948 210.07 691.05 Q206.598 694.129 200.278 694.129 Q198.102 694.129 195.834 693.759 Q193.588 693.388 191.181 692.648 L191.181 687.948 Q193.264 689.083 195.487 689.638 Q197.709 690.194 200.186 690.194 Q204.19 690.194 206.528 688.087 Q208.866 685.981 208.866 682.37 Q208.866 678.759 206.528 676.652 Q204.19 674.546 200.186 674.546 Q198.311 674.546 196.436 674.962 Q194.584 675.379 192.639 676.259 L192.639 658.898 Z" fill="#000000" fill-rule="nonzero" fill-opacity="1"></path><path clip-path="url(#clip420)" d="M126.205 469.642 Q122.593 469.642 120.765 473.206 Q118.959 476.748 118.959 483.878 Q118.959 490.984 120.765 494.549 Q122.593 498.091 126.205 498.091 Q129.839 498.091 131.644 494.549 Q133.473 490.984 133.473 483.878 Q133.473 476.748 131.644 473.206 Q129.839 469.642 126.205 469.642 M126.205 465.938 Q132.015 465.938 135.07 470.544 Q138.149 475.128 138.149 483.878 Q138.149 492.604 135.07 497.211 Q132.015 501.794 126.205 501.794 Q120.394 501.794 117.316 497.211 Q114.26 492.604 114.26 483.878 Q114.26 475.128 117.316 470.544 Q120.394 465.938 126.205 465.938 Z" fill="#000000" fill-rule="nonzero" fill-opacity="1"></path><path clip-path="url(#clip420)" d="M146.366 495.243 L151.251 495.243 L151.251 501.123 L146.366 501.123 L146.366 495.243 Z" fill="#000000" fill-rule="nonzero" fill-opacity="1"></path><path clip-path="url(#clip420)" d="M171.436 484.711 Q168.102 484.711 166.181 486.493 Q164.283 488.276 164.283 491.401 Q164.283 494.526 166.181 496.308 Q168.102 498.091 171.436 498.091 Q174.769 498.091 176.69 496.308 Q178.612 494.503 178.612 491.401 Q178.612 488.276 176.69 486.493 Q174.792 484.711 171.436 484.711 M166.76 482.72 Q163.751 481.979 162.061 479.919 Q160.394 477.859 160.394 474.896 Q160.394 470.753 163.334 468.345 Q166.297 465.938 171.436 465.938 Q176.598 465.938 179.538 468.345 Q182.477 470.753 182.477 474.896 Q182.477 477.859 180.788 479.919 Q179.121 481.979 176.135 482.72 Q179.514 483.507 181.389 485.799 Q183.288 488.091 183.288 491.401 Q183.288 496.424 180.209 499.109 Q177.153 501.794 171.436 501.794 Q165.718 501.794 162.64 499.109 Q159.584 496.424 159.584 491.401 Q159.584 488.091 161.482 485.799 Q163.38 483.507 166.76 482.72 M165.047 475.336 Q165.047 478.021 166.714 479.526 Q168.403 481.03 171.436 481.03 Q174.445 481.03 176.135 479.526 Q177.848 478.021 177.848 475.336 Q177.848 472.651 176.135 471.146 Q174.445 469.642 171.436 469.642 Q168.403 469.642 166.714 471.146 Q165.047 472.651 165.047 475.336 Z" fill="#000000" fill-rule="nonzero" fill-opacity="1"></path><path clip-path="url(#clip420)" d="M201.598 469.642 Q197.987 469.642 196.158 473.206 Q194.352 476.748 194.352 483.878 Q194.352 490.984 196.158 494.549 Q197.987 498.091 201.598 498.091 Q205.232 498.091 207.037 494.549 Q208.866 490.984 208.866 483.878 Q208.866 476.748 207.037 473.206 Q205.232 469.642 201.598 469.642 M201.598 465.938 Q207.408 465.938 210.463 470.544 Q213.542 475.128 213.542 483.878 Q213.542 492.604 210.463 497.211 Q207.408 501.794 201.598 501.794 Q195.787 501.794 192.709 497.211 Q189.653 492.604 189.653 483.878 Q189.653 475.128 192.709 470.544 Q195.787 465.938 201.598 465.938 Z" fill="#000000" fill-rule="nonzero" fill-opacity="1"></path><path clip-path="url(#clip420)" d="M127.2 277.307 Q123.589 277.307 121.76 280.872 Q119.955 284.413 119.955 291.543 Q119.955 298.649 121.76 302.214 Q123.589 305.756 127.2 305.756 Q130.834 305.756 132.64 302.214 Q134.468 298.649 134.468 291.543 Q134.468 284.413 132.64 280.872 Q130.834 277.307 127.2 277.307 M127.2 273.603 Q133.01 273.603 136.066 278.21 Q139.144 282.793 139.144 291.543 Q139.144 300.27 136.066 304.876 Q133.01 309.459 127.2 309.459 Q121.39 309.459 118.311 304.876 Q115.256 300.27 115.256 291.543 Q115.256 282.793 118.311 278.21 Q121.39 273.603 127.2 273.603 Z" fill="#000000" fill-rule="nonzero" fill-opacity="1"></path><path clip-path="url(#clip420)" d="M147.362 302.908 L152.246 302.908 L152.246 308.788 L147.362 308.788 L147.362 302.908 Z" fill="#000000" fill-rule="nonzero" fill-opacity="1"></path><path clip-path="url(#clip420)" d="M172.431 292.376 Q169.098 292.376 167.177 294.159 Q165.278 295.941 165.278 299.066 Q165.278 302.191 167.177 303.973 Q169.098 305.756 172.431 305.756 Q175.764 305.756 177.686 303.973 Q179.607 302.168 179.607 299.066 Q179.607 295.941 177.686 294.159 Q175.788 292.376 172.431 292.376 M167.755 290.385 Q164.746 289.645 163.056 287.584 Q161.39 285.524 161.39 282.561 Q161.39 278.418 164.329 276.01 Q167.292 273.603 172.431 273.603 Q177.593 273.603 180.533 276.01 Q183.473 278.418 183.473 282.561 Q183.473 285.524 181.783 287.584 Q180.116 289.645 177.13 290.385 Q180.51 291.172 182.385 293.464 Q184.283 295.756 184.283 299.066 Q184.283 304.089 181.204 306.774 Q178.149 309.459 172.431 309.459 Q166.714 309.459 163.635 306.774 Q160.579 304.089 160.579 299.066 Q160.579 295.756 162.477 293.464 Q164.376 291.172 167.755 290.385 M166.042 283.001 Q166.042 285.686 167.709 287.191 Q169.399 288.696 172.431 288.696 Q175.44 288.696 177.13 287.191 Q178.843 285.686 178.843 283.001 Q178.843 280.316 177.13 278.811 Q175.44 277.307 172.431 277.307 Q169.399 277.307 167.709 278.811 Q166.042 280.316 166.042 283.001 Z" fill="#000000" fill-rule="nonzero" fill-opacity="1"></path><path clip-path="url(#clip420)" d="M192.639 274.228 L210.996 274.228 L210.996 278.163 L196.922 278.163 L196.922 286.635 Q197.94 286.288 198.959 286.126 Q199.977 285.941 200.996 285.941 Q206.783 285.941 210.162 289.112 Q213.542 292.284 213.542 297.7 Q213.542 303.279 210.07 306.381 Q206.598 309.459 200.278 309.459 Q198.102 309.459 195.834 309.089 Q193.588 308.719 191.181 307.978 L191.181 303.279 Q193.264 304.413 195.487 304.969 Q197.709 305.524 200.186 305.524 Q204.19 305.524 206.528 303.418 Q208.866 301.311 208.866 297.7 Q208.866 294.089 206.528 291.983 Q204.19 289.876 200.186 289.876 Q198.311 289.876 196.436 290.293 Q194.584 290.709 192.639 291.589 L192.639 274.228 Z" fill="#000000" fill-rule="nonzero" fill-opacity="1"></path><path clip-path="url(#clip420)" d="M42.4881 1062.89 L77.5631 1062.89 L77.5631 1068.75 L42.679 1068.75 Q37.6183 1068.75 35.1038 1070.72 Q32.5894 1072.69 32.5894 1076.64 Q32.5894 1081.38 35.6131 1084.12 Q38.6368 1086.86 43.8567 1086.86 L64.0042 1086.86 L64.0042 1092.74 L28.3562 1092.74 L28.3562 1086.86 L33.8944 1086.86 Q30.6797 1084.76 29.0883 1081.92 Q27.4968 1079.06 27.4968 1075.33 Q27.4968 1069.19 31.2844 1066.04 Q35.1038 1062.89 42.4881 1062.89 Z" fill="#000000" fill-rule="nonzero" fill-opacity="1"></path><path clip-path="url(#clip420)" d="M34.4036 1029.72 L34.4036 988.919 L39.7508 988.919 L39.7508 1029.72 L34.4036 1029.72 M47.3897 1029.72 L47.3897 988.919 L52.8005 988.919 L52.8005 1029.72 L47.3897 1029.72 Z" fill="#000000" fill-rule="nonzero" fill-opacity="1"></path><path clip-path="url(#clip420)" d="M16.4842 954.895 L16.4842 948.465 L35.9632 948.465 L35.9632 925.103 L16.4842 925.103 L16.4842 918.674 L64.0042 918.674 L64.0042 925.103 L41.3741 925.103 L41.3741 948.465 L64.0042 948.465 L64.0042 954.895 L16.4842 954.895 Z" fill="#000000" fill-rule="nonzero" fill-opacity="1"></path><path clip-path="url(#clip420)" d="M74.8259 879.047 L79.3773 879.047 L79.3773 912.913 L74.8259 912.913 L74.8259 879.047 Z" fill="#000000" fill-rule="nonzero" fill-opacity="1"></path><path clip-path="url(#clip420)" d="M33.7671 850.083 L14.479 850.083 L14.479 844.227 L64.0042 844.227 L64.0042 850.083 L58.657 850.083 Q61.8398 851.929 63.3994 854.762 Q64.9272 857.563 64.9272 861.51 Q64.9272 867.971 59.771 872.045 Q54.6147 876.087 46.212 876.087 Q37.8093 876.087 32.6531 872.045 Q27.4968 867.971 27.4968 861.51 Q27.4968 857.563 29.0564 854.762 Q30.5842 851.929 33.7671 850.083 M46.212 870.04 Q52.6732 870.04 56.3653 867.398 Q60.0256 864.725 60.0256 860.078 Q60.0256 855.431 56.3653 852.757 Q52.6732 850.083 46.212 850.083 Q39.7508 850.083 36.0905 852.757 Q32.3984 855.431 32.3984 860.078 Q32.3984 864.725 36.0905 867.398 Q39.7508 870.04 46.212 870.04 Z" fill="#000000" fill-rule="nonzero" fill-opacity="1"></path><path clip-path="url(#clip420)" d="M28.3562 832.164 L28.3562 826.307 L64.0042 826.307 L64.0042 832.164 L28.3562 832.164 M14.479 832.164 L14.479 826.307 L21.895 826.307 L21.895 832.164 L14.479 832.164 Z" fill="#000000" fill-rule="nonzero" fill-opacity="1"></path><path clip-path="url(#clip420)" d="M29.4065 791.328 L34.9447 791.328 Q33.6716 793.811 33.035 796.484 Q32.3984 799.158 32.3984 802.022 Q32.3984 806.383 33.7352 808.579 Q35.072 810.743 37.7456 810.743 Q39.7826 810.743 40.9603 809.184 Q42.1061 807.624 43.1565 802.913 L43.6021 800.908 Q44.9389 794.67 47.3897 792.06 Q49.8086 789.418 54.1691 789.418 Q59.1344 789.418 62.0308 793.365 Q64.9272 797.28 64.9272 804.155 Q64.9272 807.019 64.3543 810.139 Q63.8132 813.226 62.6992 816.663 L56.6518 816.663 Q58.3387 813.417 59.198 810.266 Q60.0256 807.115 60.0256 804.027 Q60.0256 799.89 58.6251 797.662 Q57.1929 795.434 54.6147 795.434 Q52.2276 795.434 50.9545 797.057 Q49.6813 798.648 48.5037 804.091 L48.0262 806.128 Q46.8804 811.571 44.5251 813.99 Q42.138 816.409 38.0002 816.409 Q32.9713 816.409 30.2341 812.844 Q27.4968 809.279 27.4968 802.723 Q27.4968 799.476 27.9743 796.611 Q28.4517 793.747 29.4065 791.328 Z" fill="#000000" fill-rule="nonzero" fill-opacity="1"></path><path clip-path="url(#clip420)" d="M18.2347 774.3 L28.3562 774.3 L28.3562 762.237 L32.9077 762.237 L32.9077 774.3 L52.2594 774.3 Q56.6199 774.3 57.8613 773.122 Q59.1026 771.913 59.1026 768.252 L59.1026 762.237 L64.0042 762.237 L64.0042 768.252 Q64.0042 775.032 61.4897 777.61 Q58.9434 780.188 52.2594 780.188 L32.9077 780.188 L32.9077 784.485 L28.3562 784.485 L28.3562 780.188 L18.2347 780.188 L18.2347 774.3 Z" fill="#000000" fill-rule="nonzero" fill-opacity="1"></path><path clip-path="url(#clip420)" d="M16.4842 723.406 L16.4842 717.995 L70.0516 734.546 L70.0516 739.957 L16.4842 723.406 Z" fill="#000000" fill-rule="nonzero" fill-opacity="1"></path><path clip-path="url(#clip420)" d="M16.4842 690.877 L16.4842 684.448 L58.5933 684.448 L58.5933 661.308 L64.0042 661.308 L64.0042 690.877 L16.4842 690.877 Z" fill="#000000" fill-rule="nonzero" fill-opacity="1"></path><path clip-path="url(#clip420)" d="M74.8259 627.729 L79.3773 627.729 L79.3773 661.595 L74.8259 661.595 L74.8259 627.729 Z" fill="#000000" fill-rule="nonzero" fill-opacity="1"></path><path clip-path="url(#clip420)" d="M46.0847 606.022 Q46.0847 613.12 47.7079 615.857 Q49.3312 618.594 53.2461 618.594 Q56.3653 618.594 58.2114 616.557 Q60.0256 614.489 60.0256 610.956 Q60.0256 606.086 56.5881 603.158 Q53.1188 600.198 47.3897 600.198 L46.0847 600.198 L46.0847 606.022 M43.6657 594.341 L64.0042 594.341 L64.0042 600.198 L58.5933 600.198 Q61.8398 602.203 63.3994 605.195 Q64.9272 608.187 64.9272 612.515 Q64.9272 617.99 61.8716 621.236 Q58.7843 624.451 53.6281 624.451 Q47.6125 624.451 44.5569 620.441 Q41.5014 616.398 41.5014 608.409 L41.5014 600.198 L40.9285 600.198 Q36.8862 600.198 34.6901 602.871 Q32.4621 605.513 32.4621 610.319 Q32.4621 613.375 33.1941 616.271 Q33.9262 619.167 35.3903 621.841 L29.9795 621.841 Q28.7381 618.626 28.1334 615.603 Q27.4968 612.579 27.4968 609.714 Q27.4968 601.98 31.5072 598.161 Q35.5176 594.341 43.6657 594.341 Z" fill="#000000" fill-rule="nonzero" fill-opacity="1"></path><path clip-path="url(#clip420)" d="M28.3562 586.479 L28.3562 580.273 L58.275 569.133 L28.3562 557.993 L28.3562 551.786 L64.0042 565.154 L64.0042 573.111 L28.3562 586.479 Z" fill="#000000" fill-rule="nonzero" fill-opacity="1"></path><path clip-path="url(#clip420)" d="M45.7664 520.244 Q39.4007 520.244 35.8996 522.886 Q32.3984 525.496 32.3984 530.238 Q32.3984 534.949 35.8996 537.591 Q39.4007 540.201 45.7664 540.201 Q52.1003 540.201 55.6014 537.591 Q59.1026 534.949 59.1026 530.238 Q59.1026 525.496 55.6014 522.886 Q52.1003 520.244 45.7664 520.244 M59.58 514.388 Q68.683 514.388 73.1071 518.43 Q77.5631 522.472 77.5631 530.811 Q77.5631 533.899 77.0857 536.636 Q76.6401 539.373 75.6852 541.951 L69.9879 541.951 Q71.3884 539.373 72.0568 536.859 Q72.7252 534.344 72.7252 531.734 Q72.7252 525.973 69.7015 523.109 Q66.7096 520.244 60.6303 520.244 L57.7339 520.244 Q60.885 522.059 62.4446 524.891 Q64.0042 527.724 64.0042 531.671 Q64.0042 538.227 59.0071 542.238 Q54.01 546.248 45.7664 546.248 Q37.491 546.248 32.4939 542.238 Q27.4968 538.227 27.4968 531.671 Q27.4968 527.724 29.0564 524.891 Q30.616 522.059 33.7671 520.244 L28.3562 520.244 L28.3562 514.388 L59.58 514.388 Z" fill="#000000" fill-rule="nonzero" fill-opacity="1"></path><path clip-path="url(#clip420)" d="M438.955 33.264 L477.195 33.264 L477.195 40.1505 L447.137 40.1505 L447.137 58.0555 L475.939 58.0555 L475.939 64.9421 L447.137 64.9421 L447.137 86.8575 L477.924 86.8575 L477.924 93.744 L438.955 93.744 L438.955 33.264 Z" fill="#000000" fill-rule="nonzero" fill-opacity="1"></path><path clip-path="url(#clip420)" d="M514.018 30.7119 L514.018 36.9098 L506.888 36.9098 Q502.878 36.9098 501.298 38.5302 Q499.759 40.1505 499.759 44.3635 L499.759 48.3739 L512.033 48.3739 L512.033 54.1667 L499.759 54.1667 L499.759 93.744 L492.264 93.744 L492.264 54.1667 L485.135 54.1667 L485.135 48.3739 L492.264 48.3739 L492.264 45.2142 Q492.264 37.639 495.789 34.1957 Q499.313 30.7119 506.969 30.7119 L514.018 30.7119 Z" fill="#000000" fill-rule="nonzero" fill-opacity="1"></path><path clip-path="url(#clip420)" d="M543.225 30.7119 L543.225 36.9098 L536.095 36.9098 Q532.085 36.9098 530.505 38.5302 Q528.966 40.1505 528.966 44.3635 L528.966 48.3739 L541.24 48.3739 L541.24 54.1667 L528.966 54.1667 L528.966 93.744 L521.471 93.744 L521.471 54.1667 L514.342 54.1667 L514.342 48.3739 L521.471 48.3739 L521.471 45.2142 Q521.471 37.639 524.996 34.1957 Q528.52 30.7119 536.176 30.7119 L543.225 30.7119 Z" fill="#000000" fill-rule="nonzero" fill-opacity="1"></path><path clip-path="url(#clip420)" d="M549.463 48.3739 L556.917 48.3739 L556.917 93.744 L549.463 93.744 L549.463 48.3739 M549.463 30.7119 L556.917 30.7119 L556.917 40.1505 L549.463 40.1505 L549.463 30.7119 Z" fill="#000000" fill-rule="nonzero" fill-opacity="1"></path><path clip-path="url(#clip420)" d="M605.163 50.1158 L605.163 57.0833 Q602.003 55.3414 598.803 54.4907 Q595.643 53.5995 592.403 53.5995 Q585.152 53.5995 581.141 58.2176 Q577.131 62.7951 577.131 71.0994 Q577.131 79.4038 581.141 84.0218 Q585.152 88.5994 592.403 88.5994 Q595.643 88.5994 598.803 87.7487 Q602.003 86.8575 605.163 85.1156 L605.163 92.0021 Q602.044 93.4604 598.682 94.1896 Q595.36 94.9188 591.593 94.9188 Q581.344 94.9188 575.308 88.4778 Q569.272 82.0369 569.272 71.0994 Q569.272 60 575.348 53.64 Q581.465 47.2801 592.079 47.2801 Q595.522 47.2801 598.803 48.0093 Q602.084 48.6979 605.163 50.1158 Z" fill="#000000" fill-rule="nonzero" fill-opacity="1"></path><path clip-path="url(#clip420)" d="M618.126 48.3739 L625.58 48.3739 L625.58 93.744 L618.126 93.744 L618.126 48.3739 M618.126 30.7119 L625.58 30.7119 L625.58 40.1505 L618.126 40.1505 L618.126 30.7119 Z" fill="#000000" fill-rule="nonzero" fill-opacity="1"></path><path clip-path="url(#clip420)" d="M679.983 69.1955 L679.983 72.8413 L645.713 72.8413 Q646.199 80.5381 650.331 84.589 Q654.503 88.5994 661.916 88.5994 Q666.21 88.5994 670.221 87.5461 Q674.272 86.4929 678.241 84.3864 L678.241 91.435 Q674.231 93.1364 670.018 94.0276 Q665.805 94.9188 661.471 94.9188 Q650.614 94.9188 644.254 88.5994 Q637.935 82.2799 637.935 71.5045 Q637.935 60.3645 643.93 53.8426 Q649.966 47.2801 660.174 47.2801 Q669.329 47.2801 674.636 53.1944 Q679.983 59.0683 679.983 69.1955 M672.53 67.008 Q672.449 60.8912 669.086 57.2454 Q665.765 53.5995 660.255 53.5995 Q654.017 53.5995 650.25 57.1238 Q646.523 60.6481 645.956 67.0485 L672.53 67.008 Z" fill="#000000" fill-rule="nonzero" fill-opacity="1"></path><path clip-path="url(#clip420)" d="M729.931 66.3599 L729.931 93.744 L722.477 93.744 L722.477 66.6029 Q722.477 60.162 719.966 56.9618 Q717.454 53.7616 712.431 53.7616 Q706.395 53.7616 702.911 57.6099 Q699.428 61.4583 699.428 68.1018 L699.428 93.744 L691.933 93.744 L691.933 48.3739 L699.428 48.3739 L699.428 55.4224 Q702.101 51.331 705.707 49.3056 Q709.352 47.2801 714.092 47.2801 Q721.91 47.2801 725.921 52.1412 Q729.931 56.9618 729.931 66.3599 Z" fill="#000000" fill-rule="nonzero" fill-opacity="1"></path><path clip-path="url(#clip420)" d="M763.675 97.9569 Q760.515 106.059 757.518 108.53 Q754.52 111.001 749.497 111.001 L743.542 111.001 L743.542 104.762 L747.917 104.762 Q750.996 104.762 752.697 103.304 Q754.398 101.846 756.464 96.4176 L757.801 93.0148 L739.451 48.3739 L747.35 48.3739 L761.528 83.8598 L775.706 48.3739 L783.605 48.3739 L763.675 97.9569 Z" fill="#000000" fill-rule="nonzero" fill-opacity="1"></path><path clip-path="url(#clip420)" d="M837.847 53.5995 Q831.852 53.5995 828.368 58.2986 Q824.884 62.9571 824.884 71.0994 Q824.884 79.2418 828.327 83.9408 Q831.811 88.5994 837.847 88.5994 Q843.802 88.5994 847.286 83.9003 Q850.769 79.2013 850.769 71.0994 Q850.769 63.0381 847.286 58.3391 Q843.802 53.5995 837.847 53.5995 M837.847 47.2801 Q847.569 47.2801 853.119 53.5995 Q858.669 59.9189 858.669 71.0994 Q858.669 82.2394 853.119 88.5994 Q847.569 94.9188 837.847 94.9188 Q828.084 94.9188 822.535 88.5994 Q817.025 82.2394 817.025 71.0994 Q817.025 59.9189 822.535 53.5995 Q828.084 47.2801 837.847 47.2801 Z" fill="#000000" fill-rule="nonzero" fill-opacity="1"></path><path clip-path="url(#clip420)" d="M893.993 30.7119 L893.993 36.9098 L886.863 36.9098 Q882.853 36.9098 881.273 38.5302 Q879.733 40.1505 879.733 44.3635 L879.733 48.3739 L892.008 48.3739 L892.008 54.1667 L879.733 54.1667 L879.733 93.744 L872.239 93.744 L872.239 54.1667 L865.11 54.1667 L865.11 48.3739 L872.239 48.3739 L872.239 45.2142 Q872.239 37.639 875.764 34.1957 Q879.288 30.7119 886.944 30.7119 L893.993 30.7119 Z" fill="#000000" fill-rule="nonzero" fill-opacity="1"></path><path clip-path="url(#clip420)" d="M963.182 35.2489 L963.182 43.2292 Q958.523 41.0012 954.392 39.9075 Q950.26 38.8137 946.411 38.8137 Q939.727 38.8137 936.081 41.4063 Q932.476 43.9989 932.476 48.779 Q932.476 52.7894 934.866 54.8553 Q937.297 56.8808 944.021 58.1366 L948.963 59.1493 Q958.118 60.8912 962.453 65.3067 Q966.828 69.6816 966.828 77.0543 Q966.828 85.8447 960.914 90.3817 Q955.04 94.9188 943.657 94.9188 Q939.363 94.9188 934.502 93.9465 Q929.681 92.9743 924.496 91.0704 L924.496 82.6445 Q929.479 85.4396 934.259 86.8575 Q939.039 88.2753 943.657 88.2753 Q950.665 88.2753 954.473 85.5207 Q958.28 82.766 958.28 77.6619 Q958.28 73.2059 955.526 70.6944 Q952.812 68.1828 946.573 66.927 L941.591 65.9548 Q932.436 64.1319 928.344 60.243 Q924.253 56.3542 924.253 49.4271 Q924.253 41.4063 929.884 36.7883 Q935.555 32.1703 945.48 32.1703 Q949.733 32.1703 954.149 32.9399 Q958.564 33.7096 963.182 35.2489 Z" fill="#000000" fill-rule="nonzero" fill-opacity="1"></path><path clip-path="url(#clip420)" d="M979.588 33.264 L1014.34 33.264 L1014.34 40.1505 L987.771 40.1505 L987.771 57.9745 L1011.75 57.9745 L1011.75 64.8611 L987.771 64.8611 L987.771 93.744 L979.588 93.744 L979.588 33.264 Z" fill="#000000" fill-rule="nonzero" fill-opacity="1"></path><path clip-path="url(#clip420)" d="M1027.31 33.264 L1065.55 33.264 L1065.55 40.1505 L1035.49 40.1505 L1035.49 58.0555 L1064.29 58.0555 L1064.29 64.9421 L1035.49 64.9421 L1035.49 86.8575 L1066.28 86.8575 L1066.28 93.744 L1027.31 93.744 L1027.31 33.264 Z" fill="#000000" fill-rule="nonzero" fill-opacity="1"></path><path clip-path="url(#clip420)" d="M1144.58 69.1955 L1144.58 72.8413 L1110.31 72.8413 Q1110.8 80.5381 1114.93 84.589 Q1119.1 88.5994 1126.51 88.5994 Q1130.81 88.5994 1134.82 87.5461 Q1138.87 86.4929 1142.84 84.3864 L1142.84 91.435 Q1138.83 93.1364 1134.62 94.0276 Q1130.4 94.9188 1126.07 94.9188 Q1115.21 94.9188 1108.85 88.5994 Q1102.53 82.2799 1102.53 71.5045 Q1102.53 60.3645 1108.53 53.8426 Q1114.56 47.2801 1124.77 47.2801 Q1133.93 47.2801 1139.23 53.1944 Q1144.58 59.0683 1144.58 69.1955 M1137.13 67.008 Q1137.05 60.8912 1133.68 57.2454 Q1130.36 53.5995 1124.85 53.5995 Q1118.62 53.5995 1114.85 57.1238 Q1111.12 60.6481 1110.55 67.0485 L1137.13 67.008 Z" fill="#000000" fill-rule="nonzero" fill-opacity="1"></path><path clip-path="url(#clip420)" d="M1194.53 66.3599 L1194.53 93.744 L1187.08 93.744 L1187.08 66.6029 Q1187.08 60.162 1184.56 56.9618 Q1182.05 53.7616 1177.03 53.7616 Q1170.99 53.7616 1167.51 57.6099 Q1164.03 61.4583 1164.03 68.1018 L1164.03 93.744 L1156.53 93.744 L1156.53 48.3739 L1164.03 48.3739 L1164.03 55.4224 Q1166.7 51.331 1170.3 49.3056 Q1173.95 47.2801 1178.69 47.2801 Q1186.51 47.2801 1190.52 52.1412 Q1194.53 56.9618 1194.53 66.3599 Z" fill="#000000" fill-rule="nonzero" fill-opacity="1"></path><path clip-path="url(#clip420)" d="M1242.05 50.1158 L1242.05 57.0833 Q1238.89 55.3414 1235.69 54.4907 Q1232.53 53.5995 1229.29 53.5995 Q1222.03 53.5995 1218.02 58.2176 Q1214.01 62.7951 1214.01 71.0994 Q1214.01 79.4038 1218.02 84.0218 Q1222.03 88.5994 1229.29 88.5994 Q1232.53 88.5994 1235.69 87.7487 Q1238.89 86.8575 1242.05 85.1156 L1242.05 92.0021 Q1238.93 93.4604 1235.56 94.1896 Q1232.24 94.9188 1228.48 94.9188 Q1218.23 94.9188 1212.19 88.4778 Q1206.16 82.0369 1206.16 71.0994 Q1206.16 60 1212.23 53.64 Q1218.35 47.2801 1228.96 47.2801 Q1232.41 47.2801 1235.69 48.0093 Q1238.97 48.6979 1242.05 50.1158 Z" fill="#000000" fill-rule="nonzero" fill-opacity="1"></path><path clip-path="url(#clip420)" d="M1272.59 53.5995 Q1266.59 53.5995 1263.11 58.2986 Q1259.63 62.9571 1259.63 71.0994 Q1259.63 79.2418 1263.07 83.9408 Q1266.55 88.5994 1272.59 88.5994 Q1278.54 88.5994 1282.03 83.9003 Q1285.51 79.2013 1285.51 71.0994 Q1285.51 63.0381 1282.03 58.3391 Q1278.54 53.5995 1272.59 53.5995 M1272.59 47.2801 Q1282.31 47.2801 1287.86 53.5995 Q1293.41 59.9189 1293.41 71.0994 Q1293.41 82.2394 1287.86 88.5994 Q1282.31 94.9188 1272.59 94.9188 Q1262.83 94.9188 1257.28 88.5994 Q1251.77 82.2394 1251.77 71.0994 Q1251.77 59.9189 1257.28 53.5995 Q1262.83 47.2801 1272.59 47.2801 Z" fill="#000000" fill-rule="nonzero" fill-opacity="1"></path><path clip-path="url(#clip420)" d="M1335.62 55.2604 L1335.62 30.7119 L1343.08 30.7119 L1343.08 93.744 L1335.62 93.744 L1335.62 86.9385 Q1333.27 90.9894 1329.67 92.9743 Q1326.1 94.9188 1321.08 94.9188 Q1312.86 94.9188 1307.67 88.3563 Q1302.53 81.7938 1302.53 71.0994 Q1302.53 60.4051 1307.67 53.8426 Q1312.86 47.2801 1321.08 47.2801 Q1326.1 47.2801 1329.67 49.2651 Q1333.27 51.2095 1335.62 55.2604 M1310.22 71.0994 Q1310.22 79.3228 1313.59 84.0218 Q1316.99 88.6804 1322.9 88.6804 Q1328.82 88.6804 1332.22 84.0218 Q1335.62 79.3228 1335.62 71.0994 Q1335.62 62.8761 1332.22 58.2176 Q1328.82 53.5185 1322.9 53.5185 Q1316.99 53.5185 1313.59 58.2176 Q1310.22 62.8761 1310.22 71.0994 Z" fill="#000000" fill-rule="nonzero" fill-opacity="1"></path><path clip-path="url(#clip420)" d="M1358.43 48.3739 L1365.88 48.3739 L1365.88 93.744 L1358.43 93.744 L1358.43 48.3739 M1358.43 30.7119 L1365.88 30.7119 L1365.88 40.1505 L1358.43 40.1505 L1358.43 30.7119 Z" fill="#000000" fill-rule="nonzero" fill-opacity="1"></path><path clip-path="url(#clip420)" d="M1419.19 66.3599 L1419.19 93.744 L1411.74 93.744 L1411.74 66.6029 Q1411.74 60.162 1409.23 56.9618 Q1406.72 53.7616 1401.69 53.7616 Q1395.66 53.7616 1392.17 57.6099 Q1388.69 61.4583 1388.69 68.1018 L1388.69 93.744 L1381.19 93.744 L1381.19 48.3739 L1388.69 48.3739 L1388.69 55.4224 Q1391.36 51.331 1394.97 49.3056 Q1398.61 47.2801 1403.35 47.2801 Q1411.17 47.2801 1415.18 52.1412 Q1419.19 56.9618 1419.19 66.3599 Z" fill="#000000" fill-rule="nonzero" fill-opacity="1"></path><path clip-path="url(#clip420)" d="M1463.91 70.5323 Q1463.91 62.4305 1460.55 57.9745 Q1457.23 53.5185 1451.19 53.5185 Q1445.2 53.5185 1441.84 57.9745 Q1438.52 62.4305 1438.52 70.5323 Q1438.52 78.5936 1441.84 83.0496 Q1445.2 87.5056 1451.19 87.5056 Q1457.23 87.5056 1460.55 83.0496 Q1463.91 78.5936 1463.91 70.5323 M1471.37 88.1132 Q1471.37 99.6988 1466.22 105.33 Q1461.08 111.001 1450.47 111.001 Q1446.54 111.001 1443.05 110.393 Q1439.57 109.826 1436.29 108.611 L1436.29 101.36 Q1439.57 103.142 1442.77 103.993 Q1445.97 104.843 1449.29 104.843 Q1456.62 104.843 1460.27 100.995 Q1463.91 97.1873 1463.91 89.45 L1463.91 85.7637 Q1461.61 89.7741 1458 91.7591 Q1454.39 93.744 1449.37 93.744 Q1441.03 93.744 1435.92 87.3841 Q1430.82 81.0242 1430.82 70.5323 Q1430.82 60 1435.92 53.64 Q1441.03 47.2801 1449.37 47.2801 Q1454.39 47.2801 1458 49.2651 Q1461.61 51.25 1463.91 55.2604 L1463.91 48.3739 L1471.37 48.3739 L1471.37 88.1132 Z" fill="#000000" fill-rule="nonzero" fill-opacity="1"></path><path clip-path="url(#clip420)" d="M1508.76 48.3739 L1516.21 48.3739 L1525.53 83.7788 L1534.81 48.3739 L1543.6 48.3739 L1552.91 83.7788 L1562.19 48.3739 L1569.64 48.3739 L1557.77 93.744 L1548.98 93.744 L1539.22 56.5567 L1529.42 93.744 L1520.63 93.744 L1508.76 48.3739 Z" fill="#000000" fill-rule="nonzero" fill-opacity="1"></path><path clip-path="url(#clip420)" d="M1580.94 48.3739 L1588.4 48.3739 L1588.4 93.744 L1580.94 93.744 L1580.94 48.3739 M1580.94 30.7119 L1588.4 30.7119 L1588.4 40.1505 L1580.94 40.1505 L1580.94 30.7119 Z" fill="#000000" fill-rule="nonzero" fill-opacity="1"></path><path clip-path="url(#clip420)" d="M1611.37 35.492 L1611.37 48.3739 L1626.72 48.3739 L1626.72 54.1667 L1611.37 54.1667 L1611.37 78.7962 Q1611.37 84.3459 1612.87 85.9258 Q1614.41 87.5056 1619.06 87.5056 L1626.72 87.5056 L1626.72 93.744 L1619.06 93.744 Q1610.44 93.744 1607.15 90.5438 Q1603.87 87.3031 1603.87 78.7962 L1603.87 54.1667 L1598.4 54.1667 L1598.4 48.3739 L1603.87 48.3739 L1603.87 35.492 L1611.37 35.492 Z" fill="#000000" fill-rule="nonzero" fill-opacity="1"></path><path clip-path="url(#clip420)" d="M1674.24 66.3599 L1674.24 93.744 L1666.78 93.744 L1666.78 66.6029 Q1666.78 60.162 1664.27 56.9618 Q1661.76 53.7616 1656.74 53.7616 Q1650.7 53.7616 1647.22 57.6099 Q1643.73 61.4583 1643.73 68.1018 L1643.73 93.744 L1636.24 93.744 L1636.24 30.7119 L1643.73 30.7119 L1643.73 55.4224 Q1646.41 51.331 1650.01 49.3056 Q1653.66 47.2801 1658.4 47.2801 Q1666.22 47.2801 1670.23 52.1412 Q1674.24 56.9618 1674.24 66.3599 Z" fill="#000000" fill-rule="nonzero" fill-opacity="1"></path><path clip-path="url(#clip420)" d="M1741.77 55.3414 Q1740.51 54.6123 1739.01 54.2882 Q1737.55 53.9236 1735.77 53.9236 Q1729.45 53.9236 1726.05 58.0555 Q1722.69 62.1469 1722.69 69.8437 L1722.69 93.744 L1715.19 93.744 L1715.19 48.3739 L1722.69 48.3739 L1722.69 55.4224 Q1725.04 51.2905 1728.8 49.3056 Q1732.57 47.2801 1737.96 47.2801 Q1738.73 47.2801 1739.66 47.4017 Q1740.59 47.4827 1741.73 47.6852 L1741.77 55.3414 Z" fill="#000000" fill-rule="nonzero" fill-opacity="1"></path><path clip-path="url(#clip420)" d="M1786.57 69.1955 L1786.57 72.8413 L1752.3 72.8413 Q1752.78 80.5381 1756.92 84.589 Q1761.09 88.5994 1768.5 88.5994 Q1772.8 88.5994 1776.81 87.5461 Q1780.86 86.4929 1784.83 84.3864 L1784.83 91.435 Q1780.82 93.1364 1776.6 94.0276 Q1772.39 94.9188 1768.06 94.9188 Q1757.2 94.9188 1750.84 88.5994 Q1744.52 82.2799 1744.52 71.5045 Q1744.52 60.3645 1750.52 53.8426 Q1756.55 47.2801 1766.76 47.2801 Q1775.91 47.2801 1781.22 53.1944 Q1786.57 59.0683 1786.57 69.1955 M1779.12 67.008 Q1779.03 60.8912 1775.67 57.2454 Q1772.35 53.5995 1766.84 53.5995 Q1760.6 53.5995 1756.84 57.1238 Q1753.11 60.6481 1752.54 67.0485 L1779.12 67.008 Z" fill="#000000" fill-rule="nonzero" fill-opacity="1"></path><path clip-path="url(#clip420)" d="M1806.01 86.9385 L1806.01 111.001 L1798.52 111.001 L1798.52 48.3739 L1806.01 48.3739 L1806.01 55.2604 Q1808.36 51.2095 1811.93 49.2651 Q1815.53 47.2801 1820.52 47.2801 Q1828.78 47.2801 1833.92 53.8426 Q1839.11 60.4051 1839.11 71.0994 Q1839.11 81.7938 1833.92 88.3563 Q1828.78 94.9188 1820.52 94.9188 Q1815.53 94.9188 1811.93 92.9743 Q1808.36 90.9894 1806.01 86.9385 M1831.37 71.0994 Q1831.37 62.8761 1827.97 58.2176 Q1824.61 53.5185 1818.69 53.5185 Q1812.78 53.5185 1809.38 58.2176 Q1806.01 62.8761 1806.01 71.0994 Q1806.01 79.3228 1809.38 84.0218 Q1812.78 88.6804 1818.69 88.6804 Q1824.61 88.6804 1827.97 84.0218 Q1831.37 79.3228 1831.37 71.0994 Z" fill="#000000" fill-rule="nonzero" fill-opacity="1"></path><path clip-path="url(#clip420)" d="M1890.27 69.1955 L1890.27 72.8413 L1856 72.8413 Q1856.49 80.5381 1860.62 84.589 Q1864.79 88.5994 1872.2 88.5994 Q1876.5 88.5994 1880.51 87.5461 Q1884.56 86.4929 1888.53 84.3864 L1888.53 91.435 Q1884.52 93.1364 1880.31 94.0276 Q1876.09 94.9188 1871.76 94.9188 Q1860.9 94.9188 1854.54 88.5994 Q1848.22 82.2799 1848.22 71.5045 Q1848.22 60.3645 1854.22 53.8426 Q1860.25 47.2801 1870.46 47.2801 Q1879.62 47.2801 1884.92 53.1944 Q1890.27 59.0683 1890.27 69.1955 M1882.82 67.008 Q1882.74 60.8912 1879.38 57.2454 Q1876.05 53.5995 1870.54 53.5995 Q1864.31 53.5995 1860.54 57.1238 Q1856.81 60.6481 1856.24 67.0485 L1882.82 67.008 Z" fill="#000000" fill-rule="nonzero" fill-opacity="1"></path><path clip-path="url(#clip420)" d="M1909.88 35.492 L1909.88 48.3739 L1925.23 48.3739 L1925.23 54.1667 L1909.88 54.1667 L1909.88 78.7962 Q1909.88 84.3459 1911.38 85.9258 Q1912.92 87.5056 1917.58 87.5056 L1925.23 87.5056 L1925.23 93.744 L1917.58 93.744 Q1908.95 93.744 1905.67 90.5438 Q1902.38 87.3031 1902.38 78.7962 L1902.38 54.1667 L1896.92 54.1667 L1896.92 48.3739 L1902.38 48.3739 L1902.38 35.492 L1909.88 35.492 Z" fill="#000000" fill-rule="nonzero" fill-opacity="1"></path><path clip-path="url(#clip420)" d="M1955.65 70.9374 Q1946.62 70.9374 1943.14 73.0034 Q1939.65 75.0693 1939.65 80.0519 Q1939.65 84.0218 1942.25 86.3714 Q1944.88 88.6804 1949.37 88.6804 Q1955.57 88.6804 1959.3 84.3054 Q1963.07 79.8899 1963.07 72.5983 L1963.07 70.9374 L1955.65 70.9374 M1970.52 67.8587 L1970.52 93.744 L1963.07 93.744 L1963.07 86.8575 Q1960.51 90.9894 1956.71 92.9743 Q1952.9 94.9188 1947.39 94.9188 Q1940.42 94.9188 1936.29 91.0299 Q1932.2 87.1005 1932.2 80.5381 Q1932.2 72.8818 1937.3 68.993 Q1942.45 65.1041 1952.62 65.1041 L1963.07 65.1041 L1963.07 64.3749 Q1963.07 59.2303 1959.66 56.4352 Q1956.3 53.5995 1950.18 53.5995 Q1946.3 53.5995 1942.61 54.5312 Q1938.92 55.463 1935.52 57.3264 L1935.52 50.4398 Q1939.61 48.86 1943.46 48.0903 Q1947.31 47.2801 1950.95 47.2801 Q1960.8 47.2801 1965.66 52.3843 Q1970.52 57.4884 1970.52 67.8587 Z" fill="#000000" fill-rule="nonzero" fill-opacity="1"></path><path clip-path="url(#clip420)" d="M1993.25 35.492 L1993.25 48.3739 L2008.6 48.3739 L2008.6 54.1667 L1993.25 54.1667 L1993.25 78.7962 Q1993.25 84.3459 1994.74 85.9258 Q1996.28 87.5056 2000.94 87.5056 L2008.6 87.5056 L2008.6 93.744 L2000.94 93.744 Q1992.31 93.744 1989.03 90.5438 Q1985.75 87.3031 1985.75 78.7962 L1985.75 54.1667 L1980.28 54.1667 L1980.28 48.3739 L1985.75 48.3739 L1985.75 35.492 L1993.25 35.492 Z" fill="#000000" fill-rule="nonzero" fill-opacity="1"></path><path clip-path="url(#clip420)" d="M2018.4 48.3739 L2025.86 48.3739 L2025.86 93.744 L2018.4 93.744 L2018.4 48.3739 M2018.4 30.7119 L2025.86 30.7119 L2025.86 40.1505 L2018.4 40.1505 L2018.4 30.7119 Z" fill="#000000" fill-rule="nonzero" fill-opacity="1"></path><path clip-path="url(#clip420)" d="M2059.03 53.5995 Q2053.04 53.5995 2049.55 58.2986 Q2046.07 62.9571 2046.07 71.0994 Q2046.07 79.2418 2049.51 83.9408 Q2053 88.5994 2059.03 88.5994 Q2064.99 88.5994 2068.47 83.9003 Q2071.96 79.2013 2071.96 71.0994 Q2071.96 63.0381 2068.47 58.3391 Q2064.99 53.5995 2059.03 53.5995 M2059.03 47.2801 Q2068.75 47.2801 2074.3 53.5995 Q2079.85 59.9189 2079.85 71.0994 Q2079.85 82.2394 2074.3 88.5994 Q2068.75 94.9188 2059.03 94.9188 Q2049.27 94.9188 2043.72 88.5994 Q2038.21 82.2394 2038.21 71.0994 Q2038.21 59.9189 2043.72 53.5995 Q2049.27 47.2801 2059.03 47.2801 Z" fill="#000000" fill-rule="nonzero" fill-opacity="1"></path><path clip-path="url(#clip420)" d="M2129.92 66.3599 L2129.92 93.744 L2122.47 93.744 L2122.47 66.6029 Q2122.47 60.162 2119.96 56.9618 Q2117.45 53.7616 2112.42 53.7616 Q2106.39 53.7616 2102.9 57.6099 Q2099.42 61.4583 2099.42 68.1018 L2099.42 93.744 L2091.93 93.744 L2091.93 48.3739 L2099.42 48.3739 L2099.42 55.4224 Q2102.09 51.331 2105.7 49.3056 Q2109.34 47.2801 2114.08 47.2801 Q2121.9 47.2801 2125.91 52.1412 Q2129.92 56.9618 2129.92 66.3599 Z" fill="#000000" fill-rule="nonzero" fill-opacity="1"></path><path clip-path="url(#clip420)" d="M518.757 145.98 L518.757 121.432 L526.211 121.432 L526.211 184.464 L518.757 184.464 L518.757 177.658 Q516.408 181.709 512.802 183.694 Q509.238 185.639 504.215 185.639 Q495.991 185.639 490.806 179.076 Q485.661 172.514 485.661 161.819 Q485.661 151.125 490.806 144.563 Q495.991 138 504.215 138 Q509.238 138 512.802 139.985 Q516.408 141.93 518.757 145.98 M493.358 161.819 Q493.358 170.043 496.72 174.742 Q500.123 179.4 506.037 179.4 Q511.952 179.4 515.355 174.742 Q518.757 170.043 518.757 161.819 Q518.757 153.596 515.355 148.938 Q511.952 144.239 506.037 144.239 Q500.123 144.239 496.72 148.938 Q493.358 153.596 493.358 161.819 Z" fill="#000000" fill-rule="nonzero" fill-opacity="1"></path><path clip-path="url(#clip420)" d="M541.564 139.094 L549.018 139.094 L549.018 184.464 L541.564 184.464 L541.564 139.094 M541.564 121.432 L549.018 121.432 L549.018 130.871 L541.564 130.871 L541.564 121.432 Z" fill="#000000" fill-rule="nonzero" fill-opacity="1"></path><path clip-path="url(#clip420)" d="M593.537 140.431 L593.537 147.479 Q590.377 145.859 586.975 145.049 Q583.572 144.239 579.926 144.239 Q574.376 144.239 571.581 145.94 Q568.827 147.641 568.827 151.044 Q568.827 153.637 570.811 155.135 Q572.796 156.594 578.792 157.931 L581.344 158.498 Q589.284 160.199 592.605 163.318 Q595.968 166.397 595.968 171.947 Q595.968 178.266 590.944 181.952 Q585.962 185.639 577.212 185.639 Q573.566 185.639 569.596 184.91 Q565.667 184.221 561.292 182.803 L561.292 175.106 Q565.424 177.253 569.434 178.347 Q573.445 179.4 577.374 179.4 Q582.64 179.4 585.476 177.618 Q588.311 175.795 588.311 172.514 Q588.311 169.476 586.245 167.855 Q584.22 166.235 577.293 164.736 L574.7 164.128 Q567.773 162.67 564.695 159.672 Q561.616 156.634 561.616 151.368 Q561.616 144.968 566.153 141.484 Q570.69 138 579.035 138 Q583.167 138 586.813 138.608 Q590.458 139.215 593.537 140.431 Z" fill="#000000" fill-rule="nonzero" fill-opacity="1"></path><path clip-path="url(#clip420)" d="M615.209 126.212 L615.209 139.094 L630.562 139.094 L630.562 144.887 L615.209 144.887 L615.209 169.516 Q615.209 175.066 616.708 176.646 Q618.248 178.226 622.906 178.226 L630.562 178.226 L630.562 184.464 L622.906 184.464 Q614.278 184.464 610.996 181.264 Q607.715 178.023 607.715 169.516 L607.715 144.887 L602.246 144.887 L602.246 139.094 L607.715 139.094 L607.715 126.212 L615.209 126.212 Z" fill="#000000" fill-rule="nonzero" fill-opacity="1"></path><path clip-path="url(#clip420)" d="M666.656 146.061 Q665.4 145.332 663.901 145.008 Q662.443 144.644 660.661 144.644 Q654.341 144.644 650.938 148.776 Q647.576 152.867 647.576 160.564 L647.576 184.464 L640.082 184.464 L640.082 139.094 L647.576 139.094 L647.576 146.142 Q649.926 142.011 653.693 140.026 Q657.46 138 662.848 138 Q663.618 138 664.549 138.122 Q665.481 138.203 666.615 138.405 L666.656 146.061 Z" fill="#000000" fill-rule="nonzero" fill-opacity="1"></path><path clip-path="url(#clip420)" d="M674.474 139.094 L681.928 139.094 L681.928 184.464 L674.474 184.464 L674.474 139.094 M674.474 121.432 L681.928 121.432 L681.928 130.871 L674.474 130.871 L674.474 121.432 Z" fill="#000000" fill-rule="nonzero" fill-opacity="1"></path><path clip-path="url(#clip420)" d="M730.093 161.819 Q730.093 153.596 726.69 148.938 Q723.328 144.239 717.414 144.239 Q711.499 144.239 708.097 148.938 Q704.734 153.596 704.734 161.819 Q704.734 170.043 708.097 174.742 Q711.499 179.4 717.414 179.4 Q723.328 179.4 726.69 174.742 Q730.093 170.043 730.093 161.819 M704.734 145.98 Q707.084 141.93 710.649 139.985 Q714.254 138 719.237 138 Q727.5 138 732.645 144.563 Q737.83 151.125 737.83 161.819 Q737.83 172.514 732.645 179.076 Q727.5 185.639 719.237 185.639 Q714.254 185.639 710.649 183.694 Q707.084 181.709 704.734 177.658 L704.734 184.464 L697.24 184.464 L697.24 121.432 L704.734 121.432 L704.734 145.98 Z" fill="#000000" fill-rule="nonzero" fill-opacity="1"></path><path clip-path="url(#clip420)" d="M749.416 166.559 L749.416 139.094 L756.869 139.094 L756.869 166.275 Q756.869 172.716 759.381 175.957 Q761.893 179.157 766.916 179.157 Q772.952 179.157 776.435 175.309 Q779.96 171.461 779.96 164.817 L779.96 139.094 L787.413 139.094 L787.413 184.464 L779.96 184.464 L779.96 177.496 Q777.246 181.628 773.64 183.654 Q770.075 185.639 765.336 185.639 Q757.518 185.639 753.467 180.778 Q749.416 175.917 749.416 166.559 M768.172 138 L768.172 138 Z" fill="#000000" fill-rule="nonzero" fill-opacity="1"></path><path clip-path="url(#clip420)" d="M810.139 126.212 L810.139 139.094 L825.492 139.094 L825.492 144.887 L810.139 144.887 L810.139 169.516 Q810.139 175.066 811.638 176.646 Q813.177 178.226 817.836 178.226 L825.492 178.226 L825.492 184.464 L817.836 184.464 Q809.207 184.464 805.926 181.264 Q802.645 178.023 802.645 169.516 L802.645 144.887 L797.176 144.887 L797.176 139.094 L802.645 139.094 L802.645 126.212 L810.139 126.212 Z" fill="#000000" fill-rule="nonzero" fill-opacity="1"></path><path clip-path="url(#clip420)" d="M835.295 139.094 L842.749 139.094 L842.749 184.464 L835.295 184.464 L835.295 139.094 M835.295 121.432 L842.749 121.432 L842.749 130.871 L835.295 130.871 L835.295 121.432 Z" fill="#000000" fill-rule="nonzero" fill-opacity="1"></path><path clip-path="url(#clip420)" d="M875.926 144.32 Q869.93 144.32 866.446 149.019 Q862.963 153.677 862.963 161.819 Q862.963 169.962 866.406 174.661 Q869.89 179.319 875.926 179.319 Q881.88 179.319 885.364 174.62 Q888.848 169.921 888.848 161.819 Q888.848 153.758 885.364 149.059 Q881.88 144.32 875.926 144.32 M875.926 138 Q885.648 138 891.197 144.32 Q896.747 150.639 896.747 161.819 Q896.747 172.959 891.197 179.319 Q885.648 185.639 875.926 185.639 Q866.163 185.639 860.613 179.319 Q855.104 172.959 855.104 161.819 Q855.104 150.639 860.613 144.32 Q866.163 138 875.926 138 Z" fill="#000000" fill-rule="nonzero" fill-opacity="1"></path><path clip-path="url(#clip420)" d="M946.816 157.08 L946.816 184.464 L939.363 184.464 L939.363 157.323 Q939.363 150.882 936.851 147.682 Q934.34 144.482 929.316 144.482 Q923.281 144.482 919.797 148.33 Q916.313 152.178 916.313 158.822 L916.313 184.464 L908.819 184.464 L908.819 139.094 L916.313 139.094 L916.313 146.142 Q918.987 142.051 922.592 140.026 Q926.238 138 930.977 138 Q938.796 138 942.806 142.861 Q946.816 147.682 946.816 157.08 Z" fill="#000000" fill-rule="nonzero" fill-opacity="1"></path><path clip-path="url(#clip420)" d="M963.587 174.175 L972.135 174.175 L972.135 184.464 L963.587 184.464 L963.587 174.175 M963.587 141.565 L972.135 141.565 L972.135 151.854 L963.587 151.854 L963.587 141.565 Z" fill="#000000" fill-rule="nonzero" fill-opacity="1"></path><path clip-path="url(#clip420)" d="M1015.32 121.432 L1032.49 121.432 L1032.49 127.225 L1022.77 127.225 L1022.77 189.609 L1032.49 189.609 L1032.49 195.401 L1015.32 195.401 L1015.32 121.432 Z" fill="#000000" fill-rule="nonzero" fill-opacity="1"></path><path clip-path="url(#clip420)" d="M1066.93 129.372 Q1060.61 129.372 1057.41 135.61 Q1054.25 141.808 1054.25 154.285 Q1054.25 166.721 1057.41 172.959 Q1060.61 179.157 1066.93 179.157 Q1073.29 179.157 1076.45 172.959 Q1079.65 166.721 1079.65 154.285 Q1079.65 141.808 1076.45 135.61 Q1073.29 129.372 1066.93 129.372 M1066.93 122.89 Q1077.09 122.89 1082.44 130.952 Q1087.83 138.972 1087.83 154.285 Q1087.83 169.557 1082.44 177.618 Q1077.09 185.639 1066.93 185.639 Q1056.76 185.639 1051.37 177.618 Q1046.02 169.557 1046.02 154.285 Q1046.02 138.972 1051.37 130.952 Q1056.76 122.89 1066.93 122.89 Z" fill="#000000" fill-rule="nonzero" fill-opacity="1"></path><path clip-path="url(#clip420)" d="M1102.21 174.175 L1110.76 174.175 L1110.76 184.464 L1102.21 184.464 L1102.21 174.175 Z" fill="#000000" fill-rule="nonzero" fill-opacity="1"></path><path clip-path="url(#clip420)" d="M1151.06 131.114 L1130.4 163.399 L1151.06 163.399 L1151.06 131.114 M1148.92 123.984 L1159.21 123.984 L1159.21 163.399 L1167.83 163.399 L1167.83 170.205 L1159.21 170.205 L1159.21 184.464 L1151.06 184.464 L1151.06 170.205 L1123.76 170.205 L1123.76 162.306 L1148.92 123.984 Z" fill="#000000" fill-rule="nonzero" fill-opacity="1"></path><path clip-path="url(#clip420)" d="M1181.44 123.984 L1213.57 123.984 L1213.57 130.871 L1188.94 130.871 L1188.94 145.697 Q1190.72 145.089 1192.5 144.806 Q1194.29 144.482 1196.07 144.482 Q1206.2 144.482 1212.11 150.031 Q1218.02 155.581 1218.02 165.06 Q1218.02 174.823 1211.95 180.251 Q1205.87 185.639 1194.81 185.639 Q1191 185.639 1187.03 184.991 Q1183.11 184.342 1178.89 183.046 L1178.89 174.823 Q1182.54 176.808 1186.43 177.78 Q1190.32 178.752 1194.65 178.752 Q1201.66 178.752 1205.75 175.066 Q1209.84 171.38 1209.84 165.06 Q1209.84 158.741 1205.75 155.054 Q1201.66 151.368 1194.65 151.368 Q1191.37 151.368 1188.09 152.097 Q1184.85 152.826 1181.44 154.366 L1181.44 123.984 Z" fill="#000000" fill-rule="nonzero" fill-opacity="1"></path><path clip-path="url(#clip420)" d="M1235 174.175 L1243.55 174.175 L1243.55 181.142 L1236.9 194.105 L1231.68 194.105 L1235 181.142 L1235 174.175 Z" fill="#000000" fill-rule="nonzero" fill-opacity="1"></path><path clip-path="url(#clip420)" d="M1304.39 129.372 Q1298.07 129.372 1294.87 135.61 Q1291.71 141.808 1291.71 154.285 Q1291.71 166.721 1294.87 172.959 Q1298.07 179.157 1304.39 179.157 Q1310.75 179.157 1313.91 172.959 Q1317.11 166.721 1317.11 154.285 Q1317.11 141.808 1313.91 135.61 Q1310.75 129.372 1304.39 129.372 M1304.39 122.89 Q1314.56 122.89 1319.9 130.952 Q1325.29 138.972 1325.29 154.285 Q1325.29 169.557 1319.9 177.618 Q1314.56 185.639 1304.39 185.639 Q1294.22 185.639 1288.83 177.618 Q1283.49 169.557 1283.49 154.285 Q1283.49 138.972 1288.83 130.952 Q1294.22 122.89 1304.39 122.89 Z" fill="#000000" fill-rule="nonzero" fill-opacity="1"></path><path clip-path="url(#clip420)" d="M1339.67 174.175 L1348.22 174.175 L1348.22 184.464 L1339.67 184.464 L1339.67 174.175 Z" fill="#000000" fill-rule="nonzero" fill-opacity="1"></path><path clip-path="url(#clip420)" d="M1373.09 177.577 L1401.65 177.577 L1401.65 184.464 L1363.25 184.464 L1363.25 177.577 Q1367.91 172.757 1375.93 164.655 Q1383.99 156.513 1386.06 154.163 Q1389.99 149.748 1391.52 146.71 Q1393.1 143.631 1393.1 140.674 Q1393.1 135.853 1389.7 132.815 Q1386.34 129.777 1380.91 129.777 Q1377.06 129.777 1372.77 131.114 Q1368.52 132.45 1363.65 135.164 L1363.65 126.901 Q1368.6 124.916 1372.89 123.903 Q1377.18 122.89 1380.75 122.89 Q1390.15 122.89 1395.74 127.589 Q1401.33 132.288 1401.33 140.147 Q1401.33 143.874 1399.91 147.236 Q1398.53 150.558 1394.85 155.095 Q1393.83 156.27 1388.41 161.9 Q1382.98 167.491 1373.09 177.577 Z" fill="#000000" fill-rule="nonzero" fill-opacity="1"></path><path clip-path="url(#clip420)" d="M1418.91 123.984 L1451.03 123.984 L1451.03 130.871 L1426.4 130.871 L1426.4 145.697 Q1428.19 145.089 1429.97 144.806 Q1431.75 144.482 1433.53 144.482 Q1443.66 144.482 1449.57 150.031 Q1455.49 155.581 1455.49 165.06 Q1455.49 174.823 1449.41 180.251 Q1443.34 185.639 1432.28 185.639 Q1428.47 185.639 1424.5 184.991 Q1420.57 184.342 1416.36 183.046 L1416.36 174.823 Q1420 176.808 1423.89 177.78 Q1427.78 178.752 1432.11 178.752 Q1439.12 178.752 1443.21 175.066 Q1447.31 171.38 1447.31 165.06 Q1447.31 158.741 1443.21 155.054 Q1439.12 151.368 1432.11 151.368 Q1428.83 151.368 1425.55 152.097 Q1422.31 152.826 1418.91 154.366 L1418.91 123.984 Z" fill="#000000" fill-rule="nonzero" fill-opacity="1"></path><path clip-path="url(#clip420)" d="M1472.46 174.175 L1481.01 174.175 L1481.01 181.142 L1474.37 194.105 L1469.14 194.105 L1472.46 181.142 L1472.46 174.175 Z" fill="#000000" fill-rule="nonzero" fill-opacity="1"></path><path clip-path="url(#clip420)" d="M1541.85 129.372 Q1535.53 129.372 1532.33 135.61 Q1529.17 141.808 1529.17 154.285 Q1529.17 166.721 1532.33 172.959 Q1535.53 179.157 1541.85 179.157 Q1548.21 179.157 1551.37 172.959 Q1554.57 166.721 1554.57 154.285 Q1554.57 141.808 1551.37 135.61 Q1548.21 129.372 1541.85 129.372 M1541.85 122.89 Q1552.02 122.89 1557.37 130.952 Q1562.76 138.972 1562.76 154.285 Q1562.76 169.557 1557.37 177.618 Q1552.02 185.639 1541.85 185.639 Q1531.69 185.639 1526.3 177.618 Q1520.95 169.557 1520.95 154.285 Q1520.95 138.972 1526.3 130.952 Q1531.69 122.89 1541.85 122.89 Z" fill="#000000" fill-rule="nonzero" fill-opacity="1"></path><path clip-path="url(#clip420)" d="M1577.14 174.175 L1585.68 174.175 L1585.68 184.464 L1577.14 184.464 L1577.14 174.175 Z" fill="#000000" fill-rule="nonzero" fill-opacity="1"></path><path clip-path="url(#clip420)" d="M1604.93 177.577 L1618.29 177.577 L1618.29 131.438 L1603.75 134.354 L1603.75 126.901 L1618.21 123.984 L1626.4 123.984 L1626.4 177.577 L1639.76 177.577 L1639.76 184.464 L1604.93 184.464 L1604.93 177.577 Z" fill="#000000" fill-rule="nonzero" fill-opacity="1"></path><path clip-path="url(#clip420)" d="M1656.37 123.984 L1688.5 123.984 L1688.5 130.871 L1663.87 130.871 L1663.87 145.697 Q1665.65 145.089 1667.43 144.806 Q1669.21 144.482 1671 144.482 Q1681.12 144.482 1687.04 150.031 Q1692.95 155.581 1692.95 165.06 Q1692.95 174.823 1686.88 180.251 Q1680.8 185.639 1669.74 185.639 Q1665.93 185.639 1661.96 184.991 Q1658.03 184.342 1653.82 183.046 L1653.82 174.823 Q1657.47 176.808 1661.36 177.78 Q1665.24 178.752 1669.58 178.752 Q1676.59 178.752 1680.68 175.066 Q1684.77 171.38 1684.77 165.06 Q1684.77 158.741 1680.68 155.054 Q1676.59 151.368 1669.58 151.368 Q1666.3 151.368 1663.02 152.097 Q1659.78 152.826 1656.37 154.366 L1656.37 123.984 Z" fill="#000000" fill-rule="nonzero" fill-opacity="1"></path><path clip-path="url(#clip420)" d="M1709.93 174.175 L1718.47 174.175 L1718.47 181.142 L1711.83 194.105 L1706.6 194.105 L1709.93 181.142 L1709.93 174.175 Z" fill="#000000" fill-rule="nonzero" fill-opacity="1"></path><path clip-path="url(#clip420)" d="M1779.32 129.372 Q1773 129.372 1769.8 135.61 Q1766.64 141.808 1766.64 154.285 Q1766.64 166.721 1769.8 172.959 Q1773 179.157 1779.32 179.157 Q1785.68 179.157 1788.84 172.959 Q1792.04 166.721 1792.04 154.285 Q1792.04 141.808 1788.84 135.61 Q1785.68 129.372 1779.32 129.372 M1779.32 122.89 Q1789.49 122.89 1794.83 130.952 Q1800.22 138.972 1800.22 154.285 Q1800.22 169.557 1794.83 177.618 Q1789.49 185.639 1779.32 185.639 Q1769.15 185.639 1763.76 177.618 Q1758.42 169.557 1758.42 154.285 Q1758.42 138.972 1763.76 130.952 Q1769.15 122.89 1779.32 122.89 Z" fill="#000000" fill-rule="nonzero" fill-opacity="1"></path><path clip-path="url(#clip420)" d="M1814.6 174.175 L1823.15 174.175 L1823.15 184.464 L1814.6 184.464 L1814.6 174.175 Z" fill="#000000" fill-rule="nonzero" fill-opacity="1"></path><path clip-path="url(#clip420)" d="M1842.39 177.577 L1855.76 177.577 L1855.76 131.438 L1841.22 134.354 L1841.22 126.901 L1855.68 123.984 L1863.86 123.984 L1863.86 177.577 L1877.23 177.577 L1877.23 184.464 L1842.39 184.464 L1842.39 177.577 Z" fill="#000000" fill-rule="nonzero" fill-opacity="1"></path><path clip-path="url(#clip420)" d="M1894.61 174.175 L1903.15 174.175 L1903.15 181.142 L1896.51 194.105 L1891.28 194.105 L1894.61 181.142 L1894.61 174.175 Z" fill="#000000" fill-rule="nonzero" fill-opacity="1"></path><path clip-path="url(#clip420)" d="M1964 129.372 Q1957.68 129.372 1954.48 135.61 Q1951.32 141.808 1951.32 154.285 Q1951.32 166.721 1954.48 172.959 Q1957.68 179.157 1964 179.157 Q1970.36 179.157 1973.52 172.959 Q1976.72 166.721 1976.72 154.285 Q1976.72 141.808 1973.52 135.61 Q1970.36 129.372 1964 129.372 M1964 122.89 Q1974.17 122.89 1979.51 130.952 Q1984.9 138.972 1984.9 154.285 Q1984.9 169.557 1979.51 177.618 Q1974.17 185.639 1964 185.639 Q1953.83 185.639 1948.44 177.618 Q1943.1 169.557 1943.1 154.285 Q1943.1 138.972 1948.44 130.952 Q1953.83 122.89 1964 122.89 Z" fill="#000000" fill-rule="nonzero" fill-opacity="1"></path><path clip-path="url(#clip420)" d="M1999.28 174.175 L2007.83 174.175 L2007.83 184.464 L1999.28 184.464 L1999.28 174.175 Z" fill="#000000" fill-rule="nonzero" fill-opacity="1"></path><path clip-path="url(#clip420)" d="M2043.15 129.372 Q2036.83 129.372 2033.63 135.61 Q2030.47 141.808 2030.47 154.285 Q2030.47 166.721 2033.63 172.959 Q2036.83 179.157 2043.15 179.157 Q2049.51 179.157 2052.67 172.959 Q2055.87 166.721 2055.87 154.285 Q2055.87 141.808 2052.67 135.61 Q2049.51 129.372 2043.15 129.372 M2043.15 122.89 Q2053.32 122.89 2058.67 130.952 Q2064.06 138.972 2064.06 154.285 Q2064.06 169.557 2058.67 177.618 Q2053.32 185.639 2043.15 185.639 Q2032.99 185.639 2027.6 177.618 Q2022.25 169.557 2022.25 154.285 Q2022.25 138.972 2027.6 130.952 Q2032.99 122.89 2043.15 122.89 Z" fill="#000000" fill-rule="nonzero" fill-opacity="1"></path><path clip-path="url(#clip420)" d="M2078.52 123.984 L2110.64 123.984 L2110.64 130.871 L2086.01 130.871 L2086.01 145.697 Q2087.79 145.089 2089.58 144.806 Q2091.36 144.482 2093.14 144.482 Q2103.27 144.482 2109.18 150.031 Q2115.1 155.581 2115.1 165.06 Q2115.1 174.823 2109.02 180.251 Q2102.94 185.639 2091.89 185.639 Q2088.08 185.639 2084.11 184.991 Q2080.18 184.342 2075.97 183.046 L2075.97 174.823 Q2079.61 176.808 2083.5 177.78 Q2087.39 178.752 2091.72 178.752 Q2098.73 178.752 2102.82 175.066 Q2106.91 171.38 2106.91 165.06 Q2106.91 158.741 2102.82 155.054 Q2098.73 151.368 2091.72 151.368 Q2088.44 151.368 2085.16 152.097 Q2081.92 152.826 2078.52 154.366 L2078.52 123.984 Z" fill="#000000" fill-rule="nonzero" fill-opacity="1"></path><path clip-path="url(#clip420)" d="M2147.59 121.432 L2147.59 195.401 L2130.41 195.401 L2130.41 189.609 L2140.09 189.609 L2140.09 127.225 L2130.41 127.225 L2130.41 121.432 L2147.59 121.432 Z" fill="#000000" fill-rule="nonzero" fill-opacity="1"></path><polyline clip-path="url(#clip422)" style="stroke:#009af9; stroke-linecap:round; stroke-linejoin:round; stroke-width:4; stroke-opacity:1; fill:none" points="309.067,1388.11 805.108,797.958 1301.15,516.536 1797.19,336.92 2293.23,219.025 "></polyline>
<path clip-path="url(#clip420)" d="M319.649 328.94 L582.401 328.94 L582.401 225.26 L319.649 225.26  Z" fill="#ffffff" fill-rule="evenodd" fill-opacity="1"></path>
<polyline clip-path="url(#clip420)" style="stroke:#000000; stroke-linecap:round; stroke-linejoin:round; stroke-width:4; stroke-opacity:1; fill:none" points="319.649,328.94 582.401,328.94 582.401,225.26 319.649,225.26 319.649,328.94 "></polyline>
<polyline clip-path="url(#clip420)" style="stroke:#009af9; stroke-linecap:round; stroke-linejoin:round; stroke-width:4; stroke-opacity:1; fill:none" points="343.018,277.1 483.232,277.1 "></polyline>
<path clip-path="url(#clip420)" d="M520.444 296.787 Q518.638 301.417 516.926 302.829 Q515.213 304.241 512.342 304.241 L508.939 304.241 L508.939 300.676 L511.439 300.676 Q513.199 300.676 514.171 299.843 Q515.143 299.009 516.324 295.907 L517.088 293.963 L506.602 268.454 L511.115 268.454 L519.217 288.732 L527.319 268.454 L531.833 268.454 L520.444 296.787 Z" fill="#000000" fill-rule="nonzero" fill-opacity="1"></path><path clip-path="url(#clip420)" d="M539.124 290.445 L546.763 290.445 L546.763 264.079 L538.453 265.746 L538.453 261.486 L546.717 259.82 L551.393 259.82 L551.393 290.445 L559.032 290.445 L559.032 294.38 L539.124 294.38 L539.124 290.445 Z" fill="#000000" fill-rule="nonzero" fill-opacity="1"></path></svg>